<?xml version="1.0" encoding="utf-8"?>
<!-- Generator: Adobe Illustrator 21.0.0, SVG Export Plug-In . SVG Version: 6.00 Build 0)  -->
<svg version="1.1" id="Layer_1" xmlns="http://www.w3.org/2000/svg" xmlns:xlink="http://www.w3.org/1999/xlink" x="0px" y="0px"
	 width="80px" height="80px" viewBox="0 0 64 64" style="enable-background:new 0 0 64 64;" xml:space="preserve">
<style type="text/css">
	.st0{fill:none;stroke:#303133;stroke-width:2;stroke-miterlimit:10;}
</style>
<path class="st0" d="M32,0.9c17.2,0,31.1,13.9,31.1,31.1c0,17.2-13.9,31.1-31.1,31.1C14.8,63.1,0.9,49.2,0.9,32
	C0.9,14.8,14.8,0.9,32,0.9z"/>
<path class="st0" d="M10,32c0-5.6,2.1-11.3,6.4-15.6c8.6-8.6,22.5-8.6,31.1,0C51.9,20.7,54,26.4,54,32"/>
<path class="st0" d="M24,26l6.3,7.3"/>
<path class="st0" d="M32,33c1.1,0,2,0.9,2,2s-0.9,2-2,2c-1.1,0-2-0.9-2-2S30.9,33,32,33z"/>
</svg>
