<?xml version="1.0" encoding="utf-8"?>
<!-- Generator: Adobe Illustrator 21.0.0, SVG Export Plug-In . SVG Version: 6.00 Build 0)  -->
<svg version="1.1" id="Layer_1" xmlns="http://www.w3.org/2000/svg" xmlns:xlink="http://www.w3.org/1999/xlink" x="0px" y="0px"
	 viewBox="0 0 23.7 18.4" style="enable-background:new 0 0 23.7 18.4;" xml:space="preserve" height="24" width="24">
<style type="text/css">
	.st0{fill:none;}
	.st1{fill:#E3E9EB;}
	.st2{fill:#46525C;}
	.st3{fill:#FFFFFF;stroke:#2B7FC3;stroke-width:0.5;stroke-miterlimit:10;}
</style>
<g>
	<path class="st0" d="M10.9,13.7c0,0.1-0.1,0.1-0.2,0.1c-0.1,0-0.1,0-0.2-0.1l-0.2-0.2c-0.1,0-0.1,0-0.2-0.1l-2.6-2.6l-6.3,6.8H20
		v-0.1L14.7,7L10.9,13.7z"/>
	<path class="st0" d="M7.8,6.9c-0.1,0.5-0.5,1-0.9,1.3C7.4,7.9,7.7,7.4,7.8,6.9z"/>
	<path class="st0" d="M0.9,16.4l6-6.4c0,0,0.1-0.1,0.2-0.1s0.1,0,0.2,0.1l0.2,0.2c0,0,0,0,0,0c0.1,0,0.1,0,0.2,0.1l2.6,2.5l4-7
		c0-0.1,0.1-0.1,0.2-0.1s0.2,0,0.2,0.1L14.7,6c0,0,0.1,0,0.1,0c0.1,0,0.2,0,0.2,0.1l4.9,9.8v-10L17.9,8l-2.2-2.1l2.1-2.4l-0.9-0.9
		h-16V16.4z M5.5,4c0.5,0,1,0.2,1.4,0.5c0.8,0.4,1.4,1.2,1.4,2.1c0,1.3-1.1,2.3-2.3,2.3c-0.5,0-1-0.2-1.4-0.5
		C3.7,8.1,3.2,7.3,3.2,6.3C3.2,5,4.2,4,5.5,4z"/>
	<polygon class="st0" points="14.4,6.5 14.4,6.4 10.6,13.2 10.6,13.2 	"/>
	<path class="st0" d="M4.6,4.7C4,5,3.6,5.6,3.6,6.3c0,0,0,0,0,0C3.7,5.7,4.1,5.1,4.6,4.7z"/>
	<polygon class="st0" points="7.1,10.5 7.1,10.5 0.9,17.1 0.9,17.2 	"/>
	<path class="st0" d="M4.1,6.6c0,0.5,0.2,1,0.6,1.4c0.2,0.1,0.5,0.2,0.8,0.2c1,0,1.9-0.8,1.9-1.9c0-0.5-0.2-1-0.6-1.3
		C6.5,4.9,6.2,4.8,5.9,4.8C4.9,4.8,4.1,5.6,4.1,6.6z"/>
	<polygon class="st1" points="0.5,16.9 0.9,16.4 0.9,2.7 16.9,2.7 16.6,2.4 0.5,2.4 	"/>
	<path class="st1" d="M20.4,16.9l0.4,0.8c0,0.1,0,0.3-0.1,0.3c0,0-0.1,0-0.1,0c-0.1,0-0.2,0-0.2-0.1c0,0.1-0.1,0.2-0.2,0.2H0.4v0.1
		c0,0.1,0.1,0.2,0.2,0.2h20c0.1,0,0.2-0.1,0.2-0.2V6.5l-0.4-0.4V16.9z"/>
	<polygon class="st1" points="0.9,17.1 0.5,17.6 0.5,17.6 0.9,17.2 	"/>
	<path class="st1" d="M14.8,6c0,0-0.1,0-0.1,0L20,16.5v-0.6l-4.9-9.8C15,6,14.9,6,14.8,6z"/>
	<path class="st1" d="M7.5,10.2C7.5,10.2,7.5,10.2,7.5,10.2l2.7,2.7l0.1-0.1l-2.6-2.5C7.6,10.2,7.6,10.2,7.5,10.2z"/>
	<polygon class="st1" points="7.1,10.5 0.9,17.2 0.5,17.6 1.1,17.6 7.4,10.8 	"/>
	<path class="st1" d="M10.7,13.8c0.1,0,0.1,0,0.2-0.1L14.7,7l-0.3-0.5l-3.8,6.7l0,0l-0.1,0.2c0,0.1-0.1,0.1-0.2,0.1c0,0,0,0,0,0
		l0.2,0.2C10.5,13.8,10.6,13.8,10.7,13.8z"/>
	<path class="st1" d="M20.4,17.9c0,0.1,0.1,0.1,0.2,0.1c0,0,0.1,0,0.1,0c0.1,0,0.1-0.2,0.1-0.3l-0.4-0.8L20.4,17.9
		C20.4,17.9,20.4,17.9,20.4,17.9z"/>
	<path class="st1" d="M7.8,6.3c0,0.2,0,0.4-0.1,0.6c-0.1,0.6-0.4,1-0.9,1.3C6.5,8.5,6,8.7,5.5,8.7c-0.3,0-0.7-0.1-0.9-0.2
		c0.4,0.3,0.9,0.5,1.4,0.5c1.3,0,2.3-1.1,2.3-2.3c0-0.9-0.6-1.7-1.4-2.1C7.5,4.9,7.8,5.6,7.8,6.3z"/>
	<path class="st1" d="M3.6,6.3c0,0.7,0.4,1.3,1,1.6C4.3,7.6,4.1,7.2,4.1,6.6c0-1,0.8-1.9,1.9-1.9c0.3,0,0.6,0.1,0.9,0.2
		C6.5,4.7,6,4.5,5.5,4.5c-0.3,0-0.6,0.1-0.9,0.2C4.1,5.1,3.7,5.7,3.6,6.3z"/>
	<path class="st2" d="M0.5,16.9V2.4h16.1l-0.5-0.5H0.2C0.1,1.9,0,2,0,2.1v15.4c0-0.1,0-0.1,0-0.2L0.5,16.9z"/>
	<path class="st2" d="M20.4,17.9C20.4,17.9,20.4,17.9,20.4,17.9l0-1V6.1l-0.3-0.3L20,5.9v10v0.6l0.5,0.9c0,0.1,0,0.3-0.1,0.3
		c0,0-0.1,0-0.1,0c-0.1,0-0.2,0-0.2-0.1l0,0v0.1H1.1H0.5v-0.1l-0.1,0.1c-0.1,0.1-0.2,0.1-0.3,0c0,0-0.1-0.1-0.1-0.2v0.4
		c0,0.1,0.1,0.2,0.2,0.2h0.2h19.8C20.3,18.1,20.4,18,20.4,17.9z"/>
	<path class="st2" d="M0.4,17.7L0.4,17.7l0.5-0.5l6.2-6.6l0,0l0.3,0.3l2.6,2.6c0,0,0.1,0.1,0.2,0.1c0,0,0,0,0,0c0.1,0,0.1,0,0.2-0.1
		l0.1-0.2l3.8-6.7l0,0L14.7,7L20,17.5l0,0c0,0.1,0.1,0.1,0.2,0.1c0,0,0.1,0,0.1,0c0.1,0,0.1-0.2,0.1-0.3L20,16.5L14.7,6l-0.1-0.2
		c0-0.1-0.1-0.1-0.2-0.1s-0.2,0-0.2,0.1l-4,7l-0.1,0.1l-2.7-2.7L7.2,10c0,0-0.1-0.1-0.2-0.1s-0.1,0-0.2,0.1l-6,6.4l-0.4,0.5L0,17.3
		c0,0,0,0.1,0,0.2c0,0,0,0,0,0c0,0.1,0,0.1,0.1,0.2C0.2,17.8,0.3,17.8,0.4,17.7z"/>
	<path class="st2" d="M4.6,8.5c0.3,0.1,0.6,0.2,0.9,0.2c0.5,0,1-0.2,1.4-0.5c0.4-0.3,0.8-0.8,0.9-1.3c0-0.2,0.1-0.4,0.1-0.6
		c0-0.8-0.4-1.4-0.9-1.9C6.5,4.2,6,4,5.5,4C4.2,4,3.2,5,3.2,6.3C3.2,7.3,3.7,8.1,4.6,8.5z M4.6,4.7c0.3-0.1,0.6-0.2,0.9-0.2
		c0.5,0,1,0.2,1.3,0.6c0.3,0.3,0.5,0.8,0.6,1.3c0,1-0.8,1.9-1.9,1.9C5.2,8.2,4.9,8.1,4.7,8c-0.6-0.3-1-0.9-1-1.6c0,0,0,0,0,0
		C3.6,5.6,4,5,4.6,4.7z"/>
</g>
<polygon class="st3" points="23.3,1.3 22.4,0.4 20.1,2.7 17.8,0.4 16.8,1.3 19.1,3.6 16.8,5.9 17.8,6.8 20.1,4.5 22.4,6.8 23.3,5.9
	21,3.6 "/>
</svg>
