<svg height="24" width="24" xmlns="http://www.w3.org/2000/svg" viewBox="0 0 30.85 23.31"><defs><style>.cls-1,.cls-2{fill:#e3e9ea;}.cls-2,.cls-4{stroke:#46525c;stroke-linecap:round;stroke-linejoin:round;stroke-width:0.5px;}.cls-3{fill:#46525c;}.cls-4{fill:none;}.cls-5{fill:#297fc3;}</style></defs><title>import-all</title><path class="cls-1" d="M.74,16.34a.27.27,0,0,0,0,.54H22.56v-.54Z"/><line class="cls-1" x1="22.56" y1="16.34" x2="22.56" y2="16.88"/><path class="cls-1" d="M19,23.31H8.24a.27.27,0,1,1,0-.54H19a.27.27,0,1,1,0,.54Z"/><path class="cls-1" d="M21,20.1"/><line class="cls-1" x1="25.67" y1="10.18" x2="25.11" y2="10.18"/><path class="cls-1" d="M25.67,10.18V2.67A2.42,2.42,0,0,0,23.26.26H2.88A2.42,2.42,0,0,0,.47,2.67v15A2.42,2.42,0,0,0,2.88,20.1H21.45l-.55-.54h-18A1.88,1.88,0,0,1,1,17.68v-15A1.88,1.88,0,0,1,2.88.79H23.26a1.88,1.88,0,0,1,1.88,1.88v7.51"/><path id="_Path_" data-name="&lt;Path&gt;" class="cls-2" d="M1.81,12.32"/><path class="cls-1" d="M13.61,23.31a.27.27,0,0,1-.27-.27V19.83a.27.27,0,1,1,.54,0V23A.27.27,0,0,1,13.61,23.31Z"/><path class="cls-1" d="M25.38,23.31h0a.26.26,0,0,1-.18-.08L20,18a.26.26,0,0,1,.18-.44h2.86V11.07a.26.26,0,0,1,.26-.26h4.17a.26.26,0,0,1,.26.26v6.51h2.85a.26.26,0,0,1,.18.44l-5.21,5.21A.26.26,0,0,1,25.38,23.31ZM20.81,18.1l4.57,4.58L30,18.1H27.48a.26.26,0,0,1-.26-.26V11.34H23.57v6.51a.26.26,0,0,1-.26.26Z"/><path class="cls-3" d="M.27,16.09a.27.27,0,0,0,0,.54H22.09v-.54Z"/><line class="cls-3" x1="22.09" y1="16.09" x2="22.09" y2="16.62"/><path class="cls-3" d="M18.5,23.06H7.78a.27.27,0,0,1,0-.54H18.5a.27.27,0,1,1,0,.54Z"/><path class="cls-3" d="M20.56,19.84"/><line class="cls-3" x1="25.2" y1="9.92" x2="24.64" y2="9.92"/><path class="cls-3" d="M25.2,9.92V2.41A2.42,2.42,0,0,0,22.79,0H2.41A2.42,2.42,0,0,0,0,2.41v15a2.42,2.42,0,0,0,2.41,2.41H21l-.55-.54h-18A1.88,1.88,0,0,1,.54,17.43v-15A1.88,1.88,0,0,1,2.41.54H22.79a1.88,1.88,0,0,1,1.88,1.88V9.92"/><path id="_Path_2" data-name="&lt;Path&gt;" class="cls-4" d="M1.34,12.06"/><path class="cls-3" d="M13.14,23.06a.27.27,0,0,1-.27-.27V19.57a.27.27,0,1,1,.54,0v3.22A.27.27,0,0,1,13.14,23.06Z"/><path class="cls-5" d="M24.91,23.06h0a.26.26,0,0,1-.18-.08l-5.19-5.21a.26.26,0,0,1,.18-.44h2.86V10.82a.26.26,0,0,1,.26-.26H27a.26.26,0,0,1,.26.26v6.51h2.85a.26.26,0,0,1,.18.44L25.1,23A.26.26,0,0,1,24.91,23.06Zm-4.57-5.21,4.57,4.58,4.58-4.58H27a.26.26,0,0,1-.26-.26V11.08H23.1v6.51a.26.26,0,0,1-.26.26Z"/></svg>
