<svg id="Layer_1" data-name="Layer 1" xmlns="http://www.w3.org/2000/svg" viewBox="0 0 26.19 21.77" height="24" width="24"><defs><style>.cls-1{fill:#e3e9ea;}.cls-2,.cls-4{fill:none;stroke-width:0.5px;}.cls-2{stroke:#e3e9ea;stroke-miterlimit:10;}.cls-3{fill:#46525c;}.cls-4{stroke:#277fc3;stroke-linecap:round;stroke-linejoin:round;}</style></defs><title>import-widgets</title><path class="cls-1" d="M23.62,21.77H3A2.52,2.52,0,0,1,.4,19.3V2.84A2.52,2.52,0,0,1,3,.37H23.62a2.52,2.52,0,0,1,2.57,2.47V19.3A2.52,2.52,0,0,1,23.62,21.77ZM3,.92A2,2,0,0,0,1,2.84V19.3a2,2,0,0,0,2,1.92H23.62a2,2,0,0,0,2-1.92V2.84a2,2,0,0,0-2-1.92Z"/><path id="_Compound_Path_" data-name="&lt;Compound Path&gt;" class="cls-2" d="M18.92,12.62l-1.26-1a4.57,4.57,0,0,0,0-.58,3.09,3.09,0,0,0,0-.58l1.25-1A.31.31,0,0,0,19,9.14l-1.18-2A.3.3,0,0,0,17.44,7L16,7.56A4,4,0,0,0,15,7l-.22-1.55a.28.28,0,0,0-.28-.25H12.12a.3.3,0,0,0-.29.25L11.6,7a4.7,4.7,0,0,0-1,.58L9.14,7a.31.31,0,0,0-.36.13l-1.18,2a.29.29,0,0,0,.07.38l1.25,1a4.74,4.74,0,0,0,0,1.15l-1.25,1A.31.31,0,0,0,7.6,13l1.18,2a.3.3,0,0,0,.36.13l1.46-.59a4,4,0,0,0,1,.58l.22,1.55a.29.29,0,0,0,.29.25h2.35a.3.3,0,0,0,.29-.25L15,15.15a4.35,4.35,0,0,0,1-.58l1.47.59a.31.31,0,0,0,.36-.13L19,13A.31.31,0,0,0,18.92,12.62ZM13.3,13a2,2,0,1,1,2-2A2,2,0,0,1,13.3,13Z"/><path class="cls-3" d="M23.22,21.4H2.57A2.52,2.52,0,0,1,0,18.93V2.47A2.52,2.52,0,0,1,2.57,0H23.22a2.52,2.52,0,0,1,2.57,2.47V18.93A2.52,2.52,0,0,1,23.22,21.4ZM2.57.55a2,2,0,0,0-2,1.92V18.93a2,2,0,0,0,2,1.92H23.22a2,2,0,0,0,2-1.92V2.47a2,2,0,0,0-2-1.92Z"/><path id="_Compound_Path_2" data-name="&lt;Compound Path&gt;" class="cls-4" d="M18.52,12.25l-1.26-1a4.57,4.57,0,0,0,0-.58,3.09,3.09,0,0,0,0-.58l1.25-1a.31.31,0,0,0,.07-.38l-1.18-2A.3.3,0,0,0,17,6.6l-1.46.59a4,4,0,0,0-1-.58l-.22-1.55a.28.28,0,0,0-.28-.25H11.72a.3.3,0,0,0-.29.25L11.2,6.62a4.7,4.7,0,0,0-1,.58L8.74,6.6a.31.31,0,0,0-.36.13l-1.18,2a.29.29,0,0,0,.07.38l1.25,1a4.74,4.74,0,0,0,0,1.15l-1.25,1a.31.31,0,0,0-.07.38l1.18,2a.3.3,0,0,0,.36.13l1.46-.59a4,4,0,0,0,1,.58l.22,1.55a.29.29,0,0,0,.29.25h2.35a.3.3,0,0,0,.29-.25l.22-1.55a4.35,4.35,0,0,0,1-.58l1.47.59a.31.31,0,0,0,.36-.13l1.18-2A.31.31,0,0,0,18.52,12.25Zm-5.62.41a2,2,0,1,1,2-2A2,2,0,0,1,12.89,12.66Z"/></svg>
