<?xml version="1.0" encoding="utf-8"?>
<!-- Generator: Adobe Illustrator 23.0.1, SVG Export Plug-In . SVG Version: 6.00 Build 0)  -->
<svg version="1.1" id="Layer_1" xmlns="http://www.w3.org/2000/svg" xmlns:xlink="http://www.w3.org/1999/xlink" x="0px" y="0px"
	 viewBox="0 0 512 512" style="enable-background:new 0 0 512 512;" xml:space="preserve">
<style type="text/css">
	.st0{fill:#FFFFFF;}
</style>
<g>
	<g>
		<path class="st0" d="M344.2,12.6c-41.4,0-74.9,33.5-74.9,74.9c0,0.1,0,0.2,0,0.2c0,0.1,0,0.3,0,0.4c0,0.2,0,0.3,0,0.5l0-0.1v410.8
			h74.9c41.4,0,74.9-33.5,74.9-74.9V12.6H344.2z"/>
	</g>
	<path class="st0" d="M167.8,349.4c41.3,0,74.9,33.5,74.9,74.9c0,0.1,0,0.1,0,0.2c0,0.1,0,0.3,0,0.4c0,0.2,0,0.3,0,0.5l0-0.1v74.1
		h-74.9c-41.3,0-74.9-33.5-74.9-74.9v-75.1H167.8z"/>
</g>
</svg>
