<?xml version="1.0" encoding="utf-8"?>
<!-- Generator: Adobe Illustrator 23.0.1, SVG Export Plug-In . SVG Version: 6.00 Build 0)  -->
<svg version="1.1" id="Layer_1" xmlns="http://www.w3.org/2000/svg" xmlns:xlink="http://www.w3.org/1999/xlink" x="0px" y="0px"
	 viewBox="0 0 512 512" style="enable-background:new 0 0 512 512;" xml:space="preserve">
<style type="text/css">
	.st0{fill:#FFFFFF;}
	.st1{fill:#2D89EF;}
	.st2{opacity:0.7;fill:#FFFFFF;}
</style>
<g>
	<g>
		<path class="st0" d="M167.8,498.5c-40.804,0-74-33.196-74-74v-74.199h74c40.804,0,74,33.195,74,73.999v74.2H167.8z
			 M195.796,470.207c-4.069,0-7.38,3.312-7.38,7.381s3.311,7.381,7.38,7.381h27.581c4.069,0,7.38-3.312,7.38-7.381
			s-3.311-7.381-7.38-7.381H195.796z M149.754,470.207c-4.069,0-7.38,3.312-7.38,7.381s3.311,7.381,7.38,7.381h21.047
			c4.069,0,7.38-3.312,7.38-7.381s-3.311-7.381-7.38-7.381H149.754z M195.796,442.996c-4.069,0-7.38,3.312-7.38,7.381
			s3.311,7.381,7.38,7.381h27.581c4.069,0,7.38-3.312,7.38-7.381s-3.311-7.381-7.38-7.381H195.796z M115.03,442.996
			c-4.069,0-7.38,3.312-7.38,7.381s3.311,7.381,7.38,7.381h55.724c4.069,0,7.38-3.312,7.38-7.381s-3.311-7.381-7.38-7.381H115.03z
			 M195.796,415.785c-4.069,0-7.38,3.312-7.38,7.381s3.311,7.381,7.38,7.381h22.022c4.069,0,7.38-3.312,7.38-7.381
			s-3.311-7.381-7.38-7.381H195.796z M115.03,363.463c-4.069,0-7.38,3.312-7.38,7.381v52.322c0,4.069,3.311,7.381,7.38,7.381h55.724
			c4.069,0,7.38-3.312,7.38-7.381v-52.322c0-4.069-3.311-7.381-7.38-7.381H115.03z M195.796,388.574c-4.069,0-7.38,3.312-7.38,7.381
			s3.311,7.381,7.38,7.381h15.584c4.069,0,7.38-3.312,7.38-7.381s-3.311-7.381-7.38-7.381H195.796z M195.38,363.463
			c-4.069,0-7.38,3.312-7.38,7.381s3.311,7.381,7.38,7.381h1.147c4.069,0,7.38-3.312,7.38-7.381s-3.311-7.381-7.38-7.381H195.38z"/>
		<path class="st1" d="M167.8,351.2c40.307,0,73.1,32.793,73.1,73.1v0.2v0.4v0.4v0.1v72.2h-73.1c-40.307,0-73.1-32.793-73.1-73.1
			v-73.3H167.8 M195.38,379.124h1.147c4.566,0,8.28-3.715,8.28-8.28s-3.714-8.28-8.28-8.28h-1.147c-4.566,0-8.28,3.715-8.28,8.28
			S190.814,379.124,195.38,379.124 M115.03,431.446h55.724c4.566,0,8.28-3.715,8.28-8.28v-52.322c0-4.566-3.714-8.28-8.28-8.28
			H115.03c-4.566,0-8.28,3.715-8.28,8.28v52.322C106.75,427.732,110.465,431.446,115.03,431.446 M195.796,404.236h15.584
			c4.566,0,8.28-3.715,8.28-8.28s-3.714-8.28-8.28-8.28h-15.584c-4.566,0-8.28,3.715-8.28,8.28S191.23,404.236,195.796,404.236
			 M195.796,431.446h22.022c4.566,0,8.28-3.715,8.28-8.28s-3.714-8.28-8.28-8.28h-22.022c-4.566,0-8.28,3.715-8.28,8.28
			S191.23,431.446,195.796,431.446 M195.796,458.657h27.581c4.566,0,8.28-3.715,8.28-8.28s-3.714-8.28-8.28-8.28h-27.581
			c-4.566,0-8.28,3.715-8.28,8.28S191.23,458.657,195.796,458.657 M115.03,458.657h55.724c4.566,0,8.28-3.715,8.28-8.28
			s-3.714-8.28-8.28-8.28H115.03c-4.566,0-8.28,3.715-8.28,8.28S110.465,458.657,115.03,458.657 M195.796,485.868h27.581
			c4.566,0,8.28-3.715,8.28-8.28s-3.714-8.28-8.28-8.28h-27.581c-4.566,0-8.28,3.715-8.28,8.28S191.23,485.868,195.796,485.868
			 M149.754,485.868h21.047c4.566,0,8.28-3.715,8.28-8.28s-3.714-8.28-8.28-8.28h-21.047c-4.566,0-8.28,3.715-8.28,8.28
			S145.188,485.868,149.754,485.868 M167.8,349.4H92.9v75.1c0,41.4,33.6,74.9,74.9,74.9h74.9v-74c0-0.04,0-0.066,0-0.1
			c0-0.134,0-0.24,0-0.4c0-0.1,0-0.3,0-0.4c0-0.1,0-0.1,0-0.2C242.7,382.9,209.1,349.4,167.8,349.4L167.8,349.4z M195.38,377.324
			c-3.579,0-6.48-2.901-6.48-6.48s2.901-6.48,6.48-6.48h1.147c3.579,0,6.48,2.901,6.48,6.48s-2.901,6.48-6.48,6.48H195.38
			L195.38,377.324z M115.03,429.646c-3.579,0-6.48-2.901-6.48-6.48v-52.322c0-3.579,2.901-6.48,6.48-6.48h55.724
			c3.579,0,6.48,2.901,6.48,6.48v52.322c0,3.579-2.901,6.48-6.48,6.48H115.03L115.03,429.646z M195.796,402.436
			c-3.579,0-6.48-2.901-6.48-6.48s2.901-6.48,6.48-6.48h15.584c3.579,0,6.48,2.901,6.48,6.48s-2.901,6.48-6.48,6.48H195.796
			L195.796,402.436z M195.796,429.646c-3.579,0-6.48-2.901-6.48-6.48s2.901-6.48,6.48-6.48h22.022c3.579,0,6.48,2.901,6.48,6.48
			s-2.901,6.48-6.48,6.48H195.796L195.796,429.646z M195.796,456.857c-3.579,0-6.48-2.901-6.48-6.48s2.901-6.48,6.48-6.48h27.581
			c3.579,0,6.48,2.901,6.48,6.48s-2.901,6.48-6.48,6.48H195.796L195.796,456.857z M115.03,456.857c-3.579,0-6.48-2.901-6.48-6.48
			s2.901-6.48,6.48-6.48h55.724c3.579,0,6.48,2.901,6.48,6.48s-2.901,6.48-6.48,6.48H115.03L115.03,456.857z M195.796,484.068
			c-3.579,0-6.48-2.901-6.48-6.48s2.901-6.48,6.48-6.48h27.581c3.579,0,6.48,2.901,6.48,6.48s-2.901,6.48-6.48,6.48H195.796
			L195.796,484.068z M149.754,484.068c-3.579,0-6.48-2.901-6.48-6.48s2.901-6.48,6.48-6.48h21.047c3.579,0,6.48,2.901,6.48,6.48
			s-2.901,6.48-6.48,6.48H149.754L149.754,484.068z"/>
	</g>
	<g>
		<path class="st0" d="M270.2,498.399V87.5c0-40.804,33.196-74,74-74h73.999v410.9c0,40.804-33.195,73.999-73.999,73.999H270.2z
			 M342.015,470.207c-4.069,0-7.381,3.312-7.381,7.381s3.312,7.381,7.381,7.381h24.058c4.069,0,7.381-3.312,7.381-7.381
			s-3.312-7.381-7.381-7.381H342.015z M289.728,470.207c-4.069,0-7.381,3.312-7.381,7.381s3.312,7.381,7.381,7.381h29.655
			c4.069,0,7.381-3.312,7.381-7.381s-3.312-7.381-7.381-7.381H289.728z M342.015,444.888c-4.069,0-7.381,3.312-7.381,7.381
			s3.312,7.381,7.381,7.381h49.015c4.069,0,7.381-3.312,7.381-7.381s-3.312-7.381-7.381-7.381H342.015z M289.728,444.888
			c-4.069,0-7.381,3.312-7.381,7.381s3.312,7.381,7.381,7.381h29.655c4.069,0,7.381-3.312,7.381-7.381s-3.312-7.381-7.381-7.381
			H289.728z M342.015,419.568c-4.069,0-7.381,3.312-7.381,7.381s3.312,7.381,7.381,7.381h57.178c4.069,0,7.381-3.312,7.381-7.381
			s-3.312-7.381-7.381-7.381H342.015z M289.728,419.568c-4.069,0-7.381,3.312-7.381,7.381s3.312,7.381,7.381,7.381h29.655
			c4.069,0,7.381-3.312,7.381-7.381s-3.312-7.381-7.381-7.381H289.728z M342.015,394.249c-4.069,0-7.381,3.312-7.381,7.381
			s3.312,7.381,7.381,7.381h57.178c4.069,0,7.381-3.312,7.381-7.381s-3.312-7.381-7.381-7.381H342.015z M289.728,394.249
			c-4.069,0-7.381,3.312-7.381,7.381s3.312,7.381,7.381,7.381h29.655c4.069,0,7.381-3.312,7.381-7.381s-3.312-7.381-7.381-7.381
			H289.728z M342.015,368.93c-4.069,0-7.381,3.312-7.381,7.381s3.312,7.381,7.381,7.381h57.178c4.069,0,7.381-3.312,7.381-7.381
			s-3.312-7.381-7.381-7.381H342.015z M289.728,368.93c-4.069,0-7.381,3.312-7.381,7.381s3.312,7.381,7.381,7.381h29.655
			c4.069,0,7.381-3.312,7.381-7.381s-3.312-7.381-7.381-7.381H289.728z M384.684,343.61c-4.069,0-7.381,3.312-7.381,7.381
			s3.312,7.381,7.381,7.381h14.509c4.069,0,7.381-3.312,7.381-7.381s-3.312-7.381-7.381-7.381H384.684z M289.728,343.61
			c-4.069,0-7.381,3.312-7.381,7.381s3.312,7.381,7.381,7.381h72.271c4.069,0,7.381-3.312,7.381-7.381s-3.312-7.381-7.381-7.381
			H289.728z M384.684,318.291c-4.069,0-7.381,3.312-7.381,7.381s3.312,7.381,7.381,7.381h14.509c4.069,0,7.381-3.312,7.381-7.381
			s-3.312-7.381-7.381-7.381H384.684z M289.728,318.291c-4.069,0-7.381,3.312-7.381,7.381s3.312,7.381,7.381,7.381h72.271
			c4.069,0,7.381-3.312,7.381-7.381s-3.312-7.381-7.381-7.381H289.728z M384.684,292.972c-4.069,0-7.381,3.312-7.381,7.381
			s3.312,7.381,7.381,7.381h14.509c4.069,0,7.381-3.312,7.381-7.381s-3.312-7.381-7.381-7.381H384.684z M289.728,292.972
			c-4.069,0-7.381,3.312-7.381,7.381s3.312,7.381,7.381,7.381h72.271c4.069,0,7.381-3.312,7.381-7.381s-3.312-7.381-7.381-7.381
			H289.728z M384.684,267.652c-4.069,0-7.381,3.312-7.381,7.381s3.312,7.381,7.381,7.381h14.509c4.069,0,7.381-3.312,7.381-7.381
			s-3.312-7.381-7.381-7.381H384.684z M289.728,267.652c-4.069,0-7.381,3.312-7.381,7.381s3.312,7.381,7.381,7.381h72.271
			c4.069,0,7.381-3.312,7.381-7.381s-3.312-7.381-7.381-7.381H289.728z M365.676,242.334c-4.069,0-7.381,3.311-7.381,7.38
			s3.312,7.38,7.381,7.38h33.517c4.069,0,7.381-3.311,7.381-7.38s-3.312-7.38-7.381-7.38H365.676z M289.728,191.695
			c-4.069,0-7.381,3.311-7.381,7.38v50.639c0,4.069,3.312,7.38,7.381,7.38h53.14c4.069,0,7.381-3.311,7.381-7.38v-50.639
			c0-4.069-3.312-7.38-7.381-7.38H289.728z M365.676,217.015c-4.069,0-7.381,3.311-7.381,7.38s3.312,7.38,7.381,7.38h33.517
			c4.069,0,7.381-3.311,7.381-7.38s-3.312-7.38-7.381-7.38H365.676z M365.676,191.695c-4.069,0-7.381,3.311-7.381,7.38
			s3.312,7.38,7.381,7.38h33.517c4.069,0,7.381-3.311,7.381-7.38s-3.312-7.38-7.381-7.38H365.676z M365.606,166.376
			c-4.069,0-7.381,3.311-7.381,7.38s3.312,7.38,7.381,7.38h33.586c4.069,0,7.381-3.311,7.381-7.38s-3.312-7.38-7.381-7.38H365.606z
			 M289.728,166.376c-4.069,0-7.381,3.311-7.381,7.38s3.312,7.38,7.381,7.38h53.14c4.069,0,7.381-3.311,7.381-7.38
			s-3.312-7.38-7.381-7.38H289.728z M365.606,141.057c-4.069,0-7.381,3.311-7.381,7.38s3.312,7.38,7.381,7.38h33.586
			c4.069,0,7.381-3.311,7.381-7.38s-3.312-7.38-7.381-7.38H365.606z M289.728,141.057c-4.069,0-7.381,3.311-7.381,7.38
			s3.312,7.38,7.381,7.38h53.14c4.069,0,7.381-3.311,7.381-7.38s-3.312-7.38-7.381-7.38H289.728z M365.606,115.737
			c-4.069,0-7.381,3.311-7.381,7.38s3.312,7.38,7.381,7.38h33.586c4.069,0,7.381-3.311,7.381-7.38s-3.312-7.38-7.381-7.38H365.606z
			 M289.728,115.737c-4.069,0-7.381,3.311-7.381,7.38s3.312,7.38,7.381,7.38h53.14c4.069,0,7.381-3.311,7.381-7.38
			s-3.312-7.38-7.381-7.38H289.728z M365.633,90.418c-4.069,0-7.381,3.311-7.381,7.38s3.312,7.38,7.381,7.38h33.56
			c4.069,0,7.381-3.311,7.381-7.38s-3.312-7.38-7.381-7.38H365.633z M289.728,90.418c-4.069,0-7.381,3.311-7.381,7.38
			s3.312,7.38,7.381,7.38h53.204c4.069,0,7.381-3.311,7.381-7.38s-3.312-7.38-7.381-7.38H289.728z M351.497,26.302
			c-35.867,0-62.283,16.913-68.938,44.139c-0.541,2.216-0.044,4.516,1.364,6.31c1.407,1.794,3.523,2.823,5.805,2.823h109.465
			c4.069,0,7.381-3.311,7.381-7.38V33.682c0-4.069-3.312-7.38-7.381-7.38H351.497z"/>
		<path class="st1" d="M417.3,14.4v410c0,19.542-7.599,37.904-21.398,51.702c-13.799,13.799-32.16,21.398-51.702,21.398h-73.1V88.6
			v-0.1v-0.4v-0.4v-0.2c0-19.542,7.599-37.904,21.398-51.702C306.296,21.999,324.658,14.4,344.2,14.4H417.3 M289.728,80.473h109.465
			c4.566,0,8.28-3.714,8.28-8.28V33.682c0-4.566-3.715-8.28-8.28-8.28h-47.695c-36.303,0-63.054,17.176-69.813,44.826
			c-0.607,2.486-0.049,5.066,1.531,7.078C284.794,79.319,287.168,80.473,289.728,80.473 M365.633,106.078h33.56
			c4.566,0,8.28-3.714,8.28-8.28c0-4.566-3.715-8.28-8.28-8.28h-33.56c-4.566,0-8.28,3.714-8.28,8.28
			C357.352,102.363,361.067,106.078,365.633,106.078 M289.728,106.078h53.204c4.566,0,8.28-3.714,8.28-8.28
			c0-4.566-3.715-8.28-8.28-8.28h-53.204c-4.566,0-8.28,3.714-8.28,8.28C281.447,102.363,285.162,106.078,289.728,106.078
			 M365.606,131.397h33.586c4.566,0,8.28-3.714,8.28-8.28c0-4.566-3.715-8.28-8.28-8.28h-33.586c-4.566,0-8.28,3.714-8.28,8.28
			C357.326,127.683,361.041,131.397,365.606,131.397 M289.728,131.397h53.14c4.566,0,8.28-3.714,8.28-8.28
			c0-4.566-3.715-8.28-8.28-8.28h-53.14c-4.566,0-8.28,3.714-8.28,8.28C281.447,127.683,285.162,131.397,289.728,131.397
			 M365.606,156.717h33.586c4.566,0,8.28-3.714,8.28-8.28c0-4.566-3.715-8.28-8.28-8.28h-33.586c-4.566,0-8.28,3.714-8.28,8.28
			C357.326,153.002,361.041,156.717,365.606,156.717 M289.728,156.717h53.14c4.566,0,8.28-3.714,8.28-8.28
			c0-4.566-3.715-8.28-8.28-8.28h-53.14c-4.566,0-8.28,3.714-8.28,8.28C281.447,153.002,285.162,156.717,289.728,156.717
			 M365.606,182.036h33.586c4.566,0,8.28-3.714,8.28-8.28c0-4.566-3.715-8.28-8.28-8.28h-33.586c-4.566,0-8.28,3.714-8.28,8.28
			C357.326,178.321,361.041,182.036,365.606,182.036 M289.728,182.036h53.14c4.566,0,8.28-3.714,8.28-8.28
			c0-4.566-3.715-8.28-8.28-8.28h-53.14c-4.566,0-8.28,3.714-8.28,8.28C281.447,178.321,285.162,182.036,289.728,182.036
			 M365.676,207.355h33.517c4.566,0,8.28-3.714,8.28-8.28c0-4.566-3.715-8.28-8.28-8.28h-33.517c-4.566,0-8.28,3.714-8.28,8.28
			C357.395,203.641,361.11,207.355,365.676,207.355 M289.728,257.994h53.14c4.566,0,8.28-3.714,8.28-8.28v-50.639
			c0-4.566-3.715-8.28-8.28-8.28h-53.14c-4.566,0-8.28,3.714-8.28,8.28v50.639C281.447,254.279,285.162,257.994,289.728,257.994
			 M365.676,232.675h33.517c4.566,0,8.28-3.714,8.28-8.28c0-4.566-3.715-8.28-8.28-8.28h-33.517c-4.566,0-8.28,3.714-8.28,8.28
			C357.395,228.96,361.11,232.675,365.676,232.675 M365.676,257.994h33.517c4.566,0,8.28-3.714,8.28-8.28
			c0-4.566-3.715-8.28-8.28-8.28h-33.517c-4.566,0-8.28,3.714-8.28,8.28C357.395,254.279,361.11,257.994,365.676,257.994
			 M384.684,283.314h14.509c4.566,0,8.28-3.715,8.28-8.28c0-4.566-3.715-8.28-8.28-8.28h-14.509c-4.566,0-8.28,3.715-8.28,8.28
			C376.403,279.599,380.118,283.314,384.684,283.314 M289.728,283.314h72.271c4.566,0,8.28-3.715,8.28-8.28
			c0-4.566-3.715-8.28-8.28-8.28h-72.271c-4.566,0-8.28,3.715-8.28,8.28C281.447,279.599,285.162,283.314,289.728,283.314
			 M384.684,308.633h14.509c4.566,0,8.28-3.715,8.28-8.28c0-4.566-3.715-8.28-8.28-8.28h-14.509c-4.566,0-8.28,3.715-8.28,8.28
			C376.403,304.918,380.118,308.633,384.684,308.633 M289.728,308.633h72.271c4.566,0,8.28-3.715,8.28-8.28
			c0-4.566-3.715-8.28-8.28-8.28h-72.271c-4.566,0-8.28,3.715-8.28,8.28C281.447,304.918,285.162,308.633,289.728,308.633
			 M384.684,333.952h14.509c4.566,0,8.28-3.715,8.28-8.28c0-4.566-3.715-8.28-8.28-8.28h-14.509c-4.566,0-8.28,3.715-8.28,8.28
			C376.403,330.238,380.118,333.952,384.684,333.952 M289.728,333.952h72.271c4.566,0,8.28-3.715,8.28-8.28
			c0-4.566-3.715-8.28-8.28-8.28h-72.271c-4.566,0-8.28,3.715-8.28,8.28C281.447,330.238,285.162,333.952,289.728,333.952
			 M384.684,359.272h14.509c4.566,0,8.28-3.715,8.28-8.28s-3.715-8.28-8.28-8.28h-14.509c-4.566,0-8.28,3.715-8.28,8.28
			S380.118,359.272,384.684,359.272 M289.728,359.272h72.271c4.566,0,8.28-3.715,8.28-8.28s-3.715-8.28-8.28-8.28h-72.271
			c-4.566,0-8.28,3.715-8.28,8.28S285.162,359.272,289.728,359.272 M342.015,384.591h57.178c4.566,0,8.28-3.715,8.28-8.281
			c0-4.566-3.715-8.28-8.28-8.28h-57.178c-4.566,0-8.28,3.715-8.28,8.28C333.734,380.876,337.449,384.591,342.015,384.591
			 M289.728,384.591h29.655c4.566,0,8.28-3.715,8.28-8.281c0-4.566-3.715-8.28-8.28-8.28h-29.655c-4.566,0-8.28,3.715-8.28,8.28
			C281.447,380.876,285.162,384.591,289.728,384.591 M342.015,409.91h57.178c4.566,0,8.28-3.715,8.28-8.28
			c0-4.566-3.715-8.281-8.28-8.281h-57.178c-4.566,0-8.28,3.715-8.28,8.281C333.734,406.196,337.449,409.91,342.015,409.91
			 M289.728,409.91h29.655c4.566,0,8.28-3.715,8.28-8.28c0-4.566-3.715-8.281-8.28-8.281h-29.655c-4.566,0-8.28,3.715-8.28,8.281
			C281.447,406.196,285.162,409.91,289.728,409.91 M342.015,435.23h57.178c4.566,0,8.28-3.715,8.28-8.28s-3.715-8.28-8.28-8.28
			h-57.178c-4.566,0-8.28,3.715-8.28,8.28S337.449,435.23,342.015,435.23 M289.728,435.23h29.655c4.566,0,8.28-3.715,8.28-8.28
			s-3.715-8.28-8.28-8.28h-29.655c-4.566,0-8.28,3.715-8.28,8.28S285.162,435.23,289.728,435.23 M342.015,460.549h49.015
			c4.566,0,8.28-3.715,8.28-8.28c0-4.566-3.715-8.28-8.28-8.28h-49.015c-4.566,0-8.28,3.715-8.28,8.28
			C333.734,456.834,337.449,460.549,342.015,460.549 M289.728,460.549h29.655c4.566,0,8.28-3.715,8.28-8.28
			c0-4.566-3.715-8.28-8.28-8.28h-29.655c-4.566,0-8.28,3.715-8.28,8.28C281.447,456.834,285.162,460.549,289.728,460.549
			 M342.015,485.868h24.058c4.566,0,8.28-3.715,8.28-8.28c0-4.566-3.715-8.28-8.28-8.28h-24.058c-4.566,0-8.28,3.715-8.28,8.28
			C333.734,482.154,337.449,485.868,342.015,485.868 M289.728,485.868h29.655c4.566,0,8.28-3.715,8.28-8.28
			c0-4.566-3.715-8.28-8.28-8.28h-29.655c-4.566,0-8.28,3.715-8.28,8.28C281.447,482.154,285.162,485.868,289.728,485.868
			 M419.1,12.6h-74.9c-41.4,0-74.9,33.5-74.9,74.9c0,0.1,0,0.2,0,0.2c0,0.1,0,0.3,0,0.4c0,0.16,0,0.266,0,0.4c0,0.034,0,0.06,0,0.1
			v410.7h74.9c41.4,0,74.9-33.5,74.9-74.9V12.6L419.1,12.6z M289.728,78.673c-1.989,0-3.869-0.914-5.097-2.478
			c-1.228-1.565-1.67-3.607-1.198-5.54c6.552-26.803,32.633-43.453,68.064-43.453h47.695c3.579,0,6.48,2.901,6.48,6.48v38.512
			c0,3.579-2.901,6.48-6.48,6.48H289.728L289.728,78.673z M365.633,104.278c-3.579,0-6.48-2.901-6.48-6.48
			c0-3.579,2.901-6.48,6.48-6.48h33.56c3.579,0,6.48,2.901,6.48,6.48c0,3.579-2.901,6.48-6.48,6.48H365.633L365.633,104.278z
			 M289.728,104.278c-3.579,0-6.48-2.901-6.48-6.48c0-3.579,2.901-6.48,6.48-6.48h53.204c3.579,0,6.48,2.901,6.48,6.48
			c0,3.579-2.901,6.48-6.48,6.48H289.728L289.728,104.278z M365.606,129.597c-3.579,0-6.48-2.901-6.48-6.48
			c0-3.579,2.901-6.48,6.48-6.48h33.586c3.579,0,6.48,2.901,6.48,6.48c0,3.579-2.901,6.48-6.48,6.48H365.606L365.606,129.597z
			 M289.728,129.597c-3.579,0-6.48-2.901-6.48-6.48c0-3.579,2.901-6.48,6.48-6.48h53.14c3.579,0,6.48,2.901,6.48,6.48
			c0,3.579-2.901,6.48-6.48,6.48H289.728L289.728,129.597z M365.606,154.917c-3.579,0-6.48-2.901-6.48-6.48
			c0-3.579,2.901-6.48,6.48-6.48h33.586c3.579,0,6.48,2.901,6.48,6.48c0,3.579-2.901,6.48-6.48,6.48H365.606L365.606,154.917z
			 M289.728,154.917c-3.579,0-6.48-2.901-6.48-6.48c0-3.579,2.901-6.48,6.48-6.48h53.14c3.579,0,6.48,2.901,6.48,6.48
			c0,3.579-2.901,6.48-6.48,6.48H289.728L289.728,154.917z M365.606,180.236c-3.579,0-6.48-2.901-6.48-6.48
			c0-3.579,2.901-6.48,6.48-6.48h33.586c3.579,0,6.48,2.901,6.48,6.48c0,3.579-2.901,6.48-6.48,6.48H365.606L365.606,180.236z
			 M289.728,180.236c-3.579,0-6.48-2.901-6.48-6.48c0-3.579,2.901-6.48,6.48-6.48h53.14c3.579,0,6.48,2.901,6.48,6.48
			c0,3.579-2.901,6.48-6.48,6.48H289.728L289.728,180.236z M365.676,205.555c-3.579,0-6.48-2.901-6.48-6.48
			c0-3.579,2.901-6.48,6.48-6.48h33.517c3.579,0,6.48,2.901,6.48,6.48c0,3.579-2.901,6.48-6.48,6.48H365.676L365.676,205.555z
			 M289.728,256.194c-3.579,0-6.48-2.901-6.48-6.48v-50.639c0-3.579,2.901-6.48,6.48-6.48h53.14c3.579,0,6.48,2.901,6.48,6.48
			v50.639c0,3.579-2.901,6.48-6.48,6.48H289.728L289.728,256.194z M365.676,230.875c-3.579,0-6.48-2.901-6.48-6.48
			c0-3.579,2.901-6.48,6.48-6.48h33.517c3.579,0,6.48,2.901,6.48,6.48c0,3.579-2.901,6.48-6.48,6.48H365.676L365.676,230.875z
			 M365.676,256.194c-3.579,0-6.48-2.901-6.48-6.48c0-3.579,2.901-6.48,6.48-6.48h33.517c3.579,0,6.48,2.901,6.48,6.48
			c0,3.579-2.901,6.48-6.48,6.48H365.676L365.676,256.194z M384.684,281.514c-3.579,0-6.48-2.901-6.48-6.48s2.901-6.48,6.48-6.48
			h14.509c3.579,0,6.48,2.901,6.48,6.48s-2.901,6.48-6.48,6.48H384.684L384.684,281.514z M289.728,281.514
			c-3.579,0-6.48-2.901-6.48-6.48s2.901-6.48,6.48-6.48h72.271c3.579,0,6.48,2.901,6.48,6.48s-2.901,6.48-6.48,6.48H289.728
			L289.728,281.514z M384.684,306.833c-3.579,0-6.48-2.901-6.48-6.48c0-3.579,2.901-6.48,6.48-6.48h14.509
			c3.579,0,6.48,2.901,6.48,6.48c0,3.579-2.901,6.48-6.48,6.48H384.684L384.684,306.833z M289.728,306.833
			c-3.579,0-6.48-2.901-6.48-6.48c0-3.579,2.901-6.48,6.48-6.48h72.271c3.579,0,6.48,2.901,6.48,6.48c0,3.579-2.901,6.48-6.48,6.48
			H289.728L289.728,306.833z M384.684,332.152c-3.579,0-6.48-2.901-6.48-6.48c0-3.579,2.901-6.48,6.48-6.48h14.509
			c3.579,0,6.48,2.901,6.48,6.48c0,3.579-2.901,6.48-6.48,6.48H384.684L384.684,332.152z M289.728,332.152
			c-3.579,0-6.48-2.901-6.48-6.48c0-3.579,2.901-6.48,6.48-6.48h72.271c3.579,0,6.48,2.901,6.48,6.48c0,3.579-2.901,6.48-6.48,6.48
			H289.728L289.728,332.152z M384.684,357.472c-3.579,0-6.48-2.901-6.48-6.48c0-3.579,2.901-6.48,6.48-6.48h14.509
			c3.579,0,6.48,2.901,6.48,6.48c0,3.579-2.901,6.48-6.48,6.48H384.684L384.684,357.472z M289.728,357.472
			c-3.579,0-6.48-2.901-6.48-6.48c0-3.579,2.901-6.48,6.48-6.48h72.271c3.579,0,6.48,2.901,6.48,6.48c0,3.579-2.901,6.48-6.48,6.48
			H289.728L289.728,357.472z M342.015,382.791c-3.579,0-6.48-2.901-6.48-6.481c0-3.579,2.901-6.48,6.48-6.48h57.178
			c3.579,0,6.48,2.901,6.48,6.48c0,3.579-2.901,6.481-6.48,6.481H342.015L342.015,382.791z M289.728,382.791
			c-3.579,0-6.48-2.901-6.48-6.481c0-3.579,2.901-6.48,6.48-6.48h29.655c3.579,0,6.48,2.901,6.48,6.48
			c0,3.579-2.901,6.481-6.48,6.481H289.728L289.728,382.791z M342.015,408.11c-3.579,0-6.48-2.901-6.48-6.48
			c0-3.579,2.901-6.481,6.48-6.481h57.178c3.579,0,6.48,2.901,6.48,6.481c0,3.579-2.901,6.48-6.48,6.48H342.015L342.015,408.11z
			 M289.728,408.11c-3.579,0-6.48-2.901-6.48-6.48c0-3.579,2.901-6.481,6.48-6.481h29.655c3.579,0,6.48,2.901,6.48,6.481
			c0,3.579-2.901,6.48-6.48,6.48H289.728L289.728,408.11z M342.015,433.43c-3.579,0-6.48-2.901-6.48-6.48
			c0-3.579,2.901-6.48,6.48-6.48h57.178c3.579,0,6.48,2.901,6.48,6.48c0,3.579-2.901,6.48-6.48,6.48H342.015L342.015,433.43z
			 M289.728,433.43c-3.579,0-6.48-2.901-6.48-6.48c0-3.579,2.901-6.48,6.48-6.48h29.655c3.579,0,6.48,2.901,6.48,6.48
			c0,3.579-2.901,6.48-6.48,6.48H289.728L289.728,433.43z M342.015,458.749c-3.579,0-6.48-2.901-6.48-6.48
			c0-3.579,2.901-6.48,6.48-6.48h49.015c3.579,0,6.48,2.901,6.48,6.48c0,3.579-2.901,6.48-6.48,6.48H342.015L342.015,458.749z
			 M289.728,458.749c-3.579,0-6.48-2.901-6.48-6.48c0-3.579,2.901-6.48,6.48-6.48h29.655c3.579,0,6.48,2.901,6.48,6.48
			c0,3.579-2.901,6.48-6.48,6.48H289.728L289.728,458.749z M342.015,484.068c-3.579,0-6.48-2.901-6.48-6.48
			c0-3.579,2.901-6.48,6.48-6.48h24.058c3.579,0,6.48,2.901,6.48,6.48c0,3.579-2.901,6.48-6.48,6.48H342.015L342.015,484.068z
			 M289.728,484.068c-3.579,0-6.48-2.901-6.48-6.48c0-3.579,2.901-6.48,6.48-6.48h29.655c3.579,0,6.48,2.901,6.48,6.48
			c0,3.579-2.901,6.48-6.48,6.48H289.728L289.728,484.068z"/>
	</g>
</g>
<rect x="293.208" y="202.555" class="st2" width="46.179" height="43.679"/>
<rect x="118.51" y="374.324" class="st2" width="48.764" height="45.361"/>
<path class="st2" d="M294.1,68.713l2.197-4.352c8.596-17.031,29.23-27.2,55.2-27.2h44.215v31.552H294.1z"/>
</svg>
