<?xml version="1.0" encoding="utf-8"?>
<!-- Generator: Adobe Illustrator 23.0.2, SVG Export Plug-In . SVG Version: 6.00 Build 0)  -->
<svg version="1.1" id="Layer_1" xmlns="http://www.w3.org/2000/svg" xmlns:xlink="http://www.w3.org/1999/xlink" x="0px" y="0px"
	 viewBox="0 0 512 512" style="enable-background:new 0 0 512 512;" xml:space="preserve">
<style type="text/css">
	.st0{fill:#FFFFFF;}
	.st1{opacity:0.4;fill:#C5D6EF;}
</style>
<g>
	<path class="st0" d="M167.8,351.185H92.9v75.1c0,41.4,33.6,74.9,74.9,74.9h74.9v-74c0-0.04,0-0.066,0-0.1c0-0.134,0-0.24,0-0.4
		c0-0.1,0-0.3,0-0.4c0-0.1,0-0.1,0-0.2C242.7,384.685,209.1,351.185,167.8,351.185z M132.205,356.058h52.006
		c1.035,0,1.854,0.922,1.68,1.99c-0.136,0.838-0.923,1.418-1.772,1.418h-51.915c-0.941,0-1.704-0.763-1.704-1.704
		S131.265,356.058,132.205,356.058z M132.205,364.123h71.006c1.035,0,1.854,0.922,1.68,1.99c-0.136,0.838-0.923,1.418-1.772,1.418
		h-70.915c-0.941,0-1.704-0.763-1.704-1.704S131.265,364.123,132.205,364.123z M132.205,372.189h81.007
		c1.035,0,1.854,0.922,1.68,1.99c-0.136,0.838-0.923,1.418-1.772,1.418h-80.915c-0.941,0-1.704-0.763-1.704-1.704
		S131.265,372.189,132.205,372.189z M206.477,415.922H198.6c-0.941,0-1.704-0.763-1.704-1.704v0c0-0.941,0.763-1.704,1.704-1.704
		h7.876c0.941,0,1.704,0.763,1.704,1.704v0C208.18,415.16,207.418,415.922,206.477,415.922z M208.18,422.284L208.18,422.284
		c0,0.941-0.763,1.704-1.704,1.704H198.6c-0.941,0-1.704-0.763-1.704-1.704v0c0-0.941,0.763-1.704,1.704-1.704h7.876
		C207.418,420.58,208.18,421.343,208.18,422.284z M206.477,407.857H198.6c-0.941,0-1.704-0.763-1.704-1.704v0
		c0-0.941,0.763-1.704,1.704-1.704h7.876c0.941,0,1.704,0.763,1.704,1.704v0C208.18,407.094,207.418,407.857,206.477,407.857z
		 M206.477,399.792H198.6c-0.941,0-1.704-0.763-1.704-1.704v0c0-0.941,0.763-1.704,1.704-1.704h7.876
		c0.941,0,1.704,0.763,1.704,1.704v0C208.18,399.029,207.418,399.792,206.477,399.792z M206.477,391.727H198.6
		c-0.941,0-1.704-0.763-1.704-1.704v0c0-0.941,0.763-1.704,1.704-1.704h7.876c0.941,0,1.704,0.763,1.704,1.704v0
		C208.18,390.964,207.418,391.727,206.477,391.727z M206.477,383.661h-7.785c-0.849,0-1.635-0.58-1.772-1.418
		c-0.174-1.067,0.646-1.99,1.68-1.99h7.876c0.941,0,1.704,0.763,1.704,1.704S207.418,383.661,206.477,383.661z M192.702,382.244
		c-0.136,0.838-0.923,1.418-1.772,1.418h-7.66c-0.941,0-1.704-0.763-1.704-1.704s0.763-1.704,1.704-1.704h7.751
		C192.056,380.254,192.875,381.176,192.702,382.244z M99.388,356.058h25.239c0.941,0,1.704,0.763,1.704,1.704
		s-0.763,1.704-1.704,1.704H99.479c-0.849,0-1.635-0.58-1.772-1.418C97.534,356.981,98.353,356.058,99.388,356.058z M99.388,364.123
		h25.239c0.941,0,1.704,0.763,1.704,1.704s-0.763,1.704-1.704,1.704H99.479c-0.849,0-1.635-0.58-1.772-1.418
		C97.534,365.046,98.353,364.123,99.388,364.123z M99.388,372.189h25.239c0.941,0,1.704,0.763,1.704,1.704s-0.763,1.704-1.704,1.704
		H99.479c-0.849,0-1.635-0.58-1.772-1.418C97.534,373.111,98.353,372.189,99.388,372.189z M97.684,414.219L97.684,414.219v-32.261
		c0-0.02,0.005-0.038,0.006-0.057c0.002-0.052,0.009-0.102,0.015-0.152c0.009-0.07,0.019-0.138,0.035-0.204
		c0.012-0.05,0.028-0.097,0.045-0.146c0.022-0.063,0.046-0.124,0.075-0.183c0.022-0.046,0.046-0.09,0.072-0.133
		c0.034-0.056,0.071-0.109,0.111-0.161c0.031-0.04,0.061-0.078,0.095-0.115c0.045-0.049,0.093-0.092,0.143-0.135
		c0.037-0.032,0.073-0.064,0.113-0.093c0.056-0.04,0.116-0.073,0.176-0.107c0.041-0.023,0.08-0.047,0.123-0.067
		c0.07-0.031,0.144-0.053,0.219-0.075c0.039-0.011,0.075-0.027,0.114-0.035c0.115-0.025,0.234-0.039,0.357-0.04
		c0.001,0,0.002,0,0.004,0h0h74.353c2.018,0,3.654,1.636,3.654,3.654v36.427c0,2.018-1.636,3.654-3.654,3.654H99.479h-0.078
		c-0.516,0-0.974-0.232-1.288-0.593c-0.011-0.012-0.02-0.025-0.03-0.037c-0.046-0.056-0.091-0.112-0.13-0.173
		c-0.043-0.066-0.079-0.136-0.113-0.207c-0.008-0.017-0.017-0.033-0.025-0.05c-0.039-0.093-0.07-0.191-0.091-0.293
		c-0.002-0.008-0.005-0.016-0.006-0.024c-0.003-0.014-0.009-0.027-0.011-0.042c-0.008-0.047-0.003-0.092-0.007-0.139
		c-0.005-0.054-0.016-0.106-0.016-0.161V414.219z M192.725,494.871c0,0.941-0.763,1.704-1.704,1.704h-36.633
		c-1.035,0-1.854-0.922-1.68-1.99c0.136-0.838,0.923-1.418,1.772-1.418h36.542C191.962,493.167,192.725,493.93,192.725,494.871
		L192.725,494.871z M191.021,488.51h-56.633c-1.035,0-1.854-0.922-1.68-1.99c0.136-0.838,0.923-1.418,1.771-1.418h56.542
		c0.941,0,1.704,0.763,1.704,1.704S191.962,488.51,191.021,488.51z M191.021,480.444h-67.633c-1.035,0-1.854-0.922-1.68-1.99
		c0.136-0.838,0.923-1.418,1.772-1.418h67.542c0.941,0,1.704,0.763,1.704,1.704S191.962,480.444,191.021,480.444z M191.021,472.379
		h-76.633c-1.035,0-1.854-0.922-1.68-1.99c0.136-0.838,0.923-1.418,1.772-1.418h76.542c0.941,0,1.704,0.763,1.704,1.704
		S191.962,472.379,191.021,472.379z M191.021,464.314h-82.633c-1.035,0-1.854-0.922-1.68-1.99c0.136-0.838,0.923-1.418,1.772-1.418
		h82.542c0.941,0,1.704,0.763,1.704,1.704S191.962,464.314,191.021,464.314z M191.021,456.249h-86.633
		c-1.035,0-1.854-0.922-1.68-1.99c0.136-0.838,0.923-1.418,1.771-1.418h86.542c0.941,0,1.704,0.763,1.704,1.704
		S191.962,456.249,191.021,456.249z M191.021,448.183h-89.633c-1.035,0-1.854-0.922-1.68-1.99c0.136-0.838,0.923-1.418,1.772-1.418
		h89.542c0.941,0,1.704,0.763,1.704,1.704S191.962,448.183,191.021,448.183z M192.725,438.414c0,0.941-0.763,1.704-1.704,1.704
		H99.388c-1.035,0-1.854-0.923-1.68-1.99c0.136-0.838,0.923-1.418,1.772-1.418h91.542
		C191.962,436.711,192.725,437.474,192.725,438.414L192.725,438.414z M192.725,430.349c0,0.941-0.763,1.704-1.704,1.704H99.479
		c-0.849,0-1.635-0.58-1.772-1.418c-0.174-1.067,0.646-1.99,1.68-1.99h91.634C191.962,428.645,192.725,429.408,192.725,430.349
		L192.725,430.349z M192.725,422.284c0,0.941-0.763,1.704-1.704,1.704h-7.751c-0.941,0-1.704-0.763-1.704-1.704v0
		c0-0.941,0.763-1.704,1.704-1.704h7.751C191.962,420.58,192.725,421.343,192.725,422.284L192.725,422.284z M192.725,414.219
		c0,0.941-0.763,1.704-1.704,1.704h-7.751c-0.941,0-1.704-0.763-1.704-1.704v0c0-0.941,0.763-1.704,1.704-1.704h7.751
		C191.962,412.515,192.725,413.278,192.725,414.219L192.725,414.219z M192.725,406.154c0,0.941-0.763,1.704-1.704,1.704h-7.751
		c-0.941,0-1.704-0.763-1.704-1.704v0c0-0.941,0.763-1.704,1.704-1.704h7.751C191.962,404.45,192.725,405.213,192.725,406.154
		L192.725,406.154z M192.725,398.088c0,0.941-0.763,1.704-1.704,1.704h-7.751c-0.941,0-1.704-0.763-1.704-1.704v0
		c0-0.941,0.763-1.704,1.704-1.704h7.751C191.962,396.384,192.725,397.147,192.725,398.088L192.725,398.088z M192.725,390.023
		c0,0.941-0.763,1.704-1.704,1.704h-7.751c-0.941,0-1.704-0.763-1.704-1.704v0c0-0.941,0.763-1.704,1.704-1.704h7.751
		C191.962,388.319,192.725,389.082,192.725,390.023L192.725,390.023z M236.212,496.575H198.6c-0.941,0-1.704-0.763-1.704-1.704v0
		c0-0.941,0.763-1.704,1.704-1.704h37.521c0.849,0,1.635,0.58,1.772,1.418C238.066,495.653,237.247,496.575,236.212,496.575z
		 M236.212,488.51H198.6c-0.941,0-1.704-0.763-1.704-1.704s0.763-1.704,1.704-1.704h37.521c0.849,0,1.635,0.58,1.772,1.418
		C238.066,487.587,237.247,488.51,236.212,488.51z M236.212,480.444H198.6c-0.941,0-1.704-0.763-1.704-1.704
		s0.763-1.704,1.704-1.704h37.521c0.849,0,1.635,0.58,1.772,1.418C238.066,479.522,237.247,480.444,236.212,480.444z
		 M236.212,472.379H198.6c-0.941,0-1.704-0.763-1.704-1.704s0.763-1.704,1.704-1.704h37.521c0.849,0,1.635,0.58,1.772,1.418
		C238.066,471.457,237.247,472.379,236.212,472.379z M236.212,464.314H198.6c-0.941,0-1.704-0.763-1.704-1.704
		s0.763-1.704,1.704-1.704h37.521c0.849,0,1.635,0.58,1.772,1.418C238.066,463.392,237.247,464.314,236.212,464.314z
		 M236.212,456.249H198.6c-0.941,0-1.704-0.763-1.704-1.704s0.763-1.704,1.704-1.704h37.521c0.849,0,1.635,0.58,1.772,1.418
		C238.066,455.326,237.247,456.249,236.212,456.249z M236.212,448.183H198.6c-0.941,0-1.704-0.763-1.704-1.704
		s0.763-1.704,1.704-1.704h37.521c0.849,0,1.635,0.58,1.772,1.418C238.066,447.261,237.247,448.183,236.212,448.183z
		 M236.212,440.118H198.6c-0.941,0-1.704-0.763-1.704-1.704v0c0-0.941,0.763-1.704,1.704-1.704h37.521
		c0.849,0,1.635,0.58,1.772,1.418C238.066,439.196,237.247,440.118,236.212,440.118z M236.212,432.053H198.6
		c-0.941,0-1.704-0.763-1.704-1.704v0c0-0.941,0.763-1.704,1.704-1.704h37.521c0.849,0,1.635,0.58,1.772,1.418
		C238.066,431.13,237.247,432.053,236.212,432.053z M221.233,380.254c0.61,0,1.19,0.279,1.563,0.762
		c7.253,9.409,12.315,20.588,14.429,32.784c0.023,0.09,0.036,0.183,0.044,0.278c0.445,2.624,0.761,5.292,0.925,8.002
		c0.057,0.935-0.64,1.724-1.544,1.845c-0.14,0.037-0.285,0.063-0.437,0.063h-20.693c-1.749,0-3.168-1.418-3.168-3.168v-37.399
		c0-1.749,1.418-3.168,3.168-3.168h5.693H221.233z"/>
	<path class="st0" d="M344.258,11.732c-41.4,0-74.9,33.5-74.9,74.9c0,0.1,0,0.2,0,0.2c0,0.1,0,0.3,0,0.4c0,0.16,0,0.266,0,0.4
		c0,0.034,0,0.06,0,0.1v412.586h74.9c41.4,0,74.9-33.5,74.9-74.9V11.732H344.258z M385.305,18.697c0-0.941,0.763-1.704,1.704-1.704
		h25.501c1.035,0,1.854,0.923,1.68,1.99c-0.136,0.838-0.923,1.418-1.772,1.418h-25.41C386.068,20.401,385.305,19.638,385.305,18.697
		L385.305,18.697z M385.305,34.828c0-0.941,0.763-1.704,1.704-1.704h25.41c0.849,0,1.635,0.58,1.772,1.418
		c0.174,1.067-0.646,1.99-1.68,1.99h-25.501C386.068,36.532,385.305,35.769,385.305,34.828L385.305,34.828z M385.305,42.893
		c0-0.941,0.763-1.704,1.704-1.704h25.41c0.849,0,1.635,0.58,1.772,1.418c0.174,1.067-0.646,1.99-1.68,1.99h-25.501
		C386.068,44.597,385.305,43.834,385.305,42.893L385.305,42.893z M385.305,50.958c0-0.941,0.763-1.704,1.704-1.704h25.41
		c0.849,0,1.635,0.58,1.772,1.418c0.174,1.067-0.646,1.99-1.68,1.99h-25.501C386.068,52.662,385.305,51.899,385.305,50.958
		L385.305,50.958z M387.009,57.32h25.41c0.849,0,1.635,0.58,1.772,1.418c0.174,1.067-0.646,1.99-1.68,1.99h-25.501
		c-0.941,0-1.704-0.763-1.704-1.704S386.068,57.32,387.009,57.32z M387.009,65.385h25.41c0.849,0,1.635,0.58,1.771,1.418
		c0.174,1.067-0.646,1.99-1.68,1.99h-25.501c-0.941,0-1.704-0.763-1.704-1.704S386.068,65.385,387.009,65.385z M387.009,73.45h25.41
		c0.849,0,1.635,0.58,1.771,1.418c0.174,1.067-0.646,1.99-1.68,1.99h-25.501c-0.941,0-1.704-0.763-1.704-1.704
		S386.068,73.45,387.009,73.45z M387.009,81.516h25.41c0.849,0,1.635,0.58,1.771,1.418c0.174,1.067-0.646,1.99-1.68,1.99h-25.501
		c-0.941,0-1.704-0.763-1.704-1.704S386.068,81.516,387.009,81.516z M328.686,16.994h50.744c0.941,0,1.704,0.763,1.704,1.704v0
		c0,0.941-0.763,1.704-1.704,1.704h-50.653c-0.849,0-1.635-0.58-1.772-1.418C326.832,17.916,327.651,16.994,328.686,16.994z
		 M309.44,26.763c0-0.941,0.763-1.704,1.704-1.704h68.287c0.941,0,1.704,0.763,1.704,1.704v0c0,0.941-0.763,1.704-1.704,1.704
		h-68.287C310.202,28.466,309.44,27.704,309.44,26.763L309.44,26.763z M309.44,34.828c0-0.941,0.763-1.704,1.704-1.704h68.287
		c0.941,0,1.704,0.763,1.704,1.704v0c0,0.941-0.763,1.704-1.704,1.704h-68.287C310.202,36.532,309.44,35.769,309.44,34.828
		L309.44,34.828z M309.44,42.893c0-0.941,0.763-1.704,1.704-1.704h68.287c0.941,0,1.704,0.763,1.704,1.704v0
		c0,0.941-0.763,1.704-1.704,1.704h-68.287C310.202,44.597,309.44,43.834,309.44,42.893L309.44,42.893z M309.44,50.958
		c0-0.941,0.763-1.704,1.704-1.704h68.287c0.941,0,1.704,0.763,1.704,1.704v0c0,0.941-0.763,1.704-1.704,1.704h-68.287
		C310.202,52.662,309.44,51.899,309.44,50.958L309.44,50.958z M311.143,57.32h68.287c0.941,0,1.704,0.763,1.704,1.704
		s-0.763,1.704-1.704,1.704h-68.287c-0.941,0-1.704-0.763-1.704-1.704S310.202,57.32,311.143,57.32z M311.143,65.385h68.287
		c0.941,0,1.704,0.763,1.704,1.704s-0.763,1.704-1.704,1.704h-68.287c-0.941,0-1.704-0.763-1.704-1.704
		S310.202,65.385,311.143,65.385z M311.143,73.45h68.287c0.941,0,1.704,0.763,1.704,1.704s-0.763,1.704-1.704,1.704h-68.287
		c-0.941,0-1.704-0.763-1.704-1.704S310.202,73.45,311.143,73.45z M311.143,81.516h68.287c0.941,0,1.704,0.763,1.704,1.704
		s-0.763,1.704-1.704,1.704h-68.287c-0.941,0-1.704-0.763-1.704-1.704S310.202,81.516,311.143,81.516z M298.686,33.124h4.879
		c0.941,0,1.704,0.763,1.704,1.704v0c0,0.941-0.763,1.704-1.704,1.704h-4.788c-0.849,0-1.635-0.58-1.772-1.418
		C296.832,34.047,297.651,33.124,298.686,33.124z M290.686,41.189h12.879c0.941,0,1.704,0.763,1.704,1.704v0
		c0,0.941-0.763,1.704-1.704,1.704h-12.788c-0.849,0-1.635-0.58-1.772-1.418C288.832,42.112,289.651,41.189,290.686,41.189z
		 M285.686,49.255h17.879c0.941,0,1.704,0.763,1.704,1.704v0c0,0.941-0.763,1.704-1.704,1.704h-17.788
		c-0.849,0-1.635-0.58-1.772-1.418C283.832,50.177,284.651,49.255,285.686,49.255z M280.686,57.32h22.879
		c0.941,0,1.704,0.763,1.704,1.704s-0.763,1.704-1.704,1.704h-22.788c-0.849,0-1.635-0.58-1.772-1.418
		C278.832,58.242,279.651,57.32,280.686,57.32z M277.686,65.385h25.879c0.941,0,1.704,0.763,1.704,1.704s-0.763,1.704-1.704,1.704
		h-25.788c-0.849,0-1.635-0.58-1.772-1.418C275.832,66.307,276.651,65.385,277.686,65.385z M275.686,73.45h27.879
		c0.941,0,1.704,0.763,1.704,1.704s-0.763,1.704-1.704,1.704h-27.788c-0.849,0-1.635-0.58-1.771-1.418
		C273.832,74.373,274.651,73.45,275.686,73.45z M275.686,81.516h27.879c0.941,0,1.704,0.763,1.704,1.704s-0.763,1.704-1.704,1.704
		h-27.788c-0.849,0-1.635-0.58-1.771-1.418C273.832,82.438,274.651,81.516,275.686,81.516z M273.982,123.546
		c0-0.941,0.763-1.704,1.704-1.704h9.661c0.941,0,1.704,0.763,1.704,1.704v0c0,0.941-0.763,1.704-1.704,1.704h-9.661
		C274.745,125.249,273.982,124.487,273.982,123.546L273.982,123.546z M404.555,137.972h7.864c0.849,0,1.635,0.58,1.772,1.418
		c0.174,1.067-0.646,1.99-1.68,1.99h-7.955c-0.941,0-1.704-0.763-1.704-1.704v0C402.851,138.735,403.614,137.972,404.555,137.972z
		 M402.851,131.611L402.851,131.611c0-0.941,0.763-1.704,1.704-1.704h7.864c0.849,0,1.635,0.58,1.772,1.418
		c0.174,1.067-0.646,1.99-1.68,1.99h-7.955C403.614,133.315,402.851,132.552,402.851,131.611z M404.555,146.038h7.864
		c0.849,0,1.635,0.58,1.772,1.418c0.174,1.067-0.646,1.99-1.68,1.99h-7.955c-0.941,0-1.704-0.763-1.704-1.704v0
		C402.851,146.8,403.614,146.038,404.555,146.038z M412.419,154.103c0.849,0,1.635,0.58,1.772,1.418
		c0.174,1.067-0.646,1.99-1.68,1.99h-60.988c-0.941,0-1.704-0.763-1.704-1.704s0.763-1.704,1.704-1.704H412.419z M352.023,391.403
		h-7.945c-0.941,0-1.704-0.763-1.704-1.704s0.763-1.704,1.704-1.704h7.854c0.849,0,1.635,0.58,1.772,1.418
		C353.877,390.48,353.057,391.403,352.023,391.403z M352.023,399.468h-7.945c-0.941,0-1.704-0.763-1.704-1.704
		s0.763-1.704,1.704-1.704h7.854c0.849,0,1.635,0.58,1.772,1.418C353.877,398.545,353.057,399.468,352.023,399.468z M353.703,381.92
		c-0.136,0.838-0.923,1.418-1.772,1.418h-7.854c-0.941,0-1.704-0.763-1.704-1.704s0.763-1.704,1.704-1.704h7.945
		C353.057,379.93,353.877,380.852,353.703,381.92z M310.108,375.272c-0.941,0-1.704-0.763-1.704-1.704s0.763-1.704,1.704-1.704
		h66.904c0.941,0,1.704,0.763,1.704,1.704s-0.763,1.704-1.704,1.704H310.108z M302.529,310.75h-26.752
		c-0.849,0-1.635-0.58-1.772-1.418c-0.174-1.067,0.646-1.99,1.68-1.99h26.843c0.941,0,1.704,0.763,1.704,1.704v0
		C304.233,309.987,303.47,310.75,302.529,310.75z M304.233,317.112L304.233,317.112c0,0.941-0.763,1.704-1.704,1.704h-26.752
		c-0.849,0-1.635-0.58-1.772-1.418c-0.174-1.067,0.646-1.99,1.68-1.99h26.843C303.47,315.408,304.233,316.171,304.233,317.112z
		 M302.529,302.685h-26.752c-0.849,0-1.635-0.58-1.772-1.418c-0.174-1.067,0.646-1.99,1.68-1.99h26.843
		c0.941,0,1.704,0.763,1.704,1.704v0C304.233,301.922,303.47,302.685,302.529,302.685z M275.686,294.62
		c-1.035,0-1.854-0.922-1.68-1.99c0.136-0.838,0.923-1.418,1.771-1.418h79.894c0.941,0,1.704,0.763,1.704,1.704
		s-0.763,1.704-1.704,1.704H275.686z M275.686,258.951h79.985c0.941,0,1.704,0.763,1.704,1.704s-0.763,1.704-1.704,1.704h-79.894
		c-0.849,0-1.635-0.58-1.771-1.418C273.832,259.874,274.651,258.951,275.686,258.951z M275.686,250.886h79.985
		c0.941,0,1.704,0.763,1.704,1.704s-0.763,1.704-1.704,1.704h-79.894c-0.849,0-1.635-0.58-1.771-1.418
		C273.832,251.808,274.651,250.886,275.686,250.886z M275.686,267.016h79.985c0.941,0,1.704,0.763,1.704,1.704
		s-0.763,1.704-1.704,1.704h-79.894c-0.849,0-1.635-0.58-1.771-1.418C273.832,267.939,274.651,267.016,275.686,267.016z
		 M275.686,275.082h79.985c0.941,0,1.704,0.763,1.704,1.704s-0.763,1.704-1.704,1.704h-79.894c-0.849,0-1.635-0.58-1.771-1.418
		C273.832,276.004,274.651,275.082,275.686,275.082z M275.686,283.147h79.985c0.941,0,1.704,0.763,1.704,1.704
		s-0.763,1.704-1.704,1.704h-79.894c-0.849,0-1.635-0.58-1.771-1.418C273.832,284.069,274.651,283.147,275.686,283.147z
		 M377.012,367.207h-66.904c-0.941,0-1.704-0.763-1.704-1.704s0.763-1.704,1.704-1.704h66.904c0.941,0,1.704,0.763,1.704,1.704
		S377.953,367.207,377.012,367.207z M377.012,359.142h-66.904c-0.941,0-1.704-0.763-1.704-1.704s0.763-1.704,1.704-1.704h66.904
		c0.941,0,1.704,0.763,1.704,1.704S377.953,359.142,377.012,359.142z M377.012,351.076h-66.904c-0.941,0-1.704-0.763-1.704-1.704v0
		c0-0.941,0.763-1.704,1.704-1.704h66.904c0.941,0,1.704,0.763,1.704,1.704v0C378.716,350.314,377.953,351.076,377.012,351.076z
		 M377.012,343.011h-66.904c-0.941,0-1.704-0.763-1.704-1.704v0c0-0.941,0.763-1.704,1.704-1.704h66.904
		c0.941,0,1.704,0.763,1.704,1.704v0C378.716,342.248,377.953,343.011,377.012,343.011z M377.012,334.946h-66.904
		c-0.941,0-1.704-0.763-1.704-1.704v0c0-0.941,0.763-1.704,1.704-1.704h66.904c0.941,0,1.704,0.763,1.704,1.704v0
		C378.716,334.183,377.953,334.946,377.012,334.946z M377.012,326.881h-66.904c-0.941,0-1.704-0.763-1.704-1.704v0
		c0-0.941,0.763-1.704,1.704-1.704h66.904c0.941,0,1.704,0.763,1.704,1.704v0C378.716,326.118,377.953,326.881,377.012,326.881z
		 M377.012,318.815h-66.904c-0.941,0-1.704-0.763-1.704-1.704v0c0-0.941,0.763-1.704,1.704-1.704h66.904
		c0.941,0,1.704,0.763,1.704,1.704v0C378.716,318.053,377.953,318.815,377.012,318.815z M377.012,310.75h-66.904
		c-0.941,0-1.704-0.763-1.704-1.704v0c0-0.941,0.763-1.704,1.704-1.704h66.904c0.941,0,1.704,0.763,1.704,1.704v0
		C378.716,309.987,377.953,310.75,377.012,310.75z M377.012,302.685h-66.904c-0.941,0-1.704-0.763-1.704-1.704v0
		c0-0.941,0.763-1.704,1.704-1.704h66.904c0.941,0,1.704,0.763,1.704,1.704v0C378.716,301.922,377.953,302.685,377.012,302.685z
		 M357.374,244.524c0,0.941-0.763,1.704-1.704,1.704h-79.894c-0.849,0-1.635-0.58-1.772-1.418c-0.174-1.067,0.646-1.99,1.68-1.99
		h79.985C356.611,242.821,357.374,243.583,357.374,244.524L357.374,244.524z M275.686,170.233h68.257
		c0.941,0,1.704,0.763,1.704,1.704s-0.763,1.704-1.704,1.704h-68.166c-0.849,0-1.635-0.58-1.771-1.418
		C273.832,171.156,274.651,170.233,275.686,170.233z M275.686,162.168h68.257c0.941,0,1.704,0.763,1.704,1.704
		s-0.763,1.704-1.704,1.704h-68.166c-0.849,0-1.635-0.58-1.771-1.418C273.832,163.091,274.651,162.168,275.686,162.168z
		 M275.686,178.299h68.257c0.941,0,1.704,0.763,1.704,1.704s-0.763,1.704-1.704,1.704h-68.166c-0.849,0-1.635-0.58-1.771-1.418
		C273.832,179.221,274.651,178.299,275.686,178.299z M275.686,186.364h68.257c0.941,0,1.704,0.763,1.704,1.704
		s-0.763,1.704-1.704,1.704h-68.166c-0.849,0-1.635-0.58-1.771-1.418C273.832,187.286,274.651,186.364,275.686,186.364z
		 M275.686,194.429h68.257c0.941,0,1.704,0.763,1.704,1.704s-0.763,1.704-1.704,1.704h-68.166c-0.849,0-1.635-0.58-1.772-1.418
		C273.832,195.352,274.651,194.429,275.686,194.429z M275.686,202.494h68.257c0.941,0,1.704,0.763,1.704,1.704v0
		c0,0.941-0.763,1.704-1.704,1.704h-68.166c-0.849,0-1.635-0.58-1.772-1.418C273.832,203.417,274.651,202.494,275.686,202.494z
		 M275.686,210.56h68.257c0.941,0,1.704,0.763,1.704,1.704v0c0,0.941-0.763,1.704-1.704,1.704h-68.166
		c-0.849,0-1.635-0.58-1.772-1.418C273.832,211.482,274.651,210.56,275.686,210.56z M275.686,218.625h68.257
		c0.941,0,1.704,0.763,1.704,1.704v0c0,0.941-0.763,1.704-1.704,1.704h-68.166c-0.849,0-1.635-0.58-1.772-1.418
		C273.832,219.547,274.651,218.625,275.686,218.625z M275.686,226.69h68.257c0.941,0,1.704,0.763,1.704,1.704v0
		c0,0.941-0.763,1.704-1.704,1.704h-68.166c-0.849,0-1.635-0.58-1.772-1.418C273.832,227.613,274.651,226.69,275.686,226.69z
		 M275.686,234.755h68.257c0.941,0,1.704,0.763,1.704,1.704v0c0,0.941-0.763,1.704-1.704,1.704h-68.166
		c-0.849,0-1.635-0.58-1.772-1.418C273.832,235.678,274.651,234.755,275.686,234.755z M351.522,238.163
		c-0.941,0-1.704-0.763-1.704-1.704v0c0-0.941,0.763-1.704,1.704-1.704h60.897c0.849,0,1.635,0.58,1.772,1.418
		c0.174,1.067-0.646,1.99-1.68,1.99H351.522z M412.51,230.098h-60.988c-0.941,0-1.704-0.763-1.704-1.704v0
		c0-0.941,0.763-1.704,1.704-1.704h60.897c0.849,0,1.635,0.58,1.772,1.418C414.364,229.175,413.545,230.098,412.51,230.098z
		 M412.51,222.032h-60.988c-0.941,0-1.704-0.763-1.704-1.704v0c0-0.941,0.763-1.704,1.704-1.704h60.897
		c0.849,0,1.635,0.58,1.772,1.418C414.364,221.11,413.545,222.032,412.51,222.032z M412.51,213.967h-60.988
		c-0.941,0-1.704-0.763-1.704-1.704v0c0-0.941,0.763-1.704,1.704-1.704h60.897c0.849,0,1.635,0.58,1.772,1.418
		C414.364,213.045,413.545,213.967,412.51,213.967z M412.51,205.902h-60.988c-0.941,0-1.704-0.763-1.704-1.704v0
		c0-0.941,0.763-1.704,1.704-1.704h60.897c0.849,0,1.635,0.58,1.772,1.418C414.364,204.979,413.545,205.902,412.51,205.902z
		 M412.51,197.837h-60.988c-0.941,0-1.704-0.763-1.704-1.704s0.763-1.704,1.704-1.704h60.897c0.849,0,1.635,0.58,1.771,1.418
		C414.364,196.914,413.545,197.837,412.51,197.837z M412.51,189.771h-60.988c-0.941,0-1.704-0.763-1.704-1.704
		s0.763-1.704,1.704-1.704h60.897c0.849,0,1.635,0.58,1.771,1.418C414.364,188.849,413.545,189.771,412.51,189.771z M412.51,181.706
		h-60.988c-0.941,0-1.704-0.763-1.704-1.704s0.763-1.704,1.704-1.704h60.897c0.849,0,1.635,0.58,1.771,1.418
		C414.364,180.784,413.545,181.706,412.51,181.706z M412.51,173.641h-60.988c-0.941,0-1.704-0.763-1.704-1.704
		s0.763-1.704,1.704-1.704h60.897c0.849,0,1.635,0.58,1.771,1.418C414.364,172.719,413.545,173.641,412.51,173.641z M412.51,165.576
		h-60.988c-0.941,0-1.704-0.763-1.704-1.704s0.763-1.704,1.704-1.704h60.897c0.849,0,1.635,0.58,1.771,1.418
		C414.364,164.653,413.545,165.576,412.51,165.576z M398.68,144.257c0,2.865-2.323,5.188-5.188,5.188H296.41
		c-2.865,0-5.188-2.323-5.188-5.188v-41.423c0-2.865,2.323-5.188,5.188-5.188h97.082c2.865,0,5.188,2.323,5.188,5.188V144.257z
		 M343.943,154.103c0.941,0,1.704,0.763,1.704,1.704s-0.763,1.704-1.704,1.704h-68.166c-0.849,0-1.635-0.58-1.771-1.418
		c-0.174-1.067,0.646-1.99,1.68-1.99H343.943z M275.686,137.972h9.661c0.941,0,1.704,0.763,1.704,1.704v0
		c0,0.941-0.763,1.704-1.704,1.704h-9.57c-0.849,0-1.635-0.58-1.772-1.418C273.832,138.895,274.651,137.972,275.686,137.972z
		 M275.686,129.907h9.661c0.941,0,1.704,0.763,1.704,1.704v0c0,0.941-0.763,1.704-1.704,1.704h-9.57
		c-0.849,0-1.635-0.58-1.772-1.418C273.832,130.83,274.651,129.907,275.686,129.907z M274.005,147.455
		c0.136-0.838,0.923-1.418,1.772-1.418h9.57c0.941,0,1.704,0.763,1.704,1.704v0c0,0.941-0.763,1.704-1.704,1.704h-9.661
		C274.651,149.445,273.832,148.523,274.005,147.455z M287.05,99.35c0,0.941-0.763,1.704-1.704,1.704h-9.57
		c-0.849,0-1.635-0.58-1.772-1.418c-0.174-1.067,0.646-1.99,1.68-1.99h9.661C286.287,97.646,287.05,98.409,287.05,99.35
		L287.05,99.35z M275.686,105.711h9.661c0.941,0,1.704,0.763,1.704,1.704v0c0,0.941-0.763,1.704-1.704,1.704h-9.57
		c-0.849,0-1.635-0.58-1.772-1.418C273.832,106.634,274.651,105.711,275.686,105.711z M275.686,113.777h9.661
		c0.941,0,1.704,0.763,1.704,1.704v0c0,0.941-0.763,1.704-1.704,1.704h-9.57c-0.849,0-1.635-0.58-1.772-1.418
		C273.832,114.699,274.651,113.777,275.686,113.777z M273.982,325.177c0-0.941,0.763-1.704,1.704-1.704h26.843
		c0.941,0,1.704,0.763,1.704,1.704v0c0,0.941-0.763,1.704-1.704,1.704h-26.843C274.745,326.881,273.982,326.118,273.982,325.177
		L273.982,325.177z M302.529,367.207h-26.752c-0.849,0-1.635-0.58-1.771-1.418c-0.174-1.067,0.646-1.99,1.68-1.99h26.843
		c0.941,0,1.704,0.763,1.704,1.704S303.47,367.207,302.529,367.207z M304.233,373.568c0,0.941-0.763,1.704-1.704,1.704h-26.752
		c-0.849,0-1.635-0.58-1.771-1.418c-0.174-1.067,0.646-1.99,1.68-1.99h26.843C303.47,371.865,304.233,372.628,304.233,373.568z
		 M302.529,359.142h-26.752c-0.849,0-1.635-0.58-1.771-1.418c-0.174-1.067,0.646-1.99,1.68-1.99h26.843
		c0.941,0,1.704,0.763,1.704,1.704S303.47,359.142,302.529,359.142z M302.529,351.076h-26.752c-0.849,0-1.635-0.58-1.772-1.418
		c-0.174-1.067,0.646-1.99,1.68-1.99h26.843c0.941,0,1.704,0.763,1.704,1.704v0C304.233,350.314,303.47,351.076,302.529,351.076z
		 M302.529,343.011h-26.752c-0.849,0-1.635-0.58-1.772-1.418c-0.174-1.067,0.646-1.99,1.68-1.99h26.843
		c0.941,0,1.704,0.763,1.704,1.704v0C304.233,342.248,303.47,343.011,302.529,343.011z M302.529,334.946h-26.752
		c-0.849,0-1.635-0.58-1.772-1.418c-0.174-1.067,0.646-1.99,1.68-1.99h26.843c0.941,0,1.704,0.763,1.704,1.704v0
		C304.233,334.183,303.47,334.946,302.529,334.946z M273.897,381.316c0-0.735,0.595-1.33,1.33-1.331l59.689-0.045
		c1.538-0.001,2.786,1.245,2.786,2.784v38.213c0,1.537-1.246,2.784-2.784,2.784h-59.69c-0.735,0-1.331-0.596-1.331-1.331V381.316z
		 M352.023,496.251h-76.337c-1.035,0-1.854-0.922-1.68-1.99c0.136-0.838,0.923-1.418,1.771-1.418h76.246
		c0.941,0,1.704,0.763,1.704,1.704S352.964,496.251,352.023,496.251z M352.023,488.186h-76.246c-0.849,0-1.635-0.58-1.771-1.418
		c-0.174-1.067,0.646-1.99,1.68-1.99h76.337c0.941,0,1.704,0.763,1.704,1.704S352.964,488.186,352.023,488.186z M352.023,480.12
		h-76.246c-0.849,0-1.635-0.58-1.771-1.418c-0.174-1.067,0.646-1.99,1.68-1.99h76.337c0.941,0,1.704,0.763,1.704,1.704
		S352.964,480.12,352.023,480.12z M352.023,472.055h-76.246c-0.849,0-1.635-0.58-1.771-1.418c-0.174-1.067,0.646-1.99,1.68-1.99
		h76.337c0.941,0,1.704,0.763,1.704,1.704S352.964,472.055,352.023,472.055z M352.023,463.99h-76.246
		c-0.849,0-1.635-0.58-1.771-1.418c-0.174-1.067,0.646-1.99,1.68-1.99h76.337c0.941,0,1.704,0.763,1.704,1.704
		S352.964,463.99,352.023,463.99z M352.023,455.925h-76.246c-0.849,0-1.635-0.58-1.771-1.418c-0.174-1.067,0.646-1.99,1.68-1.99
		h76.337c0.941,0,1.704,0.763,1.704,1.704S352.964,455.925,352.023,455.925z M353.726,446.156c0,0.941-0.763,1.704-1.704,1.704
		h-76.246c-0.849,0-1.635-0.58-1.772-1.418c-0.174-1.067,0.646-1.99,1.68-1.99h76.337
		C352.964,444.452,353.726,445.215,353.726,446.156L353.726,446.156z M353.726,438.09c0,0.941-0.763,1.704-1.704,1.704h-76.246
		c-0.849,0-1.635-0.58-1.772-1.418c-0.174-1.067,0.646-1.99,1.68-1.99h76.337C352.964,436.387,353.726,437.149,353.726,438.09
		L353.726,438.09z M353.726,430.025c0,0.941-0.763,1.704-1.704,1.704h-76.246c-0.849,0-1.635-0.58-1.772-1.418
		c-0.174-1.067,0.646-1.99,1.68-1.99h76.337C352.964,428.321,353.726,429.084,353.726,430.025L353.726,430.025z M353.726,421.96
		c0,0.941-0.763,1.704-1.704,1.704h-7.945c-0.941,0-1.704-0.763-1.704-1.704v0c0-0.941,0.763-1.704,1.704-1.704h7.945
		C352.964,420.256,353.726,421.019,353.726,421.96L353.726,421.96z M353.726,413.895c0,0.941-0.763,1.704-1.704,1.704h-7.945
		c-0.941,0-1.704-0.763-1.704-1.704v0c0-0.941,0.763-1.704,1.704-1.704h7.945C352.964,412.191,353.726,412.954,353.726,413.895
		L353.726,413.895z M353.726,405.829c0,0.941-0.763,1.704-1.704,1.704h-7.945c-0.941,0-1.704-0.763-1.704-1.704v0
		c0-0.941,0.763-1.704,1.704-1.704h7.945C352.964,404.126,353.726,404.888,353.726,405.829L353.726,405.829z M360.509,496.251
		h-0.908c-0.941,0-1.704-0.763-1.704-1.704c0-0.941,0.763-1.704,1.704-1.704h0.817c0.849,0,1.635,0.58,1.772,1.418
		C362.364,495.329,361.544,496.251,360.509,496.251z M379.51,488.186h-19.908c-0.941,0-1.704-0.763-1.704-1.704
		s0.763-1.704,1.704-1.704h19.817c0.849,0,1.635,0.58,1.772,1.418C381.364,487.263,380.544,488.186,379.51,488.186z M390.51,480.12
		h-30.908c-0.941,0-1.704-0.763-1.704-1.704s0.763-1.704,1.704-1.704h30.817c0.849,0,1.635,0.58,1.771,1.418
		C392.364,479.198,391.544,480.12,390.51,480.12z M398.51,472.055h-38.908c-0.941,0-1.704-0.763-1.704-1.704
		s0.763-1.704,1.704-1.704h38.817c0.849,0,1.635,0.58,1.772,1.418C400.364,471.133,399.544,472.055,398.51,472.055z M403.51,463.99
		h-43.908c-0.941,0-1.704-0.763-1.704-1.704s0.763-1.704,1.704-1.704h43.817c0.849,0,1.635,0.58,1.772,1.418
		C405.364,463.067,404.545,463.99,403.51,463.99z M408.51,455.925h-48.908c-0.941,0-1.704-0.763-1.704-1.704
		s0.763-1.704,1.704-1.704h48.817c0.849,0,1.635,0.58,1.772,1.418C410.364,455.002,409.545,455.925,408.51,455.925z M411.51,447.859
		h-51.908c-0.941,0-1.704-0.763-1.704-1.704v0c0-0.941,0.763-1.704,1.704-1.704h51.817c0.849,0,1.635,0.58,1.772,1.418
		C413.364,446.937,412.545,447.859,411.51,447.859z M412.51,439.794h-52.908c-0.941,0-1.704-0.763-1.704-1.704v0
		c0-0.941,0.763-1.704,1.704-1.704h52.817c0.849,0,1.635,0.58,1.772,1.418C414.364,438.872,413.545,439.794,412.51,439.794z
		 M412.51,431.729h-52.908c-0.941,0-1.704-0.763-1.704-1.704v0c0-0.941,0.763-1.704,1.704-1.704h52.817
		c0.849,0,1.635,0.58,1.772,1.418C414.364,430.806,413.545,431.729,412.51,431.729z M412.51,423.664h-52.908
		c-0.941,0-1.704-0.763-1.704-1.704v0c0-0.941,0.763-1.704,1.704-1.704h52.817c0.849,0,1.635,0.58,1.772,1.418
		C414.364,422.741,413.545,423.664,412.51,423.664z M412.51,415.598h-52.908c-0.941,0-1.704-0.763-1.704-1.704v0
		c0-0.941,0.763-1.704,1.704-1.704h52.817c0.849,0,1.635,0.58,1.772,1.418C414.364,414.676,413.545,415.598,412.51,415.598z
		 M412.51,407.533h-52.908c-0.941,0-1.704-0.763-1.704-1.704v0c0-0.941,0.763-1.704,1.704-1.704h52.817
		c0.849,0,1.635,0.58,1.772,1.418C414.364,406.611,413.545,407.533,412.51,407.533z M412.51,399.468h-52.908
		c-0.941,0-1.704-0.763-1.704-1.704s0.763-1.704,1.704-1.704h52.817c0.849,0,1.635,0.58,1.771,1.418
		C414.364,398.546,413.545,399.468,412.51,399.468z M412.51,391.403h-52.908c-0.941,0-1.704-0.763-1.704-1.704
		s0.763-1.704,1.704-1.704h52.817c0.849,0,1.635,0.58,1.771,1.418C414.364,390.48,413.545,391.403,412.51,391.403z M412.51,383.337
		h-52.908c-0.941,0-1.704-0.763-1.704-1.704s0.763-1.704,1.704-1.704h52.817c0.849,0,1.635,0.58,1.771,1.418
		C414.364,382.415,413.545,383.337,412.51,383.337z M412.51,375.272h-27.919c-0.941,0-1.704-0.763-1.704-1.704
		s0.763-1.704,1.704-1.704h27.828c0.849,0,1.635,0.58,1.771,1.418C414.364,374.35,413.545,375.272,412.51,375.272z M412.51,367.207
		h-27.919c-0.941,0-1.704-0.763-1.704-1.704s0.763-1.704,1.704-1.704h27.828c0.849,0,1.635,0.58,1.771,1.418
		C414.364,366.285,413.545,367.207,412.51,367.207z M412.51,359.142h-27.919c-0.941,0-1.704-0.763-1.704-1.704
		s0.763-1.704,1.704-1.704h27.828c0.849,0,1.635,0.58,1.772,1.418C414.364,358.219,413.545,359.142,412.51,359.142z M412.51,351.076
		h-27.919c-0.941,0-1.704-0.763-1.704-1.704v0c0-0.941,0.763-1.704,1.704-1.704h27.827c0.849,0,1.635,0.58,1.772,1.418
		C414.364,350.154,413.545,351.076,412.51,351.076z M412.51,343.011h-27.919c-0.941,0-1.704-0.763-1.704-1.704v0
		c0-0.941,0.763-1.704,1.704-1.704h27.827c0.849,0,1.635,0.58,1.772,1.418C414.364,342.089,413.545,343.011,412.51,343.011z
		 M412.51,334.946h-27.919c-0.941,0-1.704-0.763-1.704-1.704v0c0-0.941,0.763-1.704,1.704-1.704h27.827
		c0.849,0,1.635,0.58,1.772,1.418C414.364,334.023,413.545,334.946,412.51,334.946z M414.214,325.177
		c0,0.941-0.763,1.704-1.704,1.704h-27.919c-0.941,0-1.704-0.763-1.704-1.704v0c0-0.941,0.763-1.704,1.704-1.704h27.919
		C413.451,323.473,414.214,324.236,414.214,325.177L414.214,325.177z M384.591,307.343h27.828c0.849,0,1.635,0.58,1.772,1.418
		c0.174,1.067-0.646,1.99-1.68,1.99h-27.919c-0.941,0-1.704-0.763-1.704-1.704v0C382.887,308.105,383.65,307.343,384.591,307.343z
		 M382.887,300.981L382.887,300.981c0-0.941,0.763-1.704,1.704-1.704h27.828c0.849,0,1.635,0.58,1.772,1.418
		c0.174,1.067-0.646,1.99-1.68,1.99h-27.919C383.65,302.685,382.887,301.922,382.887,300.981z M384.591,315.408h27.828
		c0.849,0,1.635,0.58,1.772,1.418c0.174,1.067-0.646,1.99-1.68,1.99h-27.919c-0.941,0-1.704-0.763-1.704-1.704v0
		C382.887,316.171,383.65,315.408,384.591,315.408z M414.214,244.578v48.284c0,0.009-0.003,0.018-0.003,0.027
		c0,0.009,0.003,0.018,0.003,0.027c0,0.941-0.763,1.704-1.704,1.704h-0.054h-47.239c-2.028,0-3.672-1.644-3.672-3.672v-44.456
		c0-2.028,1.644-3.672,3.672-3.672h47.239h0.054c0.941,0,1.704,0.763,1.704,1.704c0,0.009-0.003,0.018-0.003,0.027
		C414.211,244.56,414.214,244.569,414.214,244.578z M414.214,123.546c0,0.941-0.763,1.704-1.704,1.704h-7.955
		c-0.941,0-1.704-0.763-1.704-1.704v0c0-0.941,0.763-1.704,1.704-1.704h7.955C413.451,121.842,414.214,122.605,414.214,123.546
		L414.214,123.546z M404.555,105.711h7.864c0.849,0,1.635,0.58,1.772,1.418c0.174,1.067-0.646,1.99-1.68,1.99h-7.955
		c-0.941,0-1.704-0.763-1.704-1.704v0C402.851,106.474,403.614,105.711,404.555,105.711z M402.851,99.35L402.851,99.35
		c0-0.941,0.763-1.704,1.704-1.704h7.955c1.035,0,1.854,0.923,1.68,1.99c-0.136,0.838-0.923,1.418-1.772,1.418h-7.864
		C403.614,101.054,402.851,100.291,402.851,99.35z M404.555,113.777h7.864c0.849,0,1.635,0.58,1.772,1.418
		c0.174,1.067-0.646,1.99-1.68,1.99h-7.955c-0.941,0-1.704-0.763-1.704-1.704v0C402.851,114.539,403.614,113.777,404.555,113.777z
		 M412.51,92.988H275.686c-0.941,0-1.704-0.763-1.704-1.704c0-0.941,0.763-1.704,1.704-1.704H412.51
		c0.941,0,1.704,0.763,1.704,1.704C414.214,92.226,413.451,92.988,412.51,92.988z M414.214,26.763c0,0.941-0.763,1.704-1.704,1.704
		h-25.501c-0.941,0-1.704-0.763-1.704-1.704v0c0-0.941,0.763-1.704,1.704-1.704h25.501
		C413.451,25.059,414.214,25.822,414.214,26.763L414.214,26.763z"/>
</g>
<path class="st1" d="M173.397,420.58H97.684v-36.919h75.713c0.537,0,0.971,0.435,0.971,0.971v34.976
	C174.368,420.145,173.933,420.58,173.397,420.58z"/>
<path class="st1" d="M224.745,383.661h-8.019c-0.667,0-1.207,0.541-1.207,1.207v34.542c0,0.667,0.541,1.207,1.207,1.207h21.362
	C236.99,406.924,232.215,394.281,224.745,383.661z"/>
<path class="st1" d="M333.142,420.389h-58.687c-0.309,0-0.559-0.25-0.559-0.559v-35.877c0-0.309,0.25-0.559,0.559-0.559h58.687
	c0.984,0,1.783,0.798,1.783,1.783v33.43C334.925,419.59,334.127,420.389,333.142,420.389z"/>
<path class="st1" d="M414.214,291.212h-48.205c-0.683,0-1.236-0.553-1.236-1.236v-42.512c0-0.683,0.553-1.236,1.236-1.236h48.205
	V291.212z"/>
<path class="st1" d="M393.12,146.114h-96.414c-1.389,0-2.514-1.126-2.514-2.514v-40.018c0-1.389,1.126-2.514,2.514-2.514h96.414
	c1.389,0,2.514,1.126,2.514,2.514v40.018C395.634,144.988,394.509,146.114,393.12,146.114z"/>
</svg>
