<?xml version="1.0" encoding="utf-8"?>
<!-- Generator: Adobe Illustrator 23.0.1, SVG Export Plug-In . SVG Version: 6.00 Build 0)  -->
<svg version="1.1" xmlns="http://www.w3.org/2000/svg" xmlns:xlink="http://www.w3.org/1999/xlink" x="0px" y="0px"
	 viewBox="0 0 512 512" style="enable-background:new 0 0 512 512;" xml:space="preserve">
<style type="text/css">
	.st0{display:none;}
	.st1{display:inline;}
	.st2{fill:#FFFFFF;}
</style>
<g id="Layer_1" class="st0">
	<g class="st1">
		<g>
			<path d="M344.2,12.6c-41.4,0-74.9,33.5-74.9,74.9c0,0.1,0,0.2,0,0.2c0,0.1,0,0.3,0,0.4c0,0.2,0,0.3,0,0.5v-0.1v410.8h74.9
				c41.4,0,74.9-33.5,74.9-74.9V12.6H344.2z"/>
		</g>
		<path d="M167.8,349.4c41.3,0,74.9,33.5,74.9,74.9c0,0.1,0,0.1,0,0.2s0,0.3,0,0.4c0,0.2,0,0.3,0,0.5v-0.1v74.1h-74.9
			c-41.3,0-74.9-33.5-74.9-74.9v-75.1H167.8z"/>
	</g>
</g>
<g id="Layer_2">
	<g>
		<path class="st2" d="M280.48,51.511c0-6.771,5.127-11.339,11.701-11.339c5.456,0,8.282,2.991,9.729,5.883l-4.864,2.301
			c-0.724-1.742-2.597-3.188-4.864-3.188c-3.419,0-5.949,2.761-5.949,6.343s2.53,6.343,5.949,6.343c2.268,0,4.141-1.446,4.864-3.188
			l4.864,2.301c-1.413,2.827-4.272,5.883-9.729,5.883C285.607,62.851,280.48,58.249,280.48,51.511z"/>
		<path class="st2" d="M319.1,53.647h-9.104v8.809h-5.653V40.534h5.653v8.184h9.104v-8.184h5.653v21.922H319.1V53.647z"/>
		<path class="st2" d="M342.731,59.136h-9.104l-1.117,3.32h-6.146l8.25-21.922h7.099l8.283,21.922h-6.146L342.731,59.136z
			 M335.105,54.371h6.146l-3.09-8.907L335.105,54.371z"/>
		<path class="st2" d="M354.465,45.463h-6.146v-4.93h17.913v4.93h-6.113v16.993h-5.653V45.463z"/>
		<path class="st2" d="M378.819,40.172c6.705,0,11.701,4.667,11.701,11.339c0,6.672-4.996,11.339-11.701,11.339
			s-11.733-4.667-11.733-11.339C367.086,44.839,372.114,40.172,378.819,40.172z M378.819,45.168c-3.647,0-5.981,2.761-5.981,6.343
			c0,3.55,2.334,6.343,5.981,6.343c3.616,0,5.949-2.793,5.949-6.343C384.769,47.929,382.436,45.168,378.819,45.168z"/>
	</g>
	<g>
		<g>
			<path class="st2" d="M289.666,445.602c1.409,1.7,3.305,3.207,6.122,3.207c3.983,0,6.511-2.77,6.511-6.803v-22.591h4.032v22.64
				c0,7.045-4.519,10.349-10.3,10.349c-3.449,0-6.219-1.117-8.454-3.741L289.666,445.602z"/>
			<path class="st2" d="M311.479,419.415h21.23v3.595h-17.198v10.445h16.858v3.596h-16.858v11.174h17.198v3.596h-21.23V419.415z"/>
			<path class="st2" d="M337.126,444.192c2.138,2.381,5.636,4.616,10.203,4.616c5.781,0,7.628-3.109,7.628-5.588
				c0-3.887-3.936-4.955-8.211-6.121c-5.199-1.36-10.98-2.818-10.98-9.183c0-5.345,4.762-8.988,11.126-8.988
				c4.956,0,8.794,1.652,11.515,4.519l-2.43,2.964c-2.429-2.673-5.83-3.887-9.377-3.887c-3.887,0-6.655,2.089-6.655,5.149
				c0,3.256,3.741,4.227,7.87,5.345c5.296,1.409,11.32,3.061,11.32,9.862c0,4.713-3.207,9.522-11.951,9.522
				c-5.637,0-9.766-2.138-12.438-5.149L337.126,444.192z"/>
			<path class="st2" d="M362.727,419.415h4.032v19.725c0,5.928,3.206,9.669,9.183,9.669c5.976,0,9.182-3.741,9.182-9.669v-19.725
				h4.033v19.773c0,8.065-4.422,13.215-13.215,13.215c-8.794,0-13.215-5.198-13.215-13.166V419.415z"/>
			<path class="st2" d="M394.738,444.192c2.138,2.381,5.636,4.616,10.203,4.616c5.781,0,7.627-3.109,7.627-5.588
				c0-3.887-3.935-4.955-8.21-6.121c-5.198-1.36-10.98-2.818-10.98-9.183c0-5.345,4.762-8.988,11.126-8.988
				c4.955,0,8.794,1.652,11.515,4.519l-2.43,2.964c-2.429-2.673-5.83-3.887-9.376-3.887c-3.887,0-6.656,2.089-6.656,5.149
				c0,3.256,3.74,4.227,7.87,5.345c5.296,1.409,11.32,3.061,11.32,9.862c0,4.713-3.206,9.522-11.952,9.522
				c-5.635,0-9.765-2.138-12.438-5.149L394.738,444.192z"/>
		</g>
	</g>
	<g>
		<path class="st2" d="M96.62,430.112c1.602,1.934,3.756,3.646,6.96,3.646c4.529,0,7.401-3.148,7.401-7.733V400.34h4.585v25.74
			c0,8.01-5.137,11.766-11.71,11.766c-3.922,0-7.07-1.271-9.611-4.254L96.62,430.112z"/>
		<path class="st2" d="M121.418,400.34h24.138v4.087h-19.554v11.876h19.167v4.088h-19.167v12.704h19.554v4.088h-24.138V400.34z"/>
		<path class="st2" d="M150.578,428.511c2.43,2.706,6.407,5.247,11.6,5.247c6.573,0,8.672-3.535,8.672-6.353
			c0-4.419-4.474-5.634-9.335-6.959c-5.911-1.547-12.484-3.204-12.484-10.44c0-6.076,5.414-10.219,12.649-10.219
			c5.634,0,9.998,1.878,13.091,5.137l-2.762,3.37c-2.762-3.038-6.628-4.419-10.661-4.419c-4.419,0-7.567,2.375-7.567,5.854
			c0,3.701,4.253,4.806,8.948,6.076c6.021,1.603,12.871,3.48,12.871,11.214c0,5.357-3.646,10.826-13.588,10.826
			c-6.408,0-11.103-2.431-14.141-5.855L150.578,428.511z"/>
		<path class="st2" d="M179.684,400.34h4.584v22.426c0,6.739,3.646,10.992,10.44,10.992c6.794,0,10.439-4.253,10.439-10.992V400.34
			h4.585v22.481c0,9.169-5.027,15.024-15.024,15.024c-9.998,0-15.024-5.91-15.024-14.97V400.34z"/>
		<path class="st2" d="M216.081,428.511c2.43,2.706,6.407,5.247,11.6,5.247c6.573,0,8.672-3.535,8.672-6.353
			c0-4.419-4.474-5.634-9.335-6.959c-5.911-1.547-12.484-3.204-12.484-10.44c0-6.076,5.414-10.219,12.649-10.219
			c5.634,0,9.998,1.878,13.091,5.137l-2.762,3.37c-2.762-3.038-6.628-4.419-10.661-4.419c-4.419,0-7.567,2.375-7.567,5.854
			c0,3.701,4.253,4.806,8.948,6.076c6.021,1.603,12.87,3.48,12.87,11.214c0,5.357-3.646,10.826-13.588,10.826
			c-6.408,0-11.103-2.431-14.141-5.855L216.081,428.511z"/>
	</g>
	<g>
		<path class="st2" d="M415.758,134.985v8.973l3.015,0.911v7.676l-23.378-8.622v-8.903l23.378-8.622v7.676L415.758,134.985z
			 M409.87,142.135v-5.328l-8.237,2.664L409.87,142.135z"/>
		<path class="st2" d="M395.395,129.061v-8.026l15.737-5.047l-15.737-5.047v-8.026l23.378,8.622v8.903L395.395,129.061z"/>
		<path class="st2" d="M395.395,101.651v-7.08h23.378v7.08H395.395z"/>
		<path class="st2" d="M395.009,79.254c0-7.22,4.907-12.793,12.092-12.793c7.186,0,12.093,5.573,12.093,12.793
			s-4.907,12.793-12.093,12.793C399.916,92.047,395.009,86.475,395.009,79.254z M401.248,79.254c0,3.4,2.594,5.608,5.853,5.608
			c3.26,0,5.854-2.208,5.854-5.608s-2.594-5.608-5.854-5.608C403.842,73.646,401.248,75.854,401.248,79.254z"/>
		<path class="st2" d="M406.225,56.857h12.548v7.08h-23.378v-7.291l11.776-8.131h-11.776v-7.08h23.378v6.8L406.225,56.857z"/>
	</g>
	<g>
		<path class="st2" d="M275.379,71.707c-1.568,1.411-2.948,3.67-2.948,6.587c0,3.387,1.725,4.58,3.231,4.58
			c2.195,0,2.823-2.384,3.513-5.05c0.878-3.356,1.851-7.246,6.117-7.246c3.45,0,5.959,3.043,5.959,7.403
			c0,3.231-1.035,5.772-2.917,7.622l-2.321-1.819c1.695-1.599,2.447-3.795,2.447-6.054c0-2.321-1.191-3.921-2.948-3.921
			c-1.882,0-2.478,2.259-3.137,4.862c-0.909,3.419-1.976,7.403-6.431,7.403c-3.262,0-6.304-2.258-6.304-7.904
			c0-3.733,1.349-6.462,3.324-8.25L275.379,71.707z"/>
		<path class="st2" d="M286.169,101.384l-16.154-4.329v-3.356l20.922-5.991v3.513l-16.782,4.328l16.782,4.58v2.541l-16.782,4.548
			l16.782,4.329v3.513l-20.922-5.96v-3.356L286.169,101.384z"/>
		<path class="st2" d="M290.937,117.732v14.052h-2.761v-10.916h-6.117v10.696h-2.761v-10.696h-6.524v10.916h-2.761v-14.052H290.937z
			"/>
		<path class="st2" d="M290.937,135.708v14.052h-2.761v-10.916h-6.117v10.696h-2.761v-10.696h-6.524v10.916h-2.761v-14.052H290.937z
			"/>
		<path class="st2" d="M288.177,158.798v-6.493h2.761v16.091h-2.761v-6.461h-18.162v-3.137H288.177z"/>
		<path class="st2" d="M290.937,175.896v9.818c0,3.733-2.29,5.897-5.333,5.897c-2.635,0-4.392-1.725-4.799-3.638
			c-0.345,2.227-2.604,4.047-5.144,4.047c-3.294,0-5.646-2.196-5.646-6.054v-10.069H290.937z M272.775,185.274
			c0,2.196,1.254,3.513,3.293,3.513c1.726,0,3.231-1.192,3.231-3.513v-6.242h-6.524V185.274z M282.06,185.118
			c0,2.102,1.318,3.262,3.042,3.262c1.726,0,3.074-1.161,3.074-3.262v-6.085h-6.117V185.118z"/>
		<path class="st2" d="M274.344,209.148v-10.257l-4.329-1.694v-3.45l20.922,8.312v3.921l-20.922,8.312v-3.45L274.344,209.148z
			 M277.135,199.801v8.438l11.072-4.235L277.135,199.801z"/>
		<path class="st2" d="M290.937,216.806v9.818c0,3.732-2.29,5.897-5.333,5.897c-2.635,0-4.392-1.726-4.799-3.639
			c-0.345,2.227-2.604,4.046-5.144,4.046c-3.294,0-5.646-2.195-5.646-6.054v-10.069H290.937z M272.775,226.185
			c0,2.196,1.254,3.513,3.293,3.513c1.726,0,3.231-1.192,3.231-3.513v-6.242h-6.524V226.185z M282.06,226.028
			c0,2.102,1.318,3.262,3.042,3.262c1.726,0,3.074-1.161,3.074-3.262v-6.085h-6.117V226.028z"/>
		<path class="st2" d="M278.766,241.903l12.171-8.187v3.608l-9.348,6.148l9.348,6.085v3.639l-12.171-8.155h-8.751v-3.137H278.766z"
			/>
		<path class="st2" d="M274.313,257.509c-1.004,0.878-1.882,2.04-1.882,3.764c0,2.416,1.63,3.921,4.077,3.921h14.429v3.137h-14.46
			c-4.643,0-6.838-2.948-6.838-6.838c0-2.196,0.659-4.046,2.289-5.489L274.313,257.509z"/>
		<path class="st2" d="M290.937,273.008v14.052h-2.761v-10.916h-6.117v10.696h-2.761v-10.696h-6.524v10.916h-2.761v-14.052H290.937z
			"/>
		<path class="st2" d="M275.379,291.486c-1.568,1.412-2.948,3.67-2.948,6.587c0,3.388,1.725,4.579,3.231,4.579
			c2.195,0,2.823-2.384,3.513-5.05c0.878-3.356,1.851-7.246,6.117-7.246c3.45,0,5.959,3.042,5.959,7.403
			c0,3.231-1.035,5.771-2.917,7.622l-2.321-1.819c1.695-1.6,2.447-3.795,2.447-6.054c0-2.32-1.191-3.921-2.948-3.921
			c-1.882,0-2.478,2.258-3.137,4.862c-0.909,3.418-1.976,7.402-6.431,7.402c-3.262,0-6.304-2.258-6.304-7.905
			c0-3.732,1.349-6.462,3.324-8.25L275.379,291.486z"/>
		<path class="st2" d="M290.937,309.495v3.168h-12.642c-3.576,0-5.865,1.976-5.865,5.646s2.289,5.614,5.865,5.614h12.642v3.169
			h-12.704c-5.207,0-8.594-2.918-8.594-8.783c0-5.866,3.418-8.814,8.562-8.814H290.937z"/>
		<path class="st2" d="M275.379,332.271c-1.568,1.412-2.948,3.67-2.948,6.587c0,3.388,1.725,4.58,3.231,4.58
			c2.195,0,2.823-2.384,3.513-5.05c0.878-3.356,1.851-7.246,6.117-7.246c3.45,0,5.959,3.042,5.959,7.403
			c0,3.231-1.035,5.771-2.917,7.622l-2.321-1.819c1.695-1.6,2.447-3.795,2.447-6.055c0-2.32-1.191-3.921-2.948-3.921
			c-1.882,0-2.478,2.258-3.137,4.862c-0.909,3.418-1.976,7.402-6.431,7.402c-3.262,0-6.304-2.258-6.304-7.905
			c0-3.732,1.349-6.462,3.324-8.25L275.379,332.271z"/>
	</g>
	<g>
		<path class="st2" d="M327.949,31.687c0.979,1.052,2.286,1.996,4.137,1.996c2.612,0,4.245-1.742,4.245-4.391V12.818h4.245v16.546
			c0,5.516-3.483,8.092-8.164,8.092c-2.504,0-4.717-0.726-6.423-2.54L327.949,31.687z"/>
		<path class="st2" d="M342.585,12.818h16.583v3.737H346.83v6.277h12.083v3.737H346.83v6.713h12.338v3.737h-16.583V12.818z"/>
		<path class="st2" d="M363.176,30.344c1.669,1.778,4.281,3.338,7.656,3.338c3.482,0,4.861-1.705,4.861-3.302
			c0-2.177-2.576-2.831-5.515-3.592c-3.955-0.98-8.6-2.141-8.6-7.257c0-3.991,3.52-7.076,8.817-7.076
			c3.773,0,6.821,1.198,9.071,3.375l-2.432,3.157c-1.887-1.887-4.463-2.758-7.003-2.758c-2.504,0-4.101,1.197-4.101,3.012
			c0,1.887,2.468,2.503,5.334,3.229c3.992,1.016,8.745,2.25,8.745,7.511c0,4.028-2.83,7.475-9.361,7.475
			c-4.463,0-7.692-1.561-9.834-3.846L363.176,30.344z"/>
		<path class="st2" d="M383.584,30.344c1.669,1.778,4.281,3.338,7.656,3.338c3.482,0,4.861-1.705,4.861-3.302
			c0-2.177-2.576-2.831-5.515-3.592c-3.955-0.98-8.6-2.141-8.6-7.257c0-3.991,3.52-7.076,8.817-7.076
			c3.773,0,6.821,1.198,9.071,3.375l-2.432,3.157c-1.887-1.887-4.463-2.758-7.003-2.758c-2.504,0-4.101,1.197-4.101,3.012
			c0,1.887,2.468,2.503,5.334,3.229c3.992,1.016,8.745,2.25,8.745,7.511c0,4.028-2.83,7.475-9.361,7.475
			c-4.463,0-7.692-1.561-9.834-3.846L383.584,30.344z"/>
		<path class="st2" d="M402.194,12.818h16.583v3.737h-12.338v6.277h12.083v3.737h-12.083v6.713h12.338v3.737h-16.583V12.818z"/>
	</g>
	<g>
		<path class="st2" d="M311.548,36.509V31.12c0-2.694,1.85-4.202,4.042-4.202c2.192,0,4.041,1.548,4.041,4.202v3.72h5.329v1.669
			H311.548z M313.037,31.322v3.519h5.107v-3.519c0-1.589-1.046-2.675-2.554-2.675C314.082,28.647,313.037,29.733,313.037,31.322z"/>
		<path class="st2" d="M321.985,17.811v6.796l2.976,1.186v1.85l-13.412-5.389v-2.071l13.412-5.409v1.85L321.985,17.811z
			 M320.496,24.125v-5.811l-7.459,2.896L320.496,24.125z"/>
	</g>
	<g>
		<path class="st2" d="M296.517,194.052h4.126c2.063,0,3.217,1.417,3.217,3.096c0,1.678-1.186,3.095-3.217,3.095h-2.848v4.08h-1.278
			V194.052z M300.489,195.191h-2.694v3.911h2.694c1.216,0,2.048-0.801,2.048-1.955C302.537,195.992,301.704,195.191,300.489,195.191
			z"/>
		<path class="st2" d="M310.836,202.043h-5.204l-0.909,2.279h-1.417l4.127-10.27h1.586l4.141,10.27h-1.415L310.836,202.043z
			 M306.001,200.903h4.45l-2.218-5.712L306.001,200.903z"/>
	</g>
	<g>
		<path class="st2" d="M310.747,78.799h-6.9l-1.07,2.795h-2.795l5.722-14.564h3.188l5.721,14.564h-2.795L310.747,78.799z
			 M304.567,76.55h5.459l-2.729-7.358L304.567,76.55z"/>
		<path class="st2" d="M321.812,67.03h6.397c3.057,0,4.76,2.096,4.76,4.563s-1.725,4.563-4.76,4.563h-3.843v5.437h-2.555V67.03z
			 M327.859,69.279h-3.493v4.629h3.493c1.441,0,2.489-0.917,2.489-2.314S329.301,69.279,327.859,69.279z"/>
		<path class="st2" d="M342.684,78.799h-6.9l-1.07,2.795h-2.795l5.722-14.564h3.188l5.721,14.564h-2.795L342.684,78.799z
			 M336.504,76.55h5.459l-2.729-7.358L336.504,76.55z"/>
	</g>
	<g>
		<path class="st2" d="M112.416,469.943h-2.371l-0.368,0.96h-0.96l1.966-5.004h1.095l1.965,5.004h-0.96L112.416,469.943z
			 M110.293,469.17h1.876l-0.938-2.528L110.293,469.17z"/>
		<path class="st2" d="M116.217,465.899h2.198c1.05,0,1.635,0.72,1.635,1.568c0,0.848-0.593,1.568-1.635,1.568h-1.32v1.868h-0.878
			V465.899z M118.295,466.672h-1.2v1.59h1.2c0.495,0,0.855-0.315,0.855-0.795C119.151,466.987,118.791,466.672,118.295,466.672z"/>
		<path class="st2" d="M123.388,469.943h-2.371l-0.368,0.96h-0.96l1.966-5.004h1.095l1.965,5.004h-0.96L123.388,469.943z
			 M121.265,469.17h1.876l-0.938-2.528L121.265,469.17z"/>
	</g>
	<g>
		<path class="st2" d="M181.177,357.513h-1.907v1.599h-0.643v-3.666h0.643v1.5h1.907v-1.5h0.643v3.666h-0.643V357.513z"/>
		<path class="st2" d="M182.603,355.446h2.512v0.566h-1.869v0.951h1.83v0.566h-1.83v1.017h1.869v0.566h-2.512V355.446z"/>
		<path class="st2" d="M188.327,357.513h-1.907v1.599h-0.643v-3.666h0.643v1.5h1.907v-1.5h0.643v3.666h-0.643V357.513z"/>
		<path class="st2" d="M191.287,358.1c0.253,0.27,0.649,0.506,1.16,0.506c0.528,0,0.737-0.258,0.737-0.5
			c0-0.33-0.39-0.43-0.836-0.545c-0.599-0.149-1.303-0.325-1.303-1.099c0-0.605,0.533-1.072,1.336-1.072
			c0.572,0,1.033,0.182,1.374,0.512l-0.368,0.478c-0.286-0.286-0.676-0.418-1.061-0.418c-0.379,0-0.621,0.182-0.621,0.457
			c0,0.286,0.374,0.379,0.808,0.489c0.605,0.154,1.325,0.342,1.325,1.138c0,0.611-0.429,1.132-1.418,1.132
			c-0.676,0-1.165-0.236-1.49-0.583L191.287,358.1z"/>
		<path class="st2" d="M194.433,355.446h0.649v2.199c0,0.582,0.324,0.961,0.94,0.961c0.61,0,0.934-0.38,0.934-0.961v-2.199h0.649
			v2.215c0,0.912-0.522,1.517-1.583,1.517c-1.066,0-1.589-0.61-1.589-1.511V355.446z"/>
	</g>
	<g>
		<path class="st2" d="M368.094,477.196h-3.252v2.726h-1.097v-6.25h1.097v2.558h3.252v-2.558h1.097v6.25h-1.097V477.196z"/>
		<path class="st2" d="M370.525,473.672h4.283v0.964h-3.186v1.622h3.121v0.964h-3.121v1.735h3.186v0.964h-4.283V473.672z"/>
		<path class="st2" d="M380.284,477.196h-3.252v2.726h-1.097v-6.25h1.097v2.558h3.252v-2.558h1.097v6.25h-1.097V477.196z"/>
		<path class="st2" d="M385.331,478.198c0.431,0.46,1.106,0.862,1.977,0.862c0.9,0,1.256-0.44,1.256-0.852
			c0-0.562-0.665-0.733-1.425-0.929c-1.022-0.254-2.221-0.554-2.221-1.874c0-1.031,0.909-1.828,2.277-1.828
			c0.975,0,1.762,0.31,2.343,0.872l-0.628,0.815c-0.487-0.487-1.153-0.712-1.809-0.712c-0.647,0-1.059,0.31-1.059,0.779
			c0,0.487,0.637,0.646,1.378,0.833c1.031,0.262,2.259,0.583,2.259,1.941c0,1.041-0.731,1.931-2.418,1.931
			c-1.153,0-1.987-0.402-2.54-0.993L385.331,478.198z"/>
		<path class="st2" d="M390.695,473.672h1.106v3.749c0,0.992,0.553,1.639,1.603,1.639c1.04,0,1.593-0.648,1.593-1.639v-3.749h1.106
			v3.776c0,1.556-0.89,2.587-2.699,2.587c-1.818,0-2.708-1.039-2.708-2.576V473.672z"/>
	</g>
	<g>
		<path class="st2" d="M304.453,90.98h-4.792v4.019h-1.615v-9.211h1.615v3.77h4.792v-3.77h1.616v9.211h-1.616V90.98z"/>
		<path class="st2" d="M308.029,85.788h6.311v1.422h-4.695v2.389h4.599v1.422h-4.599v2.555h4.695v1.422h-6.311V85.788z"/>
		<path class="st2" d="M322.403,90.98h-4.792v4.019h-1.615v-9.211h1.615v3.77h4.792v-3.77h1.616v9.211h-1.616V90.98z"/>
		<path class="st2" d="M329.832,92.458c0.636,0.677,1.63,1.271,2.914,1.271c1.325,0,1.851-0.649,1.851-1.256
			c0-0.829-0.98-1.077-2.1-1.367c-1.505-0.373-3.272-0.815-3.272-2.762c0-1.519,1.34-2.692,3.355-2.692
			c1.437,0,2.596,0.456,3.452,1.284l-0.925,1.201c-0.719-0.718-1.699-1.049-2.665-1.049c-0.953,0-1.561,0.456-1.561,1.146
			c0,0.718,0.938,0.953,2.029,1.229c1.52,0.387,3.328,0.856,3.328,2.858c0,1.533-1.077,2.845-3.562,2.845
			c-1.698,0-2.928-0.594-3.742-1.463L329.832,92.458z"/>
		<path class="st2" d="M337.729,85.788h1.63v5.524c0,1.464,0.814,2.417,2.361,2.417c1.532,0,2.348-0.953,2.348-2.417v-5.524h1.629
			v5.565c0,2.292-1.312,3.811-3.977,3.811c-2.68,0-3.991-1.533-3.991-3.797V85.788z"/>
	</g>
	<g>
		<path class="st2" d="M375.478,423.419v-2.467h-2.069v-0.832h4.743v0.832h-1.941v2.467h1.941v0.832h-4.743v-0.832H375.478z"/>
		<path class="st2" d="M378.151,425.262v3.25h-0.732v-2.418h-1.23v2.368h-0.732v-2.368h-1.315v2.418h-0.732v-3.25H378.151z"/>
		<path class="st2" d="M375.478,432.664v-2.467h-2.069v-0.832h4.743v0.832h-1.941v2.467h1.941v0.832h-4.743v-0.832H375.478z"/>
		<path class="st2" d="M374.717,436.491c-0.349,0.327-0.654,0.839-0.654,1.501c0,0.682,0.334,0.952,0.646,0.952
			c0.427,0,0.555-0.505,0.704-1.081c0.192-0.774,0.42-1.685,1.423-1.685c0.781,0,1.386,0.689,1.386,1.728
			c0,0.739-0.234,1.337-0.661,1.777l-0.618-0.476c0.369-0.37,0.54-0.875,0.54-1.373c0-0.49-0.234-0.803-0.59-0.803
			c-0.37,0-0.491,0.483-0.633,1.045c-0.199,0.782-0.441,1.714-1.472,1.714c-0.79,0-1.465-0.555-1.465-1.835
			c0-0.874,0.306-1.508,0.753-1.927L374.717,436.491z"/>
		<path class="st2" d="M378.151,440.56v0.839h-2.845c-0.754,0-1.244,0.42-1.244,1.216c0,0.789,0.49,1.209,1.244,1.209h2.845v0.839
			h-2.866c-1.18,0-1.962-0.675-1.962-2.048c0-1.379,0.789-2.055,1.955-2.055H378.151z"/>
	</g>
	<g>
		<path class="st2" d="M331.849,16.087v-1.74h-1.46V13.76h3.346v0.587h-1.37v1.74h1.37v0.587h-3.346v-0.587H331.849z"/>
		<path class="st2" d="M333.735,17.387v2.293h-0.517v-1.706h-0.868v1.671h-0.517v-1.671h-0.928v1.706h-0.517v-2.293H333.735z"/>
		<path class="st2" d="M331.849,22.609v-1.74h-1.46v-0.587h3.346v0.587h-1.37v1.74h1.37v0.587h-3.346v-0.587H331.849z"/>
		<path class="st2" d="M331.312,25.309c-0.246,0.231-0.462,0.592-0.462,1.059c0,0.481,0.236,0.672,0.456,0.672
			c0.301,0,0.391-0.356,0.497-0.763c0.136-0.546,0.296-1.188,1.004-1.188c0.551,0,0.978,0.486,0.978,1.219
			c0,0.522-0.165,0.943-0.466,1.254l-0.436-0.335c0.26-0.261,0.381-0.617,0.381-0.969c0-0.346-0.165-0.566-0.416-0.566
			c-0.261,0-0.347,0.341-0.446,0.737c-0.141,0.552-0.311,1.209-1.038,1.209c-0.557,0-1.033-0.391-1.033-1.294
			c0-0.617,0.216-1.064,0.531-1.359L331.312,25.309z"/>
		<path class="st2" d="M333.735,28.179v0.592h-2.007c-0.532,0-0.878,0.296-0.878,0.858c0,0.557,0.346,0.853,0.878,0.853h2.007v0.592
			h-2.022c-0.832,0-1.384-0.476-1.384-1.445c0-0.973,0.557-1.449,1.379-1.449H333.735z"/>
	</g>
	<g>
		<path class="st2" d="M296.517,183.992l15.89-21.54h-15.89v-6.306h25.272v5.75l-15.89,21.591h16.243v6.306h-25.626V183.992z"/>
		<path class="st2" d="M327.591,156.146h23.811v6.154h-16.647v7.314h16.294v6.154h-16.294v7.819h16.647v6.205h-23.811V156.146z"/>
		<path class="st2" d="M357.001,156.146h7.265v19.976c0,4.691,2.572,7.92,7.819,7.92c5.145,0,7.718-3.229,7.718-7.92v-19.976h7.264
			v20.178c0,8.374-4.792,14.074-14.981,14.074c-10.291,0-15.084-5.751-15.084-14.024V156.146z"/>
		<path class="st2" d="M395.341,179.603c2.371,2.472,6.054,4.54,10.694,4.54c3.936,0,5.853-1.867,5.853-3.783
			c0-2.522-2.927-3.38-6.811-4.288c-5.499-1.261-12.561-2.774-12.561-10.291c0-5.599,4.843-10.14,12.763-10.14
			c5.347,0,9.786,1.614,13.115,4.692l-3.985,5.246c-2.724-2.522-6.355-3.683-9.635-3.683c-3.229,0-4.943,1.413-4.943,3.43
			c0,2.27,2.824,2.977,6.709,3.884c5.549,1.261,12.611,2.926,12.611,10.392c0,6.154-4.389,10.795-13.469,10.795
			c-6.457,0-11.099-2.169-14.276-5.347L395.341,179.603z"/>
	</g>
	<g>
		<path class="st2" d="M269.315,494.4l11.795-15.988h-11.795v-4.68h18.759v4.269l-11.795,16.026h12.056v4.68h-19.021V494.4z"/>
		<path class="st2" d="M292.378,473.731h17.674v4.568h-12.357v5.43h12.094v4.568h-12.094v5.804h12.357v4.605h-17.674V473.731z"/>
		<path class="st2" d="M314.205,473.731h5.392v14.828c0,3.483,1.91,5.879,5.804,5.879c3.819,0,5.729-2.396,5.729-5.879v-14.828
			h5.392v14.977c0,6.216-3.557,10.447-11.12,10.447c-7.639,0-11.196-4.268-11.196-10.409V473.731z"/>
		<path class="st2" d="M342.658,491.143c1.76,1.835,4.494,3.369,7.938,3.369c2.92,0,4.343-1.385,4.343-2.808
			c0-1.873-2.172-2.509-5.056-3.183c-4.081-0.936-9.323-2.059-9.323-7.639c0-4.157,3.594-7.526,9.473-7.526
			c3.969,0,7.264,1.198,9.735,3.482l-2.958,3.894c-2.022-1.872-4.718-2.733-7.151-2.733c-2.396,0-3.67,1.048-3.67,2.546
			c0,1.685,2.097,2.209,4.98,2.883c4.119,0.936,9.361,2.172,9.361,7.714c0,4.568-3.258,8.013-9.998,8.013
			c-4.793,0-8.237-1.61-10.596-3.969L342.658,491.143z"/>
	</g>
	<g>
		<path class="st2" d="M110.804,364.161l8.359-11.33h-8.359v-3.317h13.294v3.025l-8.359,11.357h8.544v3.316h-13.48V364.161z"/>
		<path class="st2" d="M127.146,349.514h12.524v3.237h-8.757v3.848h8.571v3.237h-8.571v4.113h8.757v3.264h-12.524V349.514z"/>
		<path class="st2" d="M142.614,349.514h3.821v10.508c0,2.468,1.354,4.166,4.113,4.166c2.707,0,4.06-1.698,4.06-4.166v-10.508h3.821
			v10.614c0,4.405-2.521,7.403-7.881,7.403c-5.413,0-7.934-3.025-7.934-7.377V349.514z"/>
		<path class="st2" d="M162.777,361.853c1.247,1.301,3.184,2.389,5.625,2.389c2.069,0,3.078-0.982,3.078-1.99
			c0-1.327-1.539-1.778-3.582-2.256c-2.892-0.663-6.607-1.459-6.607-5.413c0-2.945,2.547-5.333,6.713-5.333
			c2.813,0,5.148,0.849,6.899,2.468l-2.096,2.76c-1.433-1.327-3.344-1.938-5.068-1.938c-1.698,0-2.601,0.743-2.601,1.805
			c0,1.193,1.486,1.565,3.529,2.043c2.919,0.663,6.634,1.539,6.634,5.466c0,3.237-2.309,5.679-7.085,5.679
			c-3.396,0-5.837-1.141-7.509-2.812L162.777,361.853z"/>
	</g>
	<g>
		<path class="st2" d="M171.109,471.313h-5.27v4.256h-1.428v-9.527h1.428v3.999h5.27v-3.999h1.428v9.527h-1.428V471.313z"/>
		<path class="st2" d="M174.648,466.042h6.399v1.257h-4.971v2.785h4.87v1.257h-4.87v2.97h4.971v1.257h-6.399V466.042z"/>
		<path class="st2" d="M185.573,471.584l-3.728-5.542h1.642l2.8,4.256l2.771-4.256h1.657l-3.714,5.542v3.985h-1.428V471.584z"/>
		<path class="st2" d="M195.139,474.398l5.113-7.099h-5.113v-1.257h6.956v1.171l-5.113,7.099h5.213v1.257h-7.056V474.398z"/>
		<path class="st2" d="M203.921,466.042h6.399v1.257h-4.971v2.785h4.87v1.257h-4.87v2.97h4.971v1.257h-6.399V466.042z"/>
		<path class="st2" d="M212.103,466.042h1.443v5.756c0,1.628,0.9,2.671,2.571,2.671c1.672,0,2.557-1.043,2.557-2.671v-5.756h1.443
			v5.785c0,2.37-1.329,3.913-3.999,3.913s-4.013-1.557-4.013-3.899V466.042z"/>
		<path class="st2" d="M222.47,473.127c0.643,0.714,1.671,1.342,3,1.342c1.543,0,2.085-0.786,2.085-1.471c0-1-1.085-1.286-2.299-1.6
			c-1.528-0.4-3.299-0.843-3.299-2.785c0-1.571,1.386-2.714,3.371-2.714c1.471,0,2.628,0.471,3.47,1.329l-0.828,1.057
			c-0.729-0.771-1.728-1.114-2.757-1.114c-1.057,0-1.785,0.543-1.785,1.342c0,0.858,1.028,1.128,2.214,1.429
			c1.557,0.414,3.37,0.9,3.37,2.928c0,1.485-1.028,2.871-3.599,2.871c-1.699,0-2.942-0.615-3.756-1.514L222.47,473.127z"/>
	</g>
	<g>
		<path class="st2" d="M106.909,349.685v9.512h-2.144v-7.076h-3.601v6.931h-2.144v-6.931H95.17v7.076h-2.144v-9.512H106.909z"/>
		<path class="st2" d="M106.909,362.316v2.436H95.17v6.119h-2.144v-8.555H106.909z"/>
		<path class="st2" d="M99.958,379.048c4.267,0,7.181,3.185,7.181,7.181c0,2.913-1.457,4.641-3.122,5.682l-1.062-2.081
			c1.145-0.666,2.019-1.998,2.019-3.601c0-2.644-2.102-4.684-5.016-4.684c-2.914,0-5.016,2.04-5.016,4.684
			c0,1.603,0.854,2.935,2.019,3.601l-1.062,2.081c-1.665-1.062-3.122-2.769-3.122-5.682
			C92.777,382.232,95.691,379.048,99.958,379.048z"/>
		<path class="st2" d="M99.083,404.146v-7.222h-6.057v-2.436h13.882v2.436h-5.682v7.222h5.682v2.436H93.027v-2.436H99.083z"/>
		<path class="st2" d="M106.909,410.159v2.456h-8.325c-2.206,0-3.643,1.229-3.643,3.559c0,2.311,1.437,3.539,3.643,3.539h8.325
			v2.455h-8.388c-3.455,0-5.744-1.977-5.744-5.994c0-4.037,2.31-6.015,5.723-6.015H106.909z"/>
		<path class="st2" d="M106.909,425.746v2.436H93.027v-2.436H106.909z"/>
	</g>
	<g>
		<path class="st2" d="M390.232,67.2v11.3h-2.921v-7.9h-3.472v7.733h-2.921V70.6h-3.711v7.9h-2.944V67.2H390.232z"/>
		<path class="st2" d="M390.232,81.158v3.4h-12.977v6.751h-2.992V81.158H390.232z"/>
		<path class="st2" d="M382.236,97.168c4.907,0,8.26,3.711,8.26,8.379c0,3.639-1.916,5.674-3.902,6.799l-1.437-2.921
			c1.292-0.67,2.322-2.107,2.322-3.878c0-2.777-2.227-4.884-5.243-4.884s-5.243,2.106-5.243,4.884c0,1.771,1.005,3.208,2.322,3.878
			l-1.413,2.921c-1.986-1.149-3.926-3.16-3.926-6.799C373.977,100.879,377.328,97.168,382.236,97.168z"/>
		<path class="st2" d="M380.967,125.323v-7.542h-6.703v-3.399h15.969v3.399h-6.272v7.542h6.272v3.424h-15.969v-3.424H380.967z"/>
		<path class="st2" d="M390.232,131.883v3.448h-9.48c-2.227,0-3.759,1.221-3.759,3.71c0,2.442,1.532,3.663,3.759,3.663h9.48v3.448
			h-9.576c-3.975,0-6.68-2.274-6.68-7.111c0-4.884,2.729-7.158,6.655-7.158H390.232z"/>
		<path class="st2" d="M390.232,149.312v3.399h-15.969v-3.399H390.232z"/>
	</g>
	<g>
		<path class="st2" d="M303.365,353.184h11.056v2.858h-7.73v3.397h7.567v2.858h-7.567v3.631h7.73v2.881h-11.056V353.184z"/>
		<path class="st2" d="M317.022,353.184h3.326v12.697h6.606v2.928h-9.932V353.184z"/>
		<path class="st2" d="M334.521,361.008c0-4.801,3.631-8.082,8.199-8.082c3.56,0,5.552,1.875,6.652,3.818l-2.858,1.406
			c-0.655-1.264-2.061-2.272-3.794-2.272c-2.717,0-4.779,2.179-4.779,5.13s2.061,5.13,4.779,5.13c1.733,0,3.139-0.983,3.794-2.272
			l2.858,1.383c-1.125,1.944-3.092,3.841-6.652,3.841C338.152,369.09,334.521,365.81,334.521,361.008z"/>
		<path class="st2" d="M362.07,362.25h-7.379v6.559h-3.326v-15.625h3.326v6.137h7.379v-6.137h3.35v15.625h-3.35V362.25z"/>
		<path class="st2" d="M368.488,353.184h3.374v9.276c0,2.179,1.194,3.678,3.63,3.678c2.39,0,3.584-1.499,3.584-3.678v-9.276h3.374
			v9.37c0,3.889-2.225,6.536-6.958,6.536c-4.779,0-7.004-2.671-7.004-6.512V353.184z"/>
		<path class="st2" d="M385.542,353.184h3.326v15.625h-3.326V353.184z"/>
	</g>
	<g>
		<path class="st2" d="M236.78,440.053c3.518,0,5.92,2.557,5.92,5.766c0,1.854-0.807,3.227-2.025,4.205l-0.532-0.824
			c0.995-0.721,1.665-1.974,1.665-3.381c0-2.66-2.042-4.736-5.028-4.736c-2.952,0-5.029,2.076-5.029,4.736
			c0,1.407,0.669,2.66,1.665,3.381l-0.515,0.824c-1.253-1.013-2.042-2.351-2.042-4.205
			C230.859,442.61,233.261,440.053,236.78,440.053z"/>
		<path class="st2" d="M236.505,460.251v-7.259h-5.44v-0.978h11.447v0.978h-5.114v7.259h5.114v0.995h-11.447v-0.995H236.505z"/>
		<path class="st2" d="M242.511,464.077v0.995h-7.036c-2.317,0-3.724,1.219-3.724,3.467s1.407,3.466,3.724,3.466h7.036v0.995h-7.053
			c-2.831,0-4.599-1.51-4.599-4.462c0-2.935,1.785-4.463,4.599-4.463H242.511z"/>
		<path class="st2" d="M235.956,479.23l6.556-4.548v1.184l-5.629,3.86l5.629,3.861v1.184l-6.556-4.548h-4.891v-0.995H235.956z"/>
		<path class="st2" d="M242.511,486.454v0.978h-11.447v-0.978H242.511z"/>
		<path class="st2" d="M240.95,491.259h-9.885v-0.978h11.447v0.995l-9.748,7.173h9.748v0.978h-11.447v-0.961L240.95,491.259z"/>
	</g>
	<g>
		<path class="st2" d="M410.437,194.325c5.571,0,9.375,4.049,9.375,9.131c0,2.935-1.276,5.109-3.206,6.658l-0.843-1.304
			c1.576-1.142,2.636-3.125,2.636-5.354c0-4.212-3.233-7.501-7.962-7.501c-4.675,0-7.963,3.289-7.963,7.501
			c0,2.228,1.06,4.212,2.636,5.354l-0.814,1.304c-1.984-1.603-3.234-3.723-3.234-6.658
			C401.061,198.374,404.865,194.325,410.437,194.325z"/>
		<path class="st2" d="M410.002,226.315V214.82h-8.615v-1.549h18.126v1.549h-8.098v11.495h8.098v1.577h-18.126v-1.577H410.002z"/>
		<path class="st2" d="M419.513,232.38v1.577h-11.142c-3.669,0-5.897,1.929-5.897,5.489s2.229,5.49,5.897,5.49h11.142v1.576h-11.169
			c-4.484,0-7.283-2.392-7.283-7.066c0-4.647,2.826-7.066,7.283-7.066H419.513z"/>
		<path class="st2" d="M409.132,256.382l10.381-7.202v1.875l-8.913,6.115l8.913,6.114v1.875l-10.381-7.201h-7.745v-1.576H409.132z"
			/>
		<path class="st2" d="M419.513,267.827v1.549h-18.126v-1.549H419.513z"/>
		<path class="st2" d="M417.04,275.438h-15.653v-1.549h18.126v1.576l-15.436,11.359h15.436v1.549h-18.126v-1.521L417.04,275.438z"/>
	</g>
	<g>
		<path class="st2" d="M98.812,452.04c0-6.249,4.732-10.465,10.799-10.465c5.036,0,7.644,2.76,8.979,5.43l-4.49,2.123
			c-0.667-1.607-2.396-2.942-4.489-2.942c-3.155,0-5.491,2.548-5.491,5.854s2.336,5.854,5.491,5.854
			c2.093,0,3.822-1.334,4.489-2.942l4.49,2.124c-1.305,2.608-3.943,5.43-8.979,5.43C103.545,462.506,98.812,458.259,98.812,452.04z"
			/>
		<path class="st2" d="M134.459,454.012h-8.403v8.13h-5.217v-20.233h5.217v7.554h8.403v-7.554h5.217v20.233h-5.217V454.012z"/>
		<path class="st2" d="M143.32,441.908h5.308v11.861c0,2.396,1.274,4.125,4.095,4.125c2.791,0,4.065-1.729,4.065-4.125v-11.861
			h5.309v12.013c0,5.035-2.882,8.585-9.374,8.585c-6.491,0-9.403-3.58-9.403-8.555V441.908z"/>
		<path class="st2" d="M164.709,452.04c0-6.249,4.732-10.465,10.799-10.465c5.035,0,7.644,2.76,8.979,5.43l-4.49,2.123
			c-0.667-1.607-2.396-2.942-4.489-2.942c-3.155,0-5.491,2.548-5.491,5.854s2.336,5.854,5.491,5.854
			c2.093,0,3.822-1.334,4.489-2.942l4.49,2.124c-1.305,2.608-3.944,5.43-8.979,5.43C169.442,462.506,164.709,458.259,164.709,452.04
			z"/>
		<path class="st2" d="M200.356,454.012h-8.403v8.13h-5.218v-20.233h5.218v7.554h8.403v-7.554h5.217v20.233h-5.217V454.012z"/>
		<path class="st2" d="M219.015,441.575c6.188,0,10.799,4.308,10.799,10.465c0,6.158-4.611,10.466-10.799,10.466
			c-6.188,0-10.83-4.308-10.83-10.466C208.186,445.883,212.827,441.575,219.015,441.575z M219.015,446.186
			c-3.367,0-5.521,2.548-5.521,5.854c0,3.276,2.154,5.854,5.521,5.854c3.337,0,5.491-2.578,5.491-5.854
			C224.506,448.733,222.352,446.186,219.015,446.186z"/>
	</g>
	<g>
		<path class="st2" d="M270.977,381.772c0-5.718,4.33-9.576,9.881-9.576c4.607,0,6.994,2.525,8.216,4.968l-4.107,1.943
			c-0.611-1.471-2.193-2.692-4.108-2.692c-2.887,0-5.023,2.332-5.023,5.357c0,3.024,2.137,5.356,5.023,5.356
			c1.915,0,3.497-1.222,4.108-2.692l4.107,1.943c-1.193,2.387-3.608,4.968-8.216,4.968
			C275.307,391.348,270.977,387.462,270.977,381.772z"/>
		<path class="st2" d="M303.592,383.576h-7.688v7.438h-4.774v-18.513h4.774v6.911h7.688v-6.911h4.773v18.513h-4.773V383.576z"/>
		<path class="st2" d="M311.698,372.502h4.857v10.853c0,2.192,1.166,3.774,3.747,3.774c2.554,0,3.72-1.582,3.72-3.774v-10.853h4.856
			v10.991c0,4.607-2.637,7.854-8.576,7.854s-8.604-3.275-8.604-7.827V372.502z"/>
		<path class="st2" d="M331.27,381.772c0-5.718,4.33-9.576,9.881-9.576c4.607,0,6.994,2.525,8.216,4.968l-4.107,1.943
			c-0.611-1.471-2.193-2.692-4.108-2.692c-2.887,0-5.023,2.332-5.023,5.357c0,3.024,2.137,5.356,5.023,5.356
			c1.915,0,3.497-1.222,4.108-2.692l4.107,1.943c-1.193,2.387-3.608,4.968-8.216,4.968C335.6,391.348,331.27,387.462,331.27,381.772
			z"/>
		<path class="st2" d="M363.885,383.576h-7.688v7.438h-4.774v-18.513h4.774v6.911h7.688v-6.911h4.773v18.513h-4.773V383.576z"/>
		<path class="st2" d="M380.957,372.196c5.662,0,9.881,3.941,9.881,9.576c0,5.634-4.219,9.575-9.881,9.575s-9.909-3.941-9.909-9.575
			C371.048,376.138,375.295,372.196,380.957,372.196z M380.957,376.415c-3.081,0-5.052,2.332-5.052,5.357
			c0,2.997,1.971,5.356,5.052,5.356c3.053,0,5.023-2.359,5.023-5.356C385.98,378.747,384.01,376.415,380.957,376.415z"/>
	</g>
	<g>
		<path class="st2" d="M371.796,156.146c1.214,0,2.034,0.92,2.034,2.099c0,0.979-0.536,1.485-1.055,1.745l-0.413-0.872
			c0.312-0.13,0.572-0.466,0.572-0.873c0-0.613-0.495-1.067-1.138-1.067c-0.642,0-1.138,0.454-1.138,1.067
			c0,0.407,0.259,0.743,0.572,0.873l-0.413,0.872c-0.507-0.253-1.055-0.766-1.055-1.745
			C369.763,157.066,370.588,156.146,371.796,156.146z"/>
		<path class="st2" d="M371.413,163.073v-1.633h-1.58v-1.014h3.932v1.014h-1.468v1.633h1.468v1.014h-3.932v-1.014H371.413z"/>
		<path class="st2" d="M373.765,164.795v1.032h-2.305c-0.466,0-0.802,0.248-0.802,0.796c0,0.542,0.336,0.79,0.802,0.79h2.305v1.031
			h-2.334c-0.979,0-1.668-0.56-1.668-1.821c0-1.261,0.696-1.827,1.662-1.827H373.765z"/>
		<path class="st2" d="M371.796,168.951c1.214,0,2.034,0.92,2.034,2.099c0,0.979-0.536,1.485-1.055,1.745l-0.413-0.872
			c0.312-0.13,0.572-0.466,0.572-0.873c0-0.613-0.495-1.067-1.138-1.067c-0.642,0-1.138,0.454-1.138,1.067
			c0,0.407,0.259,0.743,0.572,0.873l-0.413,0.872c-0.507-0.253-1.055-0.766-1.055-1.745
			C369.763,169.871,370.588,168.951,371.796,168.951z"/>
		<path class="st2" d="M371.413,175.878v-1.633h-1.58v-1.014h3.932v1.014h-1.468v1.633h1.468v1.014h-3.932v-1.014H371.413z"/>
		<path class="st2" d="M373.83,179.504c0,1.203-0.837,2.099-2.034,2.099c-1.197,0-2.034-0.896-2.034-2.099
			c0-1.203,0.837-2.105,2.034-2.105C372.993,177.399,373.83,178.301,373.83,179.504z M372.934,179.504
			c0-0.654-0.495-1.073-1.138-1.073c-0.637,0-1.138,0.419-1.138,1.073c0,0.648,0.501,1.067,1.138,1.067
			C372.439,180.571,372.934,180.152,372.934,179.504z"/>
	</g>
	<g>
		<path class="st2" d="M305.817,313.961c-5.735,0-9.652-4.226-9.652-9.513c0-3.385,1.595-5.679,3.693-7.162l1.092,1.958
			c-1.566,1.063-2.714,2.994-2.714,5.205c0,4.001,3.134,7.107,7.581,7.107c4.421,0,7.583-3.105,7.583-7.107
			c0-2.211-1.119-4.141-2.714-5.205l1.092-1.986c2.126,1.568,3.693,3.806,3.693,7.191
			C315.47,309.735,311.553,313.961,305.817,313.961z"/>
		<path class="st2" d="M306.573,278.82v10.912h8.562v2.322h-18.662v-2.322h8.03V278.82h-8.03v-2.322h18.662v2.322H306.573z"/>
		<path class="st2" d="M296.473,269.898v-12.227h2.071v9.905h6.015v-9.709h2.071v9.709h6.435v-9.905h2.071v12.227H296.473z"/>
		<path class="st2" d="M300.082,241.586l15.052,4.113v2.518l-18.662,5.316v-2.574l15.557-4.141l-15.557-4.28v-1.931l15.557-4.281
			l-15.557-4.113v-2.574l18.662,5.316v2.518L300.082,241.586z"/>
		<path class="st2" d="M307.245,219.373l-10.772,7.359v-2.714l8.674-5.791l-8.674-5.791v-2.714l10.772,7.33h7.89v2.322H307.245z"/>
	</g>
	<g>
		<path class="st2" d="M131.865,488.355c0-1.643,1.211-2.766,2.726-2.766c0.97,0,1.627,0.457,2.053,1.058l-0.561,0.313
			c-0.305-0.449-0.858-0.778-1.491-0.778c-1.147,0-2.037,0.898-2.037,2.173c0,1.267,0.89,2.173,2.037,2.173
			c0.633,0,1.187-0.321,1.491-0.778l0.569,0.313c-0.449,0.609-1.091,1.058-2.061,1.058
			C133.075,491.121,131.865,489.999,131.865,488.355z"/>
		<path class="st2" d="M141.935,488.571h-3.127v2.453h-0.665v-5.348h0.665v2.301h3.127v-2.301h0.665v5.348h-0.665V488.571z"/>
		<path class="st2" d="M144.491,485.677h3.504v0.593h-2.838v1.724h2.782v0.593h-2.782v1.844h2.838v0.593h-3.504V485.677z"/>
		<path class="st2" d="M152.605,486.711l-1.179,4.313h-0.722l-1.523-5.348h0.738l1.187,4.458l1.227-4.458h0.553l1.227,4.458
			l1.179-4.458h0.738l-1.523,5.348h-0.722L152.605,486.711z"/>
		<path class="st2" d="M158.97,488.764l-2.109-3.087h0.778l1.66,2.486l1.66-2.486h0.778l-2.101,3.087v2.261h-0.665V488.764z"/>
	</g>
	<g>
		<path class="st2" d="M319.805,196.879h18.559v61.279h-18.559V196.879z"/>
		<path class="st2" d="M354.073,238.405c4.226,3.491,10.474,5.329,15.802,5.329c6.155,0,8.636-2.848,8.636-5.788
			c0-3.124-2.389-5.513-8.084-5.513c-4.686,0-8.269,1.286-11.393,4.226l-12.771-2.94v-36.841h46.855v15.435h-29.216v9.739
			c3.858-2.848,8.544-4.686,13.689-4.686c10.474,0,19.753,7.625,19.753,19.844c0,13.505-10.106,22.05-27.287,22.05
			c-10.933,0-19.66-3.216-25.633-8.636L354.073,238.405z"/>
	</g>
	<g>
		<path class="st2" d="M120.051,472.43v1.47h-4.854v-1.47H120.051z"/>
		<path class="st2" d="M116.762,475.144c-0.277,0.335-0.422,0.83-0.422,1.252c0,0.488,0.226,0.684,0.458,0.684
			c0.247,0,0.437-0.189,0.437-0.64c0-0.371-0.102-0.655-0.335-0.902l0.233-1.012h2.918v3.711h-1.223v-2.314h-0.771
			c0.226,0.306,0.371,0.677,0.371,1.084c0,0.83-0.604,1.565-1.572,1.565c-1.07,0-1.746-0.801-1.746-2.161
			c0-0.866,0.255-1.557,0.684-2.03L116.762,475.144z"/>
	</g>
	<g>
		<path class="st2" d="M269.286,350.656h1.564v18.299h-1.564V350.656z"/>
		<path class="st2" d="M275.632,365.252c1.18,1.674,2.771,2.606,5.13,2.606c2.634,0,4.582-1.92,4.582-4.417
			c0-2.771-1.92-4.472-4.554-4.472c-1.674,0-3.1,0.549-4.444,1.783l-1.207-0.494v-9.602h10.59v1.427h-8.999v7.161
			c0.905-0.878,2.469-1.701,4.362-1.701c3.073,0,5.844,2.03,5.844,5.844c0,3.649-2.826,5.899-6.173,5.899
			c-3.045,0-4.911-1.152-6.173-2.99L275.632,365.252z"/>
	</g>
	<g>
		<path class="st2" d="M369.444,67.03v7.43c0,5.572-3.344,9.579-8.837,9.579c-5.492,0-8.862-4.007-8.862-9.553V67.03H369.444z
			 M355.726,74.459c0,3.104,2.255,4.909,4.882,4.909c2.733,0,4.856-1.645,4.856-4.882v-2.892h-9.738V74.459z"/>
		<path class="st2" d="M369.444,85.795v12.976h-3.848v-8.412h-2.945v8.226h-3.874v-8.226h-3.185v8.412h-3.848V85.795H369.444z"/>
		<path class="st2" d="M360.581,99.995c5.467,0,9.155,4.14,9.155,9.446c0,4.405-2.415,6.687-4.75,7.854l-1.857-3.927
			c1.406-0.583,2.573-2.096,2.573-3.927c0-2.759-2.229-4.803-5.121-4.803c-2.892,0-5.121,2.043-5.121,4.803
			c0,1.831,1.168,3.344,2.574,3.927l-1.857,3.927c-2.282-1.141-4.75-3.45-4.75-7.854C351.427,104.134,355.142,99.995,360.581,99.995
			z"/>
		<path class="st2" d="M355.301,122.879c5.546,7.668,6.767,9.102,8.518,9.102c1.221,0,1.857-1.141,1.857-2.521
			c0-1.884-0.743-3.37-1.937-4.644l3.024-2.521c2.07,1.884,2.945,4.696,2.945,7.164c0,4.166-2.335,7.165-5.891,7.165
			c-2.706,0-5.015-1.937-8.093-6.687v6.819h-3.98v-13.878H355.301z"/>
		<path class="st2" d="M357.052,140.794c-1.141,1.221-1.751,2.946-1.751,4.644c0,1.937,1.035,2.892,2.176,2.892
			c1.247,0,2.149-0.929,2.149-2.76c0-1.406-0.425-2.521-1.327-3.502l0.77-3.158h10.376v12.843h-3.848v-8.438h-3.636
			c0.85,1.008,1.433,2.388,1.433,3.954c0,3.025-2.176,5.705-5.731,5.705c-3.82,0-6.235-2.892-6.235-7.483
			c0-3.131,0.955-5.493,2.574-7.138L357.052,140.794z"/>
	</g>
	<g>
		<path class="st2" d="M419.402,295.065v10.369c0,7.777-4.666,13.369-12.332,13.369s-12.369-5.592-12.369-13.332v-10.406H419.402z
			 M400.256,305.435c0,4.333,3.148,6.852,6.814,6.852c3.814,0,6.777-2.296,6.777-6.814v-4.036h-13.592V305.435z"/>
		<path class="st2" d="M419.402,321.247v18.109h-5.37v-11.739h-4.11v11.48h-5.407v-11.48h-4.443v11.739h-5.37v-18.109H419.402z"/>
		<path class="st2" d="M407.033,341.059c7.629,0,12.776,5.777,12.776,13.184c0,6.147-3.37,9.332-6.629,10.962l-2.593-5.48
			c1.963-0.815,3.593-2.926,3.593-5.481c0-3.852-3.111-6.703-7.147-6.703c-4.037,0-7.147,2.852-7.147,6.703
			c0,2.556,1.63,4.666,3.592,5.481l-2.592,5.48c-3.185-1.593-6.629-4.814-6.629-10.962
			C394.257,346.836,399.441,341.059,407.033,341.059z"/>
		<path class="st2" d="M399.664,372.351c7.739,10.702,9.443,12.702,11.887,12.702c1.704,0,2.593-1.593,2.593-3.519
			c0-2.629-1.037-4.703-2.703-6.48l4.222-3.519c2.889,2.63,4.11,6.555,4.11,9.999c0,5.814-3.259,9.999-8.222,9.999
			c-3.777,0-6.999-2.703-11.295-9.332v9.518h-5.555v-19.368H399.664z"/>
		<path class="st2" d="M402.107,397.347c-1.592,1.703-2.443,4.11-2.443,6.48c0,2.703,1.443,4.036,3.036,4.036
			c1.74,0,3-1.296,3-3.851c0-1.963-0.593-3.519-1.852-4.889l1.073-4.407h14.48v17.924h-5.37v-11.776h-5.073
			c1.185,1.407,2,3.333,2,5.519c0,4.222-3.037,7.962-7.999,7.962c-5.333,0-8.703-4.037-8.703-10.443c0-4.37,1.333-7.666,3.592-9.962
			L402.107,397.347z"/>
	</g>
	<g>
		<path class="st2" d="M297.367,99.979h4.135c3.103,0,5.333,1.861,5.333,4.919c0,3.057-2.23,4.933-5.317,4.933h-4.15V99.979z
			 M301.502,107.616c1.729,0,2.733-1.256,2.733-2.718c0-1.521-0.916-2.703-2.718-2.703h-1.61v5.421H301.502z"/>
		<path class="st2" d="M307.811,99.979h7.223v2.142h-4.683v1.64h4.579v2.157h-4.579v1.772h4.683v2.142h-7.223V99.979z"/>
		<path class="st2" d="M315.713,104.913c0-3.043,2.305-5.096,5.259-5.096c2.452,0,3.722,1.344,4.372,2.644l-2.187,1.034
			c-0.325-0.783-1.167-1.433-2.186-1.433c-1.536,0-2.674,1.24-2.674,2.851c0,1.61,1.138,2.851,2.674,2.851
			c1.019,0,1.86-0.65,2.186-1.433l2.187,1.034c-0.636,1.271-1.92,2.644-4.372,2.644
			C318.018,110.009,315.713,107.941,315.713,104.913z"/>
		<path class="st2" d="M329.391,107.853c4.27-3.087,5.066-3.767,5.066-4.742c0-0.679-0.635-1.034-1.402-1.034
			c-1.049,0-1.876,0.414-2.585,1.078l-1.403-1.684c1.049-1.152,2.614-1.64,3.988-1.64c2.318,0,3.987,1.3,3.987,3.279
			c0,1.507-1.078,2.792-3.722,4.505h3.796v2.215h-7.726V107.853z"/>
		<path class="st2" d="M339.361,106.877c0.68,0.635,1.64,0.975,2.585,0.975c1.079,0,1.61-0.576,1.61-1.211
			c0-0.694-0.517-1.196-1.536-1.196c-0.783,0-1.403,0.236-1.95,0.738l-1.757-0.428v-5.775h7.148v2.142h-4.697v2.024
			c0.562-0.473,1.33-0.798,2.201-0.798c1.684,0,3.176,1.211,3.176,3.19c0,2.127-1.61,3.471-4.165,3.471
			c-1.743,0-3.058-0.532-3.974-1.433L339.361,106.877z"/>
	</g>
	<g>
		<path class="st2" d="M296.301,319.307h6.272v29.464h-6.272V319.307z"/>
		<path class="st2" d="M313.412,341.526c1.591,1.457,3.27,2.253,5.876,2.253c4.727,0,7.377-4.021,7.377-8.481v-0.619
			c-1.414,1.988-4.373,3.799-7.599,3.799c-5.301,0-10.071-3.269-10.071-9.541c0-5.743,4.594-10.116,11.309-10.116
			c8.923,0,12.678,6.892,12.678,15.24c0,8.879-4.991,15.196-13.693,15.196c-3.578,0-6.582-1.193-8.658-3.049L313.412,341.526z
			 M320.568,324.254c-3.356,0-5.168,2.341-5.168,4.417c0,3.137,2.606,4.506,5.434,4.506c2.209,0,4.373-1.016,5.787-2.738
			C326.356,327.611,324.766,324.254,320.568,324.254z"/>
		<path class="st2" d="M345.28,333.574c-3.27-1.148-5.831-3.269-5.831-6.935c0-5.522,5.875-7.775,11.353-7.775
			c5.434,0,11.353,2.253,11.353,7.775c0,3.666-2.606,5.786-5.875,6.935c3.534,1.237,6.361,3.976,6.361,7.554
			c0,5.479-5.654,8.173-11.839,8.173s-11.839-2.65-11.839-8.173C338.963,337.55,341.746,334.812,345.28,333.574z M350.802,336.357
			c-1.855,0.221-5.478,1.458-5.478,4.02c0,2.165,2.386,3.534,5.478,3.534c3.004,0,5.478-1.369,5.478-3.534
			C356.279,337.815,352.613,336.578,350.802,336.357z M350.802,324.254c-2.915,0-4.991,1.281-4.991,3.357
			c0,2.297,3.18,3.312,4.991,3.578c1.812-0.266,4.947-1.281,4.947-3.578C355.749,325.535,353.673,324.254,350.802,324.254z"/>
		<path class="st2" d="M370.343,340.466c2.032,2.12,5.257,3.357,8.128,3.357c3.578,0,5.566-1.546,5.566-3.799
			c0-2.386-1.812-3.49-5.92-3.49c-1.236,0-3.225,0-3.666,0.044v-5.478c0.53,0.044,2.562,0.044,3.666,0.044
			c3.27,0,5.434-1.06,5.434-3.269c0-2.341-2.386-3.534-5.478-3.534c-2.827,0-5.434,1.104-7.51,3.093l-3.092-3.888
			c2.385-2.694,6.096-4.683,11.265-4.683c6.891,0,11.132,3.093,11.132,7.996c0,3.71-3.181,6.14-6.45,6.714
			c3.004,0.31,6.892,2.65,6.892,7.068c0,5.08-4.55,8.658-11.618,8.658c-5.434,0-9.453-2.076-11.617-4.727L370.343,340.466z"/>
	</g>
	<g>
		<path class="st2" d="M164.41,479.152h4.287v20.135h-4.287V479.152z"/>
		<path class="st2" d="M176.104,494.336c1.087,0.996,2.234,1.54,4.016,1.54c3.23,0,5.041-2.748,5.041-5.796v-0.423
			c-0.966,1.359-2.988,2.596-5.193,2.596c-3.622,0-6.883-2.234-6.883-6.52c0-3.925,3.139-6.913,7.728-6.913
			c6.098,0,8.664,4.71,8.664,10.415c0,6.068-3.411,10.385-9.358,10.385c-2.445,0-4.498-0.816-5.917-2.084L176.104,494.336z
			 M180.994,482.532c-2.294,0-3.532,1.6-3.532,3.019c0,2.144,1.781,3.079,3.713,3.079c1.51,0,2.988-0.694,3.955-1.871
			C184.949,484.827,183.863,482.532,180.994,482.532z"/>
		<path class="st2" d="M197.882,488.902c-2.234-0.785-3.985-2.234-3.985-4.739c0-3.774,4.015-5.314,7.758-5.314
			c3.713,0,7.758,1.54,7.758,5.314c0,2.505-1.781,3.954-4.015,4.739c2.415,0.846,4.347,2.717,4.347,5.162
			c0,3.744-3.864,5.585-8.091,5.585c-4.226,0-8.091-1.811-8.091-5.585C193.565,491.619,195.467,489.747,197.882,488.902z
			 M201.655,490.804c-1.268,0.151-3.743,0.996-3.743,2.747c0,1.48,1.63,2.415,3.743,2.415c2.053,0,3.743-0.936,3.743-2.415
			C205.398,491.8,202.893,490.955,201.655,490.804z M201.655,482.532c-1.992,0-3.411,0.876-3.411,2.294
			c0,1.57,2.173,2.264,3.411,2.445c1.238-0.182,3.381-0.876,3.381-2.445C205.036,483.408,203.617,482.532,201.655,482.532z"/>
		<path class="st2" d="M215.009,493.611c1.389,1.449,3.592,2.294,5.555,2.294c2.445,0,3.804-1.056,3.804-2.596
			c0-1.63-1.238-2.385-4.046-2.385c-0.845,0-2.204,0-2.505,0.03v-3.743c0.362,0.03,1.751,0.03,2.505,0.03
			c2.234,0,3.713-0.724,3.713-2.234c0-1.6-1.63-2.415-3.743-2.415c-1.932,0-3.713,0.755-5.132,2.114l-2.113-2.657
			c1.63-1.841,4.166-3.2,7.698-3.2c4.709,0,7.607,2.114,7.607,5.464c0,2.535-2.174,4.196-4.408,4.588
			c2.053,0.212,4.71,1.811,4.71,4.83c0,3.472-3.109,5.917-7.94,5.917c-3.713,0-6.46-1.419-7.939-3.23L215.009,493.611z"/>
	</g>
	<g>
		<path class="st2" d="M276.063,397.366h-5.818v-1.388h13.185v1.388h-5.818v16.413h-1.548V397.366z"/>
		<path class="st2" d="M286.041,395.978h1.521v17.801h-1.521V395.978z"/>
		<path class="st2" d="M299.437,395.686c5.204,0,8.647,4.003,8.647,9.207s-3.443,9.207-8.647,9.207c-5.23,0-8.646-4.003-8.646-9.207
			S294.206,395.686,299.437,395.686z M299.437,397.073c-4.323,0-7.045,3.309-7.045,7.819c0,4.483,2.722,7.819,7.045,7.819
			c4.271,0,7.046-3.336,7.046-7.819C306.482,400.382,303.707,397.073,299.437,397.073z"/>
		<path class="st2" d="M317.685,410.123c1.147,1.334,3.016,2.589,5.551,2.589c3.656,0,4.697-2.028,4.697-3.55
			c0-2.509-2.401-3.202-4.884-3.869c-2.802-0.774-5.791-1.575-5.791-4.857c0-2.909,2.615-4.75,5.845-4.75
			c2.642,0,4.644,0.934,6.031,2.508l-1.014,1.121c-1.281-1.548-3.097-2.241-5.098-2.241c-2.375,0-4.163,1.36-4.163,3.282
			c0,2.108,2.215,2.722,4.644,3.39c2.855,0.8,6.031,1.708,6.031,5.337c0,2.269-1.521,5.018-6.325,5.018
			c-2.936,0-5.15-1.174-6.512-2.829L317.685,410.123z"/>
		<path class="st2" d="M332.653,395.978h11.289v1.388h-9.768v6.592h9.581v1.388h-9.581v7.046h9.768v1.388h-11.289V395.978z"/>
		<path class="st2" d="M347.168,395.978h1.548v10.942c0,3.603,1.896,5.791,5.392,5.791s5.391-2.188,5.391-5.791v-10.942h1.548
			v10.969c0,4.403-2.349,7.152-6.938,7.152c-4.564,0-6.939-2.775-6.939-7.152V395.978z"/>
		<path class="st2" d="M364.938,410.123c1.147,1.334,3.016,2.589,5.551,2.589c3.656,0,4.697-2.028,4.697-3.55
			c0-2.509-2.401-3.202-4.884-3.869c-2.802-0.774-5.791-1.575-5.791-4.857c0-2.909,2.615-4.75,5.845-4.75
			c2.642,0,4.644,0.934,6.031,2.508l-1.014,1.121c-1.281-1.548-3.097-2.241-5.098-2.241c-2.375,0-4.163,1.36-4.163,3.282
			c0,2.108,2.215,2.722,4.644,3.39c2.855,0.8,6.031,1.708,6.031,5.337c0,2.269-1.521,5.018-6.325,5.018
			c-2.936,0-5.15-1.174-6.512-2.829L364.938,410.123z"/>
		<path class="st2" d="M379.906,410.123c1.147,1.334,3.016,2.589,5.551,2.589c3.656,0,4.697-2.028,4.697-3.55
			c0-2.509-2.401-3.202-4.884-3.869c-2.802-0.774-5.791-1.575-5.791-4.857c0-2.909,2.615-4.75,5.845-4.75
			c2.642,0,4.644,0.934,6.031,2.508l-1.014,1.121c-1.281-1.548-3.097-2.241-5.098-2.241c-2.375,0-4.163,1.36-4.163,3.282
			c0,2.108,2.215,2.722,4.644,3.39c2.855,0.8,6.031,1.708,6.031,5.337c0,2.269-1.521,5.018-6.325,5.018
			c-2.936,0-5.15-1.174-6.512-2.829L379.906,410.123z"/>
	</g>
	<g>
		<path class="st2" d="M298.65,148.292c0.784,0.835,2.012,1.568,3.597,1.568c1.636,0,2.283-0.801,2.283-1.551
			c0-1.022-1.21-1.33-2.59-1.688c-1.858-0.46-4.04-1.005-4.04-3.409c0-1.875,1.653-3.324,4.142-3.324
			c1.772,0,3.204,0.562,4.262,1.585l-1.143,1.483c-0.886-0.887-2.097-1.295-3.289-1.295c-1.176,0-1.926,0.562-1.926,1.415
			c0,0.886,1.158,1.176,2.505,1.517c1.875,0.477,4.107,1.057,4.107,3.528c0,1.892-1.329,3.511-4.397,3.511
			c-2.096,0-3.613-0.733-4.618-1.807L298.65,148.292z"/>
		<path class="st2" d="M308.056,140.06h7.789v1.755h-5.795v2.949h5.676v1.755h-5.676v3.153h5.795v1.755h-7.789V140.06z"/>
		<path class="st2" d="M317.546,140.06h2.012v6.817c0,1.807,1.005,2.983,2.914,2.983c1.892,0,2.897-1.176,2.897-2.983v-6.817h2.012
			v6.869c0,2.829-1.619,4.704-4.909,4.704c-3.307,0-4.926-1.892-4.926-4.687V140.06z"/>
		<path class="st2" d="M329.83,148.292c0.784,0.835,2.012,1.568,3.597,1.568c1.636,0,2.283-0.801,2.283-1.551
			c0-1.022-1.21-1.33-2.59-1.688c-1.858-0.46-4.04-1.005-4.04-3.409c0-1.875,1.653-3.324,4.142-3.324
			c1.772,0,3.204,0.562,4.262,1.585l-1.143,1.483c-0.886-0.887-2.097-1.295-3.289-1.295c-1.176,0-1.926,0.562-1.926,1.415
			c0,0.886,1.158,1.176,2.505,1.517c1.875,0.477,4.107,1.057,4.107,3.528c0,1.892-1.329,3.511-4.397,3.511
			c-2.096,0-3.613-0.733-4.618-1.807L329.83,148.292z"/>
		<path class="st2" d="M339.61,148.292c0.784,0.835,2.012,1.568,3.597,1.568c1.636,0,2.283-0.801,2.283-1.551
			c0-1.022-1.21-1.33-2.59-1.688c-1.858-0.46-4.04-1.005-4.04-3.409c0-1.875,1.653-3.324,4.142-3.324
			c1.772,0,3.205,0.562,4.262,1.585l-1.143,1.483c-0.886-0.887-2.096-1.295-3.289-1.295c-1.176,0-1.926,0.562-1.926,1.415
			c0,0.886,1.158,1.176,2.505,1.517c1.875,0.477,4.107,1.057,4.107,3.528c0,1.892-1.329,3.511-4.397,3.511
			c-2.096,0-3.613-0.733-4.618-1.807L339.61,148.292z"/>
	</g>
	<g>
		<path class="st2" d="M328.016,289.729h-9.099v-5.833h24.823v5.833h-9.052v25.29h-6.673V289.729z"/>
		<path class="st2" d="M347.054,283.896h6.626v31.123h-6.626V283.896z"/>
		<path class="st2" d="M373.65,283.382c9.426,0,16.285,6.72,16.285,16.099s-6.859,16.098-16.285,16.098
			c-9.379,0-16.237-6.719-16.237-16.098S364.271,283.382,373.65,283.382z M373.65,289.262c-5.739,0-9.425,4.386-9.425,10.219
			c0,5.786,3.686,10.219,9.425,10.219c5.74,0,9.473-4.433,9.473-10.219C383.123,293.647,379.391,289.262,373.65,289.262z"/>
	</g>
	<g>
		<path class="st2" d="M365.738,483.896h-2.443v-1.566h6.666v1.566h-2.431v6.791h-1.792V483.896z"/>
		<path class="st2" d="M370.85,482.33h1.779v8.357h-1.779V482.33z"/>
		<path class="st2" d="M377.992,482.192c2.531,0,4.373,1.804,4.373,4.323s-1.842,4.323-4.373,4.323c-2.518,0-4.36-1.804-4.36-4.323
			S375.473,482.192,377.992,482.192z M377.992,483.771c-1.541,0-2.531,1.178-2.531,2.744c0,1.554,0.99,2.744,2.531,2.744
			c1.541,0,2.544-1.19,2.544-2.744C380.535,484.949,379.533,483.771,377.992,483.771z"/>
	</g>
	<g>
		<path class="st2" d="M151.789,494.013h-1.385v-0.888h3.779v0.888h-1.378v3.85h-1.016V494.013z"/>
		<path class="st2" d="M154.688,493.125h1.009v4.738h-1.009V493.125z"/>
		<path class="st2" d="M158.737,493.047c1.435,0,2.479,1.023,2.479,2.451c0,1.428-1.044,2.451-2.479,2.451
			c-1.428,0-2.472-1.023-2.472-2.451C156.265,494.07,157.309,493.047,158.737,493.047z M158.737,493.942
			c-0.874,0-1.435,0.668-1.435,1.556c0,0.881,0.561,1.556,1.435,1.556c0.874,0,1.442-0.675,1.442-1.556
			C160.179,494.61,159.611,493.942,158.737,493.942z"/>
	</g>
	<g>
		<path class="st2" d="M120.876,479.604c0.724,0.827,1.681,1.552,3.103,1.552c1.991,0,3.232-1.345,3.232-3.362v-11.894h2.586v11.92
			c0,3.827-2.431,5.637-5.637,5.637c-1.81,0-3.335-0.543-4.525-1.888L120.876,479.604z"/>
		<path class="st2" d="M143.323,479.578h-8.456l-1.396,3.568h-2.845l6.853-17.247h3.232l6.852,17.247h-2.845L143.323,479.578z
			 M135.617,477.277h6.956l-3.491-9.127L135.617,477.277z"/>
		<path class="st2" d="M152.428,475.932l-6.749-10.032h2.974l5.068,7.705l5.017-7.705h2.999l-6.723,10.032v7.214h-2.586V475.932z"/>
	</g>
	<g>
		<path class="st2" d="M272.764,414.471c-0.819,0.716-1.535,1.663-1.535,3.07c0,1.971,1.33,3.199,3.326,3.199h11.771v2.559h-11.796
			c-3.787,0-5.578-2.405-5.578-5.578c0-1.792,0.537-3.302,1.867-4.479L272.764,414.471z"/>
		<path class="st2" d="M272.789,436.684v-8.368l-3.531-1.382v-2.814l17.067,6.781v3.198l-17.067,6.781v-2.814L272.789,436.684z
			 M275.066,429.058v6.884l9.033-3.455L275.066,429.058z"/>
		<path class="st2" d="M276.397,445.692l9.928-6.679v2.942l-7.625,5.016l7.625,4.965v2.968l-9.928-6.653h-7.14v-2.559H276.397z"/>
	</g>
	<g>
		<path class="st2" d="M293.164,35.361c0.271,0.31,0.629,0.581,1.161,0.581c0.745,0,1.21-0.503,1.21-1.258v-4.452h0.968v4.462
			c0,1.432-0.91,2.11-2.11,2.11c-0.678,0-1.249-0.203-1.694-0.706L293.164,35.361z"/>
		<path class="st2" d="M301.566,35.351h-3.165l-0.523,1.336h-1.065l2.565-6.456h1.21l2.565,6.456h-1.065L301.566,35.351z
			 M298.681,34.49h2.604l-1.307-3.417L298.681,34.49z"/>
		<path class="st2" d="M304.974,33.986l-2.526-3.755h1.113l1.897,2.884l1.878-2.884h1.123l-2.517,3.755v2.701h-0.968V33.986z"/>
	</g>
	<g>
		<path class="st2" d="M292.696,351.206c-0.366,0.32-0.686,0.744-0.686,1.373c0,0.881,0.595,1.43,1.487,1.43h5.263v1.144h-5.274
			c-1.693,0-2.494-1.075-2.494-2.494c0-0.801,0.24-1.476,0.835-2.002L292.696,351.206z"/>
		<path class="st2" d="M292.708,361.138v-3.742l-1.579-0.618v-1.258l7.631,3.032v1.43l-7.631,3.032v-1.258L292.708,361.138z
			 M293.726,357.728v3.078l4.039-1.545L293.726,357.728z"/>
		<path class="st2" d="M294.321,365.166l4.439-2.986v1.316l-3.409,2.243l3.409,2.22v1.327l-4.439-2.975h-3.192v-1.144H294.321z"/>
	</g>
	<g>
		<path class="st2" d="M183.119,364.369h-4.493v-2.88h12.257v2.88h-4.47v12.488h-3.295V364.369z"/>
		<path class="st2" d="M192.519,361.489h3.272v15.368h-3.272V361.489z"/>
		<path class="st2" d="M205.652,361.235c4.654,0,8.041,3.318,8.041,7.949c0,4.632-3.387,7.949-8.041,7.949
			c-4.631,0-8.019-3.317-8.019-7.949C197.634,364.554,201.021,361.235,205.652,361.235z M205.652,364.139
			c-2.834,0-4.654,2.166-4.654,5.046c0,2.857,1.82,5.046,4.654,5.046s4.677-2.188,4.677-5.046
			C210.33,366.305,208.486,364.139,205.652,364.139z"/>
	</g>
	<g>
		<path class="st2" d="M98.69,369.945h4.703v1.215h-3.288v1.445h3.218v1.216h-3.218v1.544h3.288v1.226H98.69V369.945z"/>
		<path class="st2" d="M109.893,372.127v4.464h-1.415v-6.646h1.455l3.079,4.304v-4.304h1.415v6.646h-1.365L109.893,372.127z"/>
		<path class="st2" d="M122.172,374.209h-1.037v2.382h-1.415v-6.646h3.109c1.385,0,2.232,0.906,2.232,2.142
			c0,1.176-0.738,1.804-1.455,1.973l1.495,2.531h-1.624L122.172,374.209z M122.62,371.16h-1.485v1.834h1.485
			c0.568,0,0.997-0.359,0.997-0.917S123.188,371.16,122.62,371.16z"/>
		<path class="st2" d="M130.107,369.945h1.415v6.646h-1.415V369.945z"/>
		<path class="st2" d="M142.578,375.624l0.488,0.568l-0.987,0.807l-0.528-0.627c-0.468,0.219-1.006,0.338-1.584,0.338
			c-2.002,0-3.467-1.435-3.467-3.438c0-2.002,1.465-3.438,3.467-3.438c2.013,0,3.478,1.436,3.478,3.438
			C143.444,374.209,143.125,375.026,142.578,375.624z M140.665,375.335l-0.757-0.887l0.986-0.797l0.757,0.887
			c0.219-0.349,0.339-0.787,0.339-1.266c0-1.245-0.797-2.182-2.023-2.182s-2.013,0.937-2.013,2.182c0,1.236,0.787,2.183,2.013,2.183
			C140.216,375.455,140.455,375.415,140.665,375.335z"/>
		<path class="st2" d="M148.419,369.945h1.435v3.945c0,0.927,0.508,1.564,1.544,1.564c1.017,0,1.524-0.638,1.524-1.564v-3.945h1.435
			v3.985c0,1.653-0.947,2.779-2.959,2.779c-2.033,0-2.979-1.136-2.979-2.77V369.945z"/>
		<path class="st2" d="M159.652,369.945h4.703v1.215h-3.288v1.445h3.218v1.216h-3.218v1.544h3.288v1.226h-4.703V369.945z"/>
		<path class="st2" d="M169.201,375.445l3.139-4.255h-3.139v-1.245h4.992v1.136l-3.139,4.265h3.208v1.245h-5.062V375.445z"/>
	</g>
	<g>
		<path class="st2" d="M269.329,458.161h8.36v2.161h-5.845v2.569h5.721v2.161h-5.721v2.745h5.845v2.178h-8.36V458.161z"/>
		<path class="st2" d="M289.258,462.04v7.935h-2.514v-11.814h2.586l5.472,7.652v-7.652h2.515v11.814h-2.427L289.258,462.04z"/>
		<path class="st2" d="M311.102,465.742h-1.842v4.233h-2.514v-11.814h5.526c2.462,0,3.968,1.612,3.968,3.808
			c0,2.089-1.311,3.205-2.586,3.507l2.656,4.498h-2.887L311.102,465.742z M311.899,460.321h-2.639v3.26h2.639
			c1.01,0,1.771-0.638,1.771-1.63C313.67,460.959,312.909,460.321,311.899,460.321z"/>
		<path class="st2" d="M325.224,458.161h2.514v11.814h-2.514V458.161z"/>
		<path class="st2" d="M347.401,468.256l0.868,1.01l-1.753,1.434l-0.938-1.115c-0.833,0.389-1.79,0.602-2.817,0.602
			c-3.56,0-6.163-2.55-6.163-6.11c0-3.56,2.603-6.11,6.163-6.11c3.578,0,6.182,2.55,6.182,6.11
			C348.942,465.742,348.375,467.193,347.401,468.256z M344,467.743l-1.346-1.577l1.754-1.417l1.346,1.576
			c0.389-0.619,0.602-1.399,0.602-2.249c0-2.214-1.417-3.879-3.596-3.879c-2.178,0-3.577,1.665-3.577,3.879
			c0,2.196,1.399,3.879,3.577,3.879C343.204,467.956,343.628,467.884,344,467.743z"/>
		<path class="st2" d="M357.804,458.161h2.55v7.014c0,1.648,0.904,2.781,2.745,2.781c1.806,0,2.71-1.134,2.71-2.781v-7.014h2.55
			v7.084c0,2.941-1.682,4.942-5.26,4.942c-3.613,0-5.296-2.019-5.296-4.924V458.161z"/>
		<path class="st2" d="M377.788,458.161h8.36v2.161h-5.845v2.569h5.721v2.161h-5.721v2.745h5.845v2.178h-8.36V458.161z"/>
		<path class="st2" d="M394.777,467.937l5.579-7.563h-5.579v-2.214h8.873v2.02l-5.579,7.58h5.702v2.214h-8.997V467.937z"/>
	</g>
	<g>
		<path class="st2" d="M297.963,131.63h3.524v0.911h-2.464v1.083h2.412v0.911h-2.412v1.157h2.464v0.918h-3.524V131.63z"/>
		<path class="st2" d="M306.364,133.266v3.345h-1.06v-4.98h1.09l2.307,3.225v-3.225h1.06v4.98h-1.023L306.364,133.266z"/>
		<path class="st2" d="M315.572,134.826h-0.776v1.784h-1.06v-4.98h2.329c1.038,0,1.673,0.679,1.673,1.605
			c0,0.881-0.553,1.351-1.09,1.478l1.12,1.896h-1.217L315.572,134.826z M315.908,132.541h-1.113v1.374h1.113
			c0.426,0,0.747-0.269,0.747-0.687C316.655,132.81,316.334,132.541,315.908,132.541z"/>
		<path class="st2" d="M321.525,131.63h1.06v4.98h-1.06V131.63z"/>
		<path class="st2" d="M330.874,135.886l0.366,0.426l-0.739,0.605l-0.396-0.47c-0.351,0.164-0.754,0.254-1.187,0.254
			c-1.501,0-2.598-1.075-2.598-2.576s1.097-2.576,2.598-2.576c1.508,0,2.606,1.075,2.606,2.576
			C331.523,134.826,331.284,135.438,330.874,135.886z M329.44,135.67l-0.567-0.665l0.739-0.597l0.567,0.664
			c0.164-0.261,0.254-0.59,0.254-0.948c0-0.933-0.597-1.635-1.516-1.635c-0.918,0-1.508,0.702-1.508,1.635
			c0,0.926,0.59,1.635,1.508,1.635C329.104,135.759,329.283,135.729,329.44,135.67z"/>
		<path class="st2" d="M335.259,131.63h1.075v2.957c0,0.695,0.381,1.172,1.157,1.172c0.761,0,1.142-0.478,1.142-1.172v-2.957h1.075
			v2.986c0,1.24-0.709,2.083-2.217,2.083c-1.523,0-2.232-0.851-2.232-2.076V131.63z"/>
		<path class="st2" d="M343.683,131.63h3.524v0.911h-2.464v1.083h2.412v0.911h-2.412v1.157h2.464v0.918h-3.524V131.63z"/>
	</g>
	<g>
		<path class="st2" d="M317.853,270.781c0-4.926,3.729-8.249,8.512-8.249c3.969,0,6.025,2.176,7.077,4.279l-3.538,1.674
			c-0.526-1.267-1.89-2.319-3.539-2.319c-2.486,0-4.328,2.009-4.328,4.615c0,2.605,1.842,4.614,4.328,4.614
			c1.649,0,3.013-1.052,3.539-2.319l3.538,1.674c-1.027,2.057-3.108,4.28-7.077,4.28
			C321.582,279.03,317.853,275.683,317.853,270.781z"/>
		<path class="st2" d="M345.95,272.335h-6.624v6.408h-4.112v-15.948h4.112v5.954h6.624v-5.954h4.112v15.948h-4.112V272.335z"/>
		<path class="st2" d="M363.145,276.328h-6.623l-0.813,2.415h-4.471l6.001-15.948h5.165l6.025,15.948h-4.472L363.145,276.328z
			 M357.598,272.861h4.471l-2.247-6.479L357.598,272.861z"/>
		<path class="st2" d="M371.684,266.382h-4.471v-3.587h13.031v3.587h-4.447v12.361h-4.113V266.382z"/>
		<path class="st2" d="M389.404,262.532c4.877,0,8.512,3.395,8.512,8.249c0,4.854-3.635,8.249-8.512,8.249
			c-4.878,0-8.536-3.396-8.536-8.249C380.868,265.927,384.526,262.532,389.404,262.532z M389.404,266.166
			c-2.654,0-4.353,2.009-4.353,4.615c0,2.582,1.698,4.614,4.353,4.614c2.63,0,4.327-2.032,4.327-4.614
			C393.731,268.175,392.034,266.166,389.404,266.166z"/>
	</g>
	<g>
		<path class="st2" d="M194.693,400.467c1.839,0,3.08,1.393,3.08,3.178c0,1.481-0.812,2.249-1.598,2.642l-0.625-1.32
			c0.473-0.197,0.866-0.706,0.866-1.321c0-0.929-0.75-1.616-1.723-1.616c-0.973,0-1.723,0.688-1.723,1.616
			c0,0.615,0.393,1.124,0.866,1.321l-0.625,1.32c-0.768-0.384-1.598-1.16-1.598-2.642
			C191.613,401.859,192.863,400.467,194.693,400.467z"/>
		<path class="st2" d="M194.112,410.953v-2.473h-2.392v-1.536h5.954v1.536h-2.223v2.473h2.223v1.535h-5.954v-1.535H194.112z"/>
		<path class="st2" d="M192.622,417.368v-2.472l-0.901-0.304v-1.67l5.954,2.241v1.928l-5.954,2.25v-1.67L192.622,417.368z
			 M193.916,415.298v1.669l2.419-0.839L193.916,415.298z"/>
		<path class="st2" d="M196.335,420.554v-1.669h1.339v4.865h-1.339v-1.66h-4.615v-1.536H196.335z"/>
		<path class="st2" d="M197.772,427.167c0,1.821-1.268,3.178-3.08,3.178s-3.08-1.356-3.08-3.178s1.268-3.187,3.08-3.187
			S197.772,425.346,197.772,427.167z M196.416,427.167c0-0.991-0.75-1.625-1.723-1.625c-0.964,0-1.723,0.634-1.723,1.625
			c0,0.981,0.759,1.615,1.723,1.615C195.666,428.782,196.416,428.148,196.416,427.167z"/>
	</g>
	<g>
		<path class="st2" d="M295.73,419.415c1.648,0,2.759,1.248,2.759,2.847c0,1.327-0.728,2.015-1.432,2.367l-0.56-1.183
			c0.424-0.177,0.776-0.633,0.776-1.184c0-0.832-0.672-1.448-1.543-1.448c-0.872,0-1.544,0.616-1.544,1.448
			c0,0.551,0.352,1.007,0.776,1.184l-0.56,1.183c-0.688-0.344-1.432-1.039-1.432-2.367
			C292.971,420.663,294.09,419.415,295.73,419.415z"/>
		<path class="st2" d="M295.21,428.811v-2.216h-2.143v-1.376h5.335v1.376h-1.991v2.216h1.991v1.375h-5.335v-1.375H295.21z"/>
		<path class="st2" d="M293.874,434.559v-2.215l-0.808-0.272v-1.496l5.335,2.008v1.727l-5.335,2.016v-1.496L293.874,434.559z
			 M295.034,432.704v1.495l2.167-0.752L295.034,432.704z"/>
		<path class="st2" d="M297.201,437.413v-1.495h1.2v4.359h-1.2v-1.487h-4.135v-1.376H297.201z"/>
		<path class="st2" d="M298.489,443.338c0,1.632-1.136,2.847-2.759,2.847c-1.624,0-2.759-1.215-2.759-2.847s1.136-2.855,2.759-2.855
			C297.354,440.483,298.489,441.706,298.489,443.338z M297.273,443.338c0-0.888-0.672-1.456-1.543-1.456
			c-0.864,0-1.544,0.568-1.544,1.456c0,0.879,0.68,1.447,1.544,1.447C296.601,444.786,297.273,444.218,297.273,443.338z"/>
	</g>
	<circle class="st2" cx="218.558" cy="373.569" r="3.021"/>
	<circle class="st2" cx="277.046" cy="61.798" r="3.021"/>
	<g>
		<path class="st2" d="M124.579,389.538h-11.278v8.849h-2.4v-19.289h2.4v8.299h11.278v-8.299h2.4v19.289h-2.4V389.538z"/>
		<path class="st2" d="M130.049,379.098h12.637v2.14h-10.237v6.217h10.035v2.14h-10.035v6.651h10.237v2.14h-12.637V379.098z"/>
		<path class="st2" d="M150.67,390.232l-7.606-11.134h2.805l5.986,8.965l5.986-8.965h2.805l-7.576,11.134v8.155h-2.4V390.232z"/>
		<path class="st2" d="M166.869,396.391l10.844-15.153h-10.844v-2.14h13.91v1.995l-10.844,15.153h11.047v2.14h-14.112V396.391z"/>
		<path class="st2" d="M183.211,379.098h12.637v2.14h-10.237v6.217h10.035v2.14h-10.035v6.651h10.237v2.14h-12.637V379.098z"/>
		<path class="st2" d="M198.223,379.098h2.4v11.741c0,3.528,1.909,5.755,5.465,5.755c3.557,0,5.465-2.228,5.465-5.755v-11.741h2.4
			v11.77c0,4.801-2.631,7.865-7.866,7.865s-7.866-3.094-7.866-7.836V379.098z"/>
		<path class="st2" d="M217.284,393.846c1.273,1.418,3.354,2.748,6.073,2.748c3.441,0,4.54-1.851,4.54-3.326
			c0-2.314-2.342-2.95-4.887-3.644c-3.094-0.81-6.536-1.677-6.536-5.465c0-3.181,2.834-5.35,6.622-5.35
			c2.949,0,5.234,0.984,6.854,2.69l-1.446,1.763c-1.446-1.591-3.47-2.313-5.581-2.313c-2.313,0-3.962,1.244-3.962,3.066
			c0,1.937,2.227,2.516,4.685,3.181c3.152,0.838,6.738,1.822,6.738,5.87c0,2.805-1.909,5.668-7.114,5.668
			c-3.354,0-5.813-1.272-7.403-3.065L217.284,393.846z"/>
	</g>
	<g>
		<path class="st2" d="M301.074,118.052v9.816h-3.111v-14.615h3.199l6.771,9.466v-9.466h3.111v14.615h-3.002L301.074,118.052z"/>
		<path class="st2" d="M312.845,113.253h3.111v14.615h-3.111V113.253z"/>
		<path class="st2" d="M320.865,118.052v9.816h-3.111v-14.615h3.199l6.771,9.466v-9.466h3.111v14.615h-3.002L320.865,118.052z"/>
		<path class="st2" d="M339.56,113.013c4.427,0,7.647,3.155,7.647,7.56s-3.221,7.56-7.647,7.56c-4.404,0-7.625-3.155-7.625-7.56
			S335.155,113.013,339.56,113.013z M339.56,115.773c-2.695,0-4.426,2.06-4.426,4.799c0,2.717,1.73,4.798,4.426,4.798
			s4.448-2.082,4.448-4.798C344.008,117.833,342.255,115.773,339.56,115.773z"/>
	</g>
</g>
</svg>
