<?xml version="1.0" encoding="utf-8"?>
<!-- Generator: Adobe Illustrator 23.0.1, SVG Export Plug-In . SVG Version: 6.00 Build 0)  -->
<svg version="1.1" id="Layer_1" xmlns="http://www.w3.org/2000/svg" xmlns:xlink="http://www.w3.org/1999/xlink" x="0px" y="0px"
	 viewBox="0 0 512 512" style="enable-background:new 0 0 512 512;" xml:space="preserve">
<style type="text/css">
	.st0{fill:none;stroke:#B2B2B2;stroke-miterlimit:10;}
	.st1{fill:none;stroke:#2D89EF;stroke-width:1.3;stroke-miterlimit:10;}
	.st2{fill:none;stroke:#2D89EF;stroke-width:1.44;stroke-miterlimit:10;}
	.st3{fill:none;stroke:#2D89EF;stroke-width:1.44;stroke-miterlimit:10;stroke-dasharray:7.1624,3.9393;}
	.st4{fill:none;stroke:#2D89EF;stroke-width:1.44;stroke-miterlimit:10;stroke-dasharray:7.2209,3.9715;}
	.st5{fill:none;stroke:#2D89EF;stroke-width:1.44;stroke-miterlimit:10;stroke-dasharray:7.3559,4.0457;}
	.st6{fill:none;stroke:#2D89EF;stroke-width:1.44;stroke-miterlimit:10;stroke-dasharray:6.7919,3.7355;}
	.st7{fill:none;stroke:#2D89EF;stroke-width:1.44;stroke-miterlimit:10;stroke-dasharray:7.1948,3.9571;}
	.st8{fill:none;stroke:#2D89EF;stroke-width:1.44;stroke-miterlimit:10;stroke-dasharray:7.355,4.0453;}
</style>
<g>
	<line class="st0" x1="242.844" y1="492.753" x2="137.635" y2="492.753"/>
	<line class="st0" x1="374.425" y1="492.753" x2="269.642" y2="492.753"/>
	<line class="st0" x1="242.844" y1="483.388" x2="121.318" y2="483.388"/>
	<line class="st0" x1="390.193" y1="483.388" x2="269.642" y2="483.388"/>
	<line class="st0" x1="242.844" y1="474.204" x2="112.135" y2="474.204"/>
	<line class="st0" x1="399.912" y1="474.204" x2="269.642" y2="474.204"/>
	<line class="st0" x1="242.844" y1="464.839" x2="104.694" y2="464.839"/>
	<line class="st0" x1="407.274" y1="464.839" x2="269.642" y2="464.839"/>
	<line class="st0" x1="242.844" y1="446.291" x2="96.121" y2="446.291"/>
	<line class="st0" x1="415.588" y1="446.291" x2="269.642" y2="446.291"/>
	<line class="st0" x1="242.844" y1="436.921" x2="93.926" y2="436.921"/>
	<line class="st0" x1="418.058" y1="436.921" x2="269.642" y2="436.921"/>
	<line class="st0" x1="242.844" y1="427.742" x2="92.9" y2="427.742"/>
	<line class="st0" x1="419.037" y1="427.742" x2="269.642" y2="427.742"/>
	<line class="st0" x1="242.844" y1="418.377" x2="92.9" y2="418.377"/>
	<line class="st0" x1="419.037" y1="418.377" x2="269.642" y2="418.377"/>
	<line class="st0" x1="238.604" y1="399.824" x2="92.9" y2="399.824"/>
	<line class="st0" x1="419.037" y1="399.824" x2="269.642" y2="399.824"/>
	<line class="st0" x1="234.724" y1="390.646" x2="92.9" y2="390.646"/>
	<line class="st0" x1="419.037" y1="390.646" x2="269.305" y2="390.646"/>
	<line class="st0" x1="229.11" y1="381.278" x2="92.9" y2="381.278"/>
	<line class="st0" x1="419.037" y1="381.278" x2="269.305" y2="381.278"/>
	<line class="st0" x1="221.316" y1="371.91" x2="92.9" y2="371.91"/>
	<line class="st0" x1="419.037" y1="371.91" x2="269.304" y2="371.91"/>
	<line class="st0" x1="191.883" y1="353.362" x2="92.9" y2="353.362"/>
	<line class="st0" x1="419.037" y1="353.362" x2="269.642" y2="353.362"/>
	<line class="st0" x1="419.1" y1="344.179" x2="269.642" y2="344.179"/>
	<line class="st0" x1="419.1" y1="334.813" x2="269.642" y2="334.813"/>
	<line class="st0" x1="419.1" y1="325.634" x2="269.642" y2="325.634"/>
	<line class="st0" x1="419.1" y1="306.9" x2="269.642" y2="306.9"/>
	<line class="st0" x1="419.1" y1="297.717" x2="269.642" y2="297.717"/>
	<line class="st0" x1="419.1" y1="288.353" x2="269.642" y2="288.353"/>
	<line class="st0" x1="419.1" y1="279.169" x2="269.642" y2="279.169"/>
	<line class="st0" x1="419.1" y1="260.62" x2="269.642" y2="260.62"/>
	<line class="st0" x1="419.1" y1="251.254" x2="269.642" y2="251.254"/>
	<line class="st0" x1="419.1" y1="241.887" x2="269.642" y2="241.887"/>
	<line class="st0" x1="419.1" y1="232.705" x2="269.642" y2="232.705"/>
	<line class="st0" x1="419.1" y1="214.156" x2="269.642" y2="214.156"/>
	<line class="st0" x1="419.1" y1="204.79" x2="269.642" y2="204.79"/>
	<line class="st0" x1="419.1" y1="195.607" x2="269.642" y2="195.607"/>
	<line class="st0" x1="419.1" y1="186.242" x2="269.642" y2="186.242"/>
	<line class="st0" x1="419.1" y1="167.693" x2="269.642" y2="167.693"/>
	<line class="st0" x1="419.1" y1="158.327" x2="269.642" y2="158.327"/>
	<line class="st0" x1="419.1" y1="149.144" x2="269.642" y2="149.144"/>
	<line class="st0" x1="419.1" y1="139.778" x2="269.642" y2="139.778"/>
	<line class="st0" x1="419.1" y1="121.231" x2="269.642" y2="121.231"/>
	<line class="st0" x1="419.1" y1="112.048" x2="269.642" y2="112.048"/>
	<line class="st0" x1="419.1" y1="102.681" x2="269.642" y2="102.681"/>
	<line class="st0" x1="419.1" y1="93.314" x2="269.642" y2="93.314"/>
	<line class="st0" x1="419.1" y1="74.767" x2="270.317" y2="74.767"/>
	<line class="st0" x1="419.1" y1="65.584" x2="272.553" y2="65.584"/>
	<line class="st0" x1="102.769" y1="349.4" x2="102.769" y2="461.605"/>
	<line class="st0" x1="112.135" y1="349.4" x2="112.135" y2="474.204"/>
	<line class="st0" x1="121.318" y1="349.4" x2="121.318" y2="483.388"/>
	<line class="st0" x1="140.049" y1="349.4" x2="140.049" y2="494.083"/>
	<line class="st0" x1="149.232" y1="349.4" x2="149.232" y2="497.076"/>
	<line class="st0" x1="158.598" y1="349.4" x2="158.598" y2="499.41"/>
	<line class="st0" x1="167.78" y1="349.4" x2="167.78" y2="499.41"/>
	<line class="st0" x1="186.328" y1="351.713" x2="186.328" y2="499.41"/>
	<line class="st0" x1="195.695" y1="354.774" x2="195.695" y2="499.41"/>
	<line class="st0" x1="205.06" y1="359.322" x2="205.06" y2="499.41"/>
	<line class="st0" x1="214.243" y1="365.546" x2="214.243" y2="499.41"/>
	<line class="st0" x1="232.791" y1="386.856" x2="232.791" y2="499.41"/>
	<line class="st0" x1="279.252" y1="50.141" x2="279.252" y2="499.41"/>
	<line class="st0" x1="288.62" y1="37.266" x2="288.62" y2="499.41"/>
	<line class="st0" x1="297.803" y1="28.675" x2="297.803" y2="499.41"/>
	<line class="st0" x1="307.168" y1="22.366" x2="307.168" y2="499.41"/>
	<line class="st0" x1="325.718" y1="15.058" x2="325.718" y2="499.41"/>
	<line class="st0" x1="334.901" y1="13.171" x2="334.901" y2="499.41"/>
	<line class="st0" x1="344.267" y1="12.468" x2="344.267" y2="499.41"/>
	<line class="st0" x1="353.629" y1="12.468" x2="353.629" y2="499.41"/>
	<line class="st0" x1="372.181" y1="12.468" x2="372.181" y2="492.753"/>
	<line class="st0" x1="381.363" y1="12.468" x2="381.363" y2="488.945"/>
	<line class="st0" x1="390.727" y1="12.468" x2="390.727" y2="483.388"/>
	<line class="st0" x1="399.912" y1="12.468" x2="399.912" y2="474.204"/>
	<line class="st0" x1="419.1" y1="55.193" x2="276.595" y2="55.193"/>
	<line class="st0" x1="419.1" y1="45.826" x2="281.937" y2="45.826"/>
	<line class="st0" x1="419.1" y1="27.278" x2="299.633" y2="27.278"/>
	<line class="st0" x1="419.1" y1="18.096" x2="316.436" y2="18.096"/>
</g>
<g>
	<g>
		<line class="st1" x1="130.937" y1="349.4" x2="130.937" y2="489.706"/>
		<line class="st1" x1="177.356" y1="349.4" x2="177.356" y2="498.991"/>
		<line class="st1" x1="223.78" y1="374.55" x2="223.78" y2="498.991"/>
		<line class="st1" x1="316.436" y1="18.096" x2="316.436" y2="498.991"/>
		<line class="st1" x1="362.855" y1="12.468" x2="362.855" y2="496.518"/>
	</g>
	<g>
		<line class="st1" x1="409.53" y1="12.468" x2="409.53" y2="460.518"/>
	</g>
	<line class="st1" x1="242.844" y1="455.277" x2="99.431" y2="455.277"/>
	<line class="st1" x1="412.471" y1="455.277" x2="269.642" y2="455.277"/>
	<line class="st1" x1="241.102" y1="408.854" x2="93.575" y2="408.854"/>
	<line class="st1" x1="419.037" y1="408.854" x2="269.642" y2="408.854"/>
	<line class="st1" x1="209.823" y1="362.435" x2="93.575" y2="362.435"/>
	<line class="st1" x1="419.037" y1="362.435" x2="269.304" y2="362.435"/>
	<line class="st1" x1="419.1" y1="316.014" x2="270.317" y2="316.014"/>
	<line class="st1" x1="419.037" y1="269.592" x2="270.254" y2="269.592"/>
	<line class="st1" x1="419.1" y1="223.171" x2="270.317" y2="223.171"/>
	<line class="st1" x1="419.1" y1="176.933" x2="270.317" y2="176.933"/>
	<line class="st1" x1="419.1" y1="130.512" x2="270.317" y2="130.512"/>
	<line class="st1" x1="419.1" y1="84.09" x2="270.317" y2="84.09"/>
	<line class="st1" x1="419.1" y1="36.602" x2="288.62" y2="36.602"/>
	<g>
		<g>
			<g>
				<g>
					<g>
						<path class="st2" d="M269.341,85c-0.027,0.83-0.041,1.663-0.041,2.5c0,0.1,0,0.2,0,0.2c0,0.1,0,0.3,0,0.4c0,0.2,0,0.3,0,0.5
							v-0.1v3.6"/>
						<line class="st3" x1="269.3" y1="96.039" x2="269.3" y2="493.73"/>
						<polyline class="st2" points="269.3,495.7 269.3,499.3 272.9,499.3 						"/>
						<path class="st4" d="M276.872,499.3H344.2c41.4,0,74.9-33.5,74.9-74.9V18.186"/>
						<polyline class="st2" points="419.1,16.2 419.1,12.6 415.5,12.6 						"/>
						<path class="st5" d="M411.454,12.6H344.2c-39.882,0-72.433,31.088-74.766,70.379"/>
					</g>
				</g>
			</g>
			<g>
				<g>
					<path class="st2" d="M242.659,421.8c0.027,0.83,0.041,1.663,0.041,2.5c0,0.1,0,0.1,0,0.2s0,0.3,0,0.4c0,0.2,0,0.3,0,0.5v-0.1
						v3.6"/>
					<line class="st6" x1="242.7" y1="432.636" x2="242.7" y2="493.932"/>
					<polyline class="st2" points="242.7,495.8 242.7,499.4 239.1,499.4 					"/>
					<path class="st7" d="M235.143,499.4H167.8c-41.3,0-74.9-33.5-74.9-74.9v-69.521"/>
					<polyline class="st2" points="92.9,353 92.9,349.4 96.5,349.4 					"/>
					<path class="st8" d="M100.545,349.4H167.8c39.786,0,72.426,31.088,74.766,70.379"/>
				</g>
			</g>
		</g>
	</g>
</g>
</svg>
