<?xml version="1.0" encoding="utf-8"?>
<!-- Generator: Adobe Illustrator 23.0.2, SVG Export Plug-In . SVG Version: 6.00 Build 0)  -->
<svg version="1.1" id="Layer_1" xmlns="http://www.w3.org/2000/svg" xmlns:xlink="http://www.w3.org/1999/xlink" x="0px" y="0px"
	 viewBox="0 0 512 512" style="enable-background:new 0 0 512 512;" xml:space="preserve">
<style type="text/css">
	.st0{fill:none;stroke:#2D89EF;stroke-width:2.16;stroke-linecap:round;stroke-linejoin:round;}
	.st1{fill:none;stroke:#2D89EF;stroke-width:2.16;stroke-linecap:round;stroke-linejoin:round;stroke-dasharray:7.0807,7.0807;}
	.st2{fill:none;stroke:#2D89EF;stroke-width:2.16;stroke-linecap:round;stroke-linejoin:round;stroke-dasharray:7.1948,7.1948;}
	.st3{fill:none;stroke:#2D89EF;stroke-width:2.16;stroke-linecap:round;stroke-linejoin:round;stroke-dasharray:7.4589,7.4589;}
	.st4{fill:none;stroke:#2D89EF;stroke-width:2.16;stroke-linecap:round;stroke-linejoin:round;stroke-dasharray:7.4333,7.4333;}
	.st5{fill:none;stroke:#2D89EF;stroke-width:2.16;stroke-linecap:round;stroke-linejoin:round;stroke-dasharray:7.0392,7.0392;}
	.st6{fill:none;stroke:#2D89EF;stroke-width:2.16;stroke-linecap:round;stroke-linejoin:round;stroke-dasharray:7.458,7.458;}
	.st7{fill:#A8A8A8;}
	.st8{fill:#6D6D6D;}
	.st9{fill:#2D89EF;}
</style>
<g>
	<g>
		<path class="st0" d="M269.341,85c-0.027,0.83-0.041,1.663-0.041,2.5c0,0.1,0,0.2,0,0.2c0,0.1,0,0.3,0,0.4c0,0.2,0,0.3,0,0.5v-0.1
			v3.6"/>
		<line class="st1" x1="269.3" y1="99.181" x2="269.3" y2="492.16"/>
		<polyline class="st0" points="269.3,495.7 269.3,499.3 272.9,499.3 		"/>
		<path class="st2" d="M280.095,499.3H344.2c41.4,0,74.9-33.5,74.9-74.9V19.797"/>
		<polyline class="st0" points="419.1,16.2 419.1,12.6 415.5,12.6 		"/>
		<path class="st3" d="M408.041,12.6H344.2c-39.304,0-71.487,30.194-74.646,68.676"/>
	</g>
</g>
<g>
	<g>
		<path class="st0" d="M242.659,421.8c0.027,0.83,0.041,1.663,0.041,2.5c0,0.1,0,0.1,0,0.2s0,0.3,0,0.4c0,0.2,0,0.3,0,0.5v-0.1v3.6"
			/>
		<line class="st4" x1="242.7" y1="436.333" x2="242.7" y2="492.083"/>
		<polyline class="st0" points="242.7,495.8 242.7,499.4 239.1,499.4 		"/>
		<path class="st5" d="M232.061,499.4H167.8c-41.3,0-74.9-33.5-74.9-74.9v-67.98"/>
		<polyline class="st0" points="92.9,353 92.9,349.4 96.5,349.4 		"/>
		<path class="st6" d="M103.958,349.4H167.8c39.209,0,71.478,30.194,74.645,68.676"/>
	</g>
</g>
<path class="st7" d="M232.866,498.306c-2.318,0-4.515-0.92-6.186-2.59l-0.234-0.234h-0.06c-1.462-1.584-2.296-3.734-2.296-5.951
	c0-2.397,0.872-4.536,2.521-6.186l0.071-0.071c1.647-1.646,3.786-2.519,6.183-2.519c2.329,0,4.583,0.919,6.186,2.521l0.137,0.138
	c1.578,1.644,2.453,3.82,2.453,6.117c0,2.284-0.944,4.539-2.591,6.186C237.405,497.361,235.151,498.306,232.866,498.306z
	 M232.856,484.989c-1.251,0-2.389,0.481-3.205,1.355c-0.846,0.788-1.327,1.926-1.327,3.177c0,1.192,0.476,2.326,1.34,3.19
	c0.833,0.834,1.966,1.292,3.191,1.292c1.165,0,2.293-0.454,3.176-1.278c0.852-0.911,1.306-2.039,1.306-3.204
	c0-1.185-0.425-2.266-1.229-3.128l-0.061-0.062C235.182,485.465,234.049,484.989,232.856,484.989z"/>
<path class="st7" d="M278.968,498.306c-2.318,0-4.515-0.92-6.186-2.59l-0.234-0.234h-0.06c-1.462-1.584-2.296-3.734-2.296-5.951
	c0-2.397,0.872-4.536,2.521-6.186l0.071-0.071c1.647-1.646,3.786-2.519,6.183-2.519c2.329,0,4.583,0.919,6.186,2.521l0.137,0.138
	c1.578,1.644,2.453,3.82,2.453,6.117c0,2.284-0.944,4.539-2.591,6.186C283.508,497.361,281.253,498.306,278.968,498.306z
	 M278.958,484.989c-1.251,0-2.389,0.481-3.205,1.355c-0.846,0.788-1.327,1.926-1.327,3.177c0,1.192,0.476,2.326,1.34,3.19
	c0.833,0.834,1.966,1.292,3.191,1.292c1.165,0,2.293-0.454,3.176-1.278c0.852-0.911,1.306-2.039,1.306-3.204
	c0-1.185-0.425-2.266-1.229-3.128l-0.061-0.062C281.284,485.465,280.151,484.989,278.958,484.989z"/>
<path class="st7" d="M409.622,350.225c-2.318,0-4.515-0.92-6.186-2.59l-0.234-0.234h-0.06c-1.462-1.584-2.296-3.734-2.296-5.951
	c0-2.397,0.872-4.536,2.521-6.186l0.071-0.071c1.647-1.646,3.786-2.519,6.183-2.519c2.329,0,4.583,0.919,6.186,2.521l0.137,0.138
	c1.578,1.644,2.453,3.82,2.453,6.117c0,2.284-0.944,4.539-2.591,6.186C414.161,349.28,411.907,350.225,409.622,350.225z
	 M409.611,337.1c-1.197,0-2.287,0.46-3.068,1.297c-0.81,0.754-1.27,1.844-1.27,3.041c0,1.141,0.456,2.226,1.283,3.054
	c0.797,0.798,1.882,1.237,3.055,1.237c1.115,0,2.195-0.434,3.041-1.224c0.815-0.872,1.25-1.951,1.25-3.067
	c0-1.134-0.407-2.169-1.177-2.994l-0.058-0.059C411.838,337.556,410.753,337.1,409.611,337.1z"/>
<path class="st7" d="M279.206,175.881c-2.318,0-4.515-0.92-6.186-2.59l-0.234-0.234h-0.06c-1.462-1.584-2.296-3.734-2.296-5.951
	c0-2.397,0.872-4.536,2.521-6.186l0.071-0.071c1.647-1.646,3.786-2.519,6.183-2.519c2.329,0,4.583,0.919,6.186,2.521l0.137,0.138
	c1.578,1.644,2.453,3.82,2.453,6.117c0,2.284-0.944,4.539-2.591,6.186C283.745,174.937,281.49,175.881,279.206,175.881z
	 M279.196,162.564c-1.251,0-2.389,0.481-3.205,1.355c-0.846,0.788-1.327,1.926-1.327,3.177c0,1.192,0.476,2.326,1.34,3.19
	c0.833,0.834,1.966,1.292,3.191,1.292c1.165,0,2.293-0.454,3.176-1.278c0.852-0.911,1.306-2.039,1.306-3.204
	c0-1.185-0.425-2.266-1.229-3.128l-0.061-0.062C281.522,163.04,280.388,162.564,279.196,162.564z"/>
<path class="st7" d="M409.466,30.976c-2.318,0-4.515-0.92-6.186-2.59l-0.234-0.234h-0.06c-1.462-1.584-2.296-3.734-2.296-5.951
	c0-2.397,0.872-4.536,2.521-6.186l0.071-0.071c1.647-1.646,3.786-2.519,6.183-2.519c2.329,0,4.583,0.919,6.186,2.521l0.137,0.138
	c1.578,1.644,2.453,3.82,2.453,6.117c0,2.284-0.944,4.539-2.591,6.186C414.005,30.032,411.751,30.976,409.466,30.976z
	 M409.456,17.659c-1.251,0-2.389,0.481-3.205,1.355c-0.846,0.788-1.327,1.926-1.327,3.177c0,1.192,0.476,2.326,1.34,3.19
	c0.833,0.834,1.966,1.292,3.191,1.292c1.165,0,2.293-0.454,3.176-1.278c0.852-0.911,1.306-2.039,1.306-3.204
	c0-1.185-0.425-2.266-1.229-3.128l-0.061-0.062C411.782,18.135,410.649,17.659,409.456,17.659z"/>
<path class="st7" d="M102.723,367.98c-2.319,0-4.515-0.92-6.185-2.59l-0.234-0.234h-0.06c-1.463-1.584-2.296-3.733-2.296-5.951
	c0-2.396,0.872-4.535,2.521-6.185l0.071-0.071c1.648-1.647,3.787-2.52,6.183-2.52c2.328,0,4.583,0.919,6.186,2.521l0.137,0.138
	c1.578,1.644,2.453,3.82,2.453,6.116c0,2.285-0.944,4.54-2.59,6.186S105.008,367.98,102.723,367.98z M102.713,354.664
	c-1.251,0-2.389,0.481-3.204,1.355c-0.846,0.787-1.327,1.926-1.327,3.176c0,1.193,0.476,2.326,1.34,3.191
	c0.833,0.834,1.966,1.292,3.191,1.292c1.166,0,2.294-0.454,3.177-1.278c0.852-0.911,1.306-2.039,1.306-3.205
	c0-1.185-0.425-2.266-1.229-3.128l-0.064-0.064C105.039,355.14,103.906,354.664,102.713,354.664z"/>
<path class="st7" d="M196.696,422.506c-0.373,0-0.7-0.25-0.815-0.622l-1.964-6.331l-0.589-0.02
	c-1.852-0.063-3.372-0.252-4.785-0.597c-1.851-0.452-3.238-0.928-4.496-1.543l-0.556-0.271l-4.535,4.93
	c-0.179,0.195-0.421,0.307-0.667,0.307c-0.15,0-0.367-0.042-0.554-0.235l-9.516-8.773c-0.302-0.294-0.323-0.872-0.029-1.174
	l4.554-4.951l-0.323-0.532c-0.249-0.409-0.469-0.897-0.681-1.369l-0.07-0.156c-0.438-0.946-0.805-1.895-1.093-2.825
	c-0.31-0.998-0.544-1.985-0.696-2.936c-0.118-0.616-0.217-1.157-0.268-1.785l-0.05-0.611l-6.505-1.422
	c-0.428-0.118-0.76-0.626-0.67-1.076l0.031-0.186l2.835-12.362c0.079-0.395,0.49-0.686,0.94-0.686c0.056,0,0.111,0.004,0.168,0.013
	l6.457,1.485l0.311-0.511c0.83-1.363,1.788-2.654,2.847-3.84c1.21-1.253,2.397-2.308,3.606-3.2l0.475-0.349l-1.964-6.332
	c-0.126-0.405,0.034-0.927,0.577-1.096l12.282-3.81c0.078-0.023,0.159-0.035,0.242-0.035c0.385,0,0.745,0.257,0.854,0.612
	l1.961,6.324l0.58,0.027c1.503,0.073,3.059,0.277,4.759,0.626c1.433,0.35,2.94,0.855,4.579,1.536l0.536,0.223l4.509-4.901
	c0.143-0.147,0.382-0.24,0.641-0.24c0.241,0,0.469,0.08,0.641,0.227l9.383,8.734c0.185,0.158,0.279,0.35,0.292,0.567
	c0.016,0.248-0.077,0.5-0.254,0.693l-4.436,4.782l0.217,0.498c0.136,0.311,0.284,0.599,0.432,0.887
	c0.132,0.257,0.265,0.514,0.386,0.793c0.364,0.935,0.728,1.884,1.03,2.858c0.286,0.924,0.536,1.966,0.776,2.974
	c0.038,0.222,0.074,0.512,0.111,0.802c0.04,0.318,0.081,0.637,0.134,0.931l0.095,0.538l6.39,1.506
	c0.266,0.047,0.448,0.164,0.568,0.343c0.122,0.182,0.169,0.404,0.135,0.633l-0.063,0.175l-2.777,12.391
	c-0.095,0.41-0.444,0.712-0.83,0.712c-0.065,0-0.13-0.008-0.193-0.025l-6.544-1.502l-0.31,0.513
	c-0.762,1.262-1.688,2.488-2.913,3.858c-0.936,1.047-2.064,2.059-3.548,3.186l-0.463,0.351l1.961,6.324
	c0.067,0.215,0.042,0.45-0.07,0.663c-0.112,0.213-0.292,0.366-0.507,0.432l-12.282,3.811
	C196.882,422.491,196.788,422.506,196.696,422.506z M194.094,376.948c-1.454,0-2.912,0.224-4.334,0.665
	c-3.625,1.125-6.576,3.557-8.309,6.848c-1.763,3.35-2.115,7.19-0.991,10.815c1.111,3.581,3.567,6.524,6.917,8.288
	c2.037,1.072,4.322,1.639,6.61,1.639c1.405,0,2.796-0.212,4.137-0.628c3.624-1.124,6.592-3.588,8.355-6.936
	c1.686-3.324,2.029-7.23,0.944-10.727c-1.114-3.592-3.55-6.564-6.858-8.37C198.581,377.498,196.347,376.948,194.094,376.948z"/>
<path class="st8" d="M337.677,315.917c-0.438-0.002-0.771-0.353-0.776-0.815l-0.008-0.155l-1.031-10.85l-1.396-0.359
	c-0.667-0.413-1.425-0.743-2.108-0.915c-0.521-0.132-1.124-0.204-1.696-0.204c-0.183,0-0.358,0.008-0.528,0.022l-1.348-0.338
	l-6.077,9.143c-0.192,0.285-0.515,0.458-0.86,0.458c-0.152,0-0.299-0.038-0.424-0.111l-13.344-7.441
	c-0.484-0.27-0.655-0.821-0.397-1.283l0.07-0.138l3.692-8.172l0.331-0.516l0.387-1.545l-0.72-0.971l-0.757-0.973l-0.363-0.001
	c-0.016-0.017-0.089-0.099-0.089-0.099l-0.106-0.106l-0.334-0.298c-0.312-0.284-0.703-0.64-1.253-0.95
	c-0.265-0.251-0.88-0.78-1.857-0.78h-0.661l-0.628,0.347l-8.122,4.04c-0.151,0.071-0.331,0.114-0.502,0.114
	c-0.321,0-0.599-0.156-0.761-0.429l-7.902-13.265c-0.137-0.228-0.178-0.469-0.12-0.695s0.208-0.417,0.436-0.553l7.802-5.492
	l0.083-0.097c0.764-0.54,1.206-1.441,1.184-2.422c0.081-0.676-0.032-1.197-0.102-1.517l-0.055-0.209l-0.101-0.298
	c-0.115-0.346-0.261-0.78-0.609-1.366c-0.278-0.463-1.31-1.96-3.014-1.96l-9.18-0.698c-0.529-0.021-0.905-0.43-0.922-0.953
	l-0.159-15.303c-0.014-0.47,0.33-0.873,0.736-0.885l9.267-0.919l0.064-0.014c0.443-0.096,1.546-0.335,2.193-1.357
	c0.57-0.69,0.755-1.414,0.891-1.948l0.09-0.355c0.143-0.561,0.354-1.398,0.132-2.297c-0.142-1.113-0.936-1.799-1.202-2.03
	l-0.053-0.046l-0.116-0.088l-7.513-5.093c-0.446-0.3-0.592-0.855-0.422-1.135l7.5-13.509c0.177-0.316,0.497-0.514,0.837-0.514
	c0.153,0,0.298,0.039,0.442,0.119l0.144,0.073l8.174,3.693c0.43,0.244,0.929,0.373,1.448,0.373c0.722,0,1.486-0.251,2.167-0.709
	c0.594-0.277,0.964-0.618,1.238-0.872l0.24-0.22l0.044-0.05c0.266-0.309,0.616-0.716,0.867-1.343
	c0.377-0.652,0.422-1.267,0.391-1.677c-0.035-0.498-0.207-0.979-0.498-1.394l-4.044-8.269c-0.246-0.514-0.127-1.019,0.309-1.278
	l13.263-7.902c0.16-0.095,0.332-0.146,0.495-0.146c0.304,0,0.578,0.168,0.753,0.461l5.294,7.52c0.431,0.691,1.263,1.135,2.138,1.135
	c0.347,0,0.626-0.07,0.779-0.112c0.633-0.013,1.138-0.137,1.548-0.237l0.499-0.117l0.065-0.024c0.212-0.075,0.404-0.144,0.592-0.219
	h1.893l0.523-1.921c0.088-0.35,0.108-0.699,0.062-1.053l0.665-8.969c0.021-0.524,0.429-0.899,0.952-0.915l15.189-0.189
	c0.54,0,0.985,0.337,0.998,0.767l0.927,9.791l0.579,0.971l0.303,0.262c0.791,0.68,1.854,1.118,2.585,1.303
	c0.538,0.136,1.187,0.212,1.826,0.212c0.328,0,0.659-0.021,0.978-0.062l0.505-0.067l1.062-0.634l5.391-8.032
	c0.206-0.307,0.508-0.49,0.805-0.49c0.127,0,0.247,0.034,0.367,0.104l13.467,7.474c0.48,0.268,0.651,0.819,0.394,1.28l-3.967,8.467
	l-0.655,0.758l0.534,1.524l0.683,1.493l0.701,0.001c0.028,0.032,0.13,0.145,0.13,0.145l0.127,0.13l0.334,0.296
	c0.295,0.27,0.697,0.637,1.251,0.95c0.263,0.25,0.878,0.783,1.861,0.783h0.659l0.628-0.346l8.123-4.041
	c0.176-0.093,0.307-0.127,0.452-0.127c0.322,0,0.656,0.183,0.812,0.444l7.9,13.263c0.135,0.226,0.178,0.473,0.122,0.696
	c-0.057,0.222-0.212,0.418-0.438,0.553l-7.507,5.283l-0.17,0.098c-0.91,0.54-1.431,1.54-1.394,2.642
	c-0.079,0.674,0.036,1.194,0.106,1.512l0.054,0.207l0.081,0.235c0.12,0.354,0.283,0.834,0.676,1.363
	c0.653,1.248,1.779,2.018,2.965,2.018l9.181,0.699c0.529,0.021,0.905,0.429,0.921,0.952l0.159,15.304
	c0.008,0.257-0.064,0.454-0.214,0.609c-0.149,0.156-0.357,0.241-0.599,0.244l-0.172,0.009l-9.027,0.943l-0.064,0.014
	c-0.503,0.109-1.41,0.306-2.131,1.142c-0.561,0.646-0.765,1.455-0.944,2.168l-0.088,0.346c-0.146,0.579-0.312,1.229-0.253,2.018
	l0.006,0.081l0.023,0.17c0.257,1.177,0.962,1.779,1.301,2.069l0.162,0.129l7.511,5.092c0.467,0.313,0.625,0.785,0.396,1.177
	l-7.474,13.468c-0.177,0.315-0.498,0.513-0.838,0.513c-0.157,0-0.3-0.039-0.443-0.118l-0.143-0.073l-8.178-3.696
	c-0.439-0.248-0.933-0.374-1.468-0.374c-0.7,0-1.466,0.227-2.157,0.638c-0.595,0.354-0.927,0.667-1.193,0.918l-0.274,0.252
	l-0.048,0.056c-0.259,0.3-0.607,0.705-0.857,1.331c-0.557,0.949-0.575,2.076-0.04,2.973l4.199,8.392
	c0.244,0.459,0.096,1.011-0.317,1.257l-13.264,7.901c-0.16,0.097-0.331,0.146-0.496,0.146c-0.304,0-0.578-0.168-0.753-0.461
	l-0.089-0.139l-4.688-6.529l0.001-0.006l-0.328-0.489l-0.382-0.521l-0.762-0.976l-1.644-0.01l-0.372,0.129
	c-0.613,0.018-1.105,0.14-1.507,0.238l-0.485,0.114l-0.462,0.163l-2.51,1.517l-0.107,0.511c-0.066,0.317-0.084,0.635-0.053,0.966
	l-0.671,9.029c-0.021,0.524-0.43,0.899-0.953,0.915L337.677,315.917z M344.555,225.462c-5.238,0-10.373,1.45-14.848,4.193
	c-6.657,3.853-11.397,10.167-13.323,17.765c-1.944,7.676-0.786,15.539,3.26,22.139c3.853,6.658,10.167,11.398,17.766,13.322
	c2.415,0.612,4.873,0.923,7.307,0.923c5.239,0,10.368-1.446,14.832-4.183c6.659-3.854,11.411-10.211,13.353-17.886
	c1.926-7.597,0.758-15.417-3.289-22.019c-3.853-6.657-10.209-11.408-17.884-13.353C349.366,225.766,346.952,225.462,344.555,225.462
	z"/>
<path class="st9" d="M344.725,237.399c-3.079,0-6.152,0.862-8.89,2.493c-3.998,2.382-6.805,6.086-7.906,10.428
	c-1.129,4.456-0.437,9.11,1.944,13.108c2.383,3.999,6.087,6.807,10.431,7.905c1.393,0.354,2.819,0.534,4.233,0.534
	c3.084,0,6.152-0.858,8.872-2.477c3.997-2.38,6.821-6.145,7.951-10.601c1.099-4.342,0.439-8.858-1.858-12.719l-0.134-0.222
	c-2.379-3.993-6.143-6.816-10.597-7.944C347.451,237.57,346.09,237.399,344.725,237.399z"/>
<g>
	<path class="st8" d="M327.725,137.846c-0.452,0.016-0.875-0.327-0.889-0.718l-0.014-0.182l-1.785-13.323l-1.596-0.431
		c-1.487-0.402-2.876-0.778-4.245-1.354c-1.562-0.546-2.871-1.145-4.257-1.778l-1.449-0.662l-1.219,1.033l-8.991,7.835
		c-0.11,0.086-0.351,0.168-0.575,0.176c-0.241,0.008-0.467-0.064-0.606-0.195l-14.694-13.712c-0.236-0.204-0.335-0.395-0.349-0.636
		c-0.012-0.221,0.06-0.438,0.192-0.58l0.12-0.136l8.166-10.685l-0.921-1.463c-0.688-1.09-1.365-2.369-2.07-3.909
		c-0.591-1.394-1.196-2.819-1.683-4.225l-0.534-1.548l-13.455-0.982c-0.469-0.017-0.799-0.381-0.815-0.851l-0.086-2.485
		l-0.115,0.004l-0.609-17.605c-0.016-0.477,0.358-0.877,0.834-0.894l0.182-0.014l13.208-1.782l0.43-1.595
		c0.39-1.441,0.903-2.928,1.4-4.367c0.461-1.335,1.024-2.599,1.781-4.009l0.815-1.514l-8.956-10.274
		c-0.329-0.369-0.352-0.815-0.063-1.096l13.794-14.779c0.29-0.336,0.52-0.344,0.595-0.346c0.188-0.006,0.363,0.061,0.506,0.194
		l0.144,0.126l10.801,8.148l1.453-0.916c1.346-0.848,2.569-1.497,3.848-2.041c1.427-0.606,2.892-1.227,4.288-1.711l1.564-0.541
		l0.852-13.47c0.044-0.439,0.386-0.774,0.849-0.79l2.485-0.086l-0.004-0.115l17.607-0.609c0.475-0.016,0.875,0.358,0.892,0.834
		l0.015,0.202l1.915,13.189l1.578,0.426c1.431,0.387,2.925,0.903,4.371,1.402c1.563,0.59,2.874,1.173,4.003,1.779l1.514,0.815
		l10.276-8.955c0.237-0.227,0.39-0.255,0.503-0.259c0.236-0.008,0.477,0.09,0.678,0.278l14.694,13.711
		c0.151,0.141,0.236,0.33,0.243,0.545c0.007,0.214-0.064,0.408-0.206,0.561l-0.135,0.155l-7.949,10.707l0.759,1.395
		c0.736,1.354,1.426,2.621,2.006,3.988c0.74,1.479,1.211,2.841,1.71,4.282l0.541,1.56l1.648,0.114l11.94,0.744
		c0.438,0.044,0.772,0.387,0.788,0.85l0.695,20.091c0.016,0.452-0.327,0.876-0.718,0.89l-0.199,0.014l-13.307,1.916l-0.426,1.579
		c-0.399,1.475-0.776,2.868-1.354,4.244c-0.517,1.37-1.144,2.872-1.783,4.27l-0.668,1.458l8.878,10.188
		c0.271,0.309,0.226,0.889-0.096,1.268l-13.634,14.607c-0.136,0.145-0.36,0.237-0.602,0.245c-0.242,0.008-0.472-0.067-0.617-0.203
		l-0.148-0.129l-10.592-7.966l-1.404,0.765c-1.484,0.807-2.865,1.484-4.104,2.011l-0.158,0.074c-1.23,0.667-2.569,1.131-3.986,1.623
		l-1.567,0.542l-0.128,1.632l-0.861,11.945c-0.016,0.466-0.379,0.795-0.849,0.811L327.725,137.846z M334.7,48.704
		c-7.48,0.259-14.748,3.599-19.94,9.164c-5.192,5.566-8.022,13.046-7.763,20.524c0.265,7.663,3.52,14.785,9.167,20.055
		c5.57,5.197,12.858,7.914,20.521,7.65c7.737-0.268,14.862-3.483,20.059-9.053c5.198-5.571,7.914-12.9,7.647-20.637
		c-0.265-7.663-3.479-14.745-9.05-19.942C349.694,51.195,342.364,48.439,334.7,48.704z"/>
	<path class="st8" d="M335.287,65.677c-3.042,0.105-5.94,1.387-8.163,3.611c-2.159,2.47-3.26,5.473-3.155,8.517
		c0.107,3.091,1.314,5.875,3.492,8.051l0.178,0.168c2.337,2.181,5.341,3.322,8.462,3.214c3.272-0.113,6.211-1.481,8.275-3.852
		c2.127-2.116,3.267-5.12,3.154-8.396c-0.108-3.12-1.453-6.039-3.787-8.218C341.486,66.666,338.482,65.567,335.287,65.677z"/>
	<path class="st9" d="M336.685,106.124c-7.624,0.264-15.106-2.484-20.526-7.539l-0.505-0.472c-5.327-5.181-8.425-12.197-8.685-19.72
		c-0.258-7.472,2.578-14.956,7.782-20.533c5.204-5.578,12.476-8.925,19.948-9.183c7.58-0.262,14.873,2.502,20.534,7.783l1.596,1.488
		l0.127-0.004c4.519,4.937,7.224,11.603,7.461,18.463c0.271,7.85-2.335,14.948-7.539,20.527l-0.233,0.248
		C351.437,102.762,344.538,105.852,336.685,106.124z M334.886,53.896c-6.1,0.211-11.913,2.782-16.37,7.241
		c-4.329,4.953-6.538,10.977-6.327,17.081c0.214,6.198,2.635,11.782,7.002,16.145l0.357,0.338
		c4.687,4.375,10.712,6.662,16.971,6.446c6.562-0.227,12.456-2.971,16.595-7.725c4.265-4.244,6.552-10.268,6.325-16.838
		c-0.216-6.257-2.914-12.11-7.596-16.481C347.317,55.879,341.293,53.675,334.886,53.896z"/>
</g>
<path class="st7" d="M326.033,385.483c-0.457,0.091-0.919-0.136-1.151-0.564l-3.949-7.286l-0.727,0.118
	c-2.286,0.374-4.197,0.511-6.014,0.432c-2.381-0.104-4.197-0.351-5.889-0.798l-0.748-0.198l-4.362,7.149
	c-0.172,0.283-0.442,0.479-0.743,0.538c-0.184,0.036-0.461,0.039-0.736-0.153l-13.805-8.444c-0.441-0.287-0.609-0.99-0.322-1.433
	l4.38-7.18l-0.526-0.574c-0.404-0.441-0.793-0.986-1.168-1.513l-0.124-0.174c-0.767-1.054-1.448-2.128-2.028-3.199
	c-0.623-1.149-1.15-2.302-1.568-3.431c-0.295-0.727-0.547-1.366-0.763-2.123l-0.21-0.738l-8.323-0.162
	c-0.554-0.041-1.085-0.582-1.083-1.157l-0.007-0.236l0.469-15.85c0.001-0.504,0.434-0.961,0.986-1.07
	c0.068-0.014,0.138-0.022,0.209-0.025l8.28,0.25l0.257-0.703c0.686-1.873,1.547-3.69,2.557-5.401
	c1.179-1.831,2.378-3.414,3.644-4.802l0.497-0.544l-3.949-7.287c-0.252-0.466-0.184-1.145,0.441-1.485l14.135-7.661
	c0.09-0.048,0.187-0.082,0.288-0.102c0.472-0.094,0.976,0.134,1.197,0.543l3.944,7.278l0.718-0.108
	c1.861-0.276,3.819-0.404,5.988-0.391c1.842,0.081,3.814,0.334,5.989,0.769l0.712,0.143l4.338-7.108
	c0.139-0.215,0.41-0.387,0.727-0.45c0.296-0.059,0.595-0.016,0.842,0.122l13.632,8.428c0.265,0.149,0.427,0.362,0.496,0.624
	c0.08,0.3,0.027,0.632-0.143,0.912l-4.277,6.944l0.387,0.558c0.243,0.348,0.494,0.666,0.746,0.982
	c0.225,0.283,0.45,0.566,0.666,0.878c0.674,1.058,1.351,2.133,1.958,3.254c0.576,1.064,1.135,2.281,1.675,3.459
	c0.1,0.263,0.216,0.61,0.332,0.956c0.127,0.38,0.254,0.761,0.39,1.11l0.247,0.636l8.202,0.293c0.338-0.008,0.589,0.092,0.78,0.283
	c0.195,0.194,0.306,0.454,0.32,0.743l-0.035,0.23l-0.391,15.872c-0.016,0.526-0.372,0.981-0.844,1.075
	c-0.079,0.016-0.161,0.022-0.243,0.016l-8.391-0.25l-0.256,0.705c-0.628,1.734-1.465,3.462-2.634,5.44
	c-0.894,1.511-2.03,3.027-3.576,4.77L337,368.938l3.944,7.278c0.134,0.247,0.161,0.542,0.076,0.83
	c-0.085,0.288-0.269,0.52-0.517,0.653l-14.135,7.662C326.259,385.419,326.146,385.461,326.033,385.483z M311.759,330.246
	c-1.783,0.354-3.517,0.983-5.153,1.87c-4.172,2.261-7.199,5.962-8.524,10.42c-1.347,4.537-0.845,9.332,1.416,13.505
	c2.234,4.122,5.962,7.133,10.499,8.481c2.759,0.819,5.7,0.958,8.505,0.402c1.722-0.342,3.378-0.94,4.921-1.776
	c4.172-2.26,7.211-6.003,8.559-10.539c1.259-4.487,0.729-9.36-1.452-13.385c-2.24-4.134-5.951-7.186-10.447-8.596
	C317.395,329.828,314.522,329.697,311.759,330.246z"/>
<path class="st7" d="M366.935,191.577l-4.679,7.206c-0.184,0.285-0.467,0.478-0.777,0.531c-0.189,0.032-0.474,0.026-0.751-0.178
	l-13.913-9.056c-0.444-0.307-0.596-1.033-0.289-1.479l4.698-7.236l-0.523-0.604c-0.402-0.464-0.785-1.034-1.155-1.585l-0.122-0.182
	c-0.756-1.103-1.424-2.224-1.988-3.338c-0.606-1.196-1.113-2.394-1.509-3.563c-0.282-0.754-0.522-1.417-0.722-2.199l-0.194-0.762
	l-8.53-0.405c-0.567-0.058-1.095-0.628-1.077-1.217l0-0.242l0.936-16.24c0.016-0.516,0.473-0.973,1.042-1.069
	c0.07-0.012,0.142-0.019,0.215-0.019l8.484,0.494l0.283-0.713c0.758-1.901,1.692-3.739,2.778-5.465
	c1.262-1.844,2.536-3.432,3.875-4.819l0.526-0.543l-3.84-7.586c-0.245-0.485-0.156-1.18,0.495-1.51l14.715-7.45
	c0.094-0.046,0.194-0.079,0.298-0.097c0.487-0.083,0.997,0.166,1.212,0.591l3.835,7.576l0.739-0.09
	c1.916-0.23,3.928-0.305,6.152-0.228c1.887,0.136,3.901,0.452,6.119,0.961l0.726,0.167l4.652-7.164
	c0.149-0.216,0.431-0.385,0.759-0.441c0.305-0.052,0.61,0.001,0.859,0.149l13.737,9.034c0.267,0.16,0.428,0.383,0.491,0.654
	c0.073,0.31,0.01,0.649-0.173,0.931l-4.585,6.997l0.381,0.583c0.239,0.364,0.487,0.697,0.737,1.029
	c0.222,0.297,0.446,0.593,0.658,0.92c0.661,1.105,1.324,2.226,1.915,3.393c0.56,1.107,1.098,2.371,1.618,3.595
	c0.096,0.272,0.204,0.632,0.313,0.99c0.119,0.393,0.239,0.788,0.368,1.149l0.235,0.659l8.403,0.536
	c0.347,0.002,0.602,0.111,0.792,0.312c0.194,0.204,0.3,0.475,0.306,0.771l-0.042,0.235l-0.856,16.264
	c-0.032,0.539-0.409,0.995-0.897,1.078c-0.082,0.014-0.166,0.018-0.249,0.009l-8.598-0.498l-0.282,0.715
	c-0.693,1.76-1.601,3.508-2.857,5.502c-0.96,1.524-2.168,3.046-3.804,4.789l-0.51,0.543l3.835,7.576
	c0.13,0.257,0.15,0.561,0.054,0.853c-0.096,0.293-0.291,0.526-0.549,0.655l-14.715,7.451c-0.113,0.056-0.229,0.095-0.346,0.115
	c-0.471,0.08-0.939-0.166-1.164-0.611l-3.84-7.585l-0.749,0.101c-2.355,0.317-4.319,0.404-6.179,0.27 M372.593,143.562
	c-1.838,0.311-3.634,0.907-5.338,1.769c-4.343,2.199-7.553,5.907-9.04,10.44c-1.512,4.613-1.134,9.546,1.064,13.889
	c2.172,4.291,5.909,7.486,10.522,8.998c2.805,0.919,5.817,1.146,8.709,0.656c1.776-0.301,3.491-0.867,5.097-1.68
	c4.343-2.197,7.567-5.949,9.08-10.561c1.42-4.565,1.016-9.577-1.105-13.767c-2.178-4.303-5.895-7.539-10.466-9.114
	C378.384,143.296,375.442,143.079,372.593,143.562z"/>
<g>
	<path class="st8" d="M339.616,492.544c-0.46-0.014-0.868-0.389-0.856-0.788l-0.003-0.186l-0.943-13.655l-1.593-0.543
		c-1.485-0.506-2.872-0.979-4.225-1.653c-1.552-0.657-2.843-1.351-4.209-2.085l-1.429-0.767l-1.306,0.97l-9.648,7.375
		c-0.117,0.081-0.368,0.148-0.596,0.141c-0.245-0.007-0.471-0.096-0.603-0.238l-14.035-14.894c-0.227-0.222-0.315-0.424-0.313-0.669
		c0.003-0.225,0.089-0.442,0.233-0.577l0.131-0.131l8.996-10.324l-0.841-1.547c-0.628-1.153-1.232-2.496-1.848-4.108
		c-0.509-1.455-1.032-2.943-1.435-4.403l-0.442-1.608l-13.609-1.877c-0.476-0.048-0.787-0.439-0.772-0.918l0.075-2.531l-0.117-0.003
		l0.532-17.93c0.014-0.485,0.421-0.868,0.906-0.854l0.186-0.002l13.539-0.947l0.542-1.593c0.49-1.439,1.109-2.916,1.708-4.346
		c0.556-1.326,1.21-2.575,2.072-3.958l0.927-1.485l-8.43-11.025c-0.31-0.396-0.304-0.851,0.007-1.118l14.983-14.117
		c0.317-0.322,0.551-0.315,0.628-0.313c0.191,0.006,0.365,0.085,0.502,0.231l0.138,0.138l10.444,8.986l1.536-0.836
		c1.423-0.774,2.708-1.353,4.044-1.823c1.49-0.522,3.019-1.058,4.469-1.458l1.625-0.447l1.747-13.632
		c0.073-0.444,0.443-0.761,0.914-0.747l2.531,0.075l0.003-0.117l17.932,0.532c0.484,0.014,0.866,0.421,0.852,0.905l0.002,0.206
		l1.084,13.528l1.575,0.536c1.429,0.487,2.913,1.109,4.35,1.71c1.549,0.701,2.844,1.38,3.952,2.07l1.486,0.927l11.027-8.429
		c0.256-0.216,0.413-0.234,0.528-0.23c0.24,0.007,0.479,0.123,0.671,0.327l14.035,14.894c0.145,0.153,0.218,0.351,0.211,0.57
		c-0.006,0.218-0.091,0.41-0.246,0.556l-0.148,0.149l-8.777,10.361l0.68,1.467c0.659,1.424,1.277,2.757,1.777,4.184
		c0.655,1.552,1.045,2.966,1.458,4.463l0.447,1.621l1.668,0.224l12.085,1.537c0.442,0.074,0.759,0.444,0.745,0.915l-0.607,20.461
		c-0.014,0.46-0.389,0.869-0.788,0.857l-0.203,0.001l-13.647,1.077l-0.536,1.577c-0.502,1.473-0.976,2.864-1.654,4.224
		c-0.615,1.359-1.35,2.844-2.091,4.223l-0.774,1.438l8.356,10.933c0.255,0.332,0.172,0.918-0.18,1.282l-14.809,13.952
		c-0.147,0.138-0.382,0.217-0.628,0.21s-0.475-0.099-0.614-0.246l-0.142-0.14l-10.242-8.787l-1.476,0.685
		c-1.561,0.723-3.008,1.321-4.302,1.776l-0.165,0.065c-1.294,0.598-2.684,0.982-4.156,1.388l-1.628,0.449l-0.237,1.65l-1.656,12.082
		c-0.047,0.473-0.438,0.783-0.915,0.768L339.616,492.544z M352.531,402.415c-7.618-0.226-15.222,2.693-20.862,8.009
		c-5.64,5.316-9.005,12.733-9.23,20.349c-0.232,7.805,2.611,15.255,8.004,20.979c5.321,5.646,12.549,8.883,20.353,9.115
		c7.88,0.234,15.33-2.568,20.975-7.888c5.646-5.321,8.885-12.591,9.119-20.471c0.232-7.805-2.572-15.212-7.893-20.857
		C367.604,405.926,360.336,402.646,352.531,402.415z"/>
	<path class="st8" d="M352.018,419.701c-3.098-0.092-6.127,1.022-8.531,3.135c-2.355,2.368-3.67,5.349-3.762,8.449
		c-0.093,3.148,0.951,6.056,3.022,8.409l0.17,0.183c2.232,2.37,5.211,3.725,8.389,3.819c3.333,0.099,6.409-1.099,8.661-3.373
		c2.299-2.011,3.655-4.989,3.754-8.326c0.094-3.178-1.082-6.231-3.312-8.598C358.252,421.111,355.271,419.798,352.018,419.701z"/>
	<path class="st9" d="M350.795,460.894c-7.764-0.23-15.188-3.512-20.365-9.003l-0.483-0.512c-5.074-5.613-7.764-12.945-7.537-20.607
		c0.226-7.61,3.597-15.03,9.25-20.357c5.653-5.328,13.261-8.254,20.871-8.028c7.72,0.229,14.95,3.514,20.358,9.251l1.524,1.617
		l0.129,0.004c4.269,5.312,6.583,12.263,6.375,19.249c-0.237,7.995-3.349,15.037-9.003,20.366l-0.253,0.237
		C366.005,458.442,358.792,461.131,350.795,460.894z M352.389,407.328c-6.309-0.187-12.479,2.081-17.375,6.386
		c-4.797,4.824-7.476,10.894-7.663,17.209c-0.19,6.411,1.937,12.334,6.155,17.127l0.346,0.372
		c4.547,4.826,10.613,7.587,17.087,7.779c6.788,0.201,13.053-2.239,17.64-6.871c4.683-4.097,7.444-10.162,7.646-16.957
		c0.192-6.472-2.204-12.692-6.745-17.513C365.086,410.2,359.016,407.525,352.389,407.328z"/>
</g>
<g>
	<path class="st8" d="M126.63,483.031c-0.311-0.102-0.514-0.441-0.425-0.712l0.036-0.128l2.121-9.516l-0.978-0.693
		c-0.912-0.646-1.763-1.25-2.551-1.984c-0.927-0.763-1.668-1.498-2.452-2.277l-0.821-0.814l-1.088,0.398l-8.082,3.083
		c-0.097,0.031-0.281,0.027-0.435-0.024c-0.166-0.055-0.302-0.161-0.364-0.284l-6.569-13.013c-0.11-0.198-0.129-0.353-0.079-0.52
		c0.047-0.153,0.15-0.284,0.276-0.347l0.116-0.063l8.234-5.229l-0.261-1.227c-0.196-0.915-0.336-1.954-0.43-3.18
		c-0.053-1.097-0.109-2.219-0.088-3.298l0.024-1.187l-8.913-4.038c-0.315-0.129-0.448-0.459-0.342-0.783l0.564-1.713l-0.079-0.026
		l3.994-12.137c0.108-0.329,0.463-0.508,0.792-0.4l0.128,0.036l9.437,2.095l0.692-0.978c0.626-0.883,1.348-1.767,2.047-2.622
		c0.648-0.793,1.348-1.513,2.216-2.283l0.934-0.827l-3.524-9.236c-0.132-0.333-0.035-0.643,0.231-0.762l13.091-6.607
		c0.282-0.156,0.44-0.104,0.492-0.087c0.129,0.043,0.232,0.132,0.296,0.259l0.066,0.122l5.312,8.252l1.218-0.26
		c1.129-0.24,2.124-0.376,3.131-0.426c1.123-0.055,2.276-0.111,3.347-0.091l1.2,0.024l3.953-8.956
		c0.14-0.288,0.457-0.43,0.775-0.325l1.713,0.564l0.026-0.08l12.138,3.995c0.328,0.108,0.506,0.463,0.398,0.791l-0.04,0.141
		l-1.999,9.458l0.967,0.685c0.877,0.622,1.765,1.347,2.624,2.049c0.916,0.793,1.663,1.518,2.28,2.214l0.827,0.934l9.238-3.523
		c0.218-0.095,0.33-0.076,0.407-0.05c0.162,0.053,0.302,0.181,0.392,0.359l6.569,13.013c0.068,0.134,0.078,0.284,0.029,0.432
		c-0.049,0.148-0.145,0.262-0.28,0.33l-0.131,0.072l-8.092,5.298l0.167,1.14c0.162,1.106,0.314,2.141,0.367,3.217
		c0.133,1.192,0.113,2.237,0.092,3.343l-0.023,1.198l1.094,0.49l7.942,3.496c0.287,0.14,0.429,0.457,0.324,0.776l-4.558,13.85
		c-0.103,0.312-0.442,0.515-0.712,0.426l-0.139-0.04l-9.538-2.028l-0.685,0.968c-0.641,0.904-1.246,1.758-1.985,2.55
		c-0.695,0.803-1.498,1.669-2.283,2.46l-0.82,0.825l3.493,9.158c0.107,0.278-0.068,0.662-0.383,0.839l-12.939,6.529
		c-0.129,0.065-0.305,0.071-0.471,0.016c-0.166-0.055-0.305-0.164-0.37-0.293l-0.069-0.125l-5.215-8.075l-1.147,0.169
		c-1.212,0.178-2.322,0.293-3.297,0.342l-0.126,0.011c-1.005,0.146-2.032,0.127-3.12,0.106l-1.202-0.023l-0.496,1.079l-3.577,7.916
		c-0.128,0.313-0.457,0.446-0.781,0.339L126.63,483.031z M153.7,424.095c-5.157-1.697-10.94-1.243-15.868,1.245
		c-4.928,2.489-8.728,6.872-10.424,12.027c-1.739,5.283-1.306,10.946,1.218,15.948c2.49,4.933,6.771,8.607,12.054,10.346
		c5.334,1.755,10.989,1.351,15.921-1.14c4.933-2.491,8.618-6.8,10.373-12.133c1.739-5.283,1.324-10.909-1.167-15.841
		C163.283,429.546,158.984,425.834,153.7,424.095z"/>
	<path class="st8" d="M149.85,435.797c-2.097-0.69-4.391-0.543-6.461,0.414c-2.088,1.141-3.59,2.91-4.28,5.008
		c-0.701,2.131-0.577,4.328,0.361,6.355l0.079,0.159c1.045,2.07,2.804,3.599,4.956,4.307c2.256,0.742,4.599,0.547,6.598-0.55
		c1.978-0.908,3.506-2.667,4.249-4.926c0.708-2.151,0.523-4.475-0.52-6.543C153.821,438.022,152.052,436.522,149.85,435.797z"/>
	<path class="st9" d="M140.673,463.68c-5.256-1.73-9.661-5.474-12.085-10.272l-0.226-0.448c-2.329-4.861-2.681-10.413-0.974-15.599
		c1.695-5.151,5.5-9.535,10.439-12.029c4.94-2.494,10.727-2.951,15.878-1.256c5.226,1.72,9.498,5.427,12.029,10.44l0.714,1.413
		l0.087,0.029c1.84,4.492,2.012,9.708,0.456,14.436c-1.781,5.412-5.332,9.591-10.272,12.085l-0.221,0.111
		C151.557,465.085,146.086,465.461,140.673,463.68z M152.275,428.455c-4.005-1.318-8.386-1.037-12.339,0.79
		c-3.988,2.178-6.856,5.557-8.175,9.565c-1.339,4.069-1.101,8.266,0.689,12.136l0.151,0.304c1.995,3.954,5.355,6.873,9.465,8.226
		c4.308,1.418,8.784,1.045,12.6-1.05c3.777-1.734,6.696-5.094,8.116-9.407c1.352-4.108,0.999-8.546-0.994-12.495
		C159.86,432.704,156.481,429.839,152.275,428.455z"/>
</g>
<path class="st9" d="M189.472,404.715c-3.613-1.189-6.642-3.763-8.308-7.062l-0.155-0.308c-1.601-3.342-1.843-7.159-0.67-10.725
	c1.165-3.541,3.781-6.556,7.177-8.27c3.396-1.715,7.375-2.029,10.917-0.864c3.593,1.182,6.53,3.731,8.27,7.178l0.491,0.971
	l0.06,0.02c1.265,3.089,1.383,6.674,0.314,9.925c-1.224,3.721-3.666,6.594-7.062,8.309l-0.152,0.076
	C196.955,405.681,193.194,405.939,189.472,404.715z M197.448,380.496c-2.753-0.906-5.766-0.713-8.483,0.543
	c-2.742,1.498-4.714,3.82-5.62,6.576c-0.921,2.798-0.757,5.683,0.474,8.344l0.104,0.209c1.372,2.718,3.682,4.726,6.507,5.655
	c2.962,0.975,6.039,0.718,8.663-0.722c2.597-1.192,4.604-3.502,5.58-6.468c0.929-2.824,0.687-5.875-0.683-8.591
	C202.664,383.418,200.34,381.448,197.448,380.496z"/>
<path class="st9" d="M308.913,366.043c-4.909-1.616-9.024-5.113-11.288-9.595l-0.211-0.418c-2.175-4.54-2.504-9.727-0.91-14.571
	c1.583-4.811,5.137-8.907,9.751-11.236c4.614-2.33,10.02-2.757,14.832-1.173c4.881,1.606,8.872,5.07,11.236,9.752l0.667,1.32
	l0.082,0.027c1.719,4.196,1.88,9.068,0.426,13.485c-1.664,5.055-4.981,8.958-9.595,11.289l-0.206,0.104
	C319.079,367.356,313.969,367.707,308.913,366.043z M319.749,333.14c-3.741-1.231-7.834-0.969-11.525,0.738
	c-3.725,2.035-6.404,5.19-7.636,8.934c-1.251,3.801-1.029,7.721,0.644,11.336l0.141,0.284c1.864,3.693,5.002,6.42,8.841,7.684
	c4.024,1.324,8.205,0.976,11.77-0.981c3.528-1.62,6.255-4.758,7.581-8.787c1.263-3.837,0.933-7.983-0.928-11.672
	C326.835,337.11,323.678,334.433,319.749,333.14z"/>
<path class="st9" d="M369.33,179.882c-4.909-1.616-9.024-5.113-11.288-9.595l-0.211-0.418c-2.175-4.54-2.504-9.727-0.91-14.571
	c1.583-4.811,5.137-8.907,9.751-11.236c4.614-2.33,10.02-2.757,14.832-1.173c4.881,1.606,8.872,5.07,11.236,9.752l0.667,1.32
	l0.082,0.027c1.719,4.196,1.88,9.068,0.426,13.485c-1.664,5.055-4.981,8.958-9.595,11.289l-0.206,0.104
	C379.497,181.195,374.387,181.546,369.33,179.882z M380.167,146.978c-3.741-1.231-7.834-0.969-11.525,0.738
	c-3.725,2.035-6.404,5.191-7.636,8.934c-1.251,3.801-1.029,7.721,0.644,11.336l0.141,0.284c1.864,3.693,5.002,6.42,8.841,7.684
	c4.024,1.324,8.205,0.976,11.77-0.981c3.528-1.62,6.255-4.758,7.581-8.787c1.263-3.837,0.933-7.983-0.928-11.672
	C387.253,150.948,384.096,148.271,380.167,146.978z"/>
</svg>
