<?xml version="1.0" encoding="utf-8"?>
<!-- Generator: Adobe Illustrator 23.0.1, SVG Export Plug-In . SVG Version: 6.00 Build 0)  -->
<svg version="1.1" id="Layer_1" xmlns="http://www.w3.org/2000/svg" xmlns:xlink="http://www.w3.org/1999/xlink" x="0px" y="0px"
	 viewBox="0 0 512 512" style="enable-background:new 0 0 512 512;" xml:space="preserve">
<style type="text/css">
	.st0{fill:none;stroke:#2D89EF;stroke-width:2.16;stroke-linecap:round;stroke-linejoin:round;}
	.st1{fill:none;stroke:#2D89EF;stroke-width:2.16;stroke-linecap:round;stroke-linejoin:round;stroke-dasharray:7.0807,7.0807;}
	.st2{fill:none;stroke:#2D89EF;stroke-width:2.16;stroke-linecap:round;stroke-linejoin:round;stroke-dasharray:7.1948,7.1948;}
	.st3{fill:none;stroke:#2D89EF;stroke-width:2.16;stroke-linecap:round;stroke-linejoin:round;stroke-dasharray:7.4589,7.4589;}
	.st4{fill:none;stroke:#2D89EF;stroke-width:2.16;stroke-linecap:round;stroke-linejoin:round;stroke-dasharray:7.4333,7.4333;}
	.st5{fill:none;stroke:#2D89EF;stroke-width:2.16;stroke-linecap:round;stroke-linejoin:round;stroke-dasharray:7.0392,7.0392;}
	.st6{fill:none;stroke:#2D89EF;stroke-width:2.16;stroke-linecap:round;stroke-linejoin:round;stroke-dasharray:7.458,7.458;}
	.st7{fill:#A8A8A8;}
	.st8{fill:#6D6D6D;}
	.st9{fill:#2D89EF;}
</style>
<g>
	<g>
		<path class="st0" d="M269.341,85c-0.027,0.83-0.041,1.663-0.041,2.5c0,0.1,0,0.2,0,0.2c0,0.1,0,0.3,0,0.4c0,0.2,0,0.3,0,0.5v-0.1
			v3.6"/>
		<line class="st1" x1="269.3" y1="99.181" x2="269.3" y2="492.16"/>
		<polyline class="st0" points="269.3,495.7 269.3,499.3 272.9,499.3 		"/>
		<path class="st2" d="M280.095,499.3H344.2c41.4,0,74.9-33.5,74.9-74.9V19.797"/>
		<polyline class="st0" points="419.1,16.2 419.1,12.6 415.5,12.6 		"/>
		<path class="st3" d="M408.041,12.6H344.2c-39.304,0-71.487,30.194-74.646,68.676"/>
	</g>
</g>
<g>
	<g>
		<path class="st0" d="M242.659,421.8c0.027,0.83,0.041,1.663,0.041,2.5c0,0.1,0,0.1,0,0.2s0,0.3,0,0.4c0,0.2,0,0.3,0,0.5v-0.1v3.6"
			/>
		<line class="st4" x1="242.7" y1="436.333" x2="242.7" y2="492.083"/>
		<polyline class="st0" points="242.7,495.8 242.7,499.4 239.1,499.4 		"/>
		<path class="st5" d="M232.061,499.4H167.8c-41.3,0-74.9-33.5-74.9-74.9v-67.98"/>
		<polyline class="st0" points="92.9,353 92.9,349.4 96.5,349.4 		"/>
		<path class="st6" d="M103.958,349.4H167.8c39.209,0,71.478,30.194,74.645,68.676"/>
	</g>
</g>
<path class="st7" d="M232.866,498.306c-2.318,0-4.515-0.92-6.186-2.59l-0.234-0.234h-0.06c-1.462-1.584-2.296-3.734-2.296-5.951
	c0-2.397,0.872-4.536,2.521-6.186l0.071-0.071c1.647-1.646,3.786-2.519,6.183-2.519c2.329,0,4.583,0.919,6.186,2.521l0.137,0.138
	c1.578,1.644,2.453,3.82,2.453,6.117c0,2.284-0.944,4.539-2.591,6.186C237.405,497.361,235.151,498.306,232.866,498.306z
	 M232.866,483.15c-1.761,0-3.363,0.677-4.512,1.907c-1.191,1.109-1.868,2.712-1.868,4.473c0,1.679,0.67,3.274,1.887,4.491
	c1.173,1.174,2.768,1.819,4.493,1.819c1.641,0,3.229-0.639,4.472-1.8c1.199-1.282,1.838-2.87,1.838-4.511
	c0-1.668-0.598-3.19-1.73-4.403l-0.086-0.087C236.141,483.82,234.545,483.15,232.866,483.15z"/>
<path class="st7" d="M278.968,498.306c-2.318,0-4.515-0.92-6.186-2.59l-0.234-0.234h-0.06c-1.462-1.584-2.296-3.734-2.296-5.951
	c0-2.397,0.872-4.536,2.521-6.186l0.071-0.071c1.647-1.646,3.786-2.519,6.183-2.519c2.329,0,4.583,0.919,6.186,2.521l0.137,0.138
	c1.578,1.644,2.453,3.82,2.453,6.117c0,2.284-0.944,4.539-2.591,6.186C283.508,497.361,281.253,498.306,278.968,498.306z
	 M278.968,483.15c-1.761,0-3.363,0.677-4.512,1.907c-1.191,1.109-1.868,2.712-1.868,4.473c0,1.679,0.67,3.274,1.887,4.491
	c1.173,1.174,2.768,1.819,4.493,1.819c1.641,0,3.229-0.639,4.472-1.8c1.199-1.282,1.838-2.87,1.838-4.511
	c0-1.668-0.598-3.19-1.73-4.403l-0.086-0.087C282.243,483.82,280.648,483.15,278.968,483.15z"/>
<path class="st7" d="M409.622,350.225c-2.318,0-4.515-0.92-6.186-2.59l-0.234-0.234h-0.06c-1.462-1.584-2.296-3.734-2.296-5.951
	c0-2.397,0.872-4.536,2.521-6.186l0.071-0.071c1.647-1.646,3.786-2.519,6.183-2.519c2.329,0,4.583,0.919,6.186,2.521l0.137,0.138
	c1.578,1.644,2.453,3.82,2.453,6.117c0,2.284-0.944,4.539-2.591,6.186C414.161,349.28,411.907,350.225,409.622,350.225z
	 M409.622,335.069c-1.761,0-3.363,0.677-4.512,1.907c-1.191,1.109-1.868,2.712-1.868,4.473c0,1.679,0.67,3.274,1.887,4.491
	c1.173,1.174,2.768,1.819,4.493,1.819c1.641,0,3.229-0.639,4.472-1.8c1.199-1.282,1.838-2.87,1.838-4.511
	c0-1.668-0.598-3.19-1.73-4.403l-0.086-0.087C412.897,335.739,411.301,335.069,409.622,335.069z"/>
<path class="st7" d="M279.206,175.881c-2.318,0-4.515-0.92-6.186-2.59l-0.234-0.234h-0.06c-1.462-1.584-2.296-3.734-2.296-5.951
	c0-2.397,0.872-4.536,2.521-6.186l0.071-0.071c1.647-1.646,3.786-2.519,6.183-2.519c2.329,0,4.583,0.919,6.186,2.521l0.137,0.138
	c1.578,1.644,2.453,3.82,2.453,6.117c0,2.284-0.944,4.539-2.591,6.186C283.745,174.937,281.49,175.881,279.206,175.881z
	 M279.206,160.726c-1.761,0-3.363,0.677-4.512,1.907c-1.191,1.109-1.868,2.712-1.868,4.473c0,1.679,0.67,3.274,1.887,4.491
	c1.173,1.174,2.768,1.819,4.493,1.819c1.641,0,3.229-0.639,4.472-1.8c1.199-1.282,1.838-2.87,1.838-4.511
	c0-1.668-0.598-3.19-1.73-4.403l-0.086-0.087C282.481,161.396,280.885,160.726,279.206,160.726z"/>
<path class="st7" d="M409.466,30.976c-2.318,0-4.515-0.92-6.186-2.59l-0.234-0.234h-0.06c-1.462-1.584-2.296-3.734-2.296-5.951
	c0-2.397,0.872-4.536,2.521-6.186l0.071-0.071c1.647-1.646,3.786-2.519,6.183-2.519c2.329,0,4.583,0.919,6.186,2.521l0.137,0.138
	c1.578,1.644,2.453,3.82,2.453,6.117c0,2.284-0.944,4.539-2.591,6.186C414.005,30.032,411.751,30.976,409.466,30.976z
	 M409.466,15.821c-1.761,0-3.363,0.677-4.512,1.907c-1.191,1.109-1.868,2.712-1.868,4.473c0,1.679,0.67,3.274,1.887,4.491
	c1.173,1.174,2.768,1.819,4.493,1.819c1.641,0,3.229-0.639,4.472-1.8c1.199-1.282,1.838-2.87,1.838-4.511
	c0-1.668-0.598-3.19-1.73-4.403l-0.086-0.087C412.741,16.491,411.145,15.821,409.466,15.821z"/>
<path class="st7" d="M102.723,367.98c-2.319,0-4.515-0.92-6.185-2.59l-0.234-0.234h-0.06c-1.463-1.584-2.296-3.733-2.296-5.951
	c0-2.396,0.872-4.535,2.521-6.185l0.071-0.071c1.648-1.647,3.787-2.52,6.183-2.52c2.328,0,4.583,0.919,6.186,2.521l0.137,0.138
	c1.578,1.644,2.453,3.82,2.453,6.116c0,2.285-0.944,4.54-2.59,6.186S105.008,367.98,102.723,367.98z M102.723,352.826
	c-1.761,0-3.363,0.677-4.511,1.907c-1.191,1.108-1.868,2.711-1.868,4.472c0,1.68,0.67,3.275,1.887,4.492
	c1.173,1.174,2.768,1.819,4.492,1.819c1.641,0,3.229-0.639,4.473-1.8c1.199-1.282,1.838-2.871,1.838-4.512
	c0-1.668-0.598-3.19-1.73-4.403l-0.09-0.09C105.998,353.496,104.402,352.826,102.723,352.826z"/>
<path class="st7" d="M196.696,422.506c-0.373,0-0.7-0.25-0.815-0.622l-1.964-6.331l-0.589-0.02
	c-1.852-0.063-3.372-0.252-4.785-0.597c-1.851-0.452-3.238-0.928-4.496-1.543l-0.556-0.271l-4.535,4.93
	c-0.179,0.195-0.421,0.307-0.667,0.307c-0.15,0-0.367-0.042-0.554-0.235l-9.516-8.773c-0.302-0.294-0.323-0.872-0.029-1.174
	l4.554-4.951l-0.323-0.532c-0.249-0.409-0.469-0.897-0.681-1.369l-0.07-0.156c-0.438-0.946-0.805-1.895-1.093-2.825
	c-0.31-0.998-0.544-1.985-0.696-2.936c-0.118-0.616-0.217-1.157-0.268-1.785l-0.05-0.611l-6.505-1.422
	c-0.428-0.118-0.76-0.626-0.67-1.076l0.031-0.186l2.835-12.362c0.079-0.395,0.49-0.686,0.94-0.686c0.056,0,0.111,0.004,0.168,0.013
	l6.457,1.485l0.311-0.511c0.83-1.363,1.788-2.654,2.847-3.84c1.21-1.253,2.397-2.308,3.606-3.2l0.475-0.349l-1.964-6.332
	c-0.126-0.405,0.034-0.927,0.577-1.096l12.282-3.81c0.078-0.023,0.159-0.035,0.242-0.035c0.385,0,0.745,0.257,0.854,0.612
	l1.961,6.324l0.58,0.027c1.503,0.073,3.059,0.277,4.759,0.626c1.433,0.35,2.94,0.855,4.579,1.536l0.536,0.223l4.509-4.901
	c0.143-0.147,0.382-0.24,0.641-0.24c0.241,0,0.469,0.08,0.641,0.227l9.383,8.734c0.185,0.158,0.279,0.35,0.292,0.567
	c0.016,0.248-0.077,0.5-0.254,0.693l-4.436,4.782l0.217,0.498c0.136,0.311,0.284,0.599,0.432,0.887
	c0.132,0.257,0.265,0.514,0.386,0.793c0.364,0.935,0.728,1.884,1.03,2.858c0.286,0.924,0.536,1.966,0.776,2.974
	c0.038,0.222,0.074,0.512,0.111,0.802c0.04,0.318,0.081,0.637,0.134,0.931l0.095,0.538l6.39,1.506
	c0.266,0.047,0.448,0.164,0.568,0.343c0.122,0.182,0.169,0.404,0.135,0.633l-0.063,0.175l-2.777,12.391
	c-0.095,0.41-0.444,0.712-0.83,0.712c-0.065,0-0.13-0.008-0.193-0.025l-6.544-1.502l-0.31,0.513
	c-0.762,1.262-1.688,2.488-2.913,3.858c-0.936,1.047-2.064,2.059-3.548,3.186l-0.463,0.351l1.961,6.324
	c0.067,0.215,0.042,0.45-0.07,0.663c-0.112,0.213-0.292,0.366-0.507,0.432l-12.282,3.811
	C196.882,422.491,196.788,422.506,196.696,422.506z M194.445,413.729c0.429,0,0.824,0.272,0.94,0.647l1.909,6.153l10.609-3.291
	l-1.909-6.153c-0.107-0.345,0.046-0.787,0.34-0.985c1.573-1.016,2.974-2.21,4.27-3.64c1.253-1.289,2.397-2.879,3.29-4.576
	c0.133-0.253,0.433-0.423,0.747-0.423c0.075,0,0.151,0.009,0.227,0.028l6.255,1.398l2.498-10.83l-6.25-1.396
	c-0.444-0.075-0.721-0.393-0.735-0.8c-0.054-0.969-0.184-1.89-0.312-2.752l-0.055-0.249c-0.192-0.845-0.374-1.643-0.638-2.494
	c-0.283-0.912-0.636-1.801-0.977-2.661l-0.174-0.354c-0.356-0.713-0.725-1.449-1.143-2.137c-0.216-0.322-0.159-0.775,0.113-1.111
	l4.397-4.664l-8.197-7.522l-4.287,4.668c-0.188,0.229-0.449,0.347-0.716,0.347c-0.139,0-0.269-0.031-0.386-0.092
	c-1.517-0.8-3.252-1.425-5.302-1.911c-1.687-0.374-3.387-0.562-5.064-0.562c0,0-0.368,0.003-0.369,0.003
	c-0.514,0-0.86-0.241-0.985-0.645l-1.908-6.153l-10.609,3.29l1.908,6.154c0.121,0.39-0.025,0.761-0.391,0.994
	c-1.624,1.074-3.063,2.301-4.288,3.652c-1.324,1.46-2.377,2.95-3.223,4.554c-0.152,0.244-0.457,0.432-0.749,0.432
	c-0.063,0-0.126-0.009-0.187-0.027l-6.367-1.384l-2.418,10.802l6.17,1.42c0.455,0.077,0.761,0.414,0.814,0.851
	c0.047,0.875,0.122,1.855,0.317,2.736c0.134,0.907,0.351,1.861,0.635,2.777c0.278,0.897,0.612,1.734,1.05,2.633
	c0.341,0.867,0.821,1.658,1.287,2.424c0.138,0.254,0.194,0.721-0.151,1.107l-4.348,4.674l8.107,7.536l4.379-4.603
	c0.224-0.272,0.481-0.4,0.748-0.4c0.129,0,0.259,0.029,0.388,0.087c1.747,0.922,3.517,1.574,5.218,1.916
	c1.546,0.367,3.087,0.557,4.553,0.557c0.317,0,0.633-0.009,0.95-0.026H194.445z M193.904,406.973c-2.566,0-5.103-0.64-7.338-1.849
	c-3.769-1.984-6.528-5.295-7.779-9.329c-1.265-4.076-0.871-8.393,1.109-12.151c1.951-3.706,5.349-6.538,9.324-7.771
	c1.514-0.47,3.087-0.708,4.676-0.708c2.569,0,5.157,0.63,7.486,1.821c3.77,2.042,6.54,5.379,7.783,9.388
	c1.23,3.964,0.827,8.258-1.135,12.093c-1.974,3.751-5.309,6.518-9.387,7.783C197.093,406.729,195.499,406.973,193.904,406.973z
	 M194.094,376.948c-1.454,0-2.912,0.224-4.334,0.665c-3.625,1.125-6.576,3.557-8.309,6.848c-1.763,3.35-2.115,7.19-0.991,10.815
	c1.111,3.581,3.567,6.524,6.917,8.288c2.037,1.072,4.322,1.639,6.61,1.639c1.405,0,2.796-0.212,4.137-0.628
	c3.624-1.124,6.592-3.588,8.355-6.936c1.686-3.324,2.029-7.23,0.944-10.727c-1.114-3.592-3.55-6.564-6.858-8.37
	C198.581,377.498,196.347,376.948,194.094,376.948z"/>
<path class="st8" d="M140.669,488.89c-0.091,0-0.185-0.016-0.279-0.046l-1.533-0.503l-0.217,0.019l-12.427-4.083
	c-0.22-0.072-0.398-0.228-0.503-0.436c-0.104-0.207-0.123-0.442-0.05-0.662l0.038-0.134l2.003-9.499l-0.866-0.612
	c-0.876-0.619-1.761-1.34-2.616-2.036c-1.02-0.879-1.796-1.631-2.432-2.349l-0.741-0.835l-9.283,3.544
	c-0.143,0.062-0.254,0.091-0.364,0.091c-0.071,0-0.139-0.012-0.208-0.036c-0.22-0.07-0.411-0.241-0.531-0.479l-6.715-13.288
	c-0.096-0.188-0.111-0.407-0.043-0.615c0.068-0.209,0.207-0.371,0.398-0.469l0.126-0.069l8.127-5.328l-0.15-1.018
	c-0.167-1.125-0.324-2.188-0.378-3.309c-0.137-1.212-0.117-2.287-0.096-3.425l0.02-1.076l-0.979-0.438l-8.112-3.566
	c-0.413-0.201-0.597-0.642-0.456-1.073l4.649-14.147c0.117-0.355,0.457-0.614,0.809-0.614c0.08,0.002,0.147,0.013,0.21,0.035
	l0.128,0.036l9.581,2.033l0.613-0.866c0.658-0.931,1.279-1.809,2.044-2.63c0.703-0.813,1.534-1.71,2.336-2.518l0.733-0.739
	l-3.519-9.215c-0.15-0.389,0.07-0.898,0.492-1.136l13.221-6.682c0.101-0.051,0.222-0.078,0.35-0.078c0.109,0,0.21,0.017,0.308,0.05
	c0.225,0.073,0.415,0.228,0.508,0.413l0.065,0.117l5.243,8.107l1.026-0.151c1.249-0.183,2.389-0.301,3.389-0.352l0.125-0.012
	c0.597-0.087,1.22-0.124,2.071-0.124h0.134c0.334,0.002,1.644,0.025,1.644,0.025l0.435,0.009l0.443-0.965l3.648-8.084
	c0.132-0.324,0.423-0.521,0.778-0.521c0.105,0.001,0.205,0.018,0.3,0.049l14.149,4.649c0.216,0.072,0.403,0.229,0.513,0.43
	c0.104,0.195,0.128,0.403,0.067,0.587l-0.033,0.117l-2.126,9.562l0.875,0.619c0.938,0.665,1.813,1.284,2.629,2.045
	c0.924,0.758,1.676,1.501,2.471,2.288l0.774,0.769l0.976-0.356l8.25-3.15c0.031-0.01,0.128-0.034,0.263-0.034
	c0.116,0.001,0.23,0.021,0.333,0.055c0.229,0.073,0.415,0.222,0.506,0.404l6.714,13.287c0.135,0.241,0.166,0.467,0.095,0.701
	c-0.066,0.216-0.215,0.4-0.398,0.492l-0.108,0.06l-8.263,5.252l0.234,1.097c0.202,0.947,0.348,2.02,0.444,3.276
	c0.057,1.142,0.113,2.289,0.092,3.391l-0.021,1.062l8.967,4.057c0.42,0.17,0.622,0.626,0.472,1.081l-0.503,1.529l0.019,0.217
	l-4.083,12.427c-0.118,0.358-0.45,0.599-0.827,0.599c-0.09,0-0.18-0.015-0.268-0.043l-0.128-0.036l-9.473-2.099l-0.619,0.875
	c-0.635,0.896-1.364,1.791-2.069,2.657c-0.701,0.857-1.412,1.591-2.317,2.394l-0.835,0.739l3.546,9.284
	c0.18,0.454,0.034,0.895-0.356,1.068l-13.356,6.749c-0.174,0.095-0.318,0.139-0.462,0.139c-0.075-0.002-0.145-0.014-0.215-0.036
	c-0.188-0.062-0.343-0.196-0.436-0.38l-0.063-0.116l-5.336-8.278l-1.089,0.232c-1.161,0.247-2.188,0.388-3.234,0.441
	c-1.016,0.05-1.996,0.098-2.938,0.098l-1.569-0.022l-3.972,9.008c-0.153,0.313-0.455,0.504-0.789,0.504H140.669z M140.113,486.924
	l3.958-8.782c0.126-0.386,0.412-0.584,0.768-0.584c0.926,0.044,1.749,0.077,2.573,0.081l0.18,0.001c0.827,0,1.558-0.032,2.234-0.098
	c1.659-0.157,3.229-0.402,4.668-0.729l0.022-0.005l0.118-0.003c0.116,0,0.238,0.021,0.354,0.058
	c0.222,0.072,0.419,0.217,0.569,0.416l5.188,8.093l11.779-5.953l-3.42-8.977c-0.083-0.198-0.229-0.718,0.255-1.145
	c1.101-0.953,2.224-2.067,3.339-3.313c1.084-1.211,2.02-2.577,2.884-3.872c0.171-0.259,0.523-0.434,0.877-0.434
	c0.054,0,0.104,0.004,0.155,0.011l9.398,2.043l4.14-12.598l-8.783-3.959c-0.415-0.135-0.615-0.463-0.58-0.855
	c0.052-1.57,0.107-3.206-0.047-4.819c-0.118-1.621-0.354-3.217-0.701-4.747c-0.078-0.339,0.094-0.725,0.437-0.98l8.086-5.185
	l-5.911-11.868l-8.986,3.422c-0.158,0.066-0.294,0.098-0.435,0.098c-0.112,0-0.223-0.018-0.335-0.053
	c-0.176-0.061-0.333-0.156-0.458-0.278c-0.904-1.047-2.025-2.177-3.254-3.277c-1.315-1.176-2.605-2.134-3.944-2.93
	c-0.227-0.152-0.404-0.583-0.327-1.05l2.016-9.336l-12.596-4.139l-3.961,8.786c-0.102,0.315-0.415,0.579-0.781,0.579
	c-0.707-0.058-1.364-0.086-2.03-0.089l-0.136-0.001c-0.876,0-1.792,0.045-2.724,0.133c-1.623,0.12-3.219,0.356-4.749,0.703
	c0,0-0.139,0.016-0.143,0.016c-0.096,0-0.172-0.014-0.244-0.039c-0.19-0.062-0.377-0.213-0.508-0.411l-5.248-8.179l-11.886,6.008
	l3.452,9.066c0.183,0.359,0.081,0.758-0.214,1.033c-1.153,0.995-2.28,2.134-3.354,3.388c-1.119,1.251-2.083,2.534-2.87,3.819
	c-0.157,0.249-0.426,0.396-0.721,0.396c-0.073,0-0.144-0.009-0.219-0.027l-9.456-2.042l-4.138,12.597l8.783,3.958
	c0.308,0.102,0.617,0.435,0.579,0.855c-0.154,1.548-0.147,3.15,0.02,4.899c0.16,1.673,0.406,3.243,0.729,4.668
	c0.067,0.376-0.11,0.747-0.462,0.978l-8.185,5.25l6.048,11.798l8.971-3.415c0.153-0.064,0.285-0.095,0.42-0.095h0.003
	c0.091,0.002,0.177,0.016,0.256,0.042c0.136,0.044,0.255,0.124,0.344,0.232c1.045,1.209,2.21,2.366,3.459,3.436
	c1.159,1.039,2.466,1.94,3.73,2.812c0.38,0.241,0.562,0.589,0.481,0.927l-2.067,9.527L140.113,486.924z M147.214,466.854
	c-2.393-0.011-4.768-0.397-7.06-1.149c-5.75-1.891-10.465-5.923-13.278-11.354c-2.758-5.459-3.231-11.646-1.333-17.424
	c1.898-5.777,5.954-10.481,11.421-13.245c3.262-1.647,6.735-2.483,10.324-2.483h0.107c2.371,0.011,4.728,0.396,7.007,1.144
	c5.778,1.898,10.481,5.955,13.245,11.423c2.701,5.479,3.147,11.661,1.259,17.411c-1.889,5.749-5.922,10.464-11.354,13.276
	c-3.232,1.595-6.672,2.402-10.228,2.402H147.214z M147.135,422.992c-3.289,0-6.448,0.754-9.388,2.241
	c-4.982,2.517-8.702,6.872-10.473,12.263c-1.753,5.339-1.333,11.022,1.185,16.004c2.554,5.052,6.899,8.8,12.237,10.552
	c2.028,0.667,4.16,1.01,6.335,1.02c0,0,0.001,0,0.001,0c3.419,0,6.738-0.79,9.694-2.285c4.978-2.515,8.814-6.945,10.527-12.154
	c1.753-5.338,1.313-11.06-1.239-16.111c-2.519-4.983-6.845-8.693-12.183-10.445c-2.154-0.708-4.375-1.072-6.603-1.083l-0.094-0.2
	V422.992z"/>
<path class="st9" d="M147.403,453.963c-2.661-0.012-5.194-1.066-7.134-2.97l-0.476-0.467h-0.009l-0.106-0.069
	c-1.573-1.805-2.489-4.24-2.512-6.681c-0.026-2.809,0.971-5.324,2.884-7.274l0.084-0.087c1.913-1.948,4.409-2.991,7.219-3.018
	l0.141-0.001c2.679,0.013,5.278,1.064,7.134,2.885l0.173,0.17c1.866,1.909,2.906,4.441,2.931,7.134
	c0.025,2.675-1.057,5.326-2.969,7.273c-1.913,1.948-4.544,3.079-7.219,3.104h-0.002H147.403z M147.369,435.135
	c-2.36,0.021-4.502,0.953-6.032,2.622c-1.594,1.511-2.455,3.639-2.433,6.003c0.021,2.254,0.938,4.382,2.583,5.994
	c1.557,1.529,3.657,2.376,5.913,2.386h0.13c2.194-0.021,4.31-0.894,5.955-2.457c1.58-1.72,2.444-3.883,2.424-6.08
	c-0.021-2.232-0.84-4.263-2.371-5.872l-0.125-0.124c-1.613-1.584-3.719-2.462-5.927-2.472H147.369z"/>
<path class="st8" d="M340.934,493.711c-0.494-0.009-0.888-0.417-0.879-0.911l-0.005-0.209l-1.273-13.753l-1.611-0.525
	c-1.475-0.482-2.999-1.099-4.471-1.696c-1.562-0.683-2.887-1.356-4.023-2.044l-1.524-0.925l-11.113,8.715
	c-0.258,0.224-0.419,0.244-0.535,0.242c-0.244-0.004-0.489-0.119-0.687-0.324l-14.469-14.977c-0.149-0.154-0.226-0.354-0.222-0.577
	c0.004-0.222,0.088-0.418,0.242-0.567l0.149-0.155l8.799-10.653l-0.71-1.484c-0.701-1.464-1.339-2.8-1.861-4.234
	c-0.682-1.56-1.097-2.992-1.536-4.508l-0.478-1.659l-1.701-0.206l-12.316-1.411c-0.451-0.069-0.778-0.442-0.77-0.921l0.359-20.828
	c0.008-0.469,0.385-0.889,0.79-0.882l0.208-0.004l13.874-1.269l0.525-1.613c0.498-1.52,0.962-2.938,1.628-4.317
	c0.608-1.389,1.338-2.909,2.075-4.324l0.77-1.474l-8.642-11.018c-0.264-0.334-0.187-0.931,0.168-1.306l14.892-14.384
	c0.148-0.143,0.386-0.225,0.636-0.221c0.25,0.004,0.485,0.096,0.629,0.244l0.145,0.14l10.532,8.812l1.495-0.716
	c1.572-0.753,3.037-1.379,4.355-1.86l0.167-0.068c1.312-0.627,2.726-1.036,4.222-1.469l1.64-0.474l0.22-1.682l1.531-12.314
	c0.042-0.482,0.436-0.803,0.923-0.794l20.829,0.359c0.468,0.008,0.888,0.385,0.881,0.791l0.003,0.18l1.134,13.893l1.628,0.531
	c1.512,0.494,2.932,0.959,4.319,1.628c1.584,0.647,2.909,1.338,4.311,2.069l1.463,0.763l1.316-1.004l9.723-7.626
	c0.118-0.083,0.372-0.155,0.604-0.151c0.249,0.004,0.481,0.092,0.618,0.234l14.468,14.978c0.233,0.224,0.326,0.427,0.326,0.674
	c0.002,0.232-0.083,0.453-0.228,0.592l-0.132,0.135l-9.023,10.619l0.875,1.563c0.656,1.172,1.287,2.531,1.932,4.156
	c0.536,1.47,1.086,2.98,1.515,4.464l0.47,1.63l13.871,1.739c0.484,0.042,0.805,0.436,0.797,0.923l-0.044,2.577l0.12,0.002
	l-0.315,18.251c-0.008,0.494-0.417,0.889-0.911,0.88l-0.189,0.005l-13.763,1.135l-0.531,1.627c-0.478,1.465-1.088,2.971-1.677,4.428
	c-0.555,1.372-1.205,2.651-2.064,4.067l-0.924,1.523l8.716,11.112c0.322,0.4,0.32,0.863,0.007,1.137l-15.066,14.554
	c-0.319,0.331-0.556,0.327-0.635,0.326c-0.194-0.003-0.372-0.082-0.513-0.228l-0.143-0.139l-10.74-9.011l-1.552,0.869
	c-1.44,0.807-2.741,1.413-4.091,1.906c-1.5,0.547-3.051,1.114-4.528,1.542l-1.647,0.474l-1.606,13.894
	c-0.069,0.453-0.441,0.779-0.919,0.771l-2.577-0.044l-0.002,0.12L340.934,493.711z M327.092,471.652
	c0.14,0.002,0.272,0.042,0.383,0.116c1.926,1.203,3.968,2.269,6.096,3.188c1.995,0.916,4.13,1.584,6.196,2.23
	c0.475,0.129,0.764,0.417,0.785,0.748l1.205,13.882l19.122,0.33l1.692-13.667l0.001-0.066c0.007-0.425,0.256-0.697,0.652-0.782
	c2.186-0.564,4.449-1.177,6.593-2.07c2.176-0.908,4.185-1.892,5.973-2.925c0.106-0.053,0.311-0.097,0.512-0.094
	c0.265,0.005,0.526,0.095,0.754,0.259l10.482,8.839l13.692-13.228l-8.461-10.809c-0.114-0.135-0.496-0.639-0.112-1.271
	c1.078-1.728,2.127-3.698,3.11-5.84c0.96-2.096,1.646-4.317,2.267-6.411c0.107-0.369,0.522-0.702,0.947-0.765l13.67-1.181
	l0.33-19.123l-13.666-1.693l-0.066-0.001c-0.426-0.007-0.699-0.256-0.783-0.651c-0.596-2.184-1.194-4.37-2.073-6.476
	c-0.827-2.112-1.813-4.17-2.919-6.089c-0.178-0.309-0.114-0.768,0.159-1.144l8.832-10.475l-13.207-13.829l-10.819,8.469
	c-0.263,0.222-0.515,0.312-0.813,0.307c-0.184-0.003-0.37-0.046-0.54-0.124c-1.721-1.066-3.658-2.095-5.759-3.06
	c-2.262-1.035-4.401-1.788-6.541-2.303c-0.216-0.065-0.558-0.476-0.628-0.999l-1.192-13.581l-19.119-0.33l-1.693,13.666
	l-0.001,0.066c-0.005,0.278-0.225,0.691-0.65,0.782c-2.088,0.454-4.264,1.151-6.475,2.072c-2.118,0.831-4.176,1.818-6.092,2.922
	c-0.104,0.06-0.226,0.09-0.356,0.088c-0.216-0.004-0.454-0.102-0.655-0.268l-10.616-8.94l-13.812,13.345l8.543,10.915l0.045,0.047
	c0.262,0.271,0.272,0.708,0.069,1.065c-1.123,1.798-2.174,3.813-3.097,5.947c-0.978,2.133-1.746,4.274-2.271,6.338
	c-0.098,0.366-0.411,0.618-0.813,0.642l-13.775,1.21l-0.33,19.119l13.666,1.692l0.066,0.001c0.278,0.005,0.691,0.225,0.782,0.65
	c0.437,2.143,1.115,4.304,2.07,6.595c0.912,2.183,1.896,4.191,2.925,5.973c0.174,0.339,0.118,0.77-0.182,1.132l-8.95,10.624
	l13.366,13.675l10.8-8.451C326.648,471.735,326.869,471.648,327.092,471.652z M351.878,463.126
	c-8.381-0.144-16.272-3.547-22.217-9.582c-5.879-6.086-9.042-14.079-8.897-22.5c0.145-8.422,3.585-16.305,9.686-22.198
	c6.1-5.894,14.097-9.06,22.518-8.915c8.422,0.145,16.305,3.585,22.198,9.686c5.813,6.136,8.939,14.136,8.795,22.516
	s-3.547,16.27-9.583,22.217C368.256,460.148,360.261,463.271,351.878,463.126z M352.935,401.841
	c-8.02-0.138-15.564,2.806-21.242,8.292c-5.678,5.486-8.88,12.925-9.019,20.945c-0.137,7.944,2.808,15.445,8.294,21.121
	c5.56,5.756,12.997,9.002,20.942,9.139c7.753,0.134,15.454-2.933,21.125-8.414c5.672-5.479,9.002-13.067,9.136-20.821
	c0.137-7.944-2.85-15.489-8.411-21.245C368.273,405.18,360.877,401.978,352.935,401.841z"/>
<path class="st8" d="M337.677,315.917c-0.438-0.002-0.771-0.353-0.776-0.815l-0.008-0.155l-1.031-10.85l-1.396-0.359
	c-0.667-0.413-1.425-0.743-2.108-0.915c-0.521-0.132-1.124-0.204-1.696-0.204c-0.183,0-0.358,0.008-0.528,0.022l-1.348-0.338
	l-6.077,9.143c-0.192,0.285-0.515,0.458-0.86,0.458c-0.152,0-0.299-0.038-0.424-0.111l-13.344-7.441
	c-0.484-0.27-0.655-0.821-0.397-1.283l0.07-0.138l3.692-8.172l0.331-0.516l0.387-1.545l-0.72-0.971l-0.757-0.973l-0.363-0.001
	c-0.016-0.017-0.089-0.099-0.089-0.099l-0.106-0.106l-0.334-0.298c-0.312-0.284-0.703-0.64-1.253-0.95
	c-0.265-0.251-0.88-0.78-1.857-0.78h-0.661l-0.628,0.347l-8.122,4.04c-0.151,0.071-0.331,0.114-0.502,0.114
	c-0.321,0-0.599-0.156-0.761-0.429l-7.902-13.265c-0.137-0.228-0.178-0.469-0.12-0.695s0.208-0.417,0.436-0.553l7.802-5.492
	l0.083-0.097c0.764-0.54,1.206-1.441,1.184-2.422c0.081-0.676-0.032-1.197-0.102-1.517l-0.055-0.209l-0.101-0.298
	c-0.115-0.346-0.261-0.78-0.609-1.366c-0.278-0.463-1.31-1.96-3.014-1.96l-9.18-0.698c-0.529-0.021-0.905-0.43-0.922-0.953
	l-0.159-15.303c-0.014-0.47,0.33-0.873,0.736-0.885l9.267-0.919l0.064-0.014c0.443-0.096,1.546-0.335,2.193-1.357
	c0.57-0.69,0.755-1.414,0.891-1.948l0.09-0.355c0.143-0.561,0.354-1.398,0.132-2.297c-0.142-1.113-0.936-1.799-1.202-2.03
	l-0.053-0.046l-0.116-0.088l-7.513-5.093c-0.446-0.3-0.592-0.855-0.422-1.135l7.5-13.509c0.177-0.316,0.497-0.514,0.837-0.514
	c0.153,0,0.298,0.039,0.442,0.119l0.144,0.073l8.174,3.693c0.43,0.244,0.929,0.373,1.448,0.373c0.722,0,1.486-0.251,2.167-0.709
	c0.594-0.277,0.964-0.618,1.238-0.872l0.24-0.22l0.044-0.05c0.266-0.309,0.616-0.716,0.867-1.343
	c0.377-0.652,0.422-1.267,0.391-1.677c-0.035-0.498-0.207-0.979-0.498-1.394l-4.044-8.269c-0.246-0.514-0.127-1.019,0.309-1.278
	l13.263-7.902c0.16-0.095,0.332-0.146,0.495-0.146c0.304,0,0.578,0.168,0.753,0.461l5.294,7.52c0.431,0.691,1.263,1.135,2.138,1.135
	c0.347,0,0.626-0.07,0.779-0.112c0.633-0.013,1.138-0.137,1.548-0.237l0.499-0.117l0.065-0.024c0.212-0.075,0.404-0.144,0.592-0.219
	h1.893l0.523-1.921c0.088-0.35,0.108-0.699,0.062-1.053l0.665-8.969c0.021-0.524,0.429-0.899,0.952-0.915l15.189-0.189
	c0.54,0,0.985,0.337,0.998,0.767l0.927,9.791l0.579,0.971l0.303,0.262c0.791,0.68,1.854,1.118,2.585,1.303
	c0.538,0.136,1.187,0.212,1.826,0.212c0.328,0,0.659-0.021,0.978-0.062l0.505-0.067l1.062-0.634l5.391-8.032
	c0.206-0.307,0.508-0.49,0.805-0.49c0.127,0,0.247,0.034,0.367,0.104l13.467,7.474c0.48,0.268,0.651,0.819,0.394,1.28l-3.967,8.467
	l-0.655,0.758l0.534,1.524l0.683,1.493l0.701,0.001c0.028,0.032,0.13,0.145,0.13,0.145l0.127,0.13l0.334,0.296
	c0.295,0.27,0.697,0.637,1.251,0.95c0.263,0.25,0.878,0.783,1.861,0.783h0.659l0.628-0.346l8.123-4.041
	c0.176-0.093,0.307-0.127,0.452-0.127c0.322,0,0.656,0.183,0.812,0.444l7.9,13.263c0.135,0.226,0.178,0.473,0.122,0.696
	c-0.057,0.222-0.212,0.418-0.438,0.553l-7.507,5.283l-0.17,0.098c-0.91,0.54-1.431,1.54-1.394,2.642
	c-0.079,0.674,0.036,1.194,0.106,1.512l0.054,0.207l0.081,0.235c0.12,0.354,0.283,0.834,0.676,1.363
	c0.653,1.248,1.779,2.018,2.965,2.018l9.181,0.699c0.529,0.021,0.905,0.429,0.921,0.952l0.159,15.304
	c0.008,0.257-0.064,0.454-0.214,0.609c-0.149,0.156-0.357,0.241-0.599,0.244l-0.172,0.009l-9.027,0.943l-0.064,0.014
	c-0.503,0.109-1.41,0.306-2.131,1.142c-0.561,0.646-0.765,1.455-0.944,2.168l-0.088,0.346c-0.146,0.579-0.312,1.229-0.253,2.018
	l0.006,0.081l0.023,0.17c0.257,1.177,0.962,1.779,1.301,2.069l0.162,0.129l7.511,5.092c0.467,0.313,0.625,0.785,0.396,1.177
	l-7.474,13.468c-0.177,0.315-0.498,0.513-0.838,0.513c-0.157,0-0.3-0.039-0.443-0.118l-0.143-0.073l-8.178-3.696
	c-0.439-0.248-0.933-0.374-1.468-0.374c-0.7,0-1.466,0.227-2.157,0.638c-0.595,0.354-0.927,0.667-1.193,0.918l-0.274,0.252
	l-0.048,0.056c-0.259,0.3-0.607,0.705-0.857,1.331c-0.557,0.949-0.575,2.076-0.04,2.973l4.199,8.392
	c0.244,0.459,0.096,1.011-0.317,1.257l-13.264,7.901c-0.16,0.097-0.331,0.146-0.496,0.146c-0.304,0-0.578-0.168-0.753-0.461
	l-0.089-0.139l-4.688-6.529l0.001-0.006l-0.328-0.489l-0.382-0.521l-0.762-0.976l-1.644-0.01l-0.372,0.129
	c-0.613,0.018-1.105,0.14-1.507,0.238l-0.485,0.114l-0.462,0.163l-2.51,1.517l-0.107,0.511c-0.066,0.317-0.084,0.635-0.053,0.966
	l-0.671,9.029c-0.021,0.524-0.43,0.899-0.953,0.915L337.677,315.917z M330.678,300.709c1.058,0,1.859,0.173,2.155,0.248
	c0.479,0.121,2.154,0.609,3.476,1.75c0.945,0.814,1.436,1.697,1.59,2.864l0.776,8.397l13.597-0.183l0.482-8.156
	c-0.01-1.567,0.64-2.685,2.045-3.593l0.064-0.041l0.126-0.095c0.488-0.412,1.228-0.763,2.262-1.094
	c0.95-0.305,1.672-0.44,2.339-0.44l0.152,0.003c0.259-0.007,0.373-0.01,0.487-0.01c1.022,0,2.894,0.222,3.931,1.709l4.982,6.972
	l11.679-6.956l-3.722-7.42c-0.854-1.547-0.93-3.078-0.255-4.722c0.385-0.698,0.867-1.385,1.434-2.041
	c0.556-0.645,1.116-1.094,1.764-1.416c1.123-0.661,2.211-0.975,3.31-0.975c0.741,0,1.47,0.142,2.167,0.422l7.471,3.612l6.654-11.91
	l-6.677-4.399c-0.104-0.094-0.204-0.17-0.293-0.233l-0.1-0.086c-0.908-0.783-1.494-1.687-1.948-3.01
	c-0.232-1.163-0.168-2.412,0.178-3.439l0.065-0.19l0.031-0.205c0.164-0.979,0.75-2.154,1.527-3.056
	c0.794-0.803,1.683-1.297,2.906-1.589l0.201-0.015l8.421-0.837l-0.182-13.611l-8.454-0.395c-1.596-0.186-3.245-1.308-4.331-2.994
	c-0.469-0.669-0.748-1.327-0.934-2.17c-0.186-0.852-0.282-1.686-0.289-2.477c0.188-1.766,0.971-3.067,2.391-3.976l6.887-4.808
	l-6.972-11.704l-7.571,3.816c-0.474,0.239-1.018,0.359-1.616,0.359c-0.977,0-2.059-0.327-3.05-0.919
	c-0.78-0.4-1.376-0.867-2.127-1.651c-0.752-0.785-1.234-1.444-1.436-1.96l-0.093-0.211c-0.587-1.073-1.061-2.567-0.223-4.031
	l0.071-0.136l3.48-7.444l-11.871-6.634l-4.735,7.096c-0.634,0.821-1.611,1.441-2.706,1.681c-0.485,0.107-1.022,0.161-1.596,0.161
	c-1.05,0-1.888-0.173-2.294-0.276c-0.963-0.244-2.374-0.87-3.359-1.72c-0.945-0.815-1.436-1.699-1.591-2.866l-0.775-8.396
	l-13.598,0.182l-0.487,8.254l0.001,0.099c0.04,1.69-1.088,2.779-2.041,3.396l-0.198,0.141c-0.479,0.406-1.219,0.756-2.254,1.089
	c-0.851,0.273-1.795,0.437-2.523,0.437c-0.227,0.006-0.341,0.009-0.457,0.009c-1.022,0-2.892-0.222-3.928-1.707l-4.982-6.973
	l-11.679,6.958l3.722,7.418c0.854,1.549,0.931,3.081,0.254,4.722c-0.383,0.695-0.864,1.381-1.433,2.041
	c-0.434,0.502-1.047,0.981-1.929,1.507c-1.003,0.549-2.143,0.851-3.26,0.851c-0.721,0-1.41-0.131-2.05-0.389l-7.473-3.611
	l-6.655,11.908l6.675,4.399c0.106,0.096,0.209,0.174,0.301,0.239l0.095,0.082c1.025,0.884,1.594,1.767,1.961,3.043
	c0.219,1.023,0.165,2.338-0.155,3.273l-0.062,0.184l-0.034,0.182c-0.188,1.082-0.727,2.212-1.484,3.125
	c-0.973,0.895-1.9,1.418-2.989,1.683l-0.197,0.015l-8.422,0.835l0.182,13.612l8.454,0.394c1.707,0.199,3.299,1.267,4.285,2.923
	c0.526,0.884,0.838,1.596,0.979,2.242c0.035,0.172,0.878,4.371-2.142,6.48l-6.846,4.781l6.974,11.703l7.568-3.816
	c0.475-0.238,1.02-0.359,1.618-0.359c0.977,0,2.06,0.326,3.048,0.919c0.737,0.398,1.495,0.99,2.128,1.65
	c0.752,0.786,1.235,1.446,1.437,1.962l0.095,0.216c0.831,1.521,0.885,2.824,0.204,4.056l-3.537,7.551l11.871,6.633l4.736-7.095
	c0.634-0.822,1.611-1.441,2.705-1.682C329.552,300.764,330.097,300.709,330.678,300.709z M344.586,285.707
	c-2.563,0-5.137-0.322-7.648-0.958c-7.907-2.003-14.668-7.052-19.036-14.217c-4.2-7.216-5.406-15.599-3.384-23.583
	c2.004-7.908,7.053-14.669,14.217-19.037c4.884-2.842,10.406-4.351,15.95-4.351c2.528,0,5.057,0.315,7.515,0.938
	c7.984,2.022,14.787,7.082,19.154,14.246c4.2,7.214,5.418,15.555,3.415,23.465c-2.024,7.986-7.084,14.788-14.247,19.154
	C355.649,284.201,350.132,285.707,344.586,285.707z M344.555,225.462c-5.238,0-10.373,1.45-14.848,4.193
	c-6.657,3.853-11.397,10.167-13.323,17.765c-1.944,7.676-0.786,15.539,3.26,22.139c3.853,6.658,10.167,11.398,17.766,13.322
	c2.415,0.612,4.873,0.923,7.307,0.923c5.239,0,10.368-1.446,14.832-4.183c6.659-3.854,11.411-10.211,13.353-17.886
	c1.926-7.597,0.758-15.417-3.289-22.019c-3.853-6.657-10.209-11.408-17.884-13.353C349.366,225.766,346.952,225.462,344.555,225.462
	z"/>
<path class="st9" d="M344.64,268.536c-1.173,0-2.346-0.146-3.485-0.435c-3.524-0.893-6.617-3.202-8.485-6.338
	c-1.868-3.132-2.416-6.995-1.505-10.599c0.895-3.526,3.204-6.619,6.339-8.485c2.14-1.275,4.604-1.949,7.129-1.949
	c1.135,0,2.262,0.14,3.351,0.416c3.466,0.878,6.517,3.074,8.402,6.039l0.049,0.225l0.187,0.327
	c1.801,3.174,2.348,6.913,1.501,10.256c-0.912,3.601-3.232,6.737-6.368,8.604C349.625,267.866,347.165,268.536,344.64,268.536z
	 M344.699,242.661c-2.139,0-4.273,0.599-6.176,1.732c-2.777,1.655-4.728,4.228-5.492,7.244c-0.784,3.095-0.304,6.329,1.351,9.106
	c1.655,2.778,4.229,4.729,7.246,5.491c0.968,0.246,1.958,0.371,2.94,0.371c2.143,0,4.273-0.596,6.163-1.721
	c2.776-1.653,4.738-4.269,5.523-7.364c0.764-3.016,0.305-6.154-1.291-8.836l-0.093-0.154c-1.652-2.774-4.268-4.735-7.361-5.519
	C346.593,242.779,345.647,242.661,344.699,242.661z"/>
<g>
	<path class="st8" d="M327.725,137.846c-0.452,0.016-0.875-0.327-0.889-0.718l-0.014-0.182l-1.785-13.323l-1.596-0.431
		c-1.487-0.402-2.876-0.778-4.245-1.354c-1.562-0.546-2.871-1.145-4.257-1.778l-1.449-0.662l-1.219,1.033l-8.991,7.835
		c-0.11,0.086-0.351,0.168-0.575,0.176c-0.241,0.008-0.467-0.064-0.606-0.195l-14.694-13.712c-0.236-0.204-0.335-0.395-0.349-0.636
		c-0.012-0.221,0.06-0.438,0.192-0.58l0.12-0.136l8.166-10.685l-0.921-1.463c-0.688-1.09-1.365-2.369-2.07-3.909
		c-0.591-1.394-1.196-2.819-1.683-4.225l-0.534-1.548l-13.455-0.982c-0.469-0.017-0.799-0.381-0.815-0.851l-0.086-2.485
		l-0.115,0.004l-0.609-17.605c-0.016-0.477,0.358-0.877,0.834-0.894l0.182-0.014l13.208-1.782l0.43-1.595
		c0.39-1.441,0.903-2.928,1.4-4.367c0.461-1.335,1.024-2.599,1.781-4.009l0.815-1.514l-8.956-10.274
		c-0.329-0.369-0.352-0.815-0.063-1.096l13.794-14.779c0.29-0.336,0.52-0.344,0.595-0.346c0.188-0.006,0.363,0.061,0.506,0.194
		l0.144,0.126l10.801,8.148l1.453-0.916c1.346-0.848,2.569-1.497,3.848-2.041c1.427-0.606,2.892-1.227,4.288-1.711l1.564-0.541
		l0.852-13.47c0.044-0.439,0.386-0.774,0.849-0.79l2.485-0.086l-0.004-0.115l17.607-0.609c0.475-0.016,0.875,0.358,0.892,0.834
		l0.015,0.202l1.915,13.189l1.578,0.426c1.431,0.387,2.925,0.903,4.371,1.402c1.563,0.59,2.874,1.173,4.003,1.779l1.514,0.815
		l10.276-8.955c0.237-0.227,0.39-0.255,0.503-0.259c0.236-0.008,0.477,0.09,0.678,0.278l14.694,13.711
		c0.151,0.141,0.236,0.33,0.243,0.545c0.007,0.214-0.064,0.408-0.206,0.561l-0.135,0.155l-7.949,10.707l0.759,1.395
		c0.736,1.354,1.426,2.621,2.006,3.988c0.74,1.479,1.211,2.841,1.71,4.282l0.541,1.56l1.648,0.114l11.94,0.744
		c0.438,0.044,0.772,0.387,0.788,0.85l0.695,20.091c0.016,0.452-0.327,0.876-0.718,0.89l-0.199,0.014l-13.307,1.916l-0.426,1.579
		c-0.399,1.475-0.776,2.868-1.354,4.244c-0.517,1.37-1.144,2.872-1.783,4.27l-0.668,1.458l8.878,10.188
		c0.271,0.309,0.226,0.889-0.096,1.268l-13.634,14.607c-0.136,0.145-0.36,0.237-0.602,0.245c-0.242,0.008-0.472-0.067-0.617-0.203
		l-0.148-0.129l-10.592-7.966l-1.404,0.765c-1.484,0.807-2.865,1.484-4.104,2.011l-0.158,0.074c-1.23,0.667-2.569,1.131-3.986,1.623
		l-1.567,0.542l-0.128,1.632l-0.861,11.945c-0.016,0.466-0.379,0.795-0.849,0.811L327.725,137.846z M313.936,117.457
		c1.713,0.942,3.633,1.838,5.705,2.661c2.228,0.884,4.328,1.503,6.418,1.893c0.211,0.052,0.562,0.432,0.656,0.933l1.828,13.028
		l18.443-0.638l0.948-13.256l-0.002-0.064c-0.009-0.267,0.182-0.677,0.588-0.785c1.986-0.541,4.048-1.322,6.137-2.322
		c2.002-0.908,3.936-1.961,5.724-3.12c0.096-0.062,0.214-0.097,0.34-0.102c0.208-0.007,0.444,0.075,0.646,0.225l10.676,8.087
		l12.646-13.552l-8.779-10.093l-0.046-0.043c-0.267-0.249-0.298-0.669-0.121-1.023c0.995-1.791,1.907-3.786,2.688-5.886
		c0.837-2.111,1.47-4.212,1.872-6.222c0.076-0.357,0.365-0.616,0.752-0.659l13.216-1.854l-0.638-18.443l-13.257-0.949l-0.064,0.002
		c-0.267,0.009-0.677-0.182-0.785-0.587c-0.529-2.046-1.291-4.095-2.326-6.253c-0.988-2.059-2.037-3.946-3.116-5.61
		c-0.186-0.318-0.152-0.736,0.119-1.102L382.3,41.04l-13.566-12.511l-9.986,8.685c-0.219,0.207-0.428,0.301-0.643,0.308
		c-0.135,0.005-0.265-0.027-0.376-0.092c-1.913-1.061-3.934-1.987-6.034-2.768c-1.972-0.784-4.062-1.32-6.083-1.84
		c-0.465-0.101-0.758-0.365-0.795-0.683l-1.853-13.317l-18.447,0.638l-0.948,13.257l0.002,0.064c0.014,0.409-0.212,0.685-0.59,0.785
		c-2.082,0.654-4.234,1.36-6.25,2.326c-2.047,0.981-3.934,2.029-5.611,3.116c-0.099,0.057-0.294,0.11-0.488,0.117
		c-0.255,0.009-0.51-0.064-0.738-0.212l-10.545-7.995L286.812,44.35l8.695,9.995c0.116,0.125,0.51,0.59,0.172,1.219
		c-0.957,1.727-1.869,3.677-2.706,5.785c-0.817,2.055-1.369,4.235-1.865,6.291c-0.085,0.361-0.468,0.703-0.874,0.785l-13.115,1.821
		l0.638,18.446l13.256,0.949l0.064-0.002c0.41-0.014,0.686,0.212,0.787,0.589c0.683,2.073,1.368,4.149,2.322,6.137
		c0.903,1.996,1.955,3.93,3.116,5.723c0.188,0.289,0.149,0.734-0.095,1.11l-7.989,10.537l13.419,12.669l10.005-8.703
		c0.242-0.228,0.481-0.327,0.768-0.337C313.587,117.359,313.768,117.391,313.936,117.457z M336.749,107.938
		c-8.122,0.281-15.892-2.64-21.878-8.225c-5.909-5.624-9.322-13.178-9.601-21.262c-0.28-8.084,2.606-15.858,8.126-21.891
		c5.61-5.894,13.162-9.303,21.246-9.583s15.859,2.606,21.892,8.126c5.969,5.571,9.417,13.118,9.698,21.241
		s-2.64,15.893-8.225,21.878C352.421,104.206,344.871,107.657,336.749,107.938z M334.7,48.704c-7.48,0.259-14.748,3.599-19.94,9.164
		c-5.192,5.566-8.022,13.046-7.763,20.524c0.265,7.663,3.52,14.785,9.167,20.055c5.57,5.197,12.858,7.914,20.521,7.65
		c7.737-0.268,14.862-3.483,20.059-9.053c5.198-5.571,7.914-12.9,7.647-20.637c-0.265-7.663-3.479-14.745-9.05-19.942
		C349.694,51.195,342.364,48.439,334.7,48.704z"/>
	<path class="st9" d="M336.162,90.964c-3.6,0.124-7.134-1.173-9.693-3.56l-0.239-0.223c-2.515-2.447-3.979-5.76-4.102-9.313
		c-0.122-3.529,1.217-7.063,3.675-9.697c2.458-2.634,5.892-4.215,9.42-4.337c3.58-0.124,7.024,1.181,9.697,3.676l0.754,0.703
		l0.06-0.002c2.134,2.332,3.412,5.479,3.524,8.719c0.128,3.707-1.103,7.059-3.56,9.694l-0.11,0.117
		C343.128,89.377,339.87,90.836,336.162,90.964z M335.287,65.677c-3.042,0.105-5.94,1.387-8.163,3.611
		c-2.159,2.47-3.26,5.473-3.155,8.517c0.107,3.091,1.314,5.875,3.492,8.051l0.178,0.168c2.337,2.181,5.341,3.322,8.462,3.214
		c3.272-0.113,6.211-1.481,8.275-3.852c2.127-2.116,3.267-5.12,3.154-8.396c-0.108-3.12-1.453-6.039-3.787-8.218
		C341.486,66.666,338.482,65.567,335.287,65.677z"/>
</g>
<path class="st9" d="M352.422,445.081c-3.561,0-6.938-1.415-9.508-3.984l-0.723-0.725h-0.061c-2.04-2.389-3.201-5.56-3.201-8.782
	c0-3.688,1.338-6.977,3.87-9.509l0.114-0.114c2.532-2.532,5.82-3.87,9.508-3.87c3.583,0,7.049,1.41,9.509,3.87l0.227,0.228
	c2.418,2.52,3.758,5.861,3.758,9.396c0,3.51-1.452,6.975-3.984,9.507S355.933,445.081,352.422,445.081z M352.422,419.813
	c-3.254,0-6.221,1.258-8.354,3.542c-2.186,2.031-3.422,4.977-3.422,8.234c0,3.104,1.236,6.05,3.481,8.294
	c2.171,2.17,5.117,3.365,8.294,3.365c3.025,0,5.949-1.175,8.233-3.307c2.23-2.38,3.427-5.326,3.427-8.353
	c0-3.076-1.104-5.884-3.191-8.119l-0.171-0.173C358.472,421.05,355.525,419.813,352.422,419.813z"/>
<path class="st7" d="M326.033,385.483c-0.457,0.091-0.919-0.136-1.151-0.564l-3.949-7.286l-0.727,0.118
	c-2.286,0.374-4.197,0.511-6.014,0.432c-2.381-0.104-4.197-0.351-5.889-0.798l-0.748-0.198l-4.362,7.149
	c-0.172,0.283-0.442,0.479-0.743,0.538c-0.184,0.036-0.461,0.039-0.736-0.153l-13.805-8.444c-0.441-0.287-0.609-0.99-0.322-1.433
	l4.38-7.18l-0.526-0.574c-0.404-0.441-0.793-0.986-1.168-1.513l-0.124-0.174c-0.767-1.054-1.448-2.128-2.028-3.199
	c-0.623-1.149-1.15-2.302-1.568-3.431c-0.295-0.727-0.547-1.366-0.763-2.123l-0.21-0.738l-8.323-0.162
	c-0.554-0.041-1.085-0.582-1.083-1.157l-0.007-0.236l0.469-15.85c0.001-0.504,0.434-0.961,0.986-1.07
	c0.068-0.014,0.138-0.022,0.209-0.025l8.28,0.25l0.257-0.703c0.686-1.873,1.547-3.69,2.557-5.401
	c1.179-1.831,2.378-3.414,3.644-4.802l0.497-0.544l-3.949-7.287c-0.252-0.466-0.184-1.145,0.441-1.485l14.135-7.661
	c0.09-0.048,0.187-0.082,0.288-0.102c0.472-0.094,0.976,0.134,1.197,0.543l3.944,7.278l0.718-0.108
	c1.861-0.276,3.819-0.404,5.988-0.391c1.842,0.081,3.814,0.334,5.989,0.769l0.712,0.143l4.338-7.108
	c0.139-0.215,0.41-0.387,0.727-0.45c0.296-0.059,0.595-0.016,0.842,0.122l13.632,8.428c0.265,0.149,0.427,0.362,0.496,0.624
	c0.08,0.3,0.027,0.632-0.143,0.912l-4.277,6.944l0.387,0.558c0.243,0.348,0.494,0.666,0.746,0.982
	c0.225,0.283,0.45,0.566,0.666,0.878c0.674,1.058,1.351,2.133,1.958,3.254c0.576,1.064,1.135,2.281,1.675,3.459
	c0.1,0.263,0.216,0.61,0.332,0.956c0.127,0.38,0.254,0.761,0.39,1.11l0.247,0.636l8.202,0.293c0.338-0.008,0.589,0.092,0.78,0.283
	c0.195,0.194,0.306,0.454,0.32,0.743l-0.035,0.23l-0.391,15.872c-0.016,0.526-0.372,0.981-0.844,1.075
	c-0.079,0.016-0.161,0.022-0.243,0.016l-8.391-0.25l-0.256,0.705c-0.628,1.734-1.465,3.462-2.634,5.44
	c-0.894,1.511-2.03,3.027-3.576,4.77L337,368.938l3.944,7.278c0.134,0.247,0.161,0.542,0.076,0.83
	c-0.085,0.288-0.269,0.52-0.517,0.653l-14.135,7.662C326.259,385.419,326.146,385.461,326.033,385.483z M321.138,375.267
	c0.526-0.104,1.077,0.133,1.31,0.565l3.838,7.081l12.21-6.617l-3.838-7.081c-0.216-0.397-0.135-0.976,0.178-1.291
	c1.682-1.629,3.11-3.434,4.351-5.503c1.223-1.885,2.239-4.114,2.922-6.412c0.102-0.343,0.428-0.624,0.813-0.701
	c0.092-0.018,0.188-0.026,0.285-0.02l8.012,0.193l0.429-13.89l-8.004-0.191c-0.563,0.016-0.979-0.306-1.096-0.802
	c-0.301-1.175-0.685-2.273-1.052-3.3l-0.128-0.292c-0.441-0.99-0.858-1.924-1.389-2.904c-0.569-1.05-1.218-2.054-1.845-3.026
	l-0.299-0.392c-0.61-0.787-1.242-1.6-1.922-2.342c-0.343-0.342-0.384-0.912-0.131-1.391l4.258-6.789l-11.883-7.231l-4.121,6.767
	c-0.175,0.326-0.467,0.535-0.794,0.6c-0.171,0.034-0.337,0.027-0.495-0.019c-2.055-0.612-4.335-0.957-6.968-1.054
	c-2.16-0.048-4.29,0.135-6.347,0.543c0,0-0.451,0.093-0.452,0.094c-0.63,0.125-1.113-0.086-1.365-0.551l-3.837-7.081l-12.21,6.616
	l3.837,7.082c0.243,0.449,0.154,0.94-0.237,1.314c-1.731,1.712-3.196,3.567-4.37,5.522c-1.268,2.112-2.198,4.196-2.844,6.369
	c-0.127,0.336-0.455,0.641-0.814,0.712c-0.078,0.015-0.157,0.019-0.236,0.012l-8.145-0.148l-0.338,13.836l7.913,0.241
	c0.576-0.016,1.034,0.323,1.205,0.846c0.271,1.061,0.601,2.245,1.054,3.279c0.385,1.08,0.883,2.196,1.455,3.251
	c0.56,1.032,1.172,1.978,1.929,2.973c0.629,0.98,1.411,1.834,2.168,2.66c0.231,0.278,0.414,0.837,0.084,1.395l-4.195,6.789
	l11.776,7.27l4.251-6.71c0.209-0.388,0.493-0.607,0.82-0.672c0.158-0.031,0.325-0.027,0.497,0.012
	c2.366,0.706,4.696,1.075,6.866,1.08c1.985,0.075,3.921-0.068,5.719-0.425c0.389-0.077,0.774-0.165,1.158-0.263L321.138,375.267z
	 M318.831,367.114c-3.147,0.624-6.414,0.457-9.449-0.483c-5.105-1.516-9.294-4.906-11.809-9.549
	c-2.543-4.692-3.11-10.081-1.596-15.172c1.491-5.019,4.97-9.32,9.544-11.799c1.743-0.944,3.614-1.619,5.562-2.005
	c3.15-0.625,6.478-0.482,9.623,0.412c5.12,1.587,9.329,5.006,11.829,9.62c2.473,4.562,3.023,9.926,1.55,15.106
	c-1.508,5.08-4.926,9.285-9.619,11.829C322.682,366.039,320.786,366.726,318.831,367.114z M311.759,330.246
	c-1.783,0.354-3.517,0.983-5.153,1.87c-4.172,2.261-7.199,5.962-8.524,10.42c-1.347,4.537-0.845,9.332,1.416,13.505
	c2.234,4.122,5.962,7.133,10.499,8.481c2.759,0.819,5.7,0.958,8.505,0.402c1.722-0.342,3.378-0.94,4.921-1.776
	c4.172-2.26,7.211-6.003,8.559-10.539c1.259-4.487,0.729-9.36-1.452-13.385c-2.24-4.134-5.951-7.186-10.447-8.596
	C317.395,329.828,314.522,329.697,311.759,330.246z"/>
<path class="st7" d="M385.644,200.614c-0.471,0.08-0.939-0.166-1.164-0.611l-3.84-7.585l-0.749,0.101
	c-2.355,0.317-4.319,0.404-6.179,0.27c-2.438-0.176-4.294-0.48-6.015-0.988l-0.761-0.224l-4.679,7.206
	c-0.184,0.285-0.467,0.478-0.777,0.531c-0.189,0.032-0.474,0.026-0.751-0.178l-13.913-9.056c-0.444-0.307-0.596-1.033-0.289-1.479
	l4.698-7.236l-0.523-0.604c-0.402-0.464-0.785-1.034-1.155-1.585l-0.122-0.182c-0.756-1.103-1.424-2.224-1.988-3.338
	c-0.606-1.196-1.113-2.394-1.509-3.563c-0.282-0.754-0.522-1.417-0.722-2.199l-0.194-0.762l-8.53-0.405
	c-0.567-0.058-1.095-0.628-1.077-1.217l0-0.242l0.936-16.24c0.016-0.516,0.473-0.973,1.042-1.069
	c0.07-0.012,0.142-0.019,0.215-0.019l8.484,0.494l0.283-0.713c0.758-1.901,1.692-3.739,2.778-5.465
	c1.262-1.844,2.536-3.432,3.875-4.819l0.526-0.543l-3.84-7.586c-0.245-0.485-0.156-1.18,0.495-1.51l14.715-7.45
	c0.094-0.046,0.194-0.079,0.298-0.097c0.487-0.083,0.997,0.166,1.212,0.591l3.835,7.576l0.739-0.09
	c1.916-0.23,3.928-0.305,6.152-0.228c1.887,0.136,3.901,0.452,6.119,0.961l0.726,0.167l4.652-7.164
	c0.149-0.216,0.431-0.385,0.759-0.441c0.305-0.052,0.61,0.001,0.859,0.149l13.737,9.034c0.267,0.16,0.428,0.383,0.491,0.654
	c0.073,0.31,0.01,0.649-0.173,0.931l-4.585,6.997l0.381,0.583c0.239,0.364,0.487,0.697,0.737,1.029
	c0.222,0.297,0.446,0.593,0.658,0.92c0.661,1.105,1.324,2.226,1.915,3.393c0.56,1.107,1.098,2.371,1.618,3.595
	c0.096,0.272,0.204,0.632,0.313,0.99c0.119,0.393,0.239,0.788,0.368,1.149l0.235,0.659l8.403,0.536
	c0.347,0.002,0.602,0.111,0.792,0.312c0.194,0.204,0.3,0.475,0.306,0.771l-0.042,0.235l-0.856,16.264
	c-0.032,0.539-0.409,0.995-0.897,1.078c-0.082,0.014-0.166,0.018-0.249,0.009l-8.598-0.498l-0.282,0.715
	c-0.693,1.76-1.601,3.508-2.857,5.502c-0.96,1.524-2.168,3.046-3.804,4.789l-0.51,0.543l3.835,7.576
	c0.13,0.257,0.15,0.561,0.054,0.853c-0.096,0.293-0.291,0.526-0.549,0.655l-14.715,7.451
	C385.876,200.555,385.76,200.594,385.644,200.614z M380.918,189.998c0.542-0.092,1.1,0.168,1.327,0.617l3.732,7.371l12.711-6.434
	l-3.732-7.371c-0.21-0.414-0.111-1.004,0.219-1.318c1.771-1.622,3.287-3.432,4.62-5.518c1.308-1.898,2.414-4.154,3.181-6.491
	c0.114-0.349,0.457-0.628,0.854-0.695c0.095-0.016,0.193-0.021,0.293-0.013l8.21,0.428l0.839-14.231l-8.202-0.426
	c-0.577,0-0.996-0.342-1.101-0.854c-0.275-1.214-0.637-2.351-0.984-3.414l-0.122-0.303c-0.424-1.028-0.825-1.997-1.341-3.017
	c-0.553-1.093-1.19-2.141-1.805-3.156l-0.295-0.411c-0.603-0.825-1.228-1.676-1.904-2.457c-0.342-0.361-0.368-0.946-0.095-1.43
	l4.561-6.839l-11.977-7.756l-4.42,6.821c-0.188,0.33-0.494,0.535-0.831,0.592c-0.176,0.03-0.347,0.018-0.507-0.034
	c-2.09-0.686-4.418-1.106-7.114-1.281c-2.213-0.111-4.403,0.015-6.524,0.374c0,0-0.465,0.083-0.467,0.083
	c-0.65,0.11-1.139-0.12-1.384-0.604l-3.731-7.371l-12.711,6.433l3.731,7.373c0.236,0.467,0.131,0.968-0.281,1.341
	c-1.824,1.706-3.38,3.566-4.639,5.537c-1.361,2.129-2.374,4.239-3.099,6.449c-0.14,0.341-0.485,0.644-0.855,0.707
	c-0.08,0.014-0.161,0.015-0.242,0.005l-8.348-0.386l-0.744,14.178l8.107,0.474c0.591,0,1.051,0.361,1.212,0.902
	c0.247,1.096,0.552,2.319,0.987,3.392c0.363,1.118,0.842,2.278,1.398,3.375c0.544,1.075,1.145,2.062,1.892,3.104
	c0.616,1.023,1.394,1.921,2.146,2.79c0.229,0.292,0.4,0.87,0.046,1.433l-4.497,6.842l11.867,7.793l4.551-6.759
	c0.225-0.392,0.523-0.609,0.86-0.666c0.163-0.028,0.334-0.018,0.509,0.027c2.406,0.792,4.785,1.237,7.009,1.305
	c2.033,0.133,4.023,0.043,5.877-0.271c0.401-0.068,0.799-0.147,1.195-0.237L380.918,189.998z M378.785,181.571
	c-3.245,0.55-6.591,0.284-9.675-0.767c-5.191-1.702-9.39-5.297-11.835-10.131c-2.473-4.884-2.9-10.426-1.201-15.604
	c1.673-5.104,5.364-9.414,10.125-11.825c1.814-0.918,3.753-1.556,5.761-1.897c3.248-0.55,6.656-0.309,9.856,0.699
	c5.204,1.774,9.422,5.401,11.853,10.204c2.405,4.749,2.815,10.266,1.156,15.535c-1.693,5.166-5.318,9.38-10.203,11.854
	C382.766,180.579,380.802,181.229,378.785,181.571z M372.593,143.562c-1.838,0.311-3.634,0.907-5.338,1.769
	c-4.343,2.199-7.553,5.907-9.04,10.44c-1.512,4.613-1.134,9.546,1.064,13.889c2.172,4.291,5.909,7.486,10.522,8.998
	c2.805,0.919,5.817,1.146,8.709,0.656c1.776-0.301,3.491-0.867,5.097-1.68c4.343-2.197,7.567-5.949,9.08-10.561
	c1.42-4.565,1.016-9.577-1.105-13.767c-2.178-4.303-5.895-7.539-10.466-9.114C378.384,143.296,375.442,143.079,372.593,143.562z"/>
</svg>
