<?xml version="1.0" encoding="utf-8"?>
<svg version="1.1" class="uncode-row-divider" xmlns="http://www.w3.org/2000/svg" xmlns:xlink="http://www.w3.org/1999/xlink" x="0px" y="0px"
	 width="240px" height="24px" viewBox="0 0 240 24" enable-background="new 0 0 240 24" xml:space="preserve" preserveAspectRatio="none">
<path fill="#464D54" d="M0,0v23.99l0,0l0.02-1.061l2.28,0.04L2.329,21h1.289l0.02-1.068h1.265v1.008l2.227,0.021v0.819l1.201,0.021
	v1.739l1.528,0.021v-1.988h1.753l0.02-4.559h1.318v-0.771h1.372l-0.02,0.93h0.547l0.02-1.819h1.68v0.989H17.5l-0.02,5.498h1.001
	v1.06h1.196l0.024-8.096h1.396v-0.91l3.213,0.021v0.949h1.626l-0.059,7.825l6.572,0.062L32.5,11.445l0.771,0.02v-1.04h1.797v0.91
	h1.201L36.22,22.551l1.147,0.021l0.054-10.106l0.757,0.01v-1.13h2.231v0.84h0.938l-0.02,6.017h0.991v-1.219h1.03v1.248h0.942v-1.988
	l5.21,0.02l-0.02,6.017h1.626l0.02-4.009l5.024,0.021v3.669l2.607,0.021l0.02-6.719h0.889v-1.13h1.924l-0.01,1.04l2.036,0.02
	l-0.02,1.16h1.753l-0.039,5.836h1.147l0.02-4.228h0.732v-1.08l2.007,0.03v1.061h1.25v3.338l4.58,0.021l0.049-12.624h0.552
	l0.02-3.119h0.859v-1.9l5.093,0.02v1.829h1.528l-0.068,16.634h1.587l0.02-7.606h0.771l0.02-2.208h1.084v1.069h1.318l-0.02,0.78
	h1.147l-0.029,8.057h0.933v-1.66h1.318l0.02-8.436h0.562l0.527-0.72h1.87v0.86l0.889,0.03l-0.049,9.436l4.492,0.021L99.59,7.986
	l2.261,0.02l-0.02,1.149h0.547v-0.75l3.413,0.02l-0.01,1.05h1.06l-0.073,12.285h1.323l0.02-3.888h1.03v-1.08h1.367v1.069
	l1.421,0.031v3.717l2.061,0.021l0.049-9.306h0.723V9.146l4.648,0.02v1.369h1.201l-0.021,6.038l3.169,0.02l0.078-15.204h0.391V0.11
	h2.783v0.62h1.641l-0.098,16.454h4.141l0.021-6.078l3.175,0.02V6.147l4.608,0.02l-0.021,1.609h1.094l-0.028,3.888h1.317v-1.29h3.027
	l-0.02,1.37h1.396v2.617h0.819l0.039-9.464l0.819,0.02v-1.85h1.572l2.101,0.02v0.89l1.758,0.03l-0.021,5.468l1.836,0.02v-1.3
	l2.051,0.02l-0.038,0.91h2.655l-0.039,1.989l0.957,0.02v-0.949h0.898v-1h2.09l-0.039,1.02h1.455v0.65h0.635v2.129l1.045,0.021v-1.38
	l2.09,0.02v-0.91h0.938v-0.51l2.013,0.03v1.03h1.455v0.99l1.68,0.02v1.229h0.801l-0.02,6.418h0.36v-1.77h0.724l0.02-5.479h0.43
	v-0.918h1.514v0.86h0.537l-0.039,4.868h0.693l0.039-7.198l4.043,0.02v1.93h0.488v2.22h0.312l-0.039,5.877h1.151v-0.84h0.488
	l0.021-2.068h0.43l0.039-8.097l3.086,0.02l-0.039,4.897h0.498v3.27l1.367,0.021l-0.021,3.047h0.879v-1.588l1.476,0.02v-0.989
	l4.979,0.021v-1.06h1.271l-0.021,1.22h1.317v2.809h1.084l0.021-2.578h0.742v-4.118h0.78v-1.679l0.88,0.02l0.547-0.729l1.582,0.05
	l0.039-8.657h3.28l-0.02,8.776l1.797,0.02l-0.02,6.688h1.045l0.039-8.327h2.852v0.89h2.705l-0.02,3.057l1.309,0.021v-2.299
	l2.031,0.02l0.02-1.25l1.826,0.02l-0.068,7.447l2.793,0.038l0.039-8.535h0.488v-0.67h2.91l-0.02,1.339l3.242,0.02l-0.06,8.637h1.543
	v2.617h1.68l0.021-3.117h0.859v-1.291H240V0.01L0,0L0,0z M240,24v-6.547L239.941,24H240z"/>
</svg>
