<?xml version="1.0" encoding="utf-8"?>
<svg version="1.1" class="uncode-row-divider" xmlns="http://www.w3.org/2000/svg" xmlns:xlink="http://www.w3.org/1999/xlink" x="0px" y="0px"
	 width="240px" height="24px" viewBox="0 0 240 24" enable-background="new 0 0 240 24" xml:space="preserve" preserveAspectRatio="none">
<path fill="#464D54" d="M239.941,24L240,17.346h-1.25v1.301h-0.84l-0.02,3.105h-1.681v-2.618h-1.562l0.078-8.623l-3.242-0.02
	l0.02-1.359h-2.91v0.7h-0.488l-0.039,8.521l-2.812-0.021l0.068-7.464l-1.808-0.03l-0.02,1.25l-2.031-0.03v2.308l-1.309-0.03
	l0.02-3.038h-2.725V10.41h-2.871l-0.02,8.312h-1.025l0.02-6.685l-1.816-0.03l0.039-8.763h-3.28l-0.039,8.663l-1.603-0.04
	l-0.547,0.749l-0.879-0.021v1.68h-0.781v4.099h-0.742l-0.02,2.577h-1.094v-2.809h-1.309l0.02-1.229h-1.27v1.069l-4.98-0.021v0.971
	l-1.494-0.021v1.607H192.9l0.02-3.026l-1.377-0.039v-3.247h-0.488l0.039-4.907l-3.086-0.01l-0.039,8.073h-0.43l-0.02,2.068h-0.47
	v0.84h-1.172l0.039-5.864h-0.293v-2.216h-0.508V10.26l-4.043-0.05l-0.039,7.204h-0.693l0.021-4.865h-0.519v-0.87h-1.514v0.939
	h-0.431l-0.02,5.457h-0.742v1.769h-0.391l0.049-6.404h-0.801v-1.239l-1.699-0.011v-0.989h-1.426v-1.039l-2.031-0.02v0.529h-0.918
	v0.899l-2.09-0.02v1.378l-1.035-0.029V10.76h-0.645v-0.64h-1.445l0.039-1.039h-2.09v1.029h-0.928V11.1l-0.918-0.03l0.02-1.999
	h-2.666l0.039-0.899l-2.021-0.02v1.319l-1.865-0.05l0.021-5.496l-1.758-0.02V3.038l-2.091-0.03h-1.582v1.829l-0.801-0.04
	l-0.039,9.483h-0.819v-2.63h-1.388l0.021-1.349h-3.008v1.269h-1.31l0.021-3.897h-1.113l0.021-1.588l-4.609-0.04V11l-3.184-0.02
	l-0.021,6.105h-4.159l0.098-16.466h-1.611V0h-2.803v1.309h-0.381l-0.078,15.207l-3.17-0.021l0.021-6.035h-1.211V9.083l-4.639-0.01
	v3.177h-0.742l-0.049,9.303l-2.061-0.01v-3.718l-1.411-0.029v-1.067h-1.357v1.067H108.1l-0.029,3.896h-1.333l0.093-12.318h-1.06
	l0.02-1.049l-3.423-0.03v0.779h-0.537l0.029-1.159l-2.271-0.02L99.55,21.712l-4.502-0.021l0.049-9.461l-0.889-0.03v-0.85h-1.87
	l-0.508,0.709h-0.57l-0.01,8.443h-1.318v1.658H88.98L89,14.098h-1.128l0.02-0.77h-1.318v-1.08H85.48l-0.029,2.219h-0.747
	l-0.044,7.594h-1.567l0.059-16.604h-1.519V3.647l-5.103-0.03v1.888h-0.869l-0.02,3.128h-0.552L75.04,21.242l-4.59-0.02v-3.339H69.2
	v-1.079l-1.997-0.021v1.079H66.47l-0.01,4.258h-1.172l0.044-5.866H63.56l0.029-1.14l-2.026-0.021l0.02-1.049h-1.934v1.107H58.76
	l-0.01,6.705l-2.612-0.021v-3.654l-5.029-0.02L51.08,22.18h-1.631l0.044-6.025l-5.21-0.01v1.998H43.33v-1.25H42.3v1.198h-0.981
	l0.02-6.004H40.41V11.25h-2.241v1.139l-0.747-0.02l-0.063,10.083l-1.138-0.021L36.25,11.22h-1.201v-0.899h-1.787v1.049L32.5,11.35
	l-0.049,11.272l-6.592-0.031l0.049-7.843h-1.616v-0.92L21.06,13.8v0.897h-1.392l-0.02,8.095h-1.187V21.73H17.47l0.03-5.523h-0.938
	v-0.96h-1.694l-0.029,1.8h-0.537l0.029-0.908h-1.382v0.758H11.64l-0.02,4.537H9.849v1.998L8.33,23.41v-1.719l-1.211-0.039v-0.801
	l-2.217-0.039v-0.989h-1.25l-0.044,1.069H2.319L2.29,22.861L0.01,22.84L0,23.999L239.941,24L239.941,24z"/>
</svg>
