<?xml version="1.0" encoding="utf-8"?>
<svg version="1.1" class="uncode-row-divider" xmlns="http://www.w3.org/2000/svg" xmlns:xlink="http://www.w3.org/1999/xlink" x="0px" y="0px"
	 width="240px" height="24px" viewBox="0 0 240 24" enable-background="new 0 0 240 24" xml:space="preserve" preserveAspectRatio="none">
<path fill="#464D54" d="M0.02,5.098c0.981-0.077,2.09-0.055,3.359,0.066c8.521,1.031,10.649,5.712,10.649,5.712
	s1.733-0.669,3.75-0.197c1.924,0.471,2.861,2.488,2.861,2.488s0.103-0.481,1.128-0.668c1.03-0.187,1.543,0.187,1.543,0.187
	s-0.312-1.997,1.25-2.631c1.558-0.669,3.271,0.658,3.271,0.658s0.186-2.773,2.109-3.914c1.919-1.141,4.131,0,4.131,0
	s0.977-0.472,2.109,0c1.128,0.471,1.699,1.348,1.699,1.348H39.1c0.601,0,1.147,0.658,1.147,0.658s0.43-1.754,3.188-2.116
	c3.042-0.351,5.044,2.291,6.123,4.221c0.288-0.374,0.771-0.669,1.44-0.844c2.349-0.669,3.618,0.657,3.618,0.657
	s0.752-4.758,8.872-5.712c8.182-1.042,11.4,3.739,11.4,3.739s0.352-4.572,4.175-5.427c3.838-0.844,6.26,1.744,6.26,1.744
	s0.43-0.548,1.167-0.844c0.752-0.187,1.641-0.187,1.641-0.187S91.72-2.05,98.702,0.899c6.89,2.949,5.498,8.574,5.498,8.574
	s1.533-0.833,3.54,0c1.992,0.844,2.832,2.281,2.832,2.281s1.489-1.13,3.77-1.13c2.329,0,4.009,1.108,4.009,1.108
	s0.02-0.943,0.981-1.612c0.957-0.668,1.748-0.668,1.748-0.668s-0.889-2.949,1.04-5.241c1.919-2.281,4.795-1.337,4.795-1.337
	s0.978-2.182,3.524-1.03c2.578,1.129,2.295,4.944,2.295,4.944s0.244-0.121,1.23,0.471c0.488,0.351,0.801,0.724,0.967,1.02
	c0.226-1.337,1.25-5.526,6.797-3.826c6.562,2.006,4.404,8.464,4.404,8.464s0.635-0.36,1.768,0c1.084,0.373,1.104,1.031,1.104,1.031
	s0.802-1.031,1.886-1.031c1.045,0,1.885,0.472,1.885,0.472s1.133-3.443,5.272-1.141c4.16,2.312,2.638,6.107,2.638,6.107
	s1.934-2.291,6.494,0c3.28,1.61,4.188,4.681,4.188,4.681s1.875-6.578,7.969-7.521c6.074-0.943,10.508,2.478,10.508,2.478
	s0.703,0,1.085,0.196c0.37,0.188,0.946,0.834,0.946,0.834s3.397-2.948,7.334,0.209c1.884,1.609,2.05,4.768,2.05,4.768
	s0.107-1.043,1.211-1.338c1.084-0.264,2.051,0.207,2.051,0.207s-0.264-1.139,0.166-1.818c0.431-0.681,1.515-0.835,1.515-0.835
	s-5.537-8.901,1.885-12.793c4.57-2.39,8.242,0.844,8.242,0.844s3.457-5.888,13.047-5.888c4.385,0,8.008,1.656,10.625,3.398V0H0"/>
</svg>
