<?xml version="1.0" encoding="utf-8"?>
<svg version="1.1" class="uncode-row-divider" xmlns="http://www.w3.org/2000/svg" xmlns:xlink="http://www.w3.org/1999/xlink" x="0px" y="0px"
	 width="240px" height="24px" viewBox="0 0 240 24" enable-background="new 0 0 240 24" xml:space="preserve" preserveAspectRatio="none">
<path fill="#464D54" d="M0,0v14.873C21.602,4.718,57.48,0.13,71.021,4.278C86.958,9.136,80.64,23.589,96.958,22.37
	C111.548,21.26,122.5,9.375,137.5,9.415c11.055,0.02,10.098,6.587,21.68,7.487c12.129,0.959,16.992-6.938,36.074-11.436
	C212.773,1.339,228.613-0.62,240,0.569V0H0z"/>
<path fill="#464D54" fill-opacity="0.33" d="M0,16.672C19.248,5.947,55.752,0.959,69.912,5.138
	C85.991,9.896,78.481,23.98,94.17,22.789c14.072-1.039,27.822-12.684,42.393-12.653c10.742,0.021,9.16,6.438,20.488,7.316
	c11.914,0.948,16.875-6.767,34.883-11.155C211.67,1.509,228.799,1.209,240,4.638V0H0"/>
<path fill="#464D54" fill-opacity="0.33" d="M0,0v17.922C21.479,7.057,49.629,2.329,64.819,6.497
	c17.09,4.708,10.542,18.69,26.831,17.422c14.277-1.119,25.83-12.344,40.079-12.304c10.391,0.05,7.754,6.037,18.789,6.876
	c11.465,0.858,21.621-5.017,37.178-8.966c19.893-5.097,42.109-5.347,52.305-0.06V0H0z"/>
</svg>
