<?xml version="1.0" encoding="utf-8"?>
<svg version="1.1" class="uncode-row-divider" xmlns="http://www.w3.org/2000/svg" xmlns:xlink="http://www.w3.org/1999/xlink" x="0px" y="0px"
	 width="240px" height="24px" viewBox="0 0 240 24" enable-background="new 0 0 240 24" xml:space="preserve" preserveAspectRatio="none">
<path fill="#464D54" fill-opacity="0.33" d="M0,24h240V0.359c-11.387-1.23-27.227,0.77-44.746,4.87
	c-19.092,4.46-23.965,12.33-36.084,11.378c-11.553-0.906-10.596-7.438-21.67-7.468c-15-0.02-25.952,11.817-40.542,12.917
	c-16.318,1.219-10-13.167-25.938-17.999C57.48-0.068,21.582,4.509,0,14.631V24L0,24z"/>
<path fill="#464D54" fill-opacity="0.33" d="M191.934,6.021c-18.008,4.371-22.969,12.083-34.883,11.141
	c-11.328-0.898-9.746-7.29-20.488-7.29C121.993,9.852,108.243,21.421,94.17,22.5C78.481,23.701,85.991,9.669,69.912,4.912
	C55.752,0.723,19.248,5.69,0,16.393V24h240V4.371C228.818,0.96,211.68,1.25,191.934,6.021z"/>
<path fill="#464D54" d="M240,9.141c-10.195-5.24-32.402-5.01-52.285,0.05c-15.615,3.95-25.732,9.818-37.236,8.959
	c-11.045-0.852-8.397-6.77-18.789-6.839c-14.257-0.051-25.8,11.162-40.078,12.261C75.342,24.87,81.89,10.899,64.8,6.223
	C49.629,2.042,21.479,6.771,0,17.602V24h240V9.141L240,9.141z"/>
</svg>
