<?xml version="1.0" encoding="utf-8"?>
<svg version="1.1" class="uncode-row-divider" xmlns="http://www.w3.org/2000/svg" xmlns:xlink="http://www.w3.org/1999/xlink" x="0px" y="0px"
	 width="240px" height="24px" viewBox="0 0 240 24" enable-background="new 0 0 240 24" xml:space="preserve" preserveAspectRatio="none">
<path fill="#464D54" fill-opacity="0.33" d="M209.18,9.257c-10.176,0.18-24.004,1.61-34.697,5.44
	c-5.518,1.972-13.545,4.41-20.645,5.882c-7.002,1.479-10.225,1.581-12.861,1.87c-5.879,0.609-13.358-0.1-19.551-1.27
	c-6.133-1.221-18.364-5.722-26.025-8.652C75.771,4.677,60.771,1.696,45.532,0.436c-6.123-0.5-12.603-0.86-26.763,0.62
	c-6.958,0.691-13.682,2.21-18.75,3.541V24H240V13.259C232.422,11.168,221.348,8.967,209.18,9.257z"/>
<path fill="#464D54" fill-opacity="0.33" d="M207.461,10.527c-9.961,0.181-23.555,1.491-33.984,4.971
	c-5.391,1.811-13.262,4.021-20.215,5.37c-6.914,1.372-10.078,1.462-12.676,1.682c-5.723,0.55-13.096-0.101-19.16-1.149
	c-6.006-1.08-18.008-5.201-25.518-7.893C76.64,6.367,61.948,3.667,47.002,2.486c-6.001-0.48-12.363-0.8-26.25,0.54
	c-7.939,0.74-15.601,2.5-20.713,3.851v17.114H240v-9.193C232.656,12.758,220.684,10.238,207.461,10.527z"/>
<path fill="#464D54" d="M138.75,22.619c-5.43,0.561-12.344-0.061-18.125-1.061c-5.654-1.01-17.017-4.811-24.116-7.291
	C78.34,7.667,64.438,5.167,50.312,4.087c-5.664-0.431-11.685-0.721-24.814,0.53C12.358,5.847,0,9.847,0,9.847V24h240v-6.212
	c0,0-17.285-6.67-38.018-6.23c-9.404,0.14-22.295,1.37-32.178,4.581c-5.099,1.649-12.539,3.721-19.121,4.971
	C144.17,22.359,141.191,22.43,138.75,22.619z"/>
</svg>
