<?xml version="1.0" encoding="utf-8"?>
<svg version="1.1" class="uncode-row-divider" xmlns="http://www.w3.org/2000/svg" xmlns:xlink="http://www.w3.org/1999/xlink" x="0px" y="0px"
	 width="240px" height="24px" viewBox="0 0 240 24" enable-background="new 0 0 240 24" xml:space="preserve" preserveAspectRatio="none">
<path fill="#464D54" d="M0,0v8.043c0,0,12.358-4.922,25.488-6.433c13.13-1.51,19.151-1.18,24.81-0.65
	c14.141,1.291,28.032,4.392,46.23,12.505c7.1,3.082,18.462,7.754,24.121,8.976c5.758,1.25,12.69,1.961,18.121,1.319
	c2.44-0.26,5.42-0.34,11.953-1.901c6.602-1.479,14.043-4.029,19.12-6.093c9.884-3.951,22.716-5.472,32.169-5.642
	c20.702-0.54,37.987,7.674,37.987,7.674V0H0z"/>
</svg>
