<?xml version="1.0" encoding="utf-8"?>
<svg version="1.1" class="uncode-row-divider" xmlns="http://www.w3.org/2000/svg" xmlns:xlink="http://www.w3.org/1999/xlink" x="0px" y="0px"
	 width="240px" height="24px" viewBox="0 0 240 24" enable-background="new 0 0 240 24" xml:space="preserve" preserveAspectRatio="none">
<path fill="#464D54" d="M0,0v4.852C5.059,3.421,11.812,1.84,18.75,1.101C32.91-0.43,39.399-0.07,45.532,0.46
	C60.771,1.8,75.771,4.901,95.39,13.104c7.661,3.111,19.922,7.832,26.021,9.084c6.226,1.229,13.706,1.979,19.565,1.35
	c2.637-0.26,5.858-0.35,12.891-1.909c7.129-1.541,15.137-4.142,20.625-6.183c10.664-4.011,24.551-5.521,34.697-5.711
	c12.178-0.28,23.252,2.041,30.811,4.221V0H0z"/>
<path fill="#464D54" fill-opacity="0.33" d="M0,0v7.232c5.112-1.42,12.788-3.231,20.708-4.021C34.6,1.78,40.962,2.13,46.948,2.621
	c14.951,1.2,29.663,4.061,48.911,11.543c7.51,2.831,19.541,7.162,25.513,8.312c6.099,1.119,13.433,1.799,19.175,1.219
	c2.598-0.238,5.732-0.34,12.656-1.75c6.973-1.439,14.844-3.771,20.215-5.641c10.449-3.701,24.062-5.062,34.004-5.222
	c13.242-0.291,25.176,2.34,32.539,4.501V0H0z"/>
<path fill="#464D54" fill-opacity="0.33" d="M50.288,4.321c14.141,1.13,28.032,3.771,46.23,10.684
	c7.1,2.63,18.462,6.601,24.121,7.672c5.768,1.04,12.69,1.681,18.12,1.109c2.441-0.209,5.421-0.31,11.943-1.619
	c6.603-1.302,14.043-3.491,19.121-5.212c9.883-3.381,22.715-4.692,32.168-4.822c20.293-0.46,37.305,6.252,37.987,6.553V0H0v10.373
	c0,0,12.358-4.221,25.488-5.501C38.608,3.551,44.629,3.871,50.288,4.321z"/>
</svg>
