<?xml version="1.0" encoding="utf-8"?>
<svg version="1.1" class="uncode-row-divider" xmlns="http://www.w3.org/2000/svg" xmlns:xlink="http://www.w3.org/1999/xlink" x="0px" y="0px"
	 width="240px" height="24px" viewBox="0 0 240 24" enable-background="new 0 0 240 24" xml:space="preserve" preserveAspectRatio="none">
<path fill="#464D54" d="M138.75,22.41c-5.43,0.619-12.363-0.09-18.125-1.27c-5.654-1.19-17.017-5.711-24.116-8.642
	C78.34,4.689,64.438,1.708,50.312,0.429c-5.664-0.5-11.685-0.84-24.814,0.62C12.358,2.499,0,7.249,0,7.249V24h240v-7.34
	c0,0-17.285-7.921-38.018-7.381c-9.404,0.17-22.275,1.61-32.158,5.442c-5.098,1.959-12.539,4.409-19.121,5.879
	C144.17,22.061,141.191,22.17,138.75,22.41z"/>
</svg>
