<?xml version="1.0" encoding="utf-8"?>
<svg version="1.1" class="uncode-row-divider" xmlns="http://www.w3.org/2000/svg" xmlns:xlink="http://www.w3.org/1999/xlink" x="0px" y="0px"
	 width="240px" height="24px" viewBox="0 0 240 24" enable-background="new 0 0 240 24" xml:space="preserve" preserveAspectRatio="none">
<path fill="#464D54" d="M240,24v-3.896c-1.68-2.084-4.492-5.312-5.898-5.881c-1.836-0.678-3.086-2.103-4.647-3.528l0,0
	c0,0-0.021,0-0.021-0.06l-0.02-0.06c-0.098-0.119-0.215-0.199-0.312-0.269c-0.117-0.09-0.233-0.209-0.352-0.339
	c-1.914-1.595-9.375-8.542-9.375-8.542l-1.523,0.588l-2.266-1.515c0,0-3.613,3.797-4.004,4.375
	c-0.381,0.568-1.738,1.595-2.471,2.551c-0.205,0.25-0.557,0.697-0.986,1.186l0,0c-1.123,1.306-2.852,3.109-4.385,3.738
	c-2.109,0.837-5.732,3.309-5.732,3.309s-0.625-0.589-1.328-1.246l0,0c-0.215-0.21-0.449-0.488-0.684-0.679l0,0
	c-0.078-0.08-0.156-0.158-0.205-0.209c-0.029,0-0.029-0.062-0.049-0.062c-0.098-0.062-0.137-0.14-0.215-0.196
	c-0.029,0-0.029-0.041-0.049-0.041c-0.06-0.062-0.117-0.119-0.187-0.199c-0.021,0-0.021-0.062-0.039-0.062
	c-0.06-0.062-0.116-0.119-0.215-0.18l-0.021-0.062c-0.049-0.08-0.117-0.14-0.215-0.199c-0.957-1.125-3.809-2.699-4.922-3.309
	c-1.152-0.588-3.477,0.957-4.609,1.714c-1.133,0.737-2.285,1.713-3.457,2.182c-0.039,0-0.059,0.062-0.116,0.062
	c-0.029,0-0.029,0-0.05,0.039c-0.02,0-0.078,0.04-0.106,0.04c-0.021,0-0.021,0-0.039,0c-0.06,0.061-0.098,0.061-0.116,0.079h-0.05
	c-1.337,0.567-3.604,1.715-4.109,2.552c-0.625,0.977-2.48,2.452-4.386,3.408c-1.122,0.609-3.584,1.654-5.614,2.672
	c-1.017-0.997-1.953-1.924-2.812-2.701c-0.02-0.039-0.059-0.039-0.078-0.061c-0.127-0.1-0.215-0.208-0.293-0.27
	c-0.039-0.039-0.059-0.061-0.117-0.119c-0.059-0.08-0.176-0.158-0.215-0.199c-0.049-0.059-0.078-0.079-0.117-0.159
	c-0.098-0.06-0.137-0.119-0.215-0.14c-0.039-0.039-0.078-0.08-0.117-0.119c-0.029-0.062-0.098-0.141-0.156-0.16
	c-0.039-0.039-0.088-0.059-0.155-0.118c-0.039-0.041-0.106-0.08-0.156-0.142c-0.039-0.039-0.099-0.078-0.116-0.078
	c-0.06-0.039-0.117-0.062-0.156-0.141c-0.039-0.039-0.078-0.039-0.107-0.061c-0.049-0.062-0.088-0.062-0.127-0.08
	c-0.02,0-0.039-0.04-0.059-0.04c-0.068-0.062-0.117-0.08-0.195-0.08c-1.348-0.485-2.832-1.834-2.832-1.834s-4.59,4.865-5.195,5.022
	c-0.059,0-0.117,0.062-0.176,0.062h-0.039c-0.039,0.04-0.078,0.04-0.137,0.08l0,0l0,0c-0.605,0.271-1.387,0.797-1.387,0.797
	s-5.195-6.815-7.295-7.573c-1.847-0.697-3.097-2.104-4.64-3.539l0,0c0,0-0.021,0-0.021-0.04l-0.02-0.06
	c-0.117-0.12-0.215-0.199-0.293-0.289c0-0.114-0.098-0.203-0.234-0.323c-1.895-1.615-9.375-8.541-9.375-8.541l-1.483,0.638
	l-2.296-1.515c0,0-3.622,3.797-3.993,4.375c-0.392,0.568-1.738,1.595-2.48,2.551c-0.205,0.27-0.547,0.698-0.986,1.186l0,0
	c-1.133,1.306-2.861,3.11-4.365,3.738c-2.109,0.837-5.747,3.309-5.747,3.309s-0.62-0.568-1.318-1.246l0,0
	c-0.22-0.21-0.459-0.47-0.698-0.679l0,0c-0.073-0.08-0.142-0.159-0.21-0.209c-0.02,0-0.02-0.04-0.054-0.04
	c-0.068-0.08-0.117-0.159-0.186-0.208c-0.024,0-0.024-0.04-0.054-0.04c-0.049-0.08-0.117-0.12-0.171-0.199
	c-0.02,0-0.02-0.06-0.039-0.06c-0.049-0.061-0.117-0.12-0.171-0.18l-0.02-0.06c-0.049-0.06-0.117-0.14-0.166-0.199
	c-0.962-1.106-3.823-2.721-4.971-3.309c-1.113-0.568-3.394,0.977-4.541,1.754c-1.152,0.717-2.28,1.714-3.433,2.163
	c-0.049,0-0.068,0.06-0.117,0.06c-0.02,0-0.02,0-0.049,0.041c-0.02-0.011-0.073,0.029-0.093,0.029s-0.02,0-0.049,0
	c-0.049,0.06-0.103,0.06-0.122,0.079h0.054c-1.323,0.588-3.623,1.735-4.13,2.571c-0.581,0.957-2.471,2.432-4.39,3.408
	c-1.133,0.588-3.604,1.653-5.62,2.633c-0.962-0.959-1.943-1.924-2.812-2.692c0.083-0.021,0.054-0.021,0.029-0.06
	c-0.088-0.08-0.19-0.199-0.288-0.25c-0.039-0.039-0.068-0.061-0.122-0.119c-0.068-0.101-0.146-0.159-0.21-0.209
	c-0.049-0.049-0.068-0.061-0.117-0.119c-0.068-0.08-0.122-0.119-0.19-0.16c-0.049-0.039-0.068-0.059-0.122-0.118
	c-0.049-0.041-0.107-0.09-0.156-0.11c-0.054-0.06-0.073-0.08-0.122-0.119c-0.049-0.08-0.088-0.1-0.142-0.141
	c-0.02-0.06-0.068-0.08-0.098-0.08c-0.049-0.049-0.103-0.068-0.142-0.106c-0.02-0.062-0.068-0.062-0.098-0.08
	c-0.054-0.062-0.103-0.062-0.122-0.08c-0.02,0-0.039-0.062-0.068-0.062c-0.049-0.039-0.103-0.059-0.151-0.059
	c-1.338-0.45-2.861-1.766-2.861-1.766s-4.58,4.845-5.156,5.021c-0.044,0-0.093,0.062-0.142,0.062h-0.02
	c-0.049,0.029-0.103,0.029-0.142,0.049l0,0l0,0c-0.601,0.29-1.401,0.816-1.401,0.816s-5.107-6.776-7.197-7.494
	c-1.831-0.697-3.071-2.104-4.629-3.539l0,0c0,0-0.02,0-0.02-0.06l-0.024-0.04c-0.088-0.12-0.186-0.189-0.308-0.269
	c-0.122-0.1-0.239-0.219-0.361-0.329c-1.919-1.623-9.36-8.55-9.36-8.55l-1.539,0.569L38.111,0c0,0-3.618,3.817-4.009,4.375
	c-0.381,0.588-1.724,1.595-2.471,2.572c-0.21,0.249-0.552,0.678-0.981,1.166l0,0c-1.127,1.326-2.86,3.129-4.37,3.717
	c-2.109,0.837-5.737,3.329-5.737,3.329s-0.62-0.567-1.323-1.246l0,0c-0.21-0.199-0.449-0.468-0.688-0.679l0,0
	c-0.068-0.078-0.151-0.158-0.22-0.217c-0.02,0-0.02-0.062-0.049-0.062c-0.073-0.062-0.122-0.13-0.19-0.17
	c-0.02,0-0.02-0.061-0.054-0.061c-0.039-0.08-0.117-0.119-0.166-0.199c-0.02,0-0.02-0.042-0.054-0.042
	c-0.049-0.079-0.117-0.119-0.166-0.199l-0.02-0.05c-0.054-0.055-0.122-0.135-0.171-0.175c-0.962-1.126-3.813-2.741-4.971-3.33
	c-1.152-0.578-3.433,0.958-4.58,1.715c-1.152,0.767-2.28,1.734-3.433,2.183c-0.049,0-0.068,0.04-0.117,0.04
	c-0.02,0-0.02,0-0.049,0.061c-0.024,0-0.073,0.061-0.103,0.061s-0.02,0-0.049,0c-0.049,0.04-0.093,0.04-0.122,0.062h-0.01
	C2.779,13.404,0.669,14.48,0,15.318V24H240z"/>
</svg>
