<?xml version="1.0" encoding="utf-8"?>
<svg version="1.1" class="uncode-row-divider" xmlns="http://www.w3.org/2000/svg" xmlns:xlink="http://www.w3.org/1999/xlink" x="0px" y="0px"
	 width="240px" height="24px" viewBox="0 0 240 24" enable-background="new 0 0 240 24" xml:space="preserve" preserveAspectRatio="none">
<path fill="#464D54" d="M0,16.754c0.668-0.888,2.768-2.017,4.017-2.62h0.02c0.024-0.052,0.073-0.052,0.122-0.072
	c0.02,0,0.02,0,0.048,0c0.029,0,0.073-0.043,0.103-0.043c0.02-0.053,0.02-0.053,0.049-0.053c0.039,0,0.068-0.053,0.122-0.053
	c1.137-0.508,2.274-1.542,3.407-2.334c1.147-0.813,3.437-2.461,4.579-1.86c1.147,0.624,3.997,2.346,4.958,3.591
	c0.049,0.043,0.117,0.116,0.166,0.189l0.024,0.055c0.039,0.072,0.117,0.127,0.166,0.209c0.024,0,0.024,0.045,0.054,0.045
	c0.049,0.072,0.117,0.125,0.176,0.209c0.024,0,0.024,0.045,0.054,0.045c0.059,0.052,0.107,0.136,0.181,0.209
	c0.02,0,0.02,0.056,0.049,0.056c0.068,0.071,0.151,0.146,0.21,0.221c0.239,0.224,0.478,0.519,0.698,0.729
	c0.693,0.74,1.333,1.343,1.333,1.343s3.597-2.642,5.715-3.57c1.508-0.655,3.241-2.608,4.368-4.036
	c0.43-0.53,0.771-0.984,0.981-1.269c0.747-1.046,2.079-2.156,2.47-2.769C34.434,4.361,38.056,0,38.056,0H0V16.754z M38.017,0
	l2.279,1.87l1.538-0.624c0,0,7.429,7.479,9.347,9.201c0.127,0.126,0.229,0.232,0.361,0.359c0.117,0.127,0.205,0.211,0.308,0.306
	l0.02,0.053c0,0.053,0.02,0.053,0.02,0.053c1.562,1.542,2.801,3.074,4.617,3.805c2.079,0.821,7.238,8.175,7.238,8.175
	s0.781-0.603,1.381-0.888c0.049-0.062,0.098-0.062,0.146-0.084h0.024c0.049,0,0.098-0.062,0.146-0.062
	c0.581-0.212,5.149-5.41,5.149-5.41s1.499,1.468,2.841,1.966c0.049,0,0.098,0.073,0.146,0.096c0.02,0,0.044,0.041,0.073,0.041
	c0.02,0.062,0.078,0.062,0.127,0.084c0.019,0.063,0.073,0.063,0.092,0.105c0.049,0.042,0.098,0.062,0.146,0.127
	c0.024,0,0.073,0.042,0.112,0.074c0.039,0.052,0.088,0.072,0.142,0.137c0.049,0.043,0.068,0.096,0.117,0.139
	c0.049,0.041,0.103,0.104,0.151,0.125c0.049,0.074,0.068,0.097,0.117,0.149c0.073,0.021,0.122,0.04,0.19,0.125
	c0.054,0.044,0.073,0.085,0.122,0.129c0.068,0.041,0.141,0.138,0.209,0.224c0.049,0.053,0.068,0.084,0.122,0.138
	c0.107,0.062,0.21,0.211,0.288,0.254c0.02,0.052,0.049,0.052,0.068,0.084c0.849,0.834,1.85,1.892,2.802,2.916
	c2.016-1.078,4.476-2.251,5.608-2.853c1.918-1.06,3.817-2.644,4.378-3.698c0.498-0.909,2.807-2.155,4.115-2.759l0,0
	c0.024-0.053,0.073-0.053,0.122-0.073c0.02,0,0.02,0,0.049,0s0.083-0.052,0.103-0.052c0.02-0.055,0.02-0.055,0.049-0.055
	c0.049,0,0.068-0.063,0.122-0.063c1.138-0.484,2.27-1.521,3.417-2.312c1.152-0.812,3.417-2.45,4.578-1.849
	c1.137,0.604,3.997,2.334,4.959,3.57c0.049,0.054,0.117,0.127,0.181,0.223l0.02,0.054c0.049,0.073,0.117,0.126,0.17,0.2
	c0.02,0,0.02,0.052,0.039,0.052c0.049,0.075,0.117,0.14,0.181,0.212c0.02,0,0.02,0.055,0.049,0.055
	c0.068,0.053,0.117,0.127,0.19,0.201c0.02,0,0.02,0.053,0.049,0.053c0.068,0.084,0.151,0.156,0.21,0.222
	c0.229,0.222,0.468,0.508,0.678,0.739c0.693,0.719,1.333,1.343,1.333,1.343s3.592-2.642,5.701-3.571
	c1.513-0.654,3.241-2.608,4.383-4.035c0.429-0.541,0.771-0.995,0.986-1.259c0.742-1.055,2.089-2.154,2.479-2.777
	c0.391-0.613,3.973-4.702,3.973-4.702l2.294,1.638l1.533-0.612c0,0,7.419,7.479,9.342,9.211c0.146,0.126,0.226,0.221,0.371,0.348
	c0.116,0.127,0.205,0.211,0.282,0.295l0.039,0.042c0,0.063,0.02,0.063,0.02,0.063c1.562,1.542,2.812,3.063,4.639,3.792
	c2.049,0.812,7.242,8.155,7.242,8.155s0.801-0.604,1.405-0.889c0.078-0.062,0.116-0.062,0.176-0.097h0.021
	c0.059,0,0.117-0.052,0.156-0.052c0.586-0.2,5.153-5.397,5.153-5.397s1.503,1.447,2.851,1.965c0.039,0,0.098,0.053,0.137,0.072
	c0.059,0,0.098,0.062,0.117,0.062c0.02,0.043,0.078,0.043,0.117,0.062c0.02,0.074,0.098,0.074,0.137,0.097
	c0.039,0.053,0.098,0.085,0.137,0.126c0.039,0,0.098,0.062,0.117,0.105c0.059,0.041,0.098,0.062,0.137,0.125
	c0.059,0.057,0.078,0.086,0.176,0.129c0.039,0.053,0.117,0.138,0.156,0.181c0.078,0.041,0.098,0.063,0.156,0.127
	c0.078,0.043,0.137,0.073,0.205,0.159c0.059,0.053,0.078,0.084,0.127,0.137c0.078,0.074,0.156,0.137,0.215,0.223
	c0.059,0.053,0.078,0.084,0.156,0.127c0.098,0.094,0.195,0.224,0.252,0.284c0.039,0.042,0.06,0.042,0.078,0.063
	c0.859,0.845,1.875,1.881,2.772,2.927c2.011-1.101,4.472-2.251,5.623-2.862c1.894-1.048,3.826-2.644,4.373-3.679
	c0.537-0.908,2.812-2.152,4.14-2.756h0.02c0.02-0.053,0.088-0.053,0.146-0.074c0.02,0,0.02,0,0.039,0
	c0.038,0,0.106-0.062,0.127-0.062c0.02-0.055,0.02-0.055,0.059-0.055s0.059-0.054,0.127-0.054c1.143-0.507,2.273-1.542,3.438-2.333
	c1.131-0.812,3.444-2.46,4.567-1.849c1.132,0.612,3.974,2.333,4.959,3.582c0.039,0.043,0.146,0.127,0.205,0.201l0.021,0.051
	c0.039,0.086,0.127,0.141,0.166,0.214c0.039,0,0.039,0.052,0.077,0.052c0.039,0.075,0.146,0.129,0.187,0.202
	c0.019,0,0.019,0.062,0.058,0.062c0.067,0.055,0.127,0.129,0.205,0.201c0.021,0,0.021,0.053,0.049,0.053
	c0.099,0.074,0.177,0.158,0.205,0.225c0.205,0.221,0.498,0.506,0.674,0.729c0.664,0.729,1.308,1.341,1.308,1.341
	s3.623-2.641,5.74-3.567c1.475-0.656,3.213-2.611,4.373-4.026c0.43-0.528,0.723-0.993,0.978-1.268
	c0.741-1.035,2.089-2.155,2.479-2.768c0.37-0.612,3.963-4.712,3.963-4.712l2.293,1.649l1.523-0.614c0,0,7.391,7.48,9.361,9.191
	c0.137,0.137,0.215,0.222,0.332,0.358c0.154,0.138,0.214,0.211,0.312,0.307l0.021,0.042c0,0.053,0.02,0.053,0.02,0.053
	c1.543,1.542,2.792,3.074,4.627,3.801c1.445,0.581,4.237,4.107,5.916,6.34V0H38.017L38.017,0z"/>
</svg>
