<?xml version="1.0" encoding="utf-8"?>
<svg version="1.1" class="uncode-row-divider" xmlns="http://www.w3.org/2000/svg" xmlns:xlink="http://www.w3.org/1999/xlink" x="0px" y="0px"
	 width="240px" height="24px" viewBox="0 0 240 24" enable-background="new 0 0 240 24" xml:space="preserve" preserveAspectRatio="none">
<path fill="#464D54" fill-opacity="0.33" d="M240,0H0v23.539c4.321,0.414,15.532,1.113,30.21-0.912
	c20.112-2.798,32.139-6.213,51.309-6.309c19.902-0.073,39.072,3.361,63.754,1.07c24.806-2.301,42.91-15.015,94.707-15.015"/>
<path fill="#464D54" fill-opacity="0.33" d="M240,0H0v23.359c4.321,0.468,15.532,1.25,30.21-0.987
	c20.112-3.085,32.139-6.827,51.309-6.923c19.902-0.074,39.072,5.874,63.754,3.361c24.806-2.524,42.91-14.867,94.707-14.867"/>
<path fill="#464D54" d="M0,23.338c4.321,0.455,15.532,1.241,30.21-0.996c20.112-3.105,32.139-6.871,51.309-6.977
	c19.902-0.098,39.072,3.699,63.754,1.145C170.117,13.975,188.203,0,240,0H0V23.338z"/>
</svg>
