<?xml version="1.0" encoding="utf-8"?>
<svg version="1.1" class="uncode-row-divider" xmlns="http://www.w3.org/2000/svg" xmlns:xlink="http://www.w3.org/1999/xlink" x="0px" y="0px"
	 width="240px" height="24px" viewBox="0 0 240 24" enable-background="new 0 0 240 24" xml:space="preserve" preserveAspectRatio="none">
<path fill="#464D54" d="M0,0v14.182c3.124-1.22,6.56-2.13,10.27-2.708c17.499-2.73,24.44,5.98,43.547,11.129
	C80.628,29.842,93.06,3.44,117.158,3.44c22.631,0,40.458,26.955,65.074,18.553c14.645-5.021,19.015-13.912,39.855-17.623
	c7.049-1.25,12.926-1.79,17.912-1.02V0"/>
<path fill="#464D54" fill-opacity="0.33" d="M0,0v13.372c3.764-0.791,7.63-1.391,10.323-1.801
	c17.298-2.74,24.341,5.98,47.129,11.132C89.473,29.934,92.539,4.58,118.224,4.58c24.092,0,45.193,22.971,67.344,14.572
	c13.188-5.021,19.053-13.632,39.426-17.354C230.469,0.81,235.387,0.3,240,0.48V0"/>
<path fill="#464D54" fill-opacity="0.33" d="M0,0v18.102c4.434-2.317,9.751-4,15.885-4.869c17.067-2.378,23.832,5.16,42.482,9.621
	C84.5,29.109,96.594,6.26,120.117,6.26c22.078,0,39.531,23.332,63.539,16.063c14.271-4.341,18.572-12.032,38.865-15.242
	C229.402,5.98,235.171,5.55,240,6.19V0"/>
</svg>
