<?xml version="1.0" encoding="utf-8"?>
<svg version="1.1" class="uncode-row-divider" xmlns="http://www.w3.org/2000/svg" xmlns:xlink="http://www.w3.org/1999/xlink" x="0px" y="0px"
	 width="240px" height="24px" viewBox="0 0 240 24" enable-background="new 0 0 240 24" xml:space="preserve" preserveAspectRatio="none">
<path fill="#464D54" fill-opacity="0.33" d="M239.971,0.038c-4.61-0.19-9.552,0.34-15,1.32
	c-20.395,3.721-26.233,12.311-39.419,17.292c-22.208,8.379-41.546-14.521-65.619-14.521c-25.681,0-30.486,25.262-62.506,18.051
	C34.632,16.999,27.625,8.329,10.323,11.059c-2.71,0.44-6.553,1.04-10.323,1.81V24h240V0.038H239.971z"/>
<path fill="#464D54" fill-opacity="0.33" d="M222.049,3.889c-20.803,3.72-25.198,12.582-39.849,17.582
	c-24.611,8.399-40.728-18.493-63.342-18.493c-24.124,0-38.287,26.312-65.082,19.102C34.707,16.919,27.743,8.239,10.27,10.979
	c-3.717,0.59-7.149,1.52-10.27,2.72V24h240V2.888C234.979,2.148,229.1,2.638,222.049,3.889z"/>
<path fill="#464D54" d="M239.99,5.699c-4.825-0.64-10.606-0.21-17.48,0.89C202.234,9.81,197.917,17.48,183.618,21.8
	c-23.967,7.28-39.71-16.011-61.787-16.011c-23.521,0-37.345,22.751-63.486,16.542C39.701,17.88,32.922,10.35,15.861,12.73
	C9.751,13.58,4.438,15.29,0,19.423V24h240V7.152L239.99,5.699z"/>
</svg>
