<?xml version="1.0" encoding="utf-8"?>
<!-- Generator: Adobe Illustrator 20.1.0, SVG Export Plug-In . SVG Version: 6.00 Build 0)  -->
<svg version="1.1" id="Layer_1" height="24" width="24" xmlns="http://www.w3.org/2000/svg" xmlns:xlink="http://www.w3.org/1999/xlink" x="0px" y="0px"
	 viewBox="0 0 125 125" style="enable-background:new 0 0 125 125;" xml:space="preserve">
<style type="text/css">
	.st0{fill:#E3EAEC;}
	.st1{fill:#1080D0;}
	.st2{fill:#45515B;}
</style>
<g>
	<g id="XMLID_688_">
		<path class="st0" d="M77.1,71.7c-0.1,0-0.3,0-0.4-0.1c-0.4-0.2-0.6-0.6-0.6-1l2.1-16.5h-1.1c-0.6,0-1-0.4-1-1s0.4-1,1-1h2.2
			c0.3,0,0.6,0.1,0.7,0.3c0.2,0.2,0.3,0.5,0.2,0.8l-1.8,14.3l13.2-15.1c0.2-0.2,0.5-0.3,0.8-0.3h13.2c4.3,0,7.8-3.5,7.8-7.8V26.8
			c0-4.3-3.5-7.8-7.8-7.8H61.7c-4.3,0-7.8,3.5-7.8,7.8c0,0.6-0.4,1-1,1s-1-0.4-1-1c0-5.4,4.4-9.8,9.8-9.8h43.9
			c5.4,0,9.8,4.4,9.8,9.8v17.6c0,5.4-4.4,9.8-9.8,9.8H92.9L77.8,71.4C77.6,71.6,77.3,71.7,77.1,71.7z"/>
		<path class="st0" d="M92.4,111.3c-0.4,0-0.9-0.3-1-0.8l-2.1-8.3c-0.8-3.1-3.1-5.6-6.1-6.6L68,90.6c-5.5-2.3-7.6-6.5-7.6-8.6
			c0-0.3,0.1-0.6,0.4-0.8c2.4-2,4.8-5.3,4.8-7.8c0-2.7,1.2-3.8,1.9-4.2c0.4-1,1.5-4.1,1.5-6c-0.1-0.3-0.4-0.9-0.7-0.9
			c-0.6,0-1-0.4-1-1V51.1c0-5.5-1.9-6.6-2.7-7.1c-0.4-0.2-0.8-0.5-0.9-1.1c0-0.2,0-0.4,0.1-0.6c-0.2-1.7-2.5-5.6-11-5.6
			c-9.6,0-14.5,9.3-14.5,14.5v10.3c0,0.6-0.4,1-1,1c-0.4,0-0.6,0.6-0.7,0.9c0.1,2,1.1,5,1.5,6c0.7,0.4,1.9,1.5,1.9,4.2
			c0,2.5,2.4,5.9,4.8,7.8c0.2,0.2,0.4,0.5,0.4,0.8c0,2.1-2,6.3-7.5,8.6l-15.3,5.1c-3,1-5.3,3.5-6.1,6.6l-2.1,8.3
			c-0.1,0.5-0.7,0.9-1.2,0.7c-0.5-0.1-0.9-0.7-0.7-1.2l2.1-8.3c0.9-3.8,3.7-6.8,7.4-8l15.3-5.1c4.2-1.7,5.9-4.8,6.1-6.3
			c-2.6-2.3-5.1-5.9-5.1-9c0-2.1-1-2.5-1-2.5c-0.3-0.1-0.5-0.3-0.6-0.6c-0.1-0.2-1.8-4.5-1.8-7.2c0-0.1,0-0.2,0-0.2
			c0.2-0.7,0.7-1.8,1.7-2.3v-9.5c0-6.9,6.3-16.5,16.5-16.5c9.3,0,12.9,4.7,13,7.7c1.1,0.7,3.4,2.5,3.4,8.7v9.5
			c1,0.5,1.5,1.5,1.7,2.3c0,0.1,0,0.2,0,0.2c0,2.7-1.7,7.1-1.8,7.2c-0.1,0.3-0.4,0.5-0.7,0.6c0,0-1,0.4-1,2.5c0,3.2-2.5,6.7-5.1,9
			c0.3,1.5,2,4.5,6.2,6.3l15.2,5.1c3.7,1.2,6.5,4.2,7.4,8l2.1,8.3c0.1,0.5-0.2,1.1-0.7,1.2C92.6,111.3,92.5,111.3,92.4,111.3z
			 M65.6,43.2C65.6,43.2,65.6,43.2,65.6,43.2C65.6,43.2,65.6,43.2,65.6,43.2z"/>
	</g>
	<g id="XMLID_685_">
		<path class="st1" d="M75.1,69.3c-0.1,0-0.3,0-0.4-0.1c-0.4-0.2-0.6-0.6-0.6-1l2.1-16.5h-1.1c-0.6,0-1-0.4-1-1s0.4-1,1-1h2.2
			c0.3,0,0.6,0.1,0.7,0.3c0.2,0.2,0.3,0.5,0.2,0.8l-1.8,14.3L89.8,50c0.2-0.2,0.5-0.3,0.8-0.3h13.2c4.3,0,7.8-3.5,7.8-7.8V24.3
			c0-4.3-3.5-7.8-7.8-7.8H59.8c-4.3,0-7.8,3.5-7.8,7.8c0,0.6-0.4,1-1,1s-1-0.4-1-1c0-5.4,4.4-9.8,9.8-9.8h43.9
			c5.4,0,9.8,4.4,9.8,9.8v17.6c0,5.4-4.4,9.8-9.8,9.8H91L75.9,68.9C75.7,69.2,75.4,69.3,75.1,69.3z"/>
		<path class="st2" d="M90.5,108.8c-0.4,0-0.9-0.3-1-0.8l-2.1-8.3c-0.8-3.1-3.1-5.6-6.1-6.6l-15.3-5.1c-5.5-2.3-7.6-6.5-7.6-8.6
			c0-0.3,0.1-0.6,0.4-0.8c2.4-2,4.8-5.3,4.8-7.8c0-2.7,1.2-3.8,1.9-4.2c0.4-1,1.5-4.1,1.5-6c-0.1-0.3-0.4-0.9-0.7-0.9
			c-0.6,0-1-0.4-1-1V48.6c0-5.5-1.9-6.6-2.7-7.1c-0.4-0.2-0.8-0.5-0.9-1.1c0-0.2,0-0.4,0.1-0.6c-0.2-1.7-2.5-5.6-11-5.6
			c-9.6,0-14.5,9.3-14.5,14.5v10.3c0,0.6-0.4,1-1,1c-0.4,0-0.6,0.6-0.7,0.9c0,1.8,1,4.7,1.5,6c0.7,0.4,1.9,1.5,1.9,4.2
			c0,2.5,2.4,5.9,4.8,7.8c0.2,0.2,0.4,0.5,0.4,0.8c0,2.1-2,6.3-7.5,8.6l-15.3,5.1c-3,1-5.3,3.5-6.1,6.6l-2.1,8.3
			c-0.1,0.5-0.7,0.9-1.2,0.7c-0.5-0.1-0.9-0.7-0.7-1.2l2.1-8.3c0.9-3.8,3.7-6.8,7.4-8l15.3-5.1c4.2-1.7,5.9-4.8,6.1-6.3
			c-2.6-2.3-5.1-5.9-5.1-9c0-2.1-1-2.5-1-2.5c-0.3-0.1-0.5-0.3-0.6-0.6c-0.1-0.2-1.8-4.5-1.8-7.2c0-0.1,0-0.2,0-0.2
			c0.2-0.7,0.7-1.8,1.7-2.3v-9.5c0-6.9,6.3-16.5,16.5-16.5c9.3,0,12.9,4.7,13,7.7c1.1,0.7,3.4,2.5,3.4,8.7v9.5
			c1,0.5,1.5,1.5,1.7,2.3c0,0.1,0,0.2,0,0.2c0,2.7-1.7,7.1-1.8,7.2c-0.1,0.3-0.4,0.5-0.7,0.6c0,0-1,0.4-1,2.5c0,3.2-2.5,6.7-5.1,9
			c0.3,1.5,2,4.5,6.2,6.3L82,91.3c3.7,1.2,6.5,4.2,7.4,8l2.1,8.3c0.1,0.5-0.2,1.1-0.7,1.2C90.7,108.8,90.6,108.8,90.5,108.8z
			 M63.7,40.7C63.7,40.7,63.7,40.7,63.7,40.7C63.7,40.7,63.7,40.7,63.7,40.7z"/>
	</g>
</g>
</svg>
