<?xml version="1.0" encoding="utf-8"?>
<!-- Generator: Adobe Illustrator 21.0.0, SVG Export Plug-In . SVG Version: 6.00 Build 0)  -->
<svg version="1.1" id="Layer_1" height="24" width="24" xmlns="http://www.w3.org/2000/svg" xmlns:xlink="http://www.w3.org/1999/xlink" x="0px" y="0px"
	 viewBox="0 0 125 125" style="enable-background:new 0 0 125 125;" xml:space="preserve">
<style type="text/css">
	.st0{fill:none;stroke:#E8E8E8;stroke-width:2;stroke-linecap:round;stroke-linejoin:round;stroke-miterlimit:10;}
	.st1{fill:none;stroke:#E8E8E8;stroke-width:2;stroke-linecap:round;stroke-miterlimit:10;}
	.st2{fill:none;stroke:#4F4F4F;stroke-width:2;stroke-linecap:round;stroke-linejoin:round;stroke-miterlimit:10;}
	.st3{fill:none;stroke:#1080D0;stroke-width:2;stroke-linecap:round;stroke-linejoin:round;stroke-miterlimit:10;}
	.st4{fill:none;stroke:#4F4F4F;stroke-width:2;stroke-linecap:round;stroke-miterlimit:10;}
</style>
<g>
	<path id="XMLID_638_" class="st0" d="M98.8,40.9v68.8H39h-4c-5.6,0-9-4.5-9-10.1V30.8"/>
	<path id="XMLID_636_" class="st0" d="M46.2,40.9h-9.2c-5.6,0-11-4.5-11-10.1v-4c0-5.6,5.4-10.1,11-10.1h61.8
		c-5.3,5.3-5.2,19.1,0,24.3H70.5"/>
	<line id="XMLID_631_" class="st1" x1="36.1" y1="28.7" x2="94.7" y2="28.7"/>
	<polyline id="XMLID_629_" class="st0" points="46.2,28.7 46.2,77.3 58.3,65.2 70.5,77.3 70.5,28.7 	"/>
	<path id="XMLID_634_" class="st2" d="M97.1,39.5v68.8H37.3h-4c-5.6,0-9-4.5-9-10.1V29.3"/>
	<polyline id="XMLID_630_" class="st3" points="44.5,27.3 44.5,75.9 56.7,63.8 68.8,75.9 68.8,27.3 	"/>
	<path id="XMLID_633_" class="st2" d="M44.5,39.5h-9.2c-5.6,0-11-4.5-11-10.1v-4c0-5.6,5.4-10.1,11-10.1h61.8
		c-5.3,5.3-5.2,19.1,0,24.3H68.8"/>
	<line id="XMLID_632_" class="st4" x1="34.4" y1="27.3" x2="93.1" y2="27.3"/>
</g>
</svg>
