<?xml version="1.0" encoding="utf-8"?>
<!-- Generator: Adobe Illustrator 20.1.0, SVG Export Plug-In . SVG Version: 6.00 Build 0)  -->
<svg version="1.1" id="Layer_1" height="24" width="24" xmlns="http://www.w3.org/2000/svg" xmlns:xlink="http://www.w3.org/1999/xlink" x="0px" y="0px"
	 viewBox="0 0 125 125" style="enable-background:new 0 0 125 125;" xml:space="preserve">
<style type="text/css">
	.st0{fill:#E3EAEC;}
	.st1{fill:#1080D0;}
	.st2{fill:#45515B;}
</style>
<g>
	<g id="XMLID_802_">
		<g id="XMLID_810_">
			<g id="XMLID_811_">
				<g id="XMLID_812_">
					<g id="XMLID_814_">
						<g id="XMLID_815_">
							<path class="st0" d="M96.2,115.1c-0.2,0-0.4-0.1-0.6-0.2c-0.2-0.2-0.4-0.4-0.4-0.7c-0.2-1.7-1.6-3.1-3.3-3.1
								c-1.7,0-3.1,1.3-3.3,3.1c0,0.3-0.2,0.5-0.4,0.7s-0.5,0.2-0.8,0.2c-4.9-1-9.3-3.5-12.7-7.4c-0.2-0.2-0.3-0.5-0.2-0.8
								c0-0.3,0.2-0.5,0.4-0.7c1.4-1.1,1.8-2.9,0.9-4.4c-0.8-1.5-2.6-2-4.2-1.4c-0.3,0.1-0.5,0.1-0.8,0s-0.4-0.3-0.5-0.6
								c-0.9-2.6-1.3-5-1.3-7.3c0-2.3,0.4-4.7,1.3-7.3c0.1-0.3,0.3-0.5,0.5-0.6c0.3-0.1,0.5-0.1,0.8,0c1.6,0.7,3.4,0.1,4.2-1.4
								c0.8-1.5,0.5-3.3-0.9-4.4c-0.2-0.2-0.4-0.4-0.4-0.7s0.1-0.6,0.2-0.8c3.4-3.9,7.8-6.4,12.7-7.4c0.3-0.1,0.6,0,0.8,0.2
								c0.2,0.2,0.4,0.4,0.4,0.7c0.2,1.7,1.6,3.1,3.3,3.1c1.7,0,3.1-1.3,3.3-3.1c0-0.3,0.2-0.5,0.4-0.7c0.2-0.2,0.5-0.2,0.8-0.2
								c4.9,1,9.3,3.5,12.7,7.4c0.2,0.2,0.3,0.5,0.2,0.8s-0.2,0.5-0.4,0.7c-1.4,1.1-1.8,2.9-1,4.4c0.8,1.5,2.6,2,4.2,1.4
								c0.3-0.1,0.5-0.1,0.8,0c0.3,0.1,0.4,0.3,0.5,0.6c0.9,2.6,1.3,5,1.3,7.3c0,2.3-0.4,4.7-1.3,7.3c-0.1,0.3-0.3,0.5-0.5,0.6
								c-0.3,0.1-0.5,0.1-0.8,0c-1.6-0.7-3.4-0.1-4.2,1.4l0,0c-0.8,1.5-0.4,3.3,1,4.4c0.2,0.2,0.4,0.4,0.4,0.7
								c0,0.3-0.1,0.6-0.2,0.8c-3.4,3.9-7.8,6.4-12.7,7.4C96.3,115.1,96.2,115.1,96.2,115.1z M76.8,107.1c2.8,2.9,6.2,4.9,10,5.8
								c0.7-2.2,2.7-3.8,5.1-3.8c2.4,0,4.4,1.6,5.1,3.8c3.8-0.9,7.2-2.9,10-5.8c-1.5-1.7-1.8-4.2-0.7-6.2c1.2-2,3.5-3,5.7-2.5
								c0.6-2,0.9-3.9,0.9-5.8s-0.3-3.7-0.9-5.8c-2.2,0.5-4.6-0.5-5.7-2.5c-1.2-2-0.8-4.5,0.7-6.2c-2.8-2.9-6.2-4.9-10-5.8
								c-0.7,2.2-2.7,3.8-5.1,3.8c-2.4,0-4.4-1.6-5.1-3.8c-3.8,0.9-7.2,2.9-10,5.8c1.5,1.7,1.8,4.2,0.7,6.2c-1.2,2-3.5,3-5.7,2.5
								c-0.6,2-0.9,3.9-0.9,5.8s0.3,3.7,0.9,5.8c2.2-0.5,4.6,0.5,5.7,2.5C78.7,102.9,78.3,105.4,76.8,107.1z M107.1,101.4
								L107.1,101.4L107.1,101.4z"/>
						</g>
					</g>
					<path class="st0" d="M91.9,102.4c-5.4,0-9.8-4.4-9.8-9.8s4.4-9.8,9.8-9.8c5.4,0,9.8,4.4,9.8,9.8S97.3,102.4,91.9,102.4z
						 M91.9,84.8c-4.3,0-7.8,3.5-7.8,7.8c0,4.3,3.5,7.8,7.8,7.8s7.8-3.5,7.8-7.8C99.6,88.3,96.2,84.8,91.9,84.8z"/>
				</g>
			</g>
		</g>
		<g id="XMLID_803_">
			<path class="st0" d="M61.1,111.2c-27.2,0-49.3-22.1-49.3-49.3s22.1-49.3,49.3-49.3s49.3,22.1,49.3,49.3c0,1.7-0.1,3.5-0.3,5.4
				c-0.1,0.5-0.5,0.9-1.1,0.9c-0.5-0.1-0.9-0.6-0.9-1.1c0.2-1.8,0.3-3.5,0.3-5.2c0-26.1-21.2-47.3-47.3-47.3S13.8,35.7,13.8,61.8
				s21.2,47.3,47.3,47.3c1.7,0,3.4-0.1,5.2-0.3c0.5-0.1,1,0.3,1.1,0.9c0.1,0.5-0.3,1-0.9,1.1C64.6,111,62.8,111.2,61.1,111.2z"/>
			<path class="st0" d="M61.1,111.2C46,111.2,33.7,89,33.7,61.8S46,12.5,61.1,12.5s27.4,22.1,27.4,49.3c0,0.6-0.4,1-1,1s-1-0.4-1-1
				c0-26.1-11.4-47.3-25.4-47.3S35.7,35.7,35.7,61.8s11.4,47.3,25.4,47.3c0.6,0,1,0.4,1,1S61.7,111.2,61.1,111.2z"/>
			<path class="st0" d="M61.1,111.2c-0.6,0-1-0.4-1-1V13.5c0-0.6,0.4-1,1-1s1,0.4,1,1v96.7C62.1,110.7,61.7,111.2,61.1,111.2z"/>
			<path class="st0" d="M109.4,62.8H12.8c-0.6,0-1-0.4-1-1s0.4-1,1-1h96.7c0.6,0,1,0.4,1,1S110,62.8,109.4,62.8z"/>
			<path class="st0" d="M100.6,36.5H21.6c-0.6,0-1-0.4-1-1s0.4-1,1-1h79.1c0.6,0,1,0.4,1,1S101.2,36.5,100.6,36.5z"/>
			<path class="st0" d="M61.1,89.2H21.6c-0.6,0-1-0.4-1-1s0.4-1,1-1h39.5c0.6,0,1,0.4,1,1S61.7,89.2,61.1,89.2z"/>
		</g>
	</g>
	<g id="XMLID_787_">
		<g id="XMLID_795_">
			<g id="XMLID_796_">
				<g id="XMLID_797_">
					<g id="XMLID_799_">
						<g id="XMLID_800_">
							<path class="st1" d="M94.2,112.6c-0.2,0-0.4-0.1-0.6-0.2c-0.2-0.2-0.4-0.4-0.4-0.7c-0.2-1.7-1.6-3.1-3.3-3.1
								c-1.7,0-3.1,1.3-3.3,3.1c0,0.3-0.2,0.5-0.4,0.7s-0.5,0.2-0.8,0.2c-4.9-1-9.3-3.5-12.7-7.4c-0.2-0.2-0.3-0.5-0.2-0.8
								c0-0.3,0.2-0.5,0.4-0.7c1.4-1.1,1.8-2.9,1-4.4c-0.8-1.5-2.6-2-4.2-1.4c-0.3,0.1-0.5,0.1-0.8,0c-0.3-0.1-0.4-0.3-0.5-0.6
								c-0.9-2.6-1.3-5-1.3-7.3c0-2.4,0.4-4.7,1.3-7.3c0.1-0.3,0.3-0.5,0.5-0.6c0.3-0.1,0.5-0.1,0.8,0c1.6,0.7,3.4,0.1,4.2-1.4
								c0.8-1.5,0.4-3.3-1-4.4c-0.2-0.2-0.4-0.4-0.4-0.7s0.1-0.6,0.2-0.8c3.4-3.9,7.8-6.4,12.7-7.4c0.3-0.1,0.6,0,0.8,0.2
								s0.4,0.4,0.4,0.7c0.2,1.7,1.6,3.1,3.3,3.1c1.7,0,3.1-1.3,3.3-3.1c0-0.3,0.2-0.5,0.4-0.7c0.2-0.2,0.5-0.2,0.8-0.2
								c4.9,1,9.3,3.5,12.7,7.4c0.2,0.2,0.3,0.5,0.2,0.8s-0.2,0.5-0.4,0.7c-1.4,1.1-1.8,2.9-0.9,4.4c0.8,1.5,2.6,2,4.2,1.4
								c0.3-0.1,0.5-0.1,0.8,0c0.3,0.1,0.4,0.3,0.5,0.6c0.9,2.6,1.3,5,1.3,7.3c0,2.4-0.4,4.7-1.3,7.3c-0.1,0.3-0.3,0.5-0.5,0.6
								c-0.3,0.1-0.5,0.1-0.8,0c-1.6-0.7-3.4-0.1-4.2,1.4c0,0,0,0,0,0c-0.8,1.5-0.5,3.3,0.9,4.4c0.2,0.2,0.4,0.4,0.4,0.7
								c0,0.3-0.1,0.6-0.2,0.8c-3.4,3.9-7.8,6.4-12.7,7.4C94.4,112.6,94.3,112.6,94.2,112.6z M74.9,104.6c2.8,2.9,6.2,4.9,10,5.8
								c0.7-2.2,2.7-3.8,5.1-3.8c2.4,0,4.4,1.6,5.1,3.8c3.8-0.9,7.2-2.9,10-5.8c-1.5-1.7-1.8-4.2-0.7-6.2c1.2-2,3.5-3,5.7-2.5
								c0.6-2,0.9-3.9,0.9-5.8c0-1.8-0.3-3.7-0.9-5.8c-2.2,0.5-4.6-0.5-5.7-2.5c-1.2-2-0.8-4.5,0.7-6.2c-2.8-2.9-6.2-4.9-10-5.8
								c-0.7,2.2-2.7,3.8-5.1,3.8c-2.4,0-4.4-1.6-5.1-3.8c-3.8,0.9-7.2,2.9-10,5.8c1.5,1.7,1.8,4.2,0.7,6.2c-1.2,2-3.5,3-5.7,2.5
								c-0.6,2-0.9,3.9-0.9,5.8c0,1.8,0.3,3.7,0.9,5.8c2.2-0.5,4.6,0.5,5.7,2.5C76.7,100.4,76.4,102.9,74.9,104.6z M105.2,98.9
								L105.2,98.9L105.2,98.9z"/>
						</g>
					</g>
					<path class="st1" d="M89.9,99.9c-5.4,0-9.8-4.4-9.8-9.8s4.4-9.8,9.8-9.8s9.8,4.4,9.8,9.8S95.3,99.9,89.9,99.9z M89.9,82.3
						c-4.3,0-7.8,3.5-7.8,7.8c0,4.3,3.5,7.8,7.8,7.8s7.8-3.5,7.8-7.8C97.7,85.8,94.2,82.3,89.9,82.3z"/>
				</g>
			</g>
		</g>
		<g id="XMLID_788_">
			<path class="st2" d="M59.2,108.7C32,108.7,9.8,86.5,9.8,59.3C9.8,32.1,32,10,59.2,10c27.2,0,49.3,22.1,49.3,49.3
				c0,1.7-0.1,3.5-0.3,5.4c-0.1,0.5-0.5,0.9-1.1,0.9c-0.5-0.1-0.9-0.6-0.9-1.1c0.2-1.8,0.3-3.5,0.3-5.2c0-26.1-21.2-47.3-47.3-47.3
				S11.8,33.2,11.8,59.3s21.2,47.3,47.3,47.3c1.7,0,3.4-0.1,5.2-0.3c0.6-0.1,1,0.3,1.1,0.9c0.1,0.5-0.3,1-0.9,1.1
				C62.7,108.6,60.9,108.7,59.2,108.7z"/>
			<path class="st2" d="M59.2,108.7c-15.1,0-27.4-22.1-27.4-49.3C31.8,32.1,44.1,10,59.2,10c15.1,0,27.4,22.1,27.4,49.3
				c0,0.6-0.4,1-1,1s-1-0.4-1-1C84.5,33.2,73.2,12,59.2,12c-14,0-25.4,21.2-25.4,47.3s11.4,47.3,25.4,47.3c0.6,0,1,0.4,1,1
				S59.7,108.7,59.2,108.7z"/>
			<path class="st2" d="M59.2,108.7c-0.6,0-1-0.4-1-1V11c0-0.6,0.4-1,1-1s1,0.4,1,1v96.7C60.2,108.2,59.7,108.7,59.2,108.7z"/>
			<path class="st2" d="M107.5,60.3H10.8c-0.6,0-1-0.4-1-1s0.4-1,1-1h96.7c0.6,0,1,0.4,1,1S108.1,60.3,107.5,60.3z"/>
			<path class="st2" d="M98.7,34H19.6c-0.6,0-1-0.4-1-1s0.4-1,1-1h79.1c0.6,0,1,0.4,1,1S99.3,34,98.7,34z"/>
			<path class="st2" d="M59.2,86.7H19.6c-0.6,0-1-0.4-1-1s0.4-1,1-1h39.5c0.6,0,1,0.4,1,1S59.7,86.7,59.2,86.7z"/>
		</g>
	</g>
</g>
</svg>
