<?xml version="1.0" encoding="utf-8"?>
<!-- Generator: Adobe Illustrator 20.1.0, SVG Export Plug-In . SVG Version: 6.00 Build 0)  -->
<svg version="1.1" id="Layer_1" height="24" width="24" xmlns="http://www.w3.org/2000/svg" xmlns:xlink="http://www.w3.org/1999/xlink" x="0px" y="0px"
	 viewBox="0 0 125 125" style="enable-background:new 0 0 125 125;" xml:space="preserve">
<style type="text/css">
	.st0{fill:#E3EAEC;}
	.st1{fill:#45515B;}
	.st2{fill:#1080D0;}
</style>
<g>
	<g id="XMLID_754_">
		<path class="st0" d="M61.4,114.8H46.5c-1.4,0-2.6-1-2.9-2.4l-1.3-9.4c-2-0.9-3.8-1.9-5.5-3.2l-8.8,3.5c-1.3,0.5-2.8,0-3.5-1.2
			L17,89.2c-0.7-1.2-0.4-2.7,0.6-3.7l7.5-5.9c-0.1-1.2-0.2-2.3-0.2-3.2c0-1,0.1-2.1,0.2-3.2l-7.4-5.8c-1.1-0.9-1.4-2.5-0.7-3.7
			l7.5-12.9c0.7-1.2,2.2-1.7,3.5-1.2l8.8,3.5c1.7-1.2,3.5-2.3,5.5-3.2l1.3-9.3c0.2-1.4,1.5-2.5,2.9-2.5h14.9c1.4,0,2.6,1,2.9,2.4
			l1.3,9.4c2,0.9,3.8,1.9,5.5,3.2l8.8-3.5c1.3-0.5,2.8,0,3.5,1.2l7.5,12.9c0.7,1.2,0.4,2.7-0.6,3.7l-7.5,5.9
			c0.1,1.2,0.2,2.3,0.2,3.2c0,1-0.1,2.1-0.2,3.2l7.4,5.8c1.1,0.9,1.4,2.5,0.7,3.7l-7.5,12.9c-0.7,1.2-2.2,1.7-3.5,1.2l-8.8-3.5
			c-1.7,1.2-3.5,2.3-5.5,3.2l-1.3,9.3C64,113.8,62.8,114.8,61.4,114.8z M36.9,97.7c0.2,0,0.4,0.1,0.6,0.2c1.9,1.5,3.9,2.6,6.1,3.5
			c0.3,0.1,0.6,0.4,0.6,0.8l1.4,9.9c0.1,0.4,0.5,0.7,0.9,0.7h14.9c0.4,0,0.8-0.3,0.9-0.8l1.4-9.8c0-0.3,0.3-0.6,0.6-0.8
			c2.2-1,4.3-2.2,6.1-3.6c0.3-0.2,0.7-0.3,1-0.1l9.3,3.7c0.4,0.1,0.8,0,1.1-0.4l7.5-12.9c0.2-0.4,0.1-0.9-0.2-1.1L81,80.9
			c-0.3-0.2-0.4-0.6-0.4-0.9c0.2-1.3,0.3-2.4,0.3-3.5c0-1.1-0.1-2.2-0.3-3.6c0-0.4,0.1-0.7,0.4-0.9l7.9-6.2c0.3-0.3,0.4-0.7,0.2-1.1
			l-7.5-12.9c-0.2-0.4-0.7-0.5-1.1-0.4l-9.3,3.7c-0.3,0.1-0.7,0.1-1-0.1c-1.9-1.5-3.9-2.6-6.1-3.5c-0.3-0.1-0.6-0.4-0.6-0.8
			l-1.4-9.9c-0.1-0.4-0.5-0.7-0.9-0.7H46.5c-0.4,0-0.8,0.3-0.9,0.8l-1.4,9.8c0,0.3-0.3,0.6-0.6,0.8c-2.2,1-4.3,2.1-6.1,3.6
			c-0.3,0.2-0.7,0.3-1,0.1l-9.3-3.7c-0.4-0.1-0.8,0-1.1,0.4l-7.5,12.9c-0.2,0.4-0.1,0.9,0.2,1.1l7.9,6.2c0.3,0.2,0.4,0.6,0.4,0.9
			c-0.2,1.3-0.3,2.4-0.3,3.5c0,1.1,0.1,2.2,0.3,3.6c0,0.4-0.1,0.7-0.4,0.9l-7.9,6.2c-0.3,0.3-0.4,0.7-0.2,1.1l7.5,12.9
			c0.2,0.4,0.7,0.5,1.1,0.4l9.3-3.7C36.6,97.7,36.8,97.7,36.9,97.7z M53.9,88.4c-6.6,0-12-5.4-12-12s5.4-12,12-12s12,5.4,12,12
			S60.5,88.4,53.9,88.4z M53.9,66.5c-5.5,0-10,4.5-10,10s4.5,10,10,10s10-4.5,10-10S59.4,66.5,53.9,66.5z"/>
		<path class="st0" d="M95.4,49.9h-7.2c-0.9,0-1.7-0.7-1.9-1.6l-0.6-4.2c-0.8-0.3-1.5-0.8-2.3-1.3l-4,1.6c-1,0.3-1.9,0-2.4-0.8
			l-3.6-6.2c-0.4-0.8-0.3-1.8,0.4-2.4l3.4-2.7c0-0.4-0.1-0.9-0.1-1.3s0-0.9,0.1-1.3l-3.4-2.7c-0.7-0.6-0.9-1.6-0.5-2.4l3.6-6.3
			c0.5-0.8,1.5-1.1,2.3-0.8l4,1.6c0.7-0.5,1.5-0.9,2.3-1.3l0.6-4.2c0.2-0.9,1-1.6,1.9-1.6h7.2c1,0,1.8,0.7,1.9,1.7l0.6,4.2
			c0.8,0.3,1.5,0.8,2.3,1.3l4-1.6c1-0.3,1.9,0,2.4,0.8l3.6,6.2c0.4,0.8,0.3,1.8-0.4,2.4l-3.4,2.7c0,0.4,0.1,0.9,0.1,1.3
			c0,0.5,0,0.9-0.1,1.3l3.4,2.7c0,0,0,0,0.1,0c0.7,0.6,0.9,1.6,0.4,2.4l-3.6,6.3c-0.5,0.8-1.5,1.1-2.3,0.8l-4-1.6
			c-0.7,0.5-1.4,0.9-2.3,1.3l-0.6,4.2C97.2,49.2,96.4,49.9,95.4,49.9z M88.3,47.9h7.1l0.7-4.7c0-0.3,0.3-0.6,0.6-0.8
			c1.1-0.5,2.1-1,2.8-1.6c0.3-0.2,0.7-0.3,1-0.1l4.4,1.8l3.5-6.1l-3.8-2.9c-0.3-0.2-0.4-0.6-0.4-0.9c0.1-0.6,0.1-1.1,0.1-1.6
			c0-0.6,0-1.1-0.1-1.6c-0.1-0.4,0.1-0.7,0.4-1l3.8-2.9l-3.5-6.1l-4.4,1.8c-0.3,0.1-0.7,0.1-1-0.1c-0.9-0.7-1.9-1.3-2.8-1.6
			c-0.3-0.1-0.6-0.4-0.6-0.8l-0.7-4.7h-7.1l-0.7,4.7c0,0.3-0.3,0.6-0.6,0.8c-1.1,0.5-2.1,1-2.9,1.6c-0.3,0.2-0.7,0.3-1,0.1l-4.4-1.8
			l-3.5,6.1l3.8,2.9c0.3,0.2,0.4,0.6,0.4,0.9c-0.1,0.5-0.1,1.1-0.1,1.6s0,1.1,0.1,1.6c0,0.3-0.1,0.7-0.4,0.9l-3.8,2.9l3.5,6.1
			l4.4-1.8c0.3-0.1,0.7-0.1,1,0.1c0.9,0.7,1.9,1.3,2.8,1.6c0.3,0.1,0.6,0.4,0.6,0.8L88.3,47.9z M78.8,42.5L78.8,42.5
			C78.8,42.5,78.8,42.5,78.8,42.5z M104.8,19.1C104.8,19.1,104.8,19.1,104.8,19.1L104.8,19.1z M91.8,37.9c-3.9,0-7-3.2-7-7
			s3.2-7,7-7s7,3.2,7,7S95.7,37.9,91.8,37.9z M91.8,25.8c-2.8,0-5,2.3-5,5s2.3,5,5,5s5-2.3,5-5S94.6,25.8,91.8,25.8z"/>
	</g>
	<g id="XMLID_747_">
		<path class="st1" d="M59.5,112.3H44.5c-1.4,0-2.6-1-2.8-2.4l-1.3-9.4c-2-0.9-3.8-1.9-5.5-3.2l-8.8,3.5c-1.3,0.5-2.8,0-3.5-1.2
			l-7.5-12.9c-0.7-1.2-0.4-2.7,0.6-3.7l7.5-5.9C23.1,76,23,75,23,74c0-1,0.1-2,0.2-3.2L15.7,65c-1.1-0.9-1.4-2.5-0.7-3.7l7.5-12.9
			c0.7-1.2,2.2-1.7,3.5-1.2l8.8,3.5c1.7-1.2,3.5-2.3,5.5-3.2l1.3-9.3c0.2-1.4,1.5-2.5,2.9-2.5h14.9c1.4,0,2.6,1,2.8,2.4l1.3,9.4
			c2,0.9,3.8,1.9,5.5,3.2l8.8-3.5c1.3-0.5,2.8,0,3.5,1.2l7.5,12.9c0.7,1.2,0.4,2.7-0.6,3.7l-7.5,5.9C80.9,71.9,81,73,81,74
			c0,1-0.1,2.1-0.2,3.2l7.4,5.8c1.1,0.9,1.4,2.5,0.7,3.7l-7.5,12.9c-0.7,1.2-2.2,1.7-3.5,1.2l-8.8-3.5c-1.7,1.2-3.5,2.3-5.5,3.2
			l-1.3,9.3C62.1,111.3,60.9,112.3,59.5,112.3z M35,95.2c0.2,0,0.4,0.1,0.6,0.2c1.9,1.5,3.9,2.6,6.1,3.5c0.3,0.1,0.6,0.4,0.6,0.8
			l1.4,9.9c0.1,0.4,0.5,0.7,0.9,0.7h14.9c0.4,0,0.8-0.3,0.9-0.8l1.4-9.8c0-0.3,0.3-0.6,0.6-0.8c2.2-1,4.3-2.2,6.1-3.6
			c0.3-0.2,0.7-0.3,1-0.1l9.3,3.7c0.4,0.1,0.8,0,1.1-0.4l7.5-12.9c0.2-0.4,0.1-0.9-0.2-1.1l-7.9-6.2c-0.3-0.2-0.4-0.6-0.4-0.9
			c0.2-1.3,0.3-2.4,0.3-3.5c0-1.1-0.1-2.2-0.3-3.6c0-0.4,0.1-0.7,0.4-0.9l7.9-6.2c0.3-0.3,0.4-0.7,0.2-1.1l-7.5-12.9
			c-0.2-0.4-0.7-0.5-1.1-0.4l-9.3,3.7c-0.3,0.1-0.7,0.1-1-0.1c-1.9-1.5-3.9-2.6-6.1-3.5c-0.3-0.1-0.6-0.4-0.6-0.8l-1.4-9.9
			c-0.1-0.4-0.5-0.7-0.9-0.7H44.5c-0.4,0-0.8,0.3-0.9,0.8l-1.4,9.8c0,0.3-0.3,0.6-0.6,0.8c-2.2,1-4.3,2.2-6.1,3.6
			c-0.3,0.2-0.7,0.3-1,0.1L25.3,49c-0.4-0.1-0.8,0-1.1,0.4l-7.5,12.9c-0.2,0.4-0.1,0.8,0.2,1.1l7.9,6.2c0.3,0.2,0.4,0.6,0.4,0.9
			C25.1,71.8,25,72.9,25,74c0,1.1,0.1,2.2,0.3,3.6c0,0.3-0.1,0.7-0.4,0.9L17,84.6c-0.3,0.3-0.4,0.7-0.2,1.1l7.5,12.9
			c0.2,0.4,0.7,0.5,1.1,0.4l9.3-3.7C34.7,95.3,34.9,95.2,35,95.2z M52,86c-6.6,0-12-5.4-12-12s5.4-12,12-12s12,5.4,12,12
			S58.6,86,52,86z M52,64c-5.5,0-10,4.5-10,10s4.5,10,10,10s10-4.5,10-10S57.5,64,52,64z"/>
		<path class="st2" d="M93.5,47.4h-7.2c-0.9,0-1.7-0.7-1.9-1.6l-0.6-4.2c-0.8-0.3-1.5-0.8-2.3-1.3l-4,1.6c-1,0.3-1.9,0-2.4-0.8
			l-3.6-6.2c-0.4-0.8-0.3-1.8,0.4-2.4l3.4-2.7c0-0.4-0.1-0.9-0.1-1.3s0-0.9,0.1-1.3L72,24.4c-0.7-0.6-0.9-1.6-0.5-2.4l3.6-6.3
			c0.5-0.8,1.5-1.1,2.3-0.8l4,1.6c0.7-0.5,1.5-0.9,2.3-1.3l0.6-4.2c0.2-0.9,1-1.6,1.9-1.6h7.2c1,0,1.8,0.7,1.9,1.7l0.6,4.2
			c0.8,0.3,1.5,0.8,2.3,1.3l4-1.6c1-0.3,1.9,0,2.4,0.8l3.6,6.2c0.4,0.8,0.3,1.8-0.4,2.4l-3.4,2.7c0,0.4,0.1,0.9,0.1,1.3
			c0,0.5,0,0.9-0.1,1.3l3.4,2.7c0,0,0,0,0,0c0.7,0.6,0.9,1.6,0.4,2.4l-3.6,6.3c-0.5,0.8-1.5,1.2-2.3,0.8l-4-1.6
			c-0.7,0.5-1.4,0.9-2.3,1.3l-0.6,4.2C95.3,46.8,94.4,47.4,93.5,47.4z M86.4,45.4h7.1l0.7-4.7c0-0.3,0.3-0.6,0.6-0.8
			c1.1-0.5,2.1-1,2.8-1.6c0.3-0.2,0.7-0.3,1-0.1L103,40l3.5-6.1l-3.8-2.9c-0.3-0.2-0.4-0.6-0.4-0.9c0.1-0.6,0.1-1.1,0.1-1.6
			c0-0.6,0-1.1-0.1-1.6c-0.1-0.4,0.1-0.7,0.4-1l3.8-2.9l-3.5-6.1l-4.4,1.8c-0.3,0.1-0.7,0.1-1-0.1c-0.9-0.7-1.9-1.3-2.8-1.6
			c-0.3-0.1-0.6-0.4-0.6-0.8l-0.7-4.7h-7.1l-0.7,4.7c0,0.3-0.3,0.6-0.6,0.8c-1.1,0.5-2.1,1-2.9,1.6c-0.3,0.2-0.7,0.3-1,0.1l-4.4-1.8
			l-3.5,6.1l3.8,2.9c0.3,0.2,0.4,0.6,0.4,0.9c-0.1,0.5-0.1,1.1-0.1,1.6s0,1.1,0.1,1.6c0,0.3-0.1,0.7-0.4,0.9l-3.8,2.9l3.5,6.1
			l4.4-1.8c0.3-0.1,0.7-0.1,1,0.1c0.9,0.7,1.9,1.3,2.8,1.6c0.3,0.1,0.6,0.4,0.6,0.8L86.4,45.4z M76.9,40L76.9,40
			C76.9,40,76.9,40,76.9,40z M102.9,16.7C102.9,16.7,102.9,16.7,102.9,16.7L102.9,16.7z M89.9,35.4c-3.9,0-7-3.2-7-7s3.2-7,7-7
			s7,3.2,7,7S93.8,35.4,89.9,35.4z M89.9,23.3c-2.8,0-5,2.3-5,5s2.3,5,5,5s5-2.3,5-5S92.7,23.3,89.9,23.3z"/>
	</g>
</g>
</svg>
