<?xml version="1.0" encoding="utf-8"?>
<!-- Generator: Adobe Illustrator 21.0.0, SVG Export Plug-In . SVG Version: 6.00 Build 0)  -->
<svg version="1.1" id="Layer_1" height="24" width="24" xmlns="http://www.w3.org/2000/svg" xmlns:xlink="http://www.w3.org/1999/xlink" x="0px" y="0px"
	 viewBox="0 0 125 125" style="enable-background:new 0 0 125 125;" xml:space="preserve">
<style type="text/css">
	.st0{fill:#E3EAEC;}
	.st1{fill:#45515B;}
	.st2{fill:none;}
	.st3{fill:#1080D0;}
</style>
<g>
	<path class="st0" d="M109.6,34.7H97c0,0.6,0,1.3,0,2h11.6v63.9H27.1V89c-0.7,0-1.3,0-2,0v12.6c0,0.6,0.4,1,1,1h83.5
		c0.5,0,1-0.4,1-1V35.7C110.6,35.1,110.2,34.7,109.6,34.7z"/>
	<path class="st0" d="M98.9,91.4H15.4c-0.6,0-1-0.4-1-1V24.5c0-0.6,0.4-1,1-1h83.5c0.6,0,1,0.4,1,1v65.9
		C99.9,90.9,99.4,91.4,98.9,91.4z M16.4,89.4h81.5V25.5H16.4V89.4z"/>
	<path class="st0" d="M98.9,89.7c-0.4,0-0.7-0.2-0.9-0.6L74.6,42.5L58,71.7c-0.2,0.3-0.4,0.5-0.7,0.5s-0.6-0.1-0.8-0.3L44,59.4
		l-27.9,30c-0.4,0.4-1,0.4-1.4,0.1c-0.4-0.4-0.4-1-0.1-1.4l28.6-30.8c0.2-0.2,0.4-0.3,0.7-0.3s0.5,0.1,0.7,0.3l12.3,12.2l16.9-29.6
		c0.2-0.3,0.5-0.5,0.9-0.5s0.7,0.2,0.9,0.6l24.2,48.3c0.2,0.5,0,1.1-0.4,1.3C99.2,89.7,99,89.7,98.9,89.7z"/>
	<path class="st0" d="M39.7,32.4c1.2,0.9,2.1,2.2,2.6,3.6c1.7,1.4,2.9,3.6,2.9,6c0,4.3-3.5,7.8-7.8,7.8c-2,0-3.8-0.8-5.2-2
		c-1.4-0.3-2.6-0.9-3.7-1.8c1.6,3.4,5,5.7,8.9,5.7c5.4,0,9.8-4.4,9.8-9.8C47.2,37.3,44,33.4,39.7,32.4z"/>
	<path class="st0" d="M29.6,42.1c0-4.3,3.5-7.8,7.8-7.8c1.8,0,3.5,0.7,4.9,1.8c-0.6-1.4-1.5-2.7-2.6-3.6c-0.7-0.2-1.5-0.3-2.2-0.3
		c-5.4,0-9.8,4.4-9.8,9.8c0,1.5,0.3,2.8,0.9,4.1c1,0.9,2.3,1.5,3.7,1.8C30.6,46.4,29.6,44.4,29.6,42.1z"/>
</g>
<path class="st1" d="M107.8,33.5H97c0,0.8,0,1.5,0.2,2h9.6v63.9H25.3V89c-0.7,0-1.3,0-2,0v11.4c0,0.6,0.4,1,1,1h83.5
	c0.5,0,1-0.4,1-1V34.5C108.8,33.9,108.4,33.5,107.8,33.5z"/>
<path class="st1" d="M97.1,90.1H13.6c-0.6,0-1-0.4-1-1V23.2c0-0.6,0.4-1,1-1h83.5c0.6,0,1,0.4,1,1v65.9
	C98.1,89.7,97.6,90.1,97.1,90.1z M14.6,88.1h81.5V24.2H14.6V88.1z"/>
<path class="st1" d="M97.1,88.5c-0.4,0-0.7-0.2-0.9-0.6L72.8,41.3L56.2,70.4c-0.2,0.3-0.4,0.5-0.7,0.5s-0.6-0.1-0.8-0.3L42.2,58.2
	l-27.9,30c-0.4,0.4-1,0.4-1.4,0.1c-0.4-0.4-0.4-1-0.1-1.4l28.6-30.8c0.2-0.2,0.4-0.3,0.7-0.3s0.5,0.1,0.7,0.3l12.3,12.3L72,38.7
	c0.2-0.3,0.5-0.5,0.9-0.5s0.7,0.2,0.9,0.6L98,87c0.2,0.5,0,1.1-0.4,1.3C97.4,88.5,97.2,88.5,97.1,88.5z"/>
<path class="st2" d="M35.6,49.6c-0.7,0-1.3-0.1-1.9-0.2c1.4,1.2,3.2,2,5.2,2c4.3,0,7.8-3.5,7.8-7.8c-0.1-2.4-1.2-4.6-2.9-6
	c0.4,1,0.6,2.1,0.6,3.2C44.4,45.7,40.5,49.6,35.6,49.6z"/>
<path class="st3" d="M35.6,50.6c-5.4,0-9.8-4.4-9.8-9.8s4.4-9.8,9.8-9.8s9.8,4.4,9.8,9.8S41,50.6,35.6,50.6z M35.6,33
	c-4.3,0-7.8,3.5-7.8,7.8s3.5,7.8,7.8,7.8s7.8-3.5,7.8-7.8C43.3,36.5,39.9,33,35.6,33z"/>
</svg>
