<?xml version="1.0" encoding="utf-8"?>
<!-- Generator: Adobe Illustrator 20.1.0, SVG Export Plug-In . SVG Version: 6.00 Build 0)  -->
<svg version="1.1" id="Layer_1" height="24" width="24" xmlns="http://www.w3.org/2000/svg" xmlns:xlink="http://www.w3.org/1999/xlink" x="0px" y="0px"
	 viewBox="0 0 125 125" style="enable-background:new 0 0 125 125;" xml:space="preserve">
<style type="text/css">
	.st0{fill:#E3EAEC;}
	.st1{fill:#1080D0;}
	.st2{fill:#45515B;}
</style>
<g>
	<g id="XMLID_734_">
		<path class="st0" d="M77.1,54.9H36.3c-0.6,0-1-0.4-1-1s0.4-1,1-1h40.8c0.6,0,1,0.4,1,1S77.6,54.9,77.1,54.9z"/>
		<path class="st0" d="M77.1,40.3H60c-0.6,0-1-0.4-1-1s0.4-1,1-1h17.1c0.6,0,1,0.4,1,1S77.6,40.3,77.1,40.3z"/>
		<path class="st0" d="M77.1,69.6H36.3c-0.6,0-1-0.4-1-1s0.4-1,1-1h40.8c0.6,0,1,0.4,1,1S77.6,69.6,77.1,69.6z"/>
		<path class="st0" d="M77.1,84.2H36.3c-0.6,0-1-0.4-1-1s0.4-1,1-1h40.8c0.6,0,1,0.4,1,1S77.6,84.2,77.1,84.2z"/>
	</g>
	<g id="XMLID_727_">
		<g id="XMLID_729_">
			<g id="XMLID_730_">
				<g id="XMLID_731_">
					<path class="st0" d="M89.7,102.1H23.8c-0.6,0-1-0.4-1-1V39.6c0-0.3,0.1-0.5,0.3-0.7l26.4-26.4c0.2-0.2,0.4-0.3,0.7-0.3h39.5
						c0.6,0,1,0.4,1,1v87.9C90.7,101.7,90.2,102.1,89.7,102.1z M24.8,100.1h63.9V14.3H50.5L24.8,40V100.1z"/>
					<path class="st0" d="M50.1,40.6H23.8c-0.6,0-1-0.4-1-1s0.4-1,1-1h25.4V13.3c0-0.6,0.4-1,1-1s1,0.4,1,1v26.4
						C51.1,40.2,50.7,40.6,50.1,40.6z"/>
				</g>
			</g>
		</g>
		<path class="st0" d="M102.8,115.3H36.9c-0.6,0-1-0.4-1-1v-13.2c0-0.6,0.4-1,1-1s1,0.4,1,1v12.2h63.9V27.4H89.7c-0.6,0-1-0.4-1-1
			s0.4-1,1-1h13.2c0.6,0,1,0.4,1,1v87.9C103.8,114.9,103.4,115.3,102.8,115.3z"/>
	</g>
	<g id="XMLID_722_">
		<path class="st1" d="M75.2,52.4H34.4c-0.6,0-1-0.4-1-1s0.4-1,1-1h40.8c0.6,0,1,0.4,1,1S75.7,52.4,75.2,52.4z"/>
		<path class="st1" d="M75.2,37.8H58c-0.6,0-1-0.4-1-1s0.4-1,1-1h17.1c0.6,0,1,0.4,1,1S75.7,37.8,75.2,37.8z"/>
		<path class="st1" d="M75.2,67.1H34.4c-0.6,0-1-0.4-1-1s0.4-1,1-1h40.8c0.6,0,1,0.4,1,1S75.7,67.1,75.2,67.1z"/>
		<path class="st1" d="M75.2,81.7H34.4c-0.6,0-1-0.4-1-1s0.4-1,1-1h40.8c0.6,0,1,0.4,1,1S75.7,81.7,75.2,81.7z"/>
	</g>
	<g id="XMLID_715_">
		<g id="XMLID_717_">
			<g id="XMLID_718_">
				<g id="XMLID_719_">
					<path class="st2" d="M87.7,99.7H21.8c-0.6,0-1-0.4-1-1V37.2c0-0.3,0.1-0.5,0.3-0.7l26.4-26.4c0.2-0.2,0.4-0.3,0.7-0.3h39.5
						c0.6,0,1,0.4,1,1v87.9C88.7,99.2,88.3,99.7,87.7,99.7z M22.8,97.7h63.9V11.8H48.6L22.8,37.6V97.7z"/>
					<path class="st2" d="M48.2,38.2H21.8c-0.6,0-1-0.4-1-1s0.4-1,1-1h25.4V10.8c0-0.6,0.4-1,1-1s1,0.4,1,1v26.4
						C49.2,37.7,48.7,38.2,48.2,38.2z"/>
				</g>
			</g>
		</g>
		<path class="st2" d="M100.9,112.9H35c-0.6,0-1-0.4-1-1V98.7c0-0.6,0.4-1,1-1s1,0.4,1,1v12.2h63.9V25H87.7c-0.6,0-1-0.4-1-1
			s0.4-1,1-1h13.2c0.6,0,1,0.4,1,1v87.9C101.9,112.4,101.5,112.9,100.9,112.9z"/>
	</g>
</g>
</svg>
