<?xml version="1.0" encoding="utf-8"?>
<!-- Generator: Adobe Illustrator 20.1.0, SVG Export Plug-In . SVG Version: 6.00 Build 0)  -->
<svg version="1.1" id="Layer_1" height="24" width="24" xmlns="http://www.w3.org/2000/svg" xmlns:xlink="http://www.w3.org/1999/xlink" x="0px" y="0px"
	 viewBox="0 0 125 125" style="enable-background:new 0 0 125 125;" xml:space="preserve">
<style type="text/css">
	.st0{fill:#E3EAEC;}
	.st1{fill:none;stroke:#E3EAEC;stroke-width:2;stroke-linecap:round;stroke-linejoin:round;stroke-miterlimit:10;}
	.st2{fill:#45515B;}
	.st3{fill:none;stroke:#45515B;stroke-width:2;stroke-linecap:round;stroke-linejoin:round;stroke-miterlimit:10;}
	.st4{fill:#1080D0;}
</style>
<g>
	<g id="XMLID_672_">
		<g id="XMLID_675_">
			<path class="st0" d="M91.9,84.6H8.4c-0.6,0-1-0.4-1-1s0.4-1,1-1h83.5c0.6,0,1,0.4,1,1S92.4,84.6,91.9,84.6z"/>
			<path class="st0" d="M83.1,110.9H39.1c-0.6,0-1-0.4-1-1s0.4-1,1-1h43.9c0.6,0,1,0.4,1,1S83.6,110.9,83.1,110.9z"/>
			<g id="XMLID_679_">
				<path class="st0" d="M117.2,110.9H92.9c-1.1,0-2-0.9-2-2V62.6c0-1.1,0.9-2,2-2h24.4c1.1,0,2,0.9,2,2v46.3
					C119.2,110,118.3,110.9,117.2,110.9z M92.9,62.6v46.3h24.4V62.6H92.9z"/>
				<path class="st0" d="M118.2,71.4H91.9c-0.6,0-1-0.4-1-1s0.4-1,1-1h26.4c0.6,0,1,0.4,1,1S118.8,71.4,118.2,71.4z"/>
				<path class="st0" d="M118.2,102.1H91.9c-0.6,0-1-0.4-1-1s0.4-1,1-1h26.4c0.6,0,1,0.4,1,1S118.8,102.1,118.2,102.1z"/>
			</g>
			<path class="st0" d="M91.9,97.8H17.2c-5.4,0-9.8-4.4-9.8-9.8V26.4c0-5.4,4.4-9.8,9.8-9.8h83.5c5.4,0,9.8,4.4,9.8,9.8v35.2
				c0,0.6-0.4,1-1,1H96.2c-1.9,0-3.4,1.5-3.4,3.4v30.8C92.9,97.3,92.4,97.8,91.9,97.8z M17.2,18.7c-4.3,0-7.8,3.5-7.8,7.8V88
				c0,4.3,3.5,7.8,7.8,7.8h73.7V66c0-3,2.4-5.4,5.4-5.4h12.2V26.4c0-4.3-3.5-7.8-7.8-7.8H17.2z"/>
			<path id="XMLID_677_" class="st1" d="M12.8,66"/>
			<path class="st0" d="M61.1,110.9c-0.6,0-1-0.4-1-1V96.8c0-0.6,0.4-1,1-1s1,0.4,1,1v13.2C62.1,110.5,61.7,110.9,61.1,110.9z"/>
		</g>
		<path class="st0" d="M91.9,45H25.9c-0.6,0-1-0.4-1-1s0.4-1,1-1h65.9c0.6,0,1,0.4,1,1S92.4,45,91.9,45z"/>
		<path class="st0" d="M82,58.2h-56c-0.6,0-1-0.4-1-1s0.4-1,1-1h56c0.6,0,1,0.4,1,1S82.5,58.2,82,58.2z"/>
	</g>
	<g id="XMLID_658_">
		<g id="XMLID_661_">
			<path class="st2" d="M89.9,82.1H6.4c-0.6,0-1-0.4-1-1s0.4-1,1-1h83.5c0.6,0,1,0.4,1,1S90.5,82.1,89.9,82.1z"/>
			<path class="st2" d="M81.1,108.5H37.2c-0.6,0-1-0.4-1-1s0.4-1,1-1h43.9c0.6,0,1,0.4,1,1S81.7,108.5,81.1,108.5z"/>
			<g id="XMLID_665_">
				<path class="st2" d="M115.3,108.5H90.9c-1.1,0-2-0.9-2-2V60.1c0-1.1,0.9-2,2-2h24.4c1.1,0,2,0.9,2,2v46.3
					C117.3,107.6,116.4,108.5,115.3,108.5z M90.9,60.1v46.3h24.4V60.1H90.9z"/>
				<path class="st2" d="M116.3,68.9H89.9c-0.6,0-1-0.4-1-1s0.4-1,1-1h26.4c0.6,0,1,0.4,1,1S116.8,68.9,116.3,68.9z"/>
				<path class="st2" d="M116.3,99.7H89.9c-0.6,0-1-0.4-1-1s0.4-1,1-1h26.4c0.6,0,1,0.4,1,1S116.8,99.7,116.3,99.7z"/>
			</g>
			<path class="st2" d="M89.9,95.3H15.2c-5.4,0-9.8-4.4-9.8-9.8V24c0-5.4,4.4-9.8,9.8-9.8h83.5c5.4,0,9.8,4.4,9.8,9.8v35.2
				c0,0.6-0.4,1-1,1H94.3c-1.9,0-3.4,1.5-3.4,3.4v30.8C90.9,94.8,90.5,95.3,89.9,95.3z M15.2,16.2c-4.3,0-7.8,3.5-7.8,7.8v61.5
				c0,4.3,3.5,7.8,7.8,7.8h73.7V63.5c0-3,2.4-5.4,5.4-5.4h12.2V24c0-4.3-3.5-7.8-7.8-7.8H15.2z"/>
			<path id="XMLID_663_" class="st3" d="M10.8,63.5"/>
			<path class="st2" d="M59.2,108.5c-0.6,0-1-0.4-1-1V94.3c0-0.6,0.4-1,1-1s1,0.4,1,1v13.2C60.2,108,59.7,108.5,59.2,108.5z"/>
		</g>
		<path class="st4" d="M89.9,42.6H24c-0.6,0-1-0.4-1-1s0.4-1,1-1h65.9c0.6,0,1,0.4,1,1S90.5,42.6,89.9,42.6z"/>
		<path class="st4" d="M80,55.7H24c-0.6,0-1-0.4-1-1s0.4-1,1-1h56c0.6,0,1,0.4,1,1S80.6,55.7,80,55.7z"/>
	</g>
</g>
</svg>
