<svg id="Layer_1" data-name="Layer 1" xmlns="http://www.w3.org/2000/svg" viewBox="0 0 26.19 21.77" height="24" width="24"><defs><style>.cls-1{fill:#e3e9ea;}.cls-2{fill:#46525c;}.cls-3{fill:#277fc3;}</style></defs><title>import-menu</title><path class="cls-1" d="M23.62,21.77H3A2.52,2.52,0,0,1,.4,19.3V2.84A2.52,2.52,0,0,1,3,.37H23.62a2.52,2.52,0,0,1,2.57,2.47V19.3A2.52,2.52,0,0,1,23.62,21.77ZM3,.92A2,2,0,0,0,1,2.84V19.3a2,2,0,0,0,2,1.92H23.62a2,2,0,0,0,2-1.92V2.84a2,2,0,0,0-2-1.92Z"/><path class="cls-1" d="M23.51,3.26H22.32a.27.27,0,0,1,0-.55h1.19a.27.27,0,0,1,0,.55Z"/><path class="cls-1" d="M25.85,5.19a.27.27,0,0,1-.27.27H1a.27.27,0,0,1,0-.55H25.58A.27.27,0,0,1,25.85,5.19Z"/><path class="cls-1" d="M21,3.26H19.81a.27.27,0,0,1,0-.55H21a.27.27,0,0,1,0,.55Z"/><path class="cls-1" d="M18.49,3.26H17.3a.27.27,0,1,1,0-.55h1.19a.27.27,0,1,1,0,.55Z"/><path class="cls-1" d="M5.38,3.26H3.18a.27.27,0,1,1,0-.55H5.38a.27.27,0,0,1,0,.55Z"/><path class="cls-2" d="M23.22,21.4H2.57A2.52,2.52,0,0,1,0,18.93V2.47A2.52,2.52,0,0,1,2.57,0H23.22a2.52,2.52,0,0,1,2.57,2.47V18.93A2.52,2.52,0,0,1,23.22,21.4ZM2.57.55a2,2,0,0,0-2,1.92V18.93a2,2,0,0,0,2,1.92H23.22a2,2,0,0,0,2-1.92V2.47a2,2,0,0,0-2-1.92Z"/><path class="cls-3" d="M23.11,2.89H21.91a.27.27,0,0,1,0-.55h1.19a.27.27,0,0,1,0,.55Z"/><path class="cls-2" d="M25.45,4.82a.27.27,0,0,1-.27.27H.55a.27.27,0,1,1,0-.55H25.18A.27.27,0,0,1,25.45,4.82Z"/><path class="cls-3" d="M20.6,2.89H19.4a.27.27,0,1,1,0-.55H20.6a.27.27,0,1,1,0,.55Z"/><path class="cls-3" d="M18.09,2.89H16.9a.27.27,0,0,1,0-.55h1.19a.27.27,0,0,1,0,.55Z"/><path class="cls-3" d="M5,2.89H2.78a.27.27,0,1,1,0-.55H5a.27.27,0,1,1,0,.55Z"/></svg>
