<svg id="Layer_1" data-name="Layer 1" xmlns="http://www.w3.org/2000/svg" viewBox="0 0 29.93 23.43" height="24" width="24"><defs><style>.cls-1,.cls-2{fill:#e3e9ea;}.cls-2,.cls-4{stroke:#46525c;stroke-linecap:round;stroke-linejoin:round;stroke-width:0.5px;}.cls-3{fill:#46525c;}.cls-4{fill:none;}.cls-5{fill:#297fc3;}</style></defs><title>import-selective</title><path class="cls-1" d="M.71,16.46a.27.27,0,0,0,0,.54H20.76v-.54Z"/><line class="cls-1" x1="20.76" y1="16.46" x2="20.76" y2="16.99"/><path class="cls-1" d="M18.94,23.43H8.21a.27.27,0,0,1,0-.54H18.94a.27.27,0,0,1,0,.54Z"/><path class="cls-1" d="M20.76,20.21"/><line class="cls-1" x1="25.64" y1="11.15" x2="25.08" y2="11.15"/><path class="cls-1" d="M25.64,10.62V2.78A2.42,2.42,0,0,0,23.23.37H2.85A2.42,2.42,0,0,0,.44,2.78v15a2.42,2.42,0,0,0,2.41,2.41H20.76v-.54H2.85A1.88,1.88,0,0,1,1,17.8v-15A1.88,1.88,0,0,1,2.85.91H23.23A1.88,1.88,0,0,1,25.1,2.78v7.84"/><path id="_Path_" data-name="&lt;Path&gt;" class="cls-2" d="M1.78,12.43"/><path class="cls-1" d="M13.58,23.43a.27.27,0,0,1-.27-.27V19.94a.27.27,0,0,1,.54,0v3.22A.27.27,0,0,1,13.58,23.43Z"/><path class="cls-1" d="M28.5,22.07H21.56a.22.22,0,0,1-.2-.23V15a.24.24,0,0,1,.06-.16l3.27-3.63a.19.19,0,0,1,.14-.07H28.5a.22.22,0,0,1,.2.23V21.84A.22.22,0,0,1,28.5,22.07Zm-6.74-.45h6.53v-10H24.91l-3.15,3.5Z"/><path class="cls-1" d="M24.82,15.26H21.56a.23.23,0,0,1,0-.45h3.06V11.4a.21.21,0,1,1,.41,0V15A.22.22,0,0,1,24.82,15.26Z"/><path class="cls-1" d="M29.72,23.43H22.37a.22.22,0,0,1-.2-.23V21.84a.21.21,0,1,1,.41,0V23h6.94V12.54h-1a.23.23,0,0,1,0-.45h1.23a.22.22,0,0,1,.2.23V23.2A.22.22,0,0,1,29.72,23.43Z"/><path class="cls-3" d="M.27,16.09a.27.27,0,0,0,0,.54H20.32v-.54Z"/><line class="cls-3" x1="20.32" y1="16.09" x2="20.32" y2="16.62"/><path class="cls-3" d="M18.5,23.06H7.78a.27.27,0,0,1,0-.54H18.5a.27.27,0,1,1,0,.54Z"/><path class="cls-3" d="M20.32,19.84"/><line class="cls-3" x1="25.2" y1="10.78" x2="24.64" y2="10.78"/><path class="cls-3" d="M25.2,10.25V2.41A2.42,2.42,0,0,0,22.79,0H2.41A2.42,2.42,0,0,0,0,2.41v15a2.42,2.42,0,0,0,2.41,2.41H20.32V19.3H2.41A1.88,1.88,0,0,1,.54,17.43v-15A1.88,1.88,0,0,1,2.41.54H22.79a1.88,1.88,0,0,1,1.88,1.88v7.84"/><path id="_Path_2" data-name="&lt;Path&gt;" class="cls-4" d="M1.34,12.06"/><path class="cls-3" d="M13.14,23.06a.27.27,0,0,1-.27-.27V19.57a.27.27,0,1,1,.54,0v3.22A.27.27,0,0,1,13.14,23.06Z"/><path class="cls-5" d="M28.21,21.7H21.26a.22.22,0,0,1-.2-.23V14.66a.24.24,0,0,1,.06-.16l3.27-3.63a.19.19,0,0,1,.14-.07h3.68a.22.22,0,0,1,.2.23V21.47A.22.22,0,0,1,28.21,21.7Zm-6.74-.45H28v-10H24.62l-3.15,3.5Z"/><path class="cls-5" d="M24.53,14.89H21.26a.23.23,0,0,1,0-.45h3.06V11a.21.21,0,1,1,.41,0v3.63A.22.22,0,0,1,24.53,14.89Z"/><path class="cls-5" d="M29.43,23.06H22.08a.22.22,0,0,1-.2-.23V21.47a.21.21,0,1,1,.41,0V22.6h6.94V12.17h-1a.23.23,0,0,1,0-.45h1.23a.22.22,0,0,1,.2.23V22.83A.22.22,0,0,1,29.43,23.06Z"/></svg>
