<svg id="Layer_1" data-name="Layer 1" xmlns="http://www.w3.org/2000/svg" viewBox="0 0 26.19 21.77" height="24" width="24"><defs><style>.cls-1{fill:#e3e9ea;}.cls-2{fill:#46525c;}.cls-3{fill:#277fc3;}</style></defs><title>import-options</title><path class="cls-1" d="M23.62,21.77H3A2.52,2.52,0,0,1,.4,19.3V2.84A2.52,2.52,0,0,1,3,.37H23.62a2.52,2.52,0,0,1,2.57,2.47V19.3A2.52,2.52,0,0,1,23.62,21.77ZM3,.92A2,2,0,0,0,1,2.84V19.3a2,2,0,0,0,2,1.92H23.62a2,2,0,0,0,2-1.92V2.84a2,2,0,0,0-2-1.92Z"/><path class="cls-1" d="M6.16,10.8H4a.27.27,0,1,1,0-.55H6.16a.27.27,0,1,1,0,.55Z"/><path class="cls-1" d="M5.07,8.6a.27.27,0,0,1-.27-.27V3.94a.27.27,0,0,1,.55,0V8.33A.27.27,0,0,1,5.07,8.6Z"/><path class="cls-1" d="M5.07,18.48a.27.27,0,0,1-.27-.27V12.72a.27.27,0,0,1,.55,0V18.2A.27.27,0,0,1,5.07,18.48Z"/><path class="cls-1" d="M11.65,15.18H9.46a.27.27,0,1,1,0-.55h2.19a.27.27,0,0,1,0,.55Z"/><path class="cls-1" d="M10.55,13a.27.27,0,0,1-.27-.27V3.94a.27.27,0,0,1,.55,0v8.78A.27.27,0,0,1,10.55,13Z"/><path class="cls-1" d="M10.55,18.48a.27.27,0,0,1-.27-.27v-1.1a.27.27,0,1,1,.55,0v1.1A.27.27,0,0,1,10.55,18.48Z"/><path class="cls-1" d="M17.14,8.6H14.94a.27.27,0,1,1,0-.55h2.19a.27.27,0,1,1,0,.55Z"/><path class="cls-1" d="M16,6.41a.27.27,0,0,1-.27-.27V3.94a.27.27,0,1,1,.55,0V6.13A.27.27,0,0,1,16,6.41Z"/><path class="cls-1" d="M16,18.48a.27.27,0,0,1-.27-.27V10.52a.27.27,0,0,1,.55,0V18.2A.27.27,0,0,1,16,18.48Z"/><path class="cls-1" d="M22.62,13H20.43a.27.27,0,0,1,0-.55h2.19a.27.27,0,0,1,0,.55Z"/><path class="cls-1" d="M21.53,10.8a.27.27,0,0,1-.27-.27V3.94a.27.27,0,0,1,.55,0v6.58A.27.27,0,0,1,21.53,10.8Z"/><path class="cls-1" d="M21.53,18.48a.27.27,0,0,1-.27-.27V14.91a.27.27,0,0,1,.55,0V18.2A.27.27,0,0,1,21.53,18.48Z"/><path class="cls-2" d="M23.22,21.4H2.57A2.52,2.52,0,0,1,0,18.93V2.47A2.52,2.52,0,0,1,2.57,0H23.22a2.52,2.52,0,0,1,2.57,2.47V18.93A2.52,2.52,0,0,1,23.22,21.4ZM2.57.55a2,2,0,0,0-2,1.92V18.93a2,2,0,0,0,2,1.92H23.22a2,2,0,0,0,2-1.92V2.47a2,2,0,0,0-2-1.92Z"/><path class="cls-3" d="M5.76,10.42H3.57a.27.27,0,0,1,0-.55H5.76a.27.27,0,0,1,0,.55Z"/><path class="cls-2" d="M4.66,8.23A.27.27,0,0,1,4.39,8V3.57a.27.27,0,0,1,.55,0V8A.27.27,0,0,1,4.66,8.23Z"/><path class="cls-2" d="M4.66,18.11a.27.27,0,0,1-.27-.27V12.34a.27.27,0,1,1,.55,0v5.49A.27.27,0,0,1,4.66,18.11Z"/><path class="cls-3" d="M11.25,14.81H9.05a.27.27,0,0,1,0-.55h2.19a.27.27,0,0,1,0,.55Z"/><path class="cls-2" d="M10.15,12.62a.27.27,0,0,1-.27-.27V3.57a.27.27,0,0,1,.55,0v8.78A.27.27,0,0,1,10.15,12.62Z"/><path class="cls-2" d="M10.15,18.11a.27.27,0,0,1-.27-.27v-1.1a.27.27,0,0,1,.55,0v1.1A.27.27,0,0,1,10.15,18.11Z"/><path class="cls-3" d="M16.73,8.23H14.54a.27.27,0,0,1,0-.55h2.19a.27.27,0,0,1,0,.55Z"/><path class="cls-2" d="M15.64,6a.27.27,0,0,1-.27-.27V3.57a.27.27,0,0,1,.55,0V5.76A.27.27,0,0,1,15.64,6Z"/><path class="cls-2" d="M15.64,18.11a.27.27,0,0,1-.27-.27V10.15a.27.27,0,0,1,.55,0v7.68A.27.27,0,0,1,15.64,18.11Z"/><path class="cls-3" d="M22.22,12.62H20a.27.27,0,0,1,0-.55h2.19a.27.27,0,0,1,0,.55Z"/><path class="cls-2" d="M21.12,10.42a.27.27,0,0,1-.27-.27V3.57a.27.27,0,0,1,.55,0v6.58A.27.27,0,0,1,21.12,10.42Z"/><path class="cls-2" d="M21.12,18.11a.27.27,0,0,1-.27-.27V14.54a.27.27,0,0,1,.55,0v3.29A.27.27,0,0,1,21.12,18.11Z"/></svg>
