<?xml version="1.0" encoding="utf-8"?>
<!-- Generator: Adobe Illustrator 23.0.1, SVG Export Plug-In . SVG Version: 6.00 Build 0)  -->
<svg version="1.1" id="Layer_1" xmlns="http://www.w3.org/2000/svg" xmlns:xlink="http://www.w3.org/1999/xlink" x="0px" y="0px"
	 viewBox="0 0 1920 1080" style="enable-background:new 0 0 1920 1080;" xml:space="preserve">
<g>
	<path d="M580.2,570.8H463.7v138.9h-89.2V364h89.2v129.1h116.5V364h89.2v345.8h-89.2L580.2,570.8L580.2,570.8z"/>
	<path d="M818.8,453.2c74.1,0,128,54.4,128,139.4v17.1H768.6c4.7,23.3,26.4,44.6,63.8,44.6c22.3,0,47.2-8.8,61.2-21.3l33.7,49.8
		c-24.9,22.3-66.4,33.2-104.7,33.2c-77.2,0-136.9-50.3-136.9-131.7C685.6,511.7,740.6,453.2,818.8,453.2z M767.5,557.9h103.2
		c-2.1-17.6-15-43-51.8-43C784.1,514.9,770.6,539.7,767.5,557.9z"/>
	<path d="M965.5,364h79.8v345.8h-79.8V364z"/>
	<path d="M1071.8,364h79.8v345.8h-79.8V364z"/>
	<path d="M1170.5,584.3c0-70.5,51.3-131.2,136.3-131.2c86.1,0,136.9,60.6,136.9,131.2S1392.8,716,1306.8,716
		C1221.8,716,1170.5,654.8,1170.5,584.3z M1361.7,584.3c0-33.2-19.7-60.6-54.9-60.6c-34.7,0-53.9,27.5-53.9,60.6
		c0,33.7,19.2,61.2,53.9,61.2C1342,645.5,1361.7,618,1361.7,584.3z"/>
	<path d="M1492.2,629.7c23.4,0,43.2,19.7,43.2,43.2c0,23.4-19.7,43.2-43.2,43.2c-23.4,0-43.2-19.7-43.2-43.2
		C1449,649.4,1468.8,629.7,1492.2,629.7z"/>
</g>
</svg>
